<?xml version="1.0" encoding="utf-8"?>
<!-- Generator: Adobe Illustrator 16.0.0, SVG Export Plug-In . SVG Version: 6.00 Build 0)  -->
<!DOCTYPE svg PUBLIC "-//W3C//DTD SVG 1.1//EN" "http://www.w3.org/Graphics/SVG/1.1/DTD/svg11.dtd">
<svg version="1.1" id="Capa_1" xmlns="http://www.w3.org/2000/svg" xmlns:xlink="http://www.w3.org/1999/xlink" x="0px" y="0px"
	 width="32px" height="32px" viewBox="0 0 32 32" enable-background="new 0 0 32 32" xml:space="preserve">
<path id="stroke" fill-rule="evenodd" clip-rule="evenodd" fill="none" stroke="#000000" stroke-linecap="round" stroke-miterlimit="10" d="
	M27.5,7.5c0,0,0,1,1,1s1-1,1-1c0-1-2-1-2-2s1-1,1-1s1,0,1,1 M21.5,7c0,0,0,1.5,1.5,1.5S24.5,7,24.5,7V4c0,0,0-1.5-1.5-1.5
	S21.5,4,21.5,4V7z M26.5,2.5v1 M18,2.5c-0.828,0-1.5,0.671-1.5,1.5s0.672,1.5,1.5,1.5s1.5-0.671,1.5-1.5S18.828,2.5,18,2.5z M19.5,7
	c0-0.829-0.672-1.5-1.5-1.5S16.5,6.171,16.5,7s0.672,1.5,1.5,1.5S19.5,7.829,19.5,7z M2.5,27.5c0,0,0,2,2,2h21c0,0,2,0,2-2v-14
	c0,0,0-2-2-2h-21c0,0-2,0-2,2S2.5,27.5,2.5,27.5z M23.5,29.5l-2-4h-13l-2,4 M11.5,18c0-1.381-1.119-2.5-2.5-2.5S6.5,16.619,6.5,18
	c0,1.38,1.119,2.5,2.5,2.5S11.5,19.38,11.5,18z M23.5,18c0-1.381-1.119-2.5-2.5-2.5s-2.5,1.119-2.5,2.5c0,1.38,1.119,2.5,2.5,2.5
	S23.5,19.38,23.5,18z M21,15.5H9 M21,20.5H9 M4.5,11.5v12h21v-12 M8,27.5h14"/>
</svg>
