<?xml version="1.0" encoding="utf-8"?>
<!-- Generator: Adobe Illustrator 16.0.0, SVG Export Plug-In . SVG Version: 6.00 Build 0)  -->
<!DOCTYPE svg PUBLIC "-//W3C//DTD SVG 1.1//EN" "http://www.w3.org/Graphics/SVG/1.1/DTD/svg11.dtd">
<svg version="1.1" id="Capa_1" xmlns="http://www.w3.org/2000/svg" xmlns:xlink="http://www.w3.org/1999/xlink" x="0px" y="0px"
	 width="32px" height="32px" viewBox="0 0 32 32" enable-background="new 0 0 32 32" xml:space="preserve">
<path id="stroke_4_" fill="none" stroke="#000000" stroke-miterlimit="10" d="M15.5,9.5c11,0,13,10,13,13c0,3.001-5,6-13,6
	s-13-3-13-6S4.5,9.5,15.5,9.5z M2.781,20.734C3.938,23.271,8.604,25.5,15.5,25.5c6.999,0,11.703-2.296,12.77-4.881 M15.5,9V6
	 M15.5,9.5c-8,6-8,15-8,15 M23.5,24.5c0,0,0-9-8-15 M15.5,5.5c0,0-4-2-6-2c0,0-2,0-2,2s2,2,2,2C11.5,7.5,15.5,5.5,15.5,5.5z
	 M21.5,7.5c0,0,2,0,2-2s-2-2-2-2c-2,0-6,2-6,2S19.5,7.5,21.5,7.5z"/>
</svg>
