<?xml version="1.0" encoding="utf-8"?>
<!-- Generator: Adobe Illustrator 16.0.0, SVG Export Plug-In . SVG Version: 6.00 Build 0)  -->
<!DOCTYPE svg PUBLIC "-//W3C//DTD SVG 1.1//EN" "http://www.w3.org/Graphics/SVG/1.1/DTD/svg11.dtd">
<svg version="1.1" id="Capa_1" xmlns="http://www.w3.org/2000/svg" xmlns:xlink="http://www.w3.org/1999/xlink" x="0px" y="0px"
	 width="32px" height="32px" viewBox="0 0 32 32" enable-background="new 0 0 32 32" xml:space="preserve">
<path fill="none" stroke="#000000" stroke-linecap="round" stroke-linejoin="round" stroke-miterlimit="10" d="M8.667,11.75
	C5.612,11.759,2.5,11.509,2.5,11c0-1,2-3,6-3c2.344,0,4.001,0.687,4.972,1.457 M13.958,6.904c-0.375-0.607-0.865-1.237-1.495-1.866
	c-2.854-2.854-5.708-2.854-6.421-2.14c-0.377,0.377,1.835,2.944,4.111,5.177 M8.537,12.037c-2.854,2.854-2.854,5.708-2.141,6.42
	c0.713,0.714,9.275-7.848,8.561-8.561C14.244,9.183,11.39,9.183,8.537,12.037z M14.439,11.427C17.266,11.971,25.5,11.829,25.5,11
	c0-1-2-3-6-3c-2.27,0-3.896,0.644-4.877,1.384 M17.906,8.016c2.255-2.219,4.425-4.745,4.051-5.118
	c-0.713-0.713-3.566-0.714-6.421,2.14c-1.58,1.581-2.285,3.161-2.479,4.378 M14.117,11.805c2.207,2.698,6.963,7.177,7.486,6.652
	c0.714-0.713,0.714-3.566-2.141-6.42c-0.059-0.059-0.117-0.116-0.176-0.172 M12.5,22.766c0-2.227,0-9.266,0-9.266 M15.5,24
	c0-2,0-10.5,0-10.5 M27.5,28c0-0.828-0.672-1.5-1.5-1.5s-1.5,0.672-1.5,1.5s0.672,1.5,1.5,1.5S27.5,28.828,27.5,28z M29.5,23.5l-2-1
	v5 M2.5,27.5c0,0,2-2,7-2s8,4,13,4 M22.5,26.5c-5,0-8-4-13-4s-7,2-7,2"/>
</svg>
