<?xml version="1.0" encoding="utf-8"?>
<!-- Generator: Adobe Illustrator 16.0.0, SVG Export Plug-In . SVG Version: 6.00 Build 0)  -->
<!DOCTYPE svg PUBLIC "-//W3C//DTD SVG 1.1//EN" "http://www.w3.org/Graphics/SVG/1.1/DTD/svg11.dtd">
<svg version="1.1" id="Capa_1" xmlns="http://www.w3.org/2000/svg" xmlns:xlink="http://www.w3.org/1999/xlink" x="0px" y="0px"
	 width="32px" height="32px" viewBox="0 0 32 32" enable-background="new 0 0 32 32" xml:space="preserve">
<path id="stroke" fill="none" stroke="#000000" stroke-miterlimit="10" d="M2.5,6.5c0,0,0-2,2-2h23c0,0,2,0,2,2v19c0,0,0,2-2,2h-23
	c0,0-2,0-2-2V6.5z M6.5,7v7 M5,9.5h3 M12.5,7v7 M11,11.5h3 M18.5,7v7 M17,10.5h3 M24.5,7v7 M23,9.5h3 M26.5,22
	c0-1.381-1.119-2.5-2.5-2.5s-2.5,1.119-2.5,2.5s1.119,2.5,2.5,2.5S26.5,23.381,26.5,22z M18.5,27.5v-7c0-1-1-1-1-1h-10c-1,0-1,1-1,1
	v7 M6.5,21.5h12 M6.5,23.5h12 M6.5,25.5h12 M9.5,19.5v8 M12.5,19.5v8 M15.5,19.5v8 M2.5,16.5h27"/>
</svg>
