<?xml version="1.0" encoding="utf-8"?>
<!-- Generator: Adobe Illustrator 16.0.0, SVG Export Plug-In . SVG Version: 6.00 Build 0)  -->
<!DOCTYPE svg PUBLIC "-//W3C//DTD SVG 1.1//EN" "http://www.w3.org/Graphics/SVG/1.1/DTD/svg11.dtd">
<svg version="1.1" id="Capa_1" xmlns="http://www.w3.org/2000/svg" xmlns:xlink="http://www.w3.org/1999/xlink" x="0px" y="0px"
	 width="32px" height="32px" viewBox="0 0 32 32" enable-background="new 0 0 32 32" xml:space="preserve">
<path id="stroke" fill="none" stroke="#000000" stroke-miterlimit="10" d="M16,12.5c-7.456,0-13.5-1.791-13.5-4s6.044-4,13.5-4
	s13.5,1.791,13.5,4S23.456,12.5,16,12.5z M2.5,8.5v16c0,2.209,6.044,4,13.5,4s13.5-1.791,13.5-4v-16 M2.5,21.5
	c0,2.209,6.044,4,13.5,4s13.5-1.791,13.5-4 M29.375,21.732C27.677,19.111,26.863,14.5,24,14.5c-4.123,0-3.877,8-8,8s-3.877-8-8-8
	c-2.943,0-3.721,4.873-5.521,7.447"/>
</svg>
