<?xml version="1.0" encoding="utf-8"?>
<!-- Generator: Adobe Illustrator 16.0.0, SVG Export Plug-In . SVG Version: 6.00 Build 0)  -->
<!DOCTYPE svg PUBLIC "-//W3C//DTD SVG 1.1//EN" "http://www.w3.org/Graphics/SVG/1.1/DTD/svg11.dtd">
<svg version="1.1" id="Capa_1" xmlns="http://www.w3.org/2000/svg" xmlns:xlink="http://www.w3.org/1999/xlink" x="0px" y="0px"
	 width="32px" height="32px" viewBox="0 0 32 32" enable-background="new 0 0 32 32" xml:space="preserve">
<path id="stroke" fill="none" stroke="#000000" stroke-miterlimit="10" d="M14.5,5.61v10.7l-6.46,6.52C6.46,21,5.5,18.61,5.5,16
	C5.5,10.71,9.41,6.33,14.5,5.61z M14.5,26.39v-5.81l-4.19,4.24C11.55,25.62,12.97,26.17,14.5,26.39z M17.5,26.39
	c1.53-0.22,2.95-0.77,4.19-1.58L17.5,20.62V26.39z M17.5,5.61v10.77l6.46,6.46c1.58-1.83,2.54-4.22,2.54-6.84
	C26.5,10.71,22.59,6.33,17.5,5.61z M29.5,16c0-7.457-6.043-13.5-13.5-13.5S2.5,8.543,2.5,16S8.543,29.5,16,29.5S29.5,23.457,29.5,16
	z"/>
</svg>
