<?xml version="1.0" encoding="utf-8"?>
<!-- Generator: Adobe Illustrator 16.0.0, SVG Export Plug-In . SVG Version: 6.00 Build 0)  -->
<!DOCTYPE svg PUBLIC "-//W3C//DTD SVG 1.1//EN" "http://www.w3.org/Graphics/SVG/1.1/DTD/svg11.dtd">
<svg version="1.1" id="Capa_1" xmlns="http://www.w3.org/2000/svg" xmlns:xlink="http://www.w3.org/1999/xlink" x="0px" y="0px"
	 width="32px" height="32px" viewBox="0 0 32 32" enable-background="new 0 0 32 32" xml:space="preserve">
<path id="stroke_1_" fill="none" stroke="#000000" stroke-linecap="round" stroke-miterlimit="10" d="M5.5,16
	c0,5.787,4.698,10.5,10.5,10.5 M25.5,16c0-5.249-4.264-9.5-9.5-9.5 M24.67,19.879c-0.366,0.816-0.845,1.572-1.416,2.246 M16,29.5
	C8.544,29.5,2.5,23.456,2.5,16C2.5,8.544,8.544,2.5,16,2.5c7.456,0,13.5,6.044,13.5,13.5C29.5,23.456,23.456,29.5,16,29.5z M21.5,16
	c0-3.038-2.467-5.5-5.5-5.5c-3.038,0-5.5,2.462-5.5,5.5c0,3.033,2.462,5.5,5.5,5.5C19.033,21.5,21.5,19.033,21.5,16z M17.5,16
	c0-0.828-0.672-1.5-1.5-1.5c-0.828,0-1.5,0.672-1.5,1.5c0,0.828,0.672,1.5,1.5,1.5C16.828,17.5,17.5,16.828,17.5,16z"/>
</svg>
