<?xml version="1.0" encoding="utf-8"?>
<!-- Generator: Adobe Illustrator 16.0.0, SVG Export Plug-In . SVG Version: 6.00 Build 0)  -->
<!DOCTYPE svg PUBLIC "-//W3C//DTD SVG 1.1//EN" "http://www.w3.org/Graphics/SVG/1.1/DTD/svg11.dtd">
<svg version="1.1" id="Capa_1" xmlns="http://www.w3.org/2000/svg" xmlns:xlink="http://www.w3.org/1999/xlink" x="0px" y="0px"
	 width="32px" height="32px" viewBox="0 0 32 32" enable-background="new 0 0 32 32" xml:space="preserve">
<path fill="none" stroke="#000000" stroke-linecap="round" stroke-linejoin="round" stroke-miterlimit="10" d="M9.695,20.724
	L20.437,4.295c1.634-2.829,3.993-1.467,3.993-1.467c2.091,1.208,0.434,4.038,2.32,5.125l2.175,1.242
	c0.942,0.544,0.397,1.489,0.397,1.489s-0.543,0.942-1.486,0.397l-5.287-3.052 M22.723,6.873c0,0-0.445,1.148-1.12,2.904
	 M19.938,14.125c-0.279,0.731-0.502,1.327-0.79,2.09 M17.629,20.266c-0.286,0.771-0.436,1.204-0.691,1.906 M15.5,11.5l-10-1
	c0,0,0.569,5.617-0.121,8.989c-0.436,2.133-2.16,6.011,1.449,8.38c3.303,2.168,6.722,2.054,8.449-1.271 M5.94,13.555L13.5,14.5
	 M26.893,10.537l1.09-1.887 M20.506,19.422c0.602-1.041,0.244-2.373-0.797-2.975c-1.042-0.601-2.375-0.243-2.975,0.797
	c-0.602,1.043-0.245,2.373,0.795,2.975C18.573,20.821,19.903,20.463,20.506,19.422z M22.829,13.22
	c0.602-1.042,0.244-2.373-0.796-2.975c-1.043-0.602-2.375-0.245-2.976,0.797c-0.603,1.041-0.244,2.373,0.797,2.974
	C20.896,14.618,22.228,14.261,22.829,13.22z M18.183,25.624c0.602-1.041,0.243-2.373-0.798-2.975
	c-1.042-0.602-2.375-0.244-2.975,0.796c-0.601,1.042-0.244,2.376,0.797,2.976C16.248,27.022,17.581,26.665,18.183,25.624z M14.5,2.5
	v2 M13.5,3.5h2 M22.5,26.5v2 M21.5,27.5h2 M4.5,4.5v2 M3.5,5.5h2 M27.5,19.5v4 M25.5,21.5h4"/>
</svg>
