<?xml version="1.0" encoding="utf-8"?>
<!-- Generator: Adobe Illustrator 16.0.0, SVG Export Plug-In . SVG Version: 6.00 Build 0)  -->
<!DOCTYPE svg PUBLIC "-//W3C//DTD SVG 1.1//EN" "http://www.w3.org/Graphics/SVG/1.1/DTD/svg11.dtd">
<svg version="1.1" id="Capa_1" xmlns="http://www.w3.org/2000/svg" xmlns:xlink="http://www.w3.org/1999/xlink" x="0px" y="0px"
	 width="32px" height="32px" viewBox="0 0 32 32" enable-background="new 0 0 32 32" xml:space="preserve">
<path id="stroke_1_" fill="none" stroke="#000000" stroke-linecap="round" stroke-linejoin="round" stroke-miterlimit="10" d="
	M14.5,10.5c0,0,0-2,2-2c2,0,2,2,2,2v6c0,0,0,2-2,2c-2,0-2-2-2-2V10.5z M18.5,16.5c0,0,0,2,2,2s2-2,2-2v-6c0,0,0-2-2-2s-2,2-2,2V16.5
	z M14.5,11.5v-7c0,0,0-2-2-2s-2,2-2,2l0,13.188l-3.586-3.602c-0.78-0.781-2.048-0.781-2.828,0c-0.781,0.781-0.648,1.789,0,2.828
	C9.667,26.042,12.5,24.5,12.5,26.5v3h12v-3c0-2,2-2,2-6v-16c0,0,0-2-2-2s-2,2-2,2v12 M12.5,26.5h12 M21.5,26.5v3 M20.5,11.5h2
	 M16.5,11.5h2"/>
</svg>
