<?xml version="1.0" encoding="utf-8"?>
<!-- Generator: Adobe Illustrator 16.0.0, SVG Export Plug-In . SVG Version: 6.00 Build 0)  -->
<!DOCTYPE svg PUBLIC "-//W3C//DTD SVG 1.1//EN" "http://www.w3.org/Graphics/SVG/1.1/DTD/svg11.dtd">
<svg version="1.1" id="Capa_1" xmlns="http://www.w3.org/2000/svg" xmlns:xlink="http://www.w3.org/1999/xlink" x="0px" y="0px"
	 width="32px" height="32px" viewBox="0 0 32 32" enable-background="new 0 0 32 32" xml:space="preserve">
<path fill="none" stroke="#000000" stroke-linecap="round" stroke-miterlimit="10" d="M5.5,11.5v2 M4.5,12.5h2 M26.5,21.5v2
	 M25.5,22.5h2 M9.5,2.5v4 M7.5,4.5h4 M19.5,24.5v4 M17.5,26.5h4 M19.243,16.774c0.67,0.669,0,1.34,0,1.34S7.188,28.83,5.849,27.491
	c-1.339-1.34-1.339-1.34-1.339-1.34c-1.339-1.339,8.707-12.726,9.376-13.396c0.67-0.669,1.34,0,1.34,0L19.243,16.774z M12.1,14.989
	l4.991,4.993 M6.77,21.715l3.557,3.556 M5.179,26.821L2.5,29.5 M19.79,17.351c2.571,0.751,5.463,0.112,7.491-1.916
	c2.958-2.958,2.958-7.757,0-10.715c-2.959-2.958-7.758-2.959-10.717,0c-2.027,2.027-2.665,4.92-1.914,7.491 M16.564,4.72
	l10.717,10.715"/>
</svg>
