<?xml version="1.0" encoding="utf-8"?>
<!-- Generator: Adobe Illustrator 16.0.0, SVG Export Plug-In . SVG Version: 6.00 Build 0)  -->
<!DOCTYPE svg PUBLIC "-//W3C//DTD SVG 1.1//EN" "http://www.w3.org/Graphics/SVG/1.1/DTD/svg11.dtd">
<svg version="1.1" id="Capa_1" xmlns="http://www.w3.org/2000/svg" xmlns:xlink="http://www.w3.org/1999/xlink" x="0px" y="0px"
	 width="32px" height="32px" viewBox="0 0 32 32" enable-background="new 0 0 32 32" xml:space="preserve">
<path id="stroke" fill="none" stroke="#000000" stroke-linecap="round" stroke-miterlimit="10" d="M3.65,28.558
	c-1.534-1.533-1.534-4.021,0-5.554c1.533-1.534,4.021-1.534,5.554,0c1.534,1.533,1.534,4.021,0,5.554
	C7.671,30.092,5.184,30.092,3.65,28.558z M14.758,10.507L5.733,20.922c-1.533,1.532-1.533,4.019,0,5.553
	c1.151,1.15,2.84,1.438,4.26,0.859 M9.205,28.558L23.09,16.062 M15.453,7.037c0,0-0.694,0.694,0,1.388l1.388,1.389
	c0,0,1.389,1.388,2.776,0c0,0,1.39-1.389,2.778-2.777c1.388-1.388,3.123,0.347,3.123,0.347s1.735,1.735,0.348,3.124
	c-1.389,1.389-2.776,0-4.166,1.389c-1.389,1.388,0,2.776,0,2.776l1.39,1.39c0,0,0.693,0.694,1.388,0l3.819-3.819
	c0,0,3.123-3.124-0.694-6.942c-3.819-3.819-6.597-3.818-9.373-1.042L15.453,7.037z"/>
</svg>
