<?xml version="1.0" encoding="utf-8"?>
<!-- Generator: Adobe Illustrator 16.0.0, SVG Export Plug-In . SVG Version: 6.00 Build 0)  -->
<!DOCTYPE svg PUBLIC "-//W3C//DTD SVG 1.1//EN" "http://www.w3.org/Graphics/SVG/1.1/DTD/svg11.dtd">
<svg version="1.1" id="Capa_1" xmlns="http://www.w3.org/2000/svg" xmlns:xlink="http://www.w3.org/1999/xlink" x="0px" y="0px"
	 width="32px" height="32px" viewBox="0 0 32 32" enable-background="new 0 0 32 32" xml:space="preserve">
<path fill="none" stroke="#000000" stroke-linecap="round" stroke-linejoin="round" stroke-miterlimit="10" d="M10.5,13.5
	c0,0,3,0,3,3c0,0,0,6-5,6s-5-6-5-6s0-3,3-3H10.5z M21.5,13.5c-3,0-3,3-3,3s0,6,5,6s5-6,5-6c0-3-3-3-3-3H21.5z M13.5,16.5h5
	 M10.5,13.5h12 M4.484,19.594l6.75-5.781 M19.5,19.609l6.688-5.75 M10.5,9.5l-2-2l-3.938,6.578 M27.469,14.078L23.531,7.5l-2,2
	 M15.5,23.5v2 M14.5,24.5h2 M27.5,2.5v2 M26.5,3.5h2 M5.5,24.5v4 M3.5,26.5h4 M4.5,3.5v2 M3.5,4.5h2 M25.5,25.5v2 M24.5,26.5h2
	 M17.5,3.5v4 M15.5,5.5h4"/>
</svg>
