<?xml version="1.0" encoding="utf-8"?>
<!-- Generator: Adobe Illustrator 16.0.0, SVG Export Plug-In . SVG Version: 6.00 Build 0)  -->
<!DOCTYPE svg PUBLIC "-//W3C//DTD SVG 1.1//EN" "http://www.w3.org/Graphics/SVG/1.1/DTD/svg11.dtd">
<svg version="1.1" id="Capa_1" xmlns="http://www.w3.org/2000/svg" xmlns:xlink="http://www.w3.org/1999/xlink" x="0px" y="0px"
	 width="32px" height="32px" viewBox="0 0 32 32" enable-background="new 0 0 32 32" xml:space="preserve">
<path id="stroke" fill="none" stroke="#000000" stroke-linecap="round" stroke-linejoin="round" stroke-miterlimit="10" d="
	M18.5,16.5c0,1-2,3-3,3s-3-2-3-3s3-1,3-1S18.5,15.5,18.5,16.5z M12.5,16.5l1-6h-5 M22.5,10.5h-5l1,6 M15.5,25.5c4,0,7-4,7-15
	c0-5-7-5-7-5s-7,0-7,5C8.5,21.5,11.5,25.5,15.5,25.5 M15.5,1.5c-12,0-13,10-13,10l3-1c-3,2-3,7-3,7l2-1c0,0-2,3-1,8l2-2c0,0-1,3,4,7
	v-3c0,0,2,3,6,4c4-1,6-4,6-4v3c5-4,4-7,4-7l2,2c1-5-1-8-1-8l2,1c0,0,0-5-3-7l3,1C28.5,11.5,27.5,1.5,15.5,1.5 M9.82,20.465
	c0.544,0.723,1.73,2.035,3.18,2.035c2,0,2.5-3,2.5-3l0,0l0,0 M15.5,19.5L15.5,19.5L15.5,19.5c0,0,0.5,3,2.5,3
	c1.53,0,2.769-1.464,3.266-2.151 M8.703,12.5H11.5 M19.5,12.5h2.766"/>
</svg>
