<?xml version="1.0" encoding="utf-8"?>
<!-- Generator: Adobe Illustrator 16.0.0, SVG Export Plug-In . SVG Version: 6.00 Build 0)  -->
<!DOCTYPE svg PUBLIC "-//W3C//DTD SVG 1.1//EN" "http://www.w3.org/Graphics/SVG/1.1/DTD/svg11.dtd">
<svg version="1.1" id="Capa_1" xmlns="http://www.w3.org/2000/svg" xmlns:xlink="http://www.w3.org/1999/xlink" x="0px" y="0px"
	 width="32px" height="32px" viewBox="0 0 32 32" enable-background="new 0 0 32 32" xml:space="preserve">
<path id="stroke" fill="none" stroke="#000000" stroke-miterlimit="10" d="M24.5,16.5c0,4-8.5,4-8.5,4s-8.5,0-8.5-4
	s3.222-10,5.333-10c2.667,0,2.667,2,3.167,2s0.5-2,3.167-2C21.277,6.5,24.5,12.5,24.5,16.5z M7.969,13.979
	C9.751,16.5,16,16.5,16,16.5s6.417,0,8.1-2.624 M7.349,16.661C4.385,17.578,2.5,18.957,2.5,20.5c0,2.762,6.044,5,13.5,5
	s13.5-2.238,13.5-5c0-1.535-1.866-2.908-4.804-3.825"/>
</svg>
