<?xml version="1.0" encoding="utf-8"?>
<!-- Generator: Adobe Illustrator 16.0.0, SVG Export Plug-In . SVG Version: 6.00 Build 0)  -->
<!DOCTYPE svg PUBLIC "-//W3C//DTD SVG 1.1//EN" "http://www.w3.org/Graphics/SVG/1.1/DTD/svg11.dtd">
<svg version="1.1" id="Capa_1" xmlns="http://www.w3.org/2000/svg" xmlns:xlink="http://www.w3.org/1999/xlink" x="0px" y="0px"
	 width="32px" height="32px" viewBox="0 0 32 32" enable-background="new 0 0 32 32" xml:space="preserve">
<path id="stroke_1_" fill="none" stroke="#000000" stroke-miterlimit="10" d="M15.5,29.5c-7.18,0-13-5.82-13-13s5.82-13,13-13
	s13,5.82,13,13S22.68,29.5,15.5,29.5z M25.5,16.5c0-5.522-4.479-10-10-10c-5.522,0-10,4.478-10,10c0,5.521,4.478,10,10,10
	C21.021,26.5,25.5,22.021,25.5,16.5z M23,16.5c0-4.142-3.36-7.5-7.5-7.5C11.358,9,8,12.358,8,16.5c0,4.14,3.358,7.5,7.5,7.5
	C19.64,24,23,20.64,23,16.5z M15.5,6.5v2 M23.5,16.5h2 M5.5,16.5h2 M8.5,9.5L10,11 M22.5,9.5L21,11 M8.5,23.5L10,22 M22.5,23.5
	L21,22 M14.021,17.949c0.732,0.732,4.394,1.464,4.394,1.464s-0.733-3.66-1.465-4.392c-0.807-0.81-2.12-0.809-2.929,0
	C13.212,15.829,13.213,17.141,14.021,17.949z"/>
</svg>
