<?xml version="1.0" encoding="utf-8"?>
<!-- Generator: Adobe Illustrator 16.0.0, SVG Export Plug-In . SVG Version: 6.00 Build 0)  -->
<!DOCTYPE svg PUBLIC "-//W3C//DTD SVG 1.1//EN" "http://www.w3.org/Graphics/SVG/1.1/DTD/svg11.dtd">
<svg version="1.1" id="Capa_1" xmlns="http://www.w3.org/2000/svg" xmlns:xlink="http://www.w3.org/1999/xlink" x="0px" y="0px"
	 width="32px" height="32px" viewBox="0 0 32 32" enable-background="new 0 0 32 32" xml:space="preserve">
<g id="color">
	<path fill="#A35B21" d="M10.93,29.5c-2.884,0-5.646-2.729-5.674-2.757c-2.289-2.432-4.018-6.148-1.45-8.717
		c1.202-1.202,2.3-1.412,3.27-1.598c0.797-0.154,1.534-0.296,2.18-0.942c0.446-0.446,0.586-0.833,0.748-1.282
		c0.228-0.639,0.505-1.419,1.791-2.716c0.735-0.736,1.582-1.108,2.515-1.108c0.998,0,2.632,0.445,4.753,2.566
		c0.361,0.362,1.453,1.455,2.09,2.812c0.812,1.726,0.596,3.222-0.642,4.447c-1.27,1.28-2.06,1.561-2.694,1.786
		c-0.427,0.154-0.833,0.302-1.294,0.763c-0.655,0.646-0.797,1.376-0.948,2.147c-0.19,1.003-0.398,2.1-1.604,3.294
		C13.107,29.061,12.083,29.5,10.93,29.5z"/>
	<path fill="#663616" d="M13.251,21.808c-0.827,0-1.62-0.318-2.175-0.874c-0.585-0.585-0.907-1.36-0.907-2.184
		c0-0.817,0.322-1.589,0.907-2.173c0.571-0.583,1.344-0.907,2.173-0.907c0.823,0,1.599,0.322,2.184,0.907
		c0.58,0.591,0.896,1.362,0.896,2.173c0,0.817-0.317,1.592-0.893,2.18C14.872,21.489,14.077,21.808,13.251,21.808z"/>
	<path fill="#8C4A1E" d="M20.069,14.053c-0.431-0.539-0.831-0.938-1.003-1.109c-0.371-0.371-0.739-0.698-1.125-1l-0.444-0.349
		L22.7,6.403l2.908,2.907l-5.19,5.178L20.069,14.053z"/>
	<path fill="#663616" d="M26.329,9.607c-0.27,0-0.533-0.104-0.724-0.285l-2.91-2.919c-0.373-0.354-0.41-0.963-0.074-1.377
		l0.056-0.069l3.666-2.196c0.269-0.177,0.526-0.268,0.771-0.268c0.253,0,0.484,0.098,0.67,0.284l1.45,1.45
		c0.354,0.354,0.353,0.84-0.002,1.446l-2.185,3.645l-0.063,0.054C26.805,9.523,26.572,9.607,26.329,9.607z"/>
</g>
<path id="stroke_2_" fill="none" stroke="#000000" stroke-linecap="round" stroke-miterlimit="10" d="M13.978,28.197
	c-3.632,3.632-8.717-1.452-8.717-1.452s-5.085-5.085-1.453-8.718c2.179-2.178,3.995-1.089,5.448-2.542
	c1.09-1.09,0.364-1.817,2.542-3.996c2.906-2.905,6.539,0.727,7.264,1.453c0.727,0.726,4.359,4.358,1.453,7.265
	c-2.179,2.179-2.905,1.451-3.996,2.542C15.067,24.202,16.157,26.019,13.978,28.197z M22.694,6.406L17.61,11.49 M20.516,14.396
	l5.085-5.084 M29.233,5.679c0.307-0.534,0.401-1.051,0-1.453L27.78,2.773c-0.401-0.401-0.932-0.34-1.453,0l-3.633,2.18
	c-0.401,0.401-0.401,1.052,0,1.453l2.906,2.905c0.401,0.401,1.052,0.401,1.453,0L29.233,5.679z M15.43,20.934
	c1.204-1.203,1.204-3.156,0-4.358c-1.204-1.203-3.156-1.203-4.359,0c-1.203,1.202-1.203,3.155,0,4.358
	C12.275,22.136,14.227,22.136,15.43,20.934z M7.077,19.844l5.448,5.448 M22.694,9.311l1.453,1.453 M21.242,10.764l1.452,1.453"/>
</svg>
