<?xml version="1.0" encoding="utf-8"?>
<!-- Generator: Adobe Illustrator 16.0.0, SVG Export Plug-In . SVG Version: 6.00 Build 0)  -->
<!DOCTYPE svg PUBLIC "-//W3C//DTD SVG 1.1//EN" "http://www.w3.org/Graphics/SVG/1.1/DTD/svg11.dtd">
<svg version="1.1" id="Capa_1" xmlns="http://www.w3.org/2000/svg" xmlns:xlink="http://www.w3.org/1999/xlink" x="0px" y="0px"
	 width="32px" height="32px" viewBox="0 0 32 32" enable-background="new 0 0 32 32" xml:space="preserve">
<g id="color">
	<rect x="2.5" y="20.5" fill="#8C8C8C" width="27" height="4"/>
	<path fill="#8C8C8C" d="M26.5,8.5v8c0,0.58-0.38,0.97-0.98,1H6.5c-0.58,0-0.97-0.38-1-0.98V8.5H26.5z"/>
	<path fill="#8C8C8C" d="M2.5,15.5v-4h3v4H2.5z M29.5,15.5v-4h-3v4H29.5z"/>
	<path fill="#A35B21" d="M2.5,20.5v-5h3v1c0,0.01,0.011,1,1,1h19c0.01,0,1-0.012,1-1v-1h3v5H2.5z M29.5,11.5v-1c0-1.579-1.257-2-2-2
		h-1v3H29.5z M5.5,11.5v-3h-1c-1.579,0-2,1.257-2,2v1H5.5z"/>
	<path fill="#565656" d="M24.5,24.5v-2h3v2H24.5z M19.5,24.5v-2h3v2H19.5z M14.5,24.5v-2h3v2H14.5z M9.5,24.5v-2h3v2H9.5z M4.5,24.5
		v-2h3v2H4.5z"/>
	<rect x="5.5" y="8.5" opacity="0.2" fill="#FFFFFF" width="21" height="2.5"/>
</g>
<path id="stroke_1_" fill="none" stroke="#000000" stroke-miterlimit="10" d="M2.5,10.5c0,0,0-2,2-2h23c0,0,2,0,2,2v14h-27V10.5z
	 M2.5,20.5h27 M7.5,24.5v-2h-3v2 M12.5,24.5v-2h-3v2 M17.5,24.5v-2h-3v2 M22.5,24.5v-2h-3v2 M27.5,24.5v-2h-3v2 M5.5,8.5v8
	c0,0,0,1,1,1h19c0,0,1,0,1-1s0-8,0-8 M5.5,15.5h-3 M5.5,11.5h-3 M29.5,15.5h-3 M29.5,11.5h-3"/>
</svg>
