<?xml version="1.0" encoding="utf-8"?>
<!-- Generator: Adobe Illustrator 16.0.0, SVG Export Plug-In . SVG Version: 6.00 Build 0)  -->
<!DOCTYPE svg PUBLIC "-//W3C//DTD SVG 1.1//EN" "http://www.w3.org/Graphics/SVG/1.1/DTD/svg11.dtd">
<svg version="1.1" id="Capa_1" xmlns="http://www.w3.org/2000/svg" xmlns:xlink="http://www.w3.org/1999/xlink" x="0px" y="0px"
	 width="32px" height="32px" viewBox="0 0 32 32" enable-background="new 0 0 32 32" xml:space="preserve">
<g id="color">
	<circle fill="#2994FF" cx="26" cy="28" r="1.5"/>
	<path fill="#A35B21" d="M14.785,23.901c-0.677-0.323-1.315-0.588-1.949-0.809L12.5,22.976v-9.578l0.128-0.143
		c0.355-0.395,0.691-0.77,0.987-1.125l0.381-0.457l0.385,0.453c0.274,0.324,0.608,0.697,0.981,1.089L15.5,13.36v10.883
		L14.785,23.901z"/>
	<path fill="#48BF41" d="M21.14,18.403c-1.084-0.503-4.465-3.621-6.578-6.067l-0.855-0.99l1.298,0.167
		c1.011,0.131,2.455,0.217,3.963,0.236l0.192,0.002l0.292,0.272c1.613,1.613,2.203,3.079,2.417,4.026
		c0.274,1.195,0.045,1.875-0.065,2.112l-0.212,0.451L21.14,18.403z M14.435,9.564l0.184-0.184c0.549-0.41,1.519-0.954,3.018-1.219
		l0.128-0.002l0.025-0.025l0.26-0.046v-0.21c2.204-2.19,3.52-3.837,3.85-4.508l0.225-0.458l-0.462-0.216
		c-0.271-0.126-0.634-0.193-1.049-0.193c-0.334,0-0.692,0.043-1.063,0.129c-0.946,0.212-2.411,0.802-4.014,2.404
		c-1.178,1.178-1.994,2.492-2.358,3.799l-0.112,0.401l0.322,0.158L13.5,9.5h0.2c0.16,0,0.32,0.017,0.463,0.042L14.435,9.564z
		 M8.831,11.752l0.145-0.131c1.053-0.951,2.161-1.597,3.292-1.92l1.283-0.367l-1.208-0.567C11.258,8.258,9.965,8,8.5,8
		c-3.643,0-5.571,1.628-5.932,2.654l-0.166,0.472l0.472,0.166c0.728,0.256,2.936,0.432,5.761,0.458L8.831,11.752z"/>
	<path fill="#54D34A" d="M19.39,11.75c-1.742,0-3.298-0.083-4.379-0.235l-0.788-0.11l0.441-0.662c0.237-0.356,0.299-0.549,0.312-0.6
		c0.046-0.163,0.001-0.229-0.02-0.25L14.513,9.45l0.521-0.344C15.84,8.602,17.269,8,19.5,8c3.633,0,5.566,1.627,5.931,2.652
		l0.165,0.462l-0.459,0.173C24.289,11.607,21.64,11.75,19.39,11.75z M13.069,9.143l0.185-0.555c0.157-0.471,0.354-0.917,0.603-1.366
		l0.148-0.267l-0.169-0.253c-0.39-0.585-0.852-1.146-1.373-1.666c-1.602-1.602-3.067-2.192-4.011-2.404
		C8.08,2.547,7.721,2.503,7.387,2.503c-0.416,0-0.778,0.067-1.049,0.193L5.876,2.913l0.225,0.458C6.44,4.06,7.808,5.764,10.1,8.017
		l0.109,0.108l0.151,0.027c0.817,0.15,1.554,0.393,2.19,0.722L13.069,9.143z M6.406,18.595l0.437-0.184
		c1.541-0.646,7.422-6.528,8.068-8.068l0.186-0.442l-0.434-0.204C14.392,9.57,14.018,9.5,13.61,9.5
		c-0.354,0-0.714,0.045-1.059,0.132c-0.947,0.212-2.413,0.802-4.014,2.404c-0.711,0.711-1.288,1.461-1.716,2.233
		c-0.322,0.591-0.554,1.189-0.687,1.774c-0.199,0.833-0.174,1.627,0.066,2.124L6.406,18.595z"/>
</g>
<path id="stroke" fill="none" stroke="#000000" stroke-linecap="round" stroke-linejoin="round" stroke-miterlimit="10" d="
	M8.667,11.75C5.612,11.759,2.5,11.509,2.5,11c0-1,2-3,6-3c2.344,0,4.001,0.687,4.972,1.457 M13.958,6.904
	c-0.375-0.607-0.865-1.237-1.495-1.866c-2.854-2.854-5.708-2.854-6.421-2.14c-0.377,0.377,1.835,2.944,4.111,5.177 M8.537,12.037
	c-2.854,2.854-2.854,5.708-2.141,6.42c0.713,0.714,9.275-7.848,8.561-8.561C14.244,9.183,11.39,9.183,8.537,12.037z M14.439,11.427
	C17.266,11.971,25.5,11.829,25.5,11c0-1-2-3-6-3c-2.27,0-3.896,0.644-4.877,1.384 M17.906,8.016
	c2.255-2.219,4.425-4.745,4.051-5.118c-0.713-0.713-3.566-0.714-6.421,2.14c-1.58,1.581-2.285,3.161-2.479,4.378 M14.117,11.805
	c2.207,2.698,6.963,7.177,7.486,6.652c0.714-0.713,0.714-3.566-2.141-6.42c-0.059-0.059-0.117-0.116-0.176-0.172 M12.5,22.766
	c0-2.227,0-9.266,0-9.266 M15.5,24c0-2,0-10.5,0-10.5 M27.5,28c0-0.828-0.672-1.5-1.5-1.5s-1.5,0.672-1.5,1.5s0.672,1.5,1.5,1.5
	S27.5,28.828,27.5,28z M29.5,23.5l-2-1v5"/>
<path id="wind_x5F_sea" fill="none" stroke="#2994FF" stroke-linecap="round" stroke-miterlimit="10" d="M2.5,27.5c0,0,2-2,7-2
	s8,4,13,4 M22.5,26.5c-5,0-8-4-13-4s-7,2-7,2"/>
</svg>
