<?xml version="1.0" encoding="utf-8"?>
<!-- Generator: Adobe Illustrator 16.0.0, SVG Export Plug-In . SVG Version: 6.00 Build 0)  -->
<!DOCTYPE svg PUBLIC "-//W3C//DTD SVG 1.1//EN" "http://www.w3.org/Graphics/SVG/1.1/DTD/svg11.dtd">
<svg version="1.1" id="Capa_1" xmlns="http://www.w3.org/2000/svg" xmlns:xlink="http://www.w3.org/1999/xlink" x="0px" y="0px"
	 width="32px" height="32px" viewBox="0 0 32 32" enable-background="new 0 0 32 32" xml:space="preserve">
<g id="color">
	<path fill="#663616" d="M16,27.5c-3.034,0-11.996-1.515-13.33-8.242l-0.174-0.876l0.837,0.31c0.681,0.251,1.583,0.747,2.629,1.32
		C8.7,21.506,12.353,23.5,16,23.5c3.648,0,7.302-1.995,9.97-3.451c1.044-0.572,1.982-1.087,2.693-1.356l0.843-0.319l-0.176,0.885
		C27.995,25.985,19.034,27.5,16,27.5z"/>
	<path fill="#A35B21" d="M29.5,17.48c0,0.22-0.01,0.409-0.02,0.609l-0.021,0.48h-0.42c-0.72,0.199-1.72,0.739-2.98,1.43
		C23.33,21.49,19.66,23.5,16,23.5s-7.32-2.01-10-3.47c-1.28-0.7-2.36-1.3-3.1-1.471l-0.36-0.09L2.52,18.1
		c-0.01-0.21-0.02-0.39-0.02-0.59c0.03-0.62,0.42-1.01,1-1.01c0.68,0,1.75,0.63,3.18,1.53c0.26,0.16,0.53,0.33,0.82,0.489V17.5
		c0-3.79,3.19-11,5.33-11c1.86,0,2.42,0.97,2.75,1.55C15.79,8.39,15.88,8.5,16,8.5s0.21-0.11,0.4-0.42
		c0.35-0.61,0.91-1.58,2.77-1.58c2.14,0,5.33,7.21,5.33,11v1.02l-0.1,0.07c0.319-0.189,0.63-0.39,0.93-0.57
		c1.479-0.92,2.5-1.52,3.17-1.52C29.08,16.5,29.47,16.88,29.5,17.48z"/>
	<polygon fill="#FFFC80" points="14.284,15.555 12.196,13.771 14.938,13.542 16,11.007 17.062,13.537 19.805,13.771 17.715,15.56 
		18.352,18.24 16,16.807 13.648,18.24 	"/>
</g>
<path id="stroke" fill="none" stroke="#000000" stroke-linecap="round" stroke-linejoin="round" stroke-miterlimit="10" d="M16,21.5
	c5.785,0,10.572-5,12.5-5c1,0,1,1,1,1c0,8-9.5,10-13.5,10s-13.5-2-13.5-10c0,0,0-1,1-1C5.428,16.5,10.214,21.5,16,21.5z
	 M2.719,18.518C4.838,18.848,10.419,23.5,16,23.5 M16,23.5c5.418,0,10.838-4.385,13.088-4.941 M16,21.5 M16,21.5 M24.5,18.5v-1
	c0-4-3.223-11-5.333-11c-2.667,0-2.667,2-3.167,2s-0.5-2-3.167-2c-2.111,0-5.333,7-5.333,11v1 M14.94,13.542l-2.745,0.223
	l2.09,1.793l-0.637,2.679L16,16.803l2.352,1.434l-0.637-2.679l2.09-1.793l-2.745-0.223L16,11L14.94,13.542z"/>
</svg>
