<?xml version="1.0" encoding="utf-8"?>
<!-- Generator: Adobe Illustrator 16.0.0, SVG Export Plug-In . SVG Version: 6.00 Build 0)  -->
<!DOCTYPE svg PUBLIC "-//W3C//DTD SVG 1.1//EN" "http://www.w3.org/Graphics/SVG/1.1/DTD/svg11.dtd">
<svg version="1.1" id="Capa_1" xmlns="http://www.w3.org/2000/svg" xmlns:xlink="http://www.w3.org/1999/xlink" x="0px" y="0px"
	 width="32px" height="32px" viewBox="0 0 32 32" enable-background="new 0 0 32 32" xml:space="preserve">
<g id="color">
	<path fill="#8C8C8C" d="M23.874,5.981l0.644-0.644c0.199-0.2,0.323-0.323,0.399-0.408l0.209-0.168
		c1.486-1.065,3.241,0.942,1.979,2.283l-1.085,1.084L23.874,5.981z M12.421,21.728l9.306-9.307l-2.146-2.147l-9.307,9.308
		L12.421,21.728z M6.389,27.495c0.365-0.121,0.627-0.363,0.667-0.4l1.073-1.074l-2.147-2.146l-1.074,1.074
		c-0.896,0.899-0.309,2.619,1.037,2.619C6.087,27.567,6.234,27.544,6.389,27.495C6.754,27.374,6.234,27.544,6.389,27.495z"/>
	<path fill="#565656" d="M27.464,13.259c-0.509,0-0.887-0.286-1.067-0.456l-7.18-7.19c-0.065-0.06-0.466-0.459-0.478-1.053
		c-0.006-0.271,0.073-0.679,0.478-1.083c0.396-0.396,0.792-0.479,1.056-0.479c0.508,0,0.895,0.293,1.08,0.469l7.171,7.17
		c0.627,0.617,0.636,1.433,0.021,2.125C28.123,13.177,27.727,13.259,27.464,13.259z M27.813,16.354
		c0.631-0.667,0.627-1.51-0.01-2.147L17.793,4.195C17.646,4.049,17.246,3.71,16.7,3.71c-0.383,0-0.741,0.164-1.063,0.486
		c-0.737,0.737-0.527,1.609,0.01,2.147l10.01,10.01c0.146,0.146,0.543,0.484,1.093,0.484C27.011,16.837,27.405,16.755,27.813,16.354
		z M12.787,28.521c0.608-0.617,0.627-1.438,0.027-2.114l-7.199-7.188C5.471,19.074,5.08,18.74,4.53,18.74
		c-0.254,0-0.642,0.081-1.056,0.479c-0.735,0.745-0.528,1.614,0.002,2.145l7.157,7.157c0.392,0.398,0.79,0.481,1.054,0.481
		C12.198,29.002,12.586,28.709,12.787,28.521z M16.351,27.807c0.638-0.63,0.644-1.469,0.002-2.15l-10.01-10.01
		c-0.145-0.145-0.542-0.481-1.091-0.481c-0.266,0-0.665,0.084-1.05,0.476c-0.558,0.541-0.536,1.097-0.413,1.487
		c0.118,0.332,0.313,0.565,0.409,0.667l1.281,1.272l0.001,0.01l7.345,7.346l1.384,1.394c0.396,0.39,0.791,0.472,1.053,0.472
		C15.811,28.288,16.208,27.949,16.351,27.807z"/>
</g>
<path fill="none" stroke="#000000" stroke-miterlimit="10" d="M8.052,26.094l-0.998,0.998c0,0-1.073,1.074-2.146,0.001
	c0,0-1.074-1.074,0-2.148c0.151-0.151,0.494-0.495,0.986-0.987 M21.721,12.425l-9.303,9.304 M25.928,8.22l1.164-1.165
	c0,0,1.073-1.073,0-2.146c-1.073-1.074-2.146,0-2.146,0s-0.394,0.393-1.07,1.069 M19.572,10.281
	c-2.847,2.846-6.338,6.336-9.209,9.208 M16.358,25.661L6.339,15.642c0,0-1.073-1.074-2.146,0c-1.075,1.074,0,2.147,0,2.147
	s8.586,8.587,10.017,10.02c1.074,1.073,2.148-0.001,2.148-0.001C17.431,26.734,16.358,25.661,16.358,25.661z M12.779,26.376
	L5.624,19.22c0,0-1.073-1.073-2.146,0s0,2.146,0,2.146s5.724,5.726,7.155,7.156c1.073,1.075,2.147,0.001,2.147,0.001
	C13.853,27.45,12.779,26.376,12.779,26.376z M27.808,16.358c0,0,1.073-1.073,0-2.147C26.376,12.78,17.789,4.193,17.789,4.193
	s-1.075-1.074-2.148-0.001c-1.073,1.074,0.001,2.147,0.001,2.147l10.019,10.019C25.661,16.358,26.734,17.431,27.808,16.358z
	 M28.522,12.78c0,0,1.074-1.074,0-2.148c-1.431-1.431-7.155-7.156-7.155-7.156s-1.073-1.073-2.147,0c-1.073,1.073,0,2.146,0,2.146
	l7.156,7.156C26.376,12.78,27.449,13.854,28.522,12.78z"/>
</svg>
