<?xml version="1.0" encoding="utf-8"?>
<!-- Generator: Adobe Illustrator 16.0.0, SVG Export Plug-In . SVG Version: 6.00 Build 0)  -->
<!DOCTYPE svg PUBLIC "-//W3C//DTD SVG 1.1//EN" "http://www.w3.org/Graphics/SVG/1.1/DTD/svg11.dtd">
<svg version="1.1" id="Capa_1" xmlns="http://www.w3.org/2000/svg" xmlns:xlink="http://www.w3.org/1999/xlink" x="0px" y="0px"
	 width="32px" height="32px" viewBox="0 0 32 32" enable-background="new 0 0 32 32" xml:space="preserve">
<g id="color">
	<path fill="#7FFF7B" d="M17.42,2.58l-3.04,3.04c-4.53,0.7-8.05,4.32-8.75,8.75l-3.05,3.05C2.53,16.95,2.5,16.48,2.5,16
		C2.5,8.56,8.56,2.5,16,2.5C16.48,2.5,16.95,2.53,17.42,2.58z"/>
	<path fill="#FFA655" d="M25.03,5.97L22.9,8.1c-1.48-1.3-3.341-2.2-5.4-2.5v7.9L5.97,25.03c-1.85-2.061-3.09-4.7-3.39-7.61
		l3.05-3.05C5.54,14.9,5.5,15.45,5.5,16c0,2.5,0.9,4.93,2.54,6.83l6.46-6.52V5.6c-0.04,0.01-0.08,0.01-0.12,0.02l3.04-3.04
		C20.33,2.88,22.97,4.12,25.03,5.97z"/>
	<path fill="#FFDE52" d="M17.5,16.38V13.5L5.97,25.03c1.81,2,4.2,3.46,6.9,4.1l4.63-4.63v-3.88l1.94,1.939l2.119-2.119L17.5,16.38z
		 M14.5,26.38c-1.5-0.21-2.91-0.729-4.19-1.56l4.19-4.24V26.38z M29.13,12.87l-2.64,2.64C26.35,12.6,25,9.95,22.9,8.1l2.13-2.13
		C27.03,7.78,28.49,10.17,29.13,12.87z"/>
	<path fill="#FF5069" d="M29.5,16c0,7.44-6.06,13.5-13.5,13.5c-1.08,0-2.12-0.13-3.13-0.37l4.63-4.63v1.88
		c1.5-0.21,2.91-0.729,4.19-1.57l-2.25-2.25l2.119-2.119l2.4,2.399C25.6,20.94,26.5,18.51,26.5,16c0-0.16,0-0.32-0.01-0.49
		l2.64-2.64C29.37,13.88,29.5,14.92,29.5,16z"/>
</g>
<path id="stroke" fill="none" stroke="#000000" stroke-miterlimit="10" d="M14.5,5.61v10.7l-6.46,6.52C6.46,21,5.5,18.61,5.5,16
	C5.5,10.71,9.41,6.33,14.5,5.61z M14.5,26.39v-5.81l-4.19,4.24C11.55,25.62,12.97,26.17,14.5,26.39z M17.5,26.39
	c1.53-0.22,2.95-0.77,4.19-1.58L17.5,20.62V26.39z M17.5,5.61v10.77l6.46,6.46c1.58-1.83,2.54-4.22,2.54-6.84
	C26.5,10.71,22.59,6.33,17.5,5.61z M29.5,16c0-7.457-6.043-13.5-13.5-13.5S2.5,8.543,2.5,16S8.543,29.5,16,29.5S29.5,23.457,29.5,16
	z"/>
</svg>
