<?xml version="1.0" encoding="utf-8"?>
<!-- Generator: Adobe Illustrator 16.0.0, SVG Export Plug-In . SVG Version: 6.00 Build 0)  -->
<!DOCTYPE svg PUBLIC "-//W3C//DTD SVG 1.1//EN" "http://www.w3.org/Graphics/SVG/1.1/DTD/svg11.dtd">
<svg version="1.1" id="Capa_1" xmlns="http://www.w3.org/2000/svg" xmlns:xlink="http://www.w3.org/1999/xlink" x="0px" y="0px"
	 width="32px" height="32px" viewBox="0 0 32 32" enable-background="new 0 0 32 32" xml:space="preserve">
<g id="color">
	<path fill="#D39C00" d="M11.069,29.323c-1.324,0-2.791-0.503-4.243-1.455c-3.092-2.027-2.287-5.106-1.7-7.354
		c0.099-0.374,0.187-0.717,0.256-1.031C5.723,17.8,5.743,15.628,5.7,14.104l-0.016-0.583l8.059,1.012l6.708-10.267
		c0.846-1.464,1.911-1.776,2.652-1.776c0.665,0,1.177,0.253,1.317,0.331c1.077,0.621,1.162,1.655,1.245,2.655
		c0.091,1.037,0.172,1.957,1.083,2.479l1.225,0.697l-1.079,1.879l-4.565-2.628c-0.187,0.466-0.415,1.06-0.683,1.755l-0.133,0.345
		l-0.368-0.025c-0.053-0.004-0.104-0.005-0.157-0.005c-0.805,0-1.563,0.418-1.935,1.065c-0.288,0.51-0.363,1.096-0.211,1.648
		c0.122,0.485,0.399,0.893,0.803,1.19l0.307,0.226l-0.807,2.118l-0.394-0.055c-0.032-0.004-0.118-0.005-0.132-0.005
		c-0.774,0-1.498,0.415-1.889,1.083c-0.556,0.958-0.306,2.173,0.584,2.823l0.306,0.224l-0.794,2.131l-0.396-0.056
		c-0.031-0.004-0.117-0.005-0.131-0.005c-0.783,0-1.505,0.416-1.885,1.086c-0.297,0.513-0.375,1.098-0.223,1.651
		c0.121,0.468,0.396,0.878,0.777,1.162l0.359,0.268l-0.227,0.387c-0.705,1.196-1.659,1.957-2.836,2.261
		C11.889,29.273,11.486,29.323,11.069,29.323z"/>
	<path fill="#D17700" d="M5.686,13.524L5.67,13.098c-0.03-0.83-0.079-1.531-0.119-1.995l-0.051-0.6l10.208,1.022l-1.96,3
		L5.686,13.524z M29.331,10.664c0.306-0.576,0.143-1.153-0.41-1.467l-0.934-0.541l-1.092,1.889l0.943,0.537
		c0.189,0.111,0.384,0.167,0.575,0.167C28.783,11.249,29.114,11.042,29.331,10.664z M20.501,19.423
		c0.294-0.5,0.374-1.086,0.225-1.648c-0.149-0.565-0.511-1.037-1.016-1.328c-0.33-0.19-0.696-0.287-1.09-0.287
		c-0.77,0-1.49,0.413-1.881,1.077c-0.607,1.033-0.254,2.372,0.804,2.993c0.341,0.183,0.713,0.279,1.077,0.279
		C19.394,20.51,20.115,20.092,20.501,19.423z M22.834,13.219c0.598-1.04,0.237-2.374-0.796-2.967
		C21.71,10.055,21.334,9.95,20.95,9.95c-0.78,0-1.506,0.417-1.896,1.094c-0.283,0.502-0.361,1.084-0.217,1.648
		c0.153,0.563,0.513,1.032,1.013,1.322c0.337,0.194,0.714,0.296,1.09,0.296C21.719,14.31,22.444,13.893,22.834,13.219z
		 M18.183,25.621c0.283-0.489,0.364-1.089,0.219-1.656c-0.154-0.554-0.517-1.021-1.028-1.321c-0.331-0.186-0.702-0.283-1.073-0.283
		c-0.78,0-1.505,0.418-1.893,1.09c-0.288,0.497-0.364,1.1-0.211,1.644c0.142,0.555,0.5,1.025,1.021,1.333
		c0.332,0.186,0.703,0.283,1.074,0.283C17.07,26.71,17.795,26.292,18.183,25.621z"/>
	<path fill="none" stroke="#D17700" stroke-linecap="round" stroke-miterlimit="10" d="M14.5,2.5v2 M13.5,3.5h2 M22.5,26.5v2
		 M21.5,27.5h2"/>
	<path fill="none" stroke="#D39C00" stroke-linecap="round" stroke-miterlimit="10" d="M4.5,4.5v2 M3.5,5.5h2 M27.5,19.5v4
		 M25.5,21.5h4"/>
</g>
<path id="stroke_1_" fill="none" stroke="#000000" stroke-linecap="round" stroke-linejoin="round" stroke-miterlimit="10" d="
	M9.695,20.724L20.437,4.295c1.634-2.829,3.993-1.467,3.993-1.467c2.091,1.208,0.434,4.038,2.32,5.125l2.175,1.242
	c0.942,0.544,0.397,1.489,0.397,1.489s-0.543,0.942-1.486,0.397l-5.287-3.052 M22.723,6.873c0,0-0.445,1.148-1.12,2.904
	 M19.938,14.125c-0.279,0.731-0.502,1.327-0.79,2.09 M17.629,20.266c-0.286,0.771-0.436,1.204-0.691,1.906 M15.5,11.5l-10-1
	c0,0,0.569,5.617-0.121,8.989c-0.436,2.133-2.16,6.011,1.449,8.38c3.303,2.168,6.722,2.054,8.449-1.271 M5.94,13.555L13.5,14.5
	 M26.893,10.537l1.09-1.887 M20.506,19.422c0.602-1.041,0.244-2.373-0.797-2.975c-1.042-0.601-2.375-0.243-2.975,0.797
	c-0.602,1.043-0.245,2.373,0.795,2.975C18.573,20.821,19.903,20.463,20.506,19.422z M22.829,13.22
	c0.602-1.042,0.244-2.373-0.796-2.975c-1.043-0.602-2.375-0.245-2.976,0.797c-0.603,1.041-0.244,2.373,0.797,2.974
	C20.896,14.618,22.228,14.261,22.829,13.22z M18.183,25.624c0.602-1.041,0.243-2.373-0.798-2.975
	c-1.042-0.602-2.375-0.244-2.975,0.796c-0.601,1.042-0.244,2.376,0.797,2.976C16.248,27.022,17.581,26.665,18.183,25.624z"/>
</svg>
