<?xml version="1.0" encoding="utf-8"?>
<!-- Generator: Adobe Illustrator 16.0.0, SVG Export Plug-In . SVG Version: 6.00 Build 0)  -->
<!DOCTYPE svg PUBLIC "-//W3C//DTD SVG 1.1//EN" "http://www.w3.org/Graphics/SVG/1.1/DTD/svg11.dtd">
<svg version="1.1" id="Capa_1" xmlns="http://www.w3.org/2000/svg" xmlns:xlink="http://www.w3.org/1999/xlink" x="0px" y="0px"
	 width="32px" height="32px" viewBox="0 0 32 32" enable-background="new 0 0 32 32" xml:space="preserve">
<g id="color">
	<path fill="#2994FF" d="M16,22.5c-3.584,0-6.5-2.916-6.5-6.5v-1.867l0.922,1.448c0.81,1.273,1.846,1.918,3.078,1.918
		c1.493,0,2.251-0.758,2.983-1.49c0.768-0.757,1.53-1.51,3.017-1.51c1.545,0,2.581,0.828,2.918,2.331l0.021,0.094l-0.015,0.095
		C21.912,20.195,19.211,22.5,16,22.5z"/>
	<path fill="#FF273C" d="M13.5,17.5c-1.534,0-2.845-1.099-3.69-3.095l-0.072-0.169l0.055-0.176C10.654,11.333,13.148,9.5,16,9.5
		c3.102,0,5.785,2.209,6.38,5.254l0.299,1.526l-1.132-1.065C21.044,14.74,20.354,14.5,19.5,14.5c-1.512,0-2.266,0.763-2.994,1.501
		C15.75,16.748,14.987,17.5,13.5,17.5z"/>
	<path fill="none" stroke="#2994FF" stroke-linecap="round" stroke-miterlimit="10" d="M3,14.5v2 M2,15.5h2 M12.5,3.5v2 M11.5,4.5h2
		 M20.5,26.5v2 M19.5,27.5h2"/>
	<path fill="none" stroke="#FF273C" stroke-linecap="round" stroke-miterlimit="10" d="M29,15.5v2 M28,16.5h2 M20.5,2.5v2 M19.5,3.5
		h2 M12.5,27.5v2 M11.5,28.5h2"/>
</g>
<path id="stroke" fill="none" stroke="#000000" stroke-miterlimit="10" d="M16,22.5c-3.59,0-6.5-2.913-6.5-6.5
	c0-3.59,2.91-6.5,6.5-6.5c3.587,0,6.5,2.91,6.5,6.5C22.5,19.587,19.587,22.5,16,22.5z M9.742,14.228
	c0.45,1.153,1.574,3.272,3.758,3.272c3,0,3-3,6-3c2.113,0,2.738,1.489,2.922,2.369 M9.938,7.531l-3.555,5.379 M8.547,6.594
	l-3.555,5.359 M7.137,5.665l-3.559,5.351 M26.949,11.994L23.5,6.75 M26.352,7.995l-1.461-2.198 M28.344,11.047l-1.616-2.476
	 M9.969,24.641l-3.507-5.4 M8.563,25.578L6.93,23.08 M5.08,20.231l1.44,2.218 M3.637,21.15l3.521,5.409 M23.941,21.679l1.648-2.469
	 M22.031,24.531l1.561-2.331 M26.969,20.109l-1.621,2.401 M24.982,23.057l-1.607,2.396 M26.701,23.485l1.643-2.454 M24.766,26.391
	l1.625-2.442 M23.572,9.919l-1.466-2.252 M25.547,12.938l-1.598-2.442"/>
</svg>
