<?xml version="1.0" encoding="utf-8"?>
<!-- Generator: Adobe Illustrator 16.0.0, SVG Export Plug-In . SVG Version: 6.00 Build 0)  -->
<!DOCTYPE svg PUBLIC "-//W3C//DTD SVG 1.1//EN" "http://www.w3.org/Graphics/SVG/1.1/DTD/svg11.dtd">
<svg version="1.1" id="Capa_1" xmlns="http://www.w3.org/2000/svg" xmlns:xlink="http://www.w3.org/1999/xlink" x="0px" y="0px"
	 width="32px" height="32px" viewBox="0 0 32 32" enable-background="new 0 0 32 32" xml:space="preserve">
<g id="color">
	<path fill="#FFBC9F" d="M26.5,4.5v16c0,2.34-0.67,3.28-1.25,4.12c-0.39,0.53-0.75,1.03-0.75,1.88h-12c0-0.75-0.4-1-1.19-1.5
		c-1.3-0.83-3.72-2.36-7.22-8.09c-0.91-1.44-0.5-2.33-0.01-2.83c0.36-0.35,0.88-0.56,1.42-0.56s1.06,0.21,1.42,0.57l3.58,3.601V4.5
		c0-0.08,0.02-2,2-2s2,1.92,2,2v4.92l0.79-0.58c0.32-0.22,0.72-0.34,1.21-0.34c0.71,0,1.25,0.25,1.59,0.74l0.41,0.58l0.41-0.58
		c0.34-0.49,0.88-0.74,1.59-0.74c0.49,0,0.89,0.12,1.21,0.34l0.79,0.58V4.5c0-0.08,0.02-2,2-2S26.5,4.42,26.5,4.5z"/>
	<rect x="12.5" y="26.5" fill="#545454" width="12" height="3"/>
	<rect x="21.5" y="26.5" fill="#FFFFFF" width="3" height="3"/>
</g>
<path id="stroke_1_" fill="none" stroke="#000000" stroke-linecap="round" stroke-linejoin="round" stroke-miterlimit="10" d="
	M14.5,10.5c0,0,0-2,2-2c2,0,2,2,2,2v6c0,0,0,2-2,2c-2,0-2-2-2-2V10.5z M18.5,16.5c0,0,0,2,2,2s2-2,2-2v-6c0,0,0-2-2-2s-2,2-2,2V16.5
	z M14.5,11.5v-7c0,0,0-2-2-2s-2,2-2,2l0,13.188l-3.586-3.602c-0.78-0.781-2.048-0.781-2.828,0c-0.781,0.781-0.648,1.789,0,2.828
	C9.667,26.042,12.5,24.5,12.5,26.5v3h12v-3c0-2,2-2,2-6v-16c0,0,0-2-2-2s-2,2-2,2v12 M12.5,26.5h12 M21.5,26.5v3 M20.5,11.5h2
	 M16.5,11.5h2"/>
</svg>
