<?xml version="1.0" encoding="utf-8"?>
<!-- Generator: Adobe Illustrator 16.0.0, SVG Export Plug-In . SVG Version: 6.00 Build 0)  -->
<!DOCTYPE svg PUBLIC "-//W3C//DTD SVG 1.1//EN" "http://www.w3.org/Graphics/SVG/1.1/DTD/svg11.dtd">
<svg version="1.1" id="Capa_1" xmlns="http://www.w3.org/2000/svg" xmlns:xlink="http://www.w3.org/1999/xlink" x="0px" y="0px"
	 width="32px" height="32px" viewBox="0 0 32 32" enable-background="new 0 0 32 32" xml:space="preserve">
<g id="color">
	<path fill="#FF273C" d="M11.53,30c-3.19-0.033-6.307-3.259-6.331-3.291c-1.278-1.229-2.386-2.862-2.917-4.556
		c-0.896-2.856,0.706-5.131,3.236-6.395c1.192-0.595,2.513-0.904,3.68-1.547c1.014-0.559,1.512-1.398,2.044-2.382
		c0.36-0.666,0.774-1.295,1.238-1.893c0.671-0.867,1.627-2.346,2.665-2.761c1.361-0.417,1.569,1.211,1.21,2.094
		c-0.481,1.184-1.337,2.479-0.551,3.735l0.338,0.54l-4.464,1.48c-1.853,0.614-2.813,2.717-0.756,3.792l0.133,0.069
		c1.328,0.69,2.028,1.802,2.683,3.101c0.643,1.323,1.389,2.538,2.429,3.593l0.213,0.216l-0.094,0.289
		C15.616,28.148,13.844,30,11.56,30H11.53z"/>
	<path fill="#FF273C" d="M26.85,8.55c-0.358,0-0.652-0.215-0.762-0.308l-2.292-2.299c-1.071-1.137,0.658-2.076,1.482-2.577
		c0.856-0.521,2.536-1.68,3.615-1.332l0.115,0.037l0.882,0.882l0.036,0.071c0.413,0.814-0.501,2.263-0.869,2.943
		C28.667,6.687,27.857,8.55,26.85,8.55z"/>
	<path fill="#FFFFFF" d="M15.759,25.145c-1.037-1.149-1.549-2.186-2.001-3.101l-0.098-0.198c-0.353-0.71-0.727-1.432-1.286-2.003
		c-0.545-0.558-1.244-0.802-1.841-1.269c-1.756-1.194-0.378-3.043,1.139-3.549l4.535-1.515l0.035-0.047l0.044-0.021l7.504-7.509
		l2.277,2.277l-9.094,9.084c1.423,1.461,2.982,0.287,4.522-0.238c0.633-0.216,1.338-0.155,1.718,0.471
		c0.51,0.839-0.386,1.508-0.937,2.009c-0.871,0.793-1.813,1.485-2.868,2.012c-1.572,0.783-2.366,1.656-2.794,3.383l-0.226,0.914
		L15.759,25.145z"/>
	<path fill="#FF273C" d="M21.518,13.252c-0.128,0-0.256-0.049-0.354-0.146l-2.271-2.271c-0.195-0.195-0.195-0.512,0-0.707
		s0.512-0.195,0.707,0l2.271,2.271c0.195,0.195,0.195,0.512,0,0.707C21.773,13.204,21.646,13.252,21.518,13.252z"/>
</g>
<path id="stroke" fill="none" stroke="#000000" stroke-linecap="round" stroke-miterlimit="10" d="M5.239,26.762
	c0,0-5.783-5.575-1.894-9.466c2.334-2.334,5.259-2.231,6.815-3.786c1.167-1.167,0.757-2.271,4.543-6.057c0,0,0.757-0.758,1.515,0
	c1.514,1.514-2.272,3.785,0,6.057 M5.239,26.762c0,0,5.575,5.782,9.464,1.893c2.334-2.335,1.475-4.501,3.029-6.057
	c1.167-1.168,2.272-0.757,5.3-3.785c0,0,0.758-0.758,0-1.517c-1.514-1.514-3.785,2.272-6.057,0 M16.217,13.51l7.447-7.447
	 M11.675,22.598L25.937,8.335 M9.402,20.325L23.664,6.063 M16.217,13.51c0,0-2.271,0.757-4.542,1.514
	c-2.272,0.758-2.673,2.831-0.758,3.788c3.029,1.515,2.272,3.786,5.301,6.814 M8.646,19.568l3.786,3.786 M7.13,21.083l3.786,3.785
	 M29.848,2.91l-0.757-0.757c-0.759-0.758-4.545,1.515-5.302,2.271c-0.758,0.757,0,1.514,0,1.514l2.271,2.271
	c0,0,0.758,0.757,1.515,0C28.332,7.453,30.604,3.667,29.848,2.91z M24.547,9.724L23.79,8.967 M22.273,10.481l0.758,0.757
	 M20.003,14.267l-0.757-0.757 M18.489,15.782l-0.758-0.757"/>
</svg>
