<svg viewBox="0 0 512 512" xmlns="http://www.w3.org/2000/svg"><path d="m256 0c-68.113281 0-132.328125 26.703125-180.8125 75.1875s-75.1875 112.699219-75.1875 180.8125c0 140.96875 115.050781 256 256 256 140.96875 0 256-115.050781 256-256 0-140.96875-115.050781-256-256-256zm0 482c-124.617188 0-226-101.382812-226-226s101.382812-226 226-226 226 101.382812 226 226-101.382812 226-226 226zm0 0"/><path d="m301 226v-90l-120 90v-75h-90v210h90v-75l120 90v-90l120 90v-240zm-150 105h-30v-150h30zm120-15-80-60 80-60zm120 0-80-60 80-60zm0 0"/></svg>