<?xml version="1.0" encoding="UTF-8" standalone="no"?>
<svg
   width="473.5"
   height="100"
   version="1.1"
   viewBox="0 0 473.5 100"
   id="svg2"
   xmlns="http://www.w3.org/2000/svg"
   xmlns:svg="http://www.w3.org/2000/svg">
  <defs
     id="defs2" />
  <path
     d="m-0.098838 50c0-40 10-50 50-50 40 0 50 10 50 50s-10 50-50 50c-40 0-50-10-50-50z"
     id="path1"
     style="fill:#ffffff" />
  <path
     d="m29.901 23.6 20 26.4 20-26.4zm20 26.4 20 26.4 20-26.4zm0 0h-40l20 26.4z"
     id="path2"
     style="fill:#000000" />
  <path
     style="font-size:85.325px;line-height:1.25;font-family:'Black Han Sans';fill:#ffffff;stroke-width:0.99913"
     d="m 124.86647,32.124956 h 10.239 l 5.1195,5.1195 q 9.47108,-6.65535 20.478,-6.65535 7.25262,0 11.2629,3.157025 4.0956,3.0717 4.0956,8.617824 v 40.955999 h -20.478 V 47.483455 h -3.15703 q -3.49832,0 -5.29014,0.767925 -1.79183,0.6826 -1.79183,3.157025 v 31.911549 h -20.478 z m 59.89821,0 h 20.478 v 37.798973 h 3.15702 q 3.7543,0 5.37548,-0.767925 1.7065,-0.767925 1.7065,-3.583649 V 32.124956 h 20.478 v 51.194998 h -10.239 l -5.97275,-5.8021 q -6.1434,7.33795 -17.49163,7.33795 -9.12977,0 -13.3107,-3.839625 -4.18092,-3.92495 -4.18092,-13.054725 z m 98.97701,35.836498 1.27988,14.761225 q -5.29015,2.133125 -13.73733,2.133125 -14.3346,0 -20.73397,-6.65535 -6.39938,-6.740675 -6.39938,-20.477999 0,-13.737325 6.39938,-20.392674 6.39937,-6.740675 20.73397,-6.740675 9.12978,0 13.73733,2.133125 l -2.47443,13.907974 q -2.7304,-0.51195 -4.86352,-0.767925 -2.13313,-0.3413 -3.7543,-0.3413 -7.76458,0 -7.76458,5.4608 v 18.344874 q 1.45053,0.255975 3.32768,0.426625 1.96247,0.17065 4.35157,0.17065 4.7782,0 9.8977,-1.962475 z m 9.47112,-51.194998 20.478,-1.53585 v 53.413448 q 1.62118,0.3413 2.90105,0.51195 1.27988,0.17065 2.13313,0.255975 l -0.93858,15.0172 q -13.05472,0 -17.32097,-1.53585 -3.58365,-1.279875 -5.4608,-3.327675 -1.79183,-2.0478 -1.79183,-5.887425 z m 51.62166,49.147199 v 3.583649 q 1.53585,0.17065 3.0717,0.255975 1.53585,0.08532 3.0717,0.08532 9.5564,0 19.28345,-3.071699 l 2.3891,15.017199 q -11.51887,3.0717 -22.69645,3.0717 -14.3346,0 -20.73397,-6.65535 -6.39938,-6.740675 -6.39938,-20.477999 0,-13.737325 6.39938,-20.392674 6.4847,-6.740675 20.73397,-6.740675 7.1673,0 11.9455,0.938575 4.7782,0.85325 7.67925,2.986375 2.98638,2.0478 4.18093,5.631449 1.27987,3.498325 1.27987,8.8738 0,4.4369 -1.53585,7.67925 -1.45052,3.157025 -4.94885,5.204825 -3.49832,2.0478 -9.30042,3.0717 -5.8021,0.938575 -14.41993,0.938575 z m 0,-16.0411 v 4.180925 h 4.18093 q 3.7543,0 5.37547,-0.767925 1.7065,-0.767925 1.7065,-3.58365 V 45.52098 h -4.18092 q -3.7543,0 -5.4608,0.767925 -1.62118,0.767925 -1.62118,3.58365 z M 406.951,30.589106 q 24.5736,0 24.5736,16.894349 v 35.836499 h -10.239 l -5.8021,-5.8021 q -1.53585,1.7065 -3.66897,3.0717 -2.0478,1.3652 -4.4369,2.303775 -2.3891,0.938575 -4.86353,1.450525 -2.47442,0.51195 -4.7782,0.51195 -4.35157,0 -7.8499,-0.938575 -3.413,-0.85325 -5.8021,-2.815725 -2.3891,-1.962475 -3.66897,-5.204825 -1.27988,-3.24235 -1.27988,-7.935225 0,-18.430199 27.81595,-18.430199 h 4.0956 V 45.86228 q -1.62117,-0.08532 -2.98637,-0.17065 -1.27988,-0.08533 -2.3891,-0.08533 -11.51888,0 -19.88073,2.815725 l -2.47442,-14.675899 q 10.239,-3.157025 23.63502,-3.157025 z m -7.1673,35.153899 v 4.180924 h 4.26625 q 4.4369,0 5.8021,-1.0239 1.19455,-1.109225 1.19455,-2.645074 V 61.39143 h -4.18092 q -3.66898,0 -5.37548,0.767925 -1.7065,0.767925 -1.7065,3.58365 z m 40.95603,17.576949 V 32.124956 h 10.239 l 5.63145,5.716775 q 6.1434,-5.63145 15.18785,-7.252625 l 1.19455,19.368774 q -1.19455,0 -2.90105,0.3413 -1.7065,0.3413 -3.49832,0.85325 -1.7065,0.51195 -3.15703,1.279875 -1.45052,0.6826 -2.21845,1.621175 v 29.266474 z"
     id="text2"
     transform="scale(1.0009,0.99913)"
     aria-label="nuclear" />
</svg>
