<?xml version="1.0" encoding="iso-8859-1"?>
<!-- Generator: Adobe Illustrator 16.0.0, SVG Export Plug-In . SVG Version: 6.00 Build 0)  -->
<!DOCTYPE svg PUBLIC "-//W3C//DTD SVG 1.1//EN" "http://www.w3.org/Graphics/SVG/1.1/DTD/svg11.dtd">
<svg version="1.1" id="Capa_1" xmlns="http://www.w3.org/2000/svg" xmlns:xlink="http://www.w3.org/1999/xlink" x="0px" y="0px"
	 width="450.689px" height="450.69px" viewBox="0 0 450.689 450.69" style="enable-background:new 0 0 450.689 450.69;"
	 xml:space="preserve">
<g>
	<g>
		<path d="M25.634,272.867c-6.45,0.104-11.945,2.751-15.96,8.562H9.461v-27.592H0.156v75.903h8.774v-6.873h0.21
			c1.903,3.065,5.814,8.456,15.223,8.456c18.815,0,24.314-17.653,24.314-30.863C48.677,284.919,40.326,272.867,25.634,272.867z
			 M24.153,323.292c-5.919,0-15.118-3.914-15.118-18.608c0-8.985,1.478-23.468,14.904-23.468c14.375,0,15.118,13.641,15.118,20.721
			C39.058,314.09,34.299,323.292,24.153,323.292z"/>
		<path d="M97.409,320.117V288.3c0-14.161-16.068-15.434-20.506-15.434c-13.637,0-22.41,5.18-22.833,18.395h8.563
			c0.633-4.231,2.114-10.674,12.686-10.674c8.773,0,13.001,3.164,13.001,8.981c0,5.497-2.642,6.346-4.863,6.56l-15.33,1.896
			c-15.433,1.9-16.806,12.686-16.806,17.339c0,9.51,7.188,15.958,17.334,15.958c10.783,0,16.386-5.073,19.979-8.982
			c0.317,4.227,1.585,8.453,9.832,8.453c2.113,0,3.487-0.632,5.075-1.054v-6.766c-1.061,0.215-2.222,0.42-3.067,0.42
			C98.574,323.392,97.409,322.446,97.409,320.117z M88.105,310.604c0,7.4-8.456,13-17.124,13c-6.978,0-10.045-3.593-10.045-9.617
			c0-6.978,7.295-8.351,11.841-8.989c11.523-1.479,13.846-2.322,15.325-3.487v9.094H88.105z"/>
		<path d="M133.562,272.867c-9.514,0-14.695,6.448-16.701,9.404h-0.213v-7.819h-8.773v55.286h9.301V299.61
			c0-15.012,9.304-18.391,14.59-18.391c9.091,0,11.84,4.863,11.84,14.48v34.038h9.301v-37.633
			C152.907,276.356,142.124,272.867,133.562,272.867z"/>
		<path d="M197.94,282.271h-0.21c-2.219-3.163-6.45-9.404-16.491-9.404c-14.692,0-23.043,12.053-23.043,27.592
			c0,13.209,5.496,30.862,24.312,30.862c5.396,0,11.737-1.688,15.75-9.197h0.216v7.614h8.769v-75.902h-9.299v28.436H197.94z
			 M182.717,323.292c-10.15,0-14.905-9.201-14.905-21.355c0-7.08,0.74-20.721,15.117-20.721c13.424,0,14.901,14.482,14.901,23.468
			C197.833,319.377,188.637,323.292,182.717,323.292z"/>
		<path d="M240.539,281.219c7.824,0,11.948,4.438,13.106,11.837h8.988c-0.742-9.617-6.241-20.194-20.722-20.194
			c-18.285,0-26.531,13.641-26.531,30.763c0,15.963,9.196,27.694,24.733,27.694c16.178,0,21.567-12.368,22.52-21.141h-8.988
			c-1.585,8.455-6.976,13.109-13.212,13.109c-12.79,0-15.116-11.736-15.116-21.251C225.317,292.209,229.018,281.219,240.539,281.219
			z"/>
		<path d="M309.674,320.117V288.3c0-14.161-16.065-15.434-20.507-15.434c-13.637,0-22.409,5.18-22.834,18.395h8.563
			c0.634-4.231,2.116-10.674,12.688-10.674c8.772,0,13.002,3.164,13.002,8.981c0,5.497-2.646,6.346-4.863,6.56l-15.329,1.896
			c-15.434,1.9-16.807,12.686-16.807,17.339c0,9.51,7.183,15.958,17.336,15.958c10.78,0,16.385-5.073,19.979-8.982
			c0.315,4.227,1.581,8.453,9.832,8.453c2.109,0,3.487-0.632,5.073-1.054v-6.766c-1.059,0.215-2.22,0.42-3.063,0.42
			C310.839,323.392,309.674,322.446,309.674,320.117z M300.371,310.604c0,7.4-8.458,13-17.121,13
			c-6.985,0-10.046-3.593-10.046-9.617c0-6.978,7.292-8.351,11.839-8.989c11.523-1.479,13.848-2.322,15.328-3.487V310.604z"/>
		<path d="M377.433,272.867c-8.563,0-12.266,3.805-16.909,8.987c-1.59-2.961-4.759-8.987-14.695-8.987s-14.694,6.448-16.702,9.404
			h-0.214v-7.819h-8.769v55.286h9.3V299.61c0-15.012,9.3-18.391,14.585-18.391c6.868,0,8.668,5.601,8.668,10.252v38.27h9.305
			v-33.722c0-7.404,5.181-14.8,13.002-14.8c7.925,0,10.252,5.179,10.252,12.79v35.731h9.3v-38.27
			C394.557,275.93,383.354,272.867,377.433,272.867z"/>
		<path d="M427.642,272.867c-10.037,0-14.262,6.241-16.488,9.404h-0.214v-7.819h-8.773v77.166h9.305v-27.694h0.212
			c2.435,3.91,7.295,7.397,14.692,7.397c18.821,0,24.314-17.653,24.314-30.862C450.691,284.919,442.338,272.867,427.642,272.867z
			 M426.17,323.292c-5.922,0-15.121-3.914-15.121-18.608c0-8.985,1.482-23.468,14.904-23.468c14.38,0,15.121,13.641,15.121,20.721
			C441.072,314.09,436.312,323.292,426.17,323.292z"/>
	</g>
	<polygon points="0,251.739 181.402,251.739 251.965,99.074 70.561,99.074 	"/>
	<g>
		<path d="M301.692,136.215c-12.59,0.208-23.315,5.368-31.155,16.712h-0.417V99.072h-18.157V247.22h17.131v-13.412h0.41
			c3.714,5.982,11.349,16.503,29.709,16.503c36.729,0,47.457-34.453,47.457-60.241C346.668,159.742,330.372,136.215,301.692,136.215
			z M298.8,234.635c-11.549,0-29.501-7.639-29.501-36.313c0-17.539,2.883-45.805,29.09-45.805c28.06,0,29.504,26.619,29.504,40.442
			C327.893,216.677,318.608,234.635,298.8,234.635z"/>
		<path d="M407.408,152.517c15.268,0,23.324,8.664,25.589,23.106h17.534c-1.443-18.771-12.171-39.41-40.44-39.41
			c-35.692,0-51.78,26.619-51.78,60.04c0,31.16,17.949,54.058,48.276,54.058c31.567,0,42.095-24.138,43.944-41.262h-17.534
			c-3.098,16.503-13.615,25.586-25.785,25.586c-24.964,0-29.508-22.905-29.508-41.473
			C377.706,173.97,384.928,152.517,407.408,152.517z"/>
	</g>
</g>
<g>
</g>
<g>
</g>
<g>
</g>
<g>
</g>
<g>
</g>
<g>
</g>
<g>
</g>
<g>
</g>
<g>
</g>
<g>
</g>
<g>
</g>
<g>
</g>
<g>
</g>
<g>
</g>
<g>
</g>
</svg>
