<?xml version="1.0" encoding="UTF-8" standalone="no"?>
<svg width="256px" height="357px" viewBox="0 0 256 357" version="1.1" xmlns="http://www.w3.org/2000/svg" xmlns:xlink="http://www.w3.org/1999/xlink" preserveAspectRatio="xMidYMid">
    <g>
        <path d="M215.787082,4.49842802 C226.386677,4.49842802 234.979113,13.0908638 234.979113,23.6904591 C234.979113,34.2900545 226.386677,42.8834864 215.787082,42.8834864 C205.18649,42.8834864 196.594054,34.2900545 196.594054,23.6904591 C196.594054,13.0908638 205.18649,4.49842802 215.787082,4.49842802" fill="#FFFFFF"></path>
        <path d="M127.888436,66.7253541 C188.789541,66.7253541 238.159689,98.9454942 238.159689,138.692233 C238.159689,178.438973 188.789541,210.660109 127.888436,210.660109 C66.9873307,210.660109 17.6171829,178.438973 17.6171829,138.692233 C17.6171829,98.9454942 66.9873307,66.7253541 127.888436,66.7253541" fill="#FFFFFF"></path>
        <path d="M127.888436,210.660109 C109.212389,210.660109 91.6250895,207.624965 76.2093074,202.277852 C73.9760311,214.672436 72.7528093,228.084047 72.7528093,242.088342 C72.7528093,295.448903 90.4855409,340.114428 114.418054,352.575751 L141.359813,352.575751 C165.282366,340.114428 183.024062,295.448903 183.024062,242.088342 C183.024062,228.084047 181.80084,214.67144 179.567564,202.277852 C164.151782,207.624965 146.564482,210.660109 127.888436,210.660109" fill="#FFFFFF"></path>
        <path d="M175.996514,324.80523 C171.988171,324.80523 168.186023,325.509479 164.75642,326.76358 C160.046817,335.516389 154.605074,342.618646 148.643362,347.635051 C148.71807,349.336405 149.064716,350.962054 149.576716,352.539891 L202.433245,352.539891 C202.992062,350.764825 203.397479,348.935969 203.397479,346.998537 C203.397479,334.75337 191.133385,324.80523 175.996514,324.80523" fill="#FFFFFF"></path>
        <path d="M90.9397665,326.62014 C87.6117665,325.454693 83.9440934,324.80523 80.0871595,324.80523 C64.9592529,324.80523 52.7041245,334.75337 52.7041245,346.998537 C52.7041245,348.935969 53.1005759,350.764825 53.677323,352.539891 L106.506957,352.539891 C106.986086,351.039751 107.333728,349.497774 107.435331,347.888062 C101.321214,342.831813 95.7459922,335.588109 90.9397665,326.62014" fill="#FFFFFF"></path>
        <path d="M72.7528093,242.088342 C72.7528093,230.521525 73.5995019,219.369089 75.1484514,208.849183 C59.0224436,214.962304 47.3251362,233.142288 47.3251362,254.622381 C47.3251362,278.624623 61.9310817,298.509946 80.9995953,302.038163 C75.7740078,284.634148 72.7528093,264.103346 72.7528093,242.088342" fill="#FFFFFF"></path>
        <path d="M180.609494,208.714708 C182.171393,219.273463 183.024062,230.47172 183.024062,242.088342 C183.024062,264.127253 179.995891,284.679969 174.757354,302.095938 C194.00716,298.757977 208.803362,278.780016 208.803362,254.622381 C208.803362,232.97793 196.925759,214.688374 180.609494,208.714708" fill="#FFFFFF"></path>
        <path d="M47.4277354,89.4874397 C42.962179,84.2140389 36.2962179,80.8621323 28.8443268,80.8621323 C15.3978521,80.8621323 4.49842802,91.7625525 4.49842802,105.209027 C4.49842802,115.134257 10.4402179,123.66593 18.9579455,127.457121 C22.4572763,112.889027 32.6554397,99.7722646 47.4277354,89.4874397" fill="#FFFFFF"></path>
        <path d="M227.996389,80.8621323 C220.324358,80.8621323 213.485074,84.4142568 209.022506,89.9595953 C223.567689,100.268327 233.56165,113.35421 236.916545,127.861541 C245.948265,124.301447 252.342288,115.504809 252.342288,105.209027 C252.342288,91.7625525 241.441868,80.8621323 227.996389,80.8621323" fill="#FFFFFF"></path>
        <path d="M255.922304,105.209027 C255.922304,89.810179 243.394241,77.2821167 227.996389,77.2821167 C220.622195,77.2821167 213.673339,80.1519066 208.476638,85.2460078 C208.256498,85.0995798 208.041339,84.9511595 207.81821,84.8057276 C187.77351,71.7228327 161.600747,64.146428 133.598132,63.2379767 L149.637479,12.5370272 L193.037946,22.7531206 C193.025992,23.0639066 193.015035,23.3756887 193.015035,23.6904591 C193.015035,36.2474086 203.230132,46.4625058 215.787082,46.4625058 C228.344031,46.4625058 238.559128,36.2474086 238.559128,23.6904591 C238.559128,11.1335097 228.344031,0.918412451 215.787082,0.918412451 C206.029198,0.918412451 197.688778,7.08831128 194.453416,15.7305525 L148.045696,4.80722179 C146.227798,4.37989105 144.377027,5.42580545 143.812233,7.21182879 L126.11337,63.159284 C96.6345214,63.4551284 68.9397043,71.1122179 47.9586615,84.8057276 C47.9467082,84.8136965 47.935751,84.8216654 47.9247938,84.8286381 C42.7739144,80.0014942 35.9814475,77.2821167 28.8443268,77.2821167 C13.4454786,77.2821167 0.918412451,89.810179 0.918412451,105.209027 C0.918412451,115.236856 6.32031128,124.419984 14.8838599,129.372638 C14.3240467,132.438661 14.0371673,135.54951 14.0371673,138.692233 C14.0371673,159.165261 26.0841089,178.302506 47.9586615,192.578739 C55.2840467,197.359066 63.4282335,201.404265 72.1800467,204.657556 C72.0884047,205.213385 71.9877977,205.763237 71.9001401,206.320062 C54.976249,213.807813 43.7451206,232.910195 43.7451206,254.622381 C43.7451206,266.897432 47.423751,278.784996 54.1026615,288.09463 C60.3642023,296.822537 68.8769494,302.796202 78.2523268,305.102195 C80.0851673,310.920467 82.167035,316.405043 84.4750195,321.485198 C83.0306615,321.314864 81.5673774,321.225214 80.0881556,321.225214 C63.0148482,321.225214 49.1241089,332.787051 49.1241089,346.998537 C49.1241089,349.093354 49.5006381,351.26786 50.2726226,353.646568 C50.751751,355.121805 52.1263813,356.119907 53.677323,356.119907 L113.472747,356.119907 L113.541479,356.155767 L142.236389,356.155767 L142.304125,356.119907 L202.433245,356.119907 C203.99614,356.119907 205.378739,355.105868 205.847907,353.614693 C206.617899,351.166257 206.976498,349.063471 206.976498,346.998537 C206.976498,332.787051 193.078786,321.225214 175.996514,321.225214 C174.405728,321.225214 172.832872,321.325821 171.282926,321.523051 C173.586926,316.455844 175.666802,310.98621 177.49765,305.183875 C186.958693,302.962553 195.559097,297.020763 201.898335,288.265961 C208.659922,278.928436 212.383377,266.981105 212.383377,254.622381 C212.383377,232.688062 201.001837,213.523922 183.849837,206.158693 C183.770148,205.655658 183.680498,205.158599 183.597821,204.657556 C192.349634,201.404265 200.493821,197.360062 207.81821,192.578739 C229.692763,178.302506 241.739704,159.165261 241.739704,138.692233 C241.739704,135.739767 241.480716,132.816187 240.986646,129.930459 C250.148856,125.140171 255.922304,115.735907 255.922304,105.209027 L255.922304,105.209027 Z M215.787082,8.07844358 C224.395455,8.07844358 231.399097,15.0810895 231.399097,23.6904591 C231.399097,32.2998288 224.395455,39.3034708 215.787082,39.3034708 C207.178708,39.3034708 200.17407,32.2998288 200.17407,23.6904591 C200.17407,15.0810895 207.178708,8.07844358 215.787082,8.07844358 L215.787082,8.07844358 Z M8.07844358,105.209027 C8.07844358,93.7577588 17.3940545,84.4421479 28.8443268,84.4421479 C33.645572,84.4421479 38.2386304,86.0966848 41.9072996,89.0710661 C29.3931829,98.5898833 20.8286381,109.886755 16.7575409,122.092078 C11.3835331,118.238132 8.07844358,111.977588 8.07844358,105.209027 L8.07844358,105.209027 Z M121.637852,214.124576 C122.526381,214.156451 123.415907,214.180358 124.30842,214.198288 C124.481743,214.202272 124.65407,214.208249 124.827393,214.211237 C125.845416,214.229167 126.865432,214.239128 127.888436,214.239128 C128.910444,214.239128 129.930459,214.229167 130.949479,214.211237 C131.122802,214.208249 131.297121,214.202272 131.47144,214.198288 C132.361961,214.180358 133.251486,214.156451 134.138023,214.124576 C134.216716,214.121588 134.294412,214.118599 134.373105,214.115611 C149.238039,213.567751 163.574039,211.139237 176.737619,207.003393 L177.068327,209.238661 C177.853261,214.550911 178.445946,219.960778 178.843393,225.429416 C178.84937,225.510101 178.853354,225.590786 178.859331,225.671471 C178.949977,226.939518 179.030661,228.210553 179.100389,229.48358 C179.115331,229.756514 179.126288,230.029447 179.139237,230.302381 C179.196016,231.401089 179.247813,232.499798 179.287658,233.601494 C179.308576,234.184218 179.321525,234.770926 179.338459,235.355642 C179.36137,236.168467 179.389261,236.980296 179.404202,237.795113 C179.430101,239.222537 179.444047,240.653946 179.444047,242.088342 C179.444047,243.528716 179.428109,244.962117 179.40221,246.392529 C179.390257,247.044981 179.370335,247.696436 179.352405,248.347891 C179.334475,249.066086 179.313556,249.783284 179.288654,250.49849 C179.255782,251.401961 179.21793,252.304436 179.175097,253.203922 C179.158163,253.573479 179.139237,253.942039 179.120311,254.310599 C178.245728,270.895813 175.600062,286.855471 171.334724,301.045043 C170.261914,304.597167 169.096467,308.055658 167.819455,311.388638 C165.877043,316.462817 163.731424,321.146521 161.421447,325.397914 C161.306895,325.610086 161.19035,325.819268 161.074802,326.029447 C160.901479,326.342226 160.728156,326.656 160.55284,326.964794 C160.489089,327.077354 160.424342,327.188918 160.359595,327.301479 C156.668016,333.744311 152.583969,339.10537 148.244918,343.194397 C148.186148,343.250179 148.126381,343.303969 148.067611,343.358755 C147.813603,343.595829 147.558599,343.830911 147.302599,344.059019 C147.025681,344.306054 146.74677,344.547113 146.466864,344.784187 C144.526444,346.432747 142.539206,347.831284 140.519097,348.959875 L115.257774,348.959875 C113.346241,347.892047 111.465588,346.58316 109.624778,345.051144 C109.394677,344.859891 109.166568,344.662661 108.938459,344.464436 C108.813946,344.35586 108.688436,344.251268 108.564918,344.1407 C108.41351,344.007222 108.264093,343.867767 108.113681,343.7313 C103.544529,339.567564 99.2463191,334.002304 95.3814163,327.245696 C95.3286226,327.152062 95.2748327,327.06042 95.2210428,326.966786 C95.0287938,326.627113 94.838537,326.283455 94.6482802,325.938802 C94.546677,325.754521 94.4450739,325.570241 94.3444669,325.383969 C92.0364825,321.13656 89.8948482,316.45684 87.954428,311.389634 C86.6734319,308.043704 85.504,304.572265 84.4282023,301.006195 C80.1708327,286.829572 77.5301479,270.879875 76.6575564,254.307611 C76.6386304,253.935066 76.6187082,253.563518 76.6017743,253.189977 C76.5589416,252.295471 76.5210895,251.397977 76.489214,250.499486 C76.4633152,249.781292 76.443393,249.061105 76.4244669,248.340918 C76.4075331,247.690459 76.3876109,247.040996 76.3756576,246.389541 C76.3497588,244.961121 76.3328249,243.52772 76.3328249,242.088342 C76.3328249,240.656934 76.3477665,239.22951 76.3736654,237.805074 C76.388607,237.010179 76.4145058,236.218272 76.4374163,235.424374 C76.4543502,234.822724 76.4672996,234.220078 76.489214,233.619424 C76.5280623,232.546615 76.5788638,231.475798 76.6336498,230.404981 C76.6475953,230.109136 76.6595486,229.812296 76.6754864,229.516451 C76.7432218,228.272311 76.8219144,227.03116 76.909572,225.792996 C76.9175409,225.688405 76.9235175,225.582817 76.9314864,225.478226 C77.3249494,220.038475 77.9116576,214.656498 78.6896187,209.371144 L78.9725136,207.452638 C78.9954241,207.303222 79.0153463,207.152809 79.0392529,207.003393 C92.2038288,211.139237 106.541821,213.567751 121.408747,214.115611 C121.484451,214.118599 121.561152,214.121588 121.637852,214.124576 L121.637852,214.124576 Z M75.821821,296.81158 C61.2726537,290.922584 50.9051518,273.915019 50.9051518,254.622381 C50.9051518,237.580949 58.6638444,222.462008 70.7257276,215.008125 C70.6042023,216.061012 70.4896498,217.116887 70.38207,218.176747 C70.3611518,218.376965 70.3432218,218.577183 70.3232996,218.777401 C70.1539611,220.481743 70.0045447,222.194054 69.8730584,223.913339 C69.8342101,224.418366 69.7943658,224.923393 69.7585058,225.429416 C69.7037198,226.212358 69.6529183,226.9953 69.6061012,227.78123 C69.5523113,228.677728 69.5054942,229.575222 69.4616654,230.474708 C69.4297899,231.138117 69.3969183,231.800529 69.3710195,232.46593 C69.3202179,233.713058 69.2813696,234.963175 69.2504903,236.214288 C69.2395331,236.661541 69.229572,237.108794 69.2216031,237.557043 C69.192716,239.066148 69.1727938,240.576249 69.1727938,242.088342 C69.1727938,243.153183 69.1827549,244.214039 69.1967004,245.273899 C69.2006848,245.574724 69.2056654,245.875549 69.211642,246.176374 C69.2255875,247.027051 69.2445136,247.875735 69.2684202,248.722428 C69.2743969,248.960498 69.2793774,249.198568 69.2863502,249.436638 C69.3172296,250.423782 69.3540856,251.407938 69.3969183,252.390101 C69.4148482,252.800498 69.4347704,253.209899 69.4546926,253.620296 C69.4835798,254.213977 69.5144591,254.805665 69.5483268,255.397354 C69.5762179,255.893416 69.6031128,256.389479 69.6339922,256.884545 C69.6569027,257.248125 69.6828016,257.610708 69.7077043,257.974288 C69.787393,259.178584 69.8770428,260.379891 69.9756576,261.577214 C69.9856187,261.696747 69.9955798,261.817276 70.0055409,261.936809 C71.0285447,274.115237 72.9829105,285.888249 75.821821,296.81158 L75.821821,296.81158 Z M98.8837354,348.959875 L56.4554708,348.959875 C56.3399222,348.279533 56.2841401,347.632062 56.2841401,346.998537 C56.2841401,336.73463 66.962428,328.385245 80.0881556,328.385245 C82.9818521,328.385245 85.7978521,328.788669 88.4783813,329.585556 C92.6042646,337.03944 97.2112685,343.198381 102.206755,347.99365 C102.32828,348.110195 102.449805,348.227735 102.571331,348.343284 C102.78649,348.54649 102.997665,348.762646 103.214817,348.959875 L98.8837354,348.959875 L98.8837354,348.959875 Z M199.817463,346.998537 C199.817463,347.621105 199.759689,348.26758 199.642148,348.959875 L152.560062,348.959875 C152.772233,348.767626 152.978428,348.555455 153.188607,348.358226 C153.324078,348.228732 153.459549,348.098241 153.595019,347.967751 C158.552654,343.20137 163.128778,337.088249 167.228763,329.704093 C170.022848,328.828514 172.965354,328.385245 175.996514,328.385245 C189.131206,328.385245 199.817463,336.73463 199.817463,346.998537 L199.817463,346.998537 Z M185.027237,214.807907 C197.161837,222.196047 205.223346,237.656654 205.223346,254.622381 C205.223346,274.145121 194.683518,291.231377 179.91421,296.961992 C182.770054,286.014755 184.736374,274.21186 185.765354,262.002553 C185.780296,261.835206 185.794241,261.666864 185.807191,261.498521 C185.889868,260.502412 185.964576,259.503315 186.034304,258.50123 C186.072156,257.964327 186.110008,257.427424 186.143875,256.887533 C186.172763,256.411393 186.199658,255.933261 186.226553,255.456125 C186.26042,254.846506 186.292296,254.234895 186.322179,253.621292 C186.342101,253.21986 186.362023,252.819424 186.378957,252.416996 C186.42179,251.429852 186.459642,250.43972 186.490521,249.446599 C186.497494,249.21849 186.502475,248.988389 186.508451,248.759284 C186.532358,247.901634 186.551284,247.041992 186.566226,246.180358 C186.571206,245.881525 186.576187,245.582693 186.580171,245.282864 C186.594117,244.221012 186.604078,243.156171 186.604078,242.088342 C186.604078,240.573261 186.585152,239.060171 186.556265,237.549074 C186.5473,237.100825 186.537339,236.652576 186.527377,236.205323 C186.496498,234.973136 186.45765,233.743938 186.40884,232.515735 C186.382942,231.866272 186.352062,231.219798 186.321183,230.572327 C186.275362,229.617058 186.22456,228.662786 186.167782,227.710506 C186.120965,226.940514 186.07116,226.172514 186.01737,225.40551 C185.977525,224.843704 185.933696,224.282895 185.889868,223.722086 C185.760374,222.039658 185.611953,220.364202 185.446599,218.696716 C185.423689,218.467611 185.40277,218.238506 185.378864,218.010397 C185.271284,216.954521 185.154739,215.90263 185.032218,214.852732 C185.031222,214.83779 185.02923,214.822848 185.027237,214.807907 L185.027237,214.807907 Z M180.800747,198.060327 L178.394148,198.895066 C164.964607,203.553868 149.996078,206.30014 134.733696,206.934661 C134.576311,206.941634 134.418926,206.948607 134.261541,206.954584 C133.399907,206.987455 132.537276,207.012358 131.67365,207.03228 C131.448529,207.037261 131.224405,207.044233 130.998288,207.048218 C129.962335,207.06814 128.925385,207.079097 127.888436,207.079097 C126.851486,207.079097 125.814537,207.06814 124.778584,207.048218 C124.553463,207.044233 124.330335,207.037261 124.105214,207.03228 C123.240591,207.012358 122.376965,206.987455 121.513339,206.954584 C121.357946,206.948607 121.202553,206.941634 121.04716,206.934661 C105.784778,206.30014 90.8152529,203.554864 77.3827237,198.895066 L74.9890739,198.065307 C42.8775097,186.264405 21.1971984,164.071097 21.1971984,138.692233 C21.1971984,135.324389 21.5856809,132.014319 22.3228016,128.774973 L22.4393463,128.292856 C25.6557821,114.902163 35.0042646,102.498615 49.4727471,92.424965 L51.7906926,90.8112685 C71.1620233,78.1636732 98.1187237,70.3043735 127.888436,70.3043735 C157.994833,70.3043735 185.224467,78.3419767 204.640623,91.2405914 L206.952591,92.8791907 C221.192965,102.972763 230.349198,115.34842 233.430163,128.668389 L233.450086,128.755051 C234.190195,132.000374 234.579673,135.317416 234.579673,138.692233 C234.579673,164.068109 212.905339,186.258428 180.800747,198.060327 L180.800747,198.060327 Z M239.21158,122.693728 C235.282926,110.439595 226.835922,99.0839533 214.419424,89.4974008 C218.162802,86.2510817 222.947113,84.4421479 227.996389,84.4421479 C239.446661,84.4421479 248.762272,93.7577588 248.762272,105.209027 C248.762272,112.422848 245.116514,118.929432 239.21158,122.693728 L239.21158,122.693728 Z" fill="#000000"></path>
        <path d="M89.6906459,106.69323 C79.8959066,106.69323 71.6790039,114.910132 71.6790039,124.703875 C71.6790039,134.498615 79.8959066,142.447564 89.6906459,142.447564 C99.4843891,142.447564 107.433339,134.498615 107.433339,124.703875 C107.433339,114.910132 99.4843891,106.69323 89.6906459,106.69323" fill="#FF4500"></path>
        <path d="M167.419019,106.69323 C157.6193,106.69323 149.385463,114.905152 149.385463,124.703875 C149.385463,134.503595 157.6193,142.447564 167.419019,142.447564 C177.218739,142.447564 185.161712,134.503595 185.161712,124.703875 C185.161712,114.905152 177.218739,106.69323 167.419019,106.69323" fill="#FF4500"></path>
        <path d="M169.04965,169.293696 C167.652109,167.89516 165.386957,167.894163 163.986428,169.291704 C156.978802,176.293354 145.389074,179.697058 128.555829,179.697058 C128.508016,179.697058 128.463191,179.709012 128.415377,179.711004 C128.36856,179.709012 128.323735,179.697058 128.275922,179.697058 C111.442677,179.697058 99.8559377,176.293354 92.855284,169.2927 C91.4577432,167.89516 89.1915953,167.89516 87.7920623,169.2927 C86.3945214,170.690241 86.3945214,172.957385 87.7920623,174.354926 C96.2042023,182.768062 109.446475,186.857089 128.275922,186.857089 C128.323735,186.857089 128.36856,186.84414 128.415377,186.843144 C128.463191,186.84414 128.508016,186.857089 128.555829,186.857089 C147.383284,186.857089 160.627549,182.768062 169.047658,174.356918 C170.446195,172.959377 170.447191,170.692233 169.04965,169.293696" fill="#000000"></path>
    </g>
</svg>
