<?xml version="1.0" encoding="UTF-8" standalone="no"?>
<svg
   xmlns:dc="http://purl.org/dc/elements/1.1/"
   xmlns:cc="http://creativecommons.org/ns#"
   xmlns:rdf="http://www.w3.org/1999/02/22-rdf-syntax-ns#"
   xmlns:svg="http://www.w3.org/2000/svg"
   xmlns="http://www.w3.org/2000/svg"
   xmlns:sodipodi="http://sodipodi.sourceforge.net/DTD/sodipodi-0.dtd"
   xmlns:inkscape="http://www.inkscape.org/namespaces/inkscape"
   viewBox="0 0 478.06375 262.50882"
   id="svg2"
   version="1.1"
   inkscape:version="0.91 r13725"
   sodipodi:docname="sources.svg"
   width="478.06375"
   height="262.50882">
  <metadata
     id="metadata14">
    <rdf:RDF>
      <cc:Work
         rdf:about="">
        <dc:format>image/svg+xml</dc:format>
        <dc:type
           rdf:resource="http://purl.org/dc/dcmitype/StillImage" />
        <dc:title></dc:title>
      </cc:Work>
    </rdf:RDF>
  </metadata>
  <defs
     id="defs12">
    <linearGradient
       gradientUnits="userSpaceOnUse"
       id="SVGID_1_"
       y2="53.006302"
       x2="46.492699"
       y1="0"
       x1="46.492699"
       gradientTransform="matrix(2.1508845,0,0,2.1508843,292.69829,327.25033)">
      <stop
         offset="0"
         style="stop-color:#f79810;stop-opacity:1"
         id="stop2461" />
      <stop
         offset="1"
         style="stop-color:#f8310e;stop-opacity:1"
         id="stop2463" />
    </linearGradient>
  </defs>
  <sodipodi:namedview
     pagecolor="#ffffff"
     bordercolor="#666666"
     borderopacity="1"
     objecttolerance="10"
     gridtolerance="10"
     guidetolerance="10"
     inkscape:pageopacity="0"
     inkscape:pageshadow="2"
     inkscape:window-width="1920"
     inkscape:window-height="1020"
     id="namedview10"
     showgrid="false"
     fit-margin-top="0"
     fit-margin-left="0"
     fit-margin-right="0"
     fit-margin-bottom="0"
     inkscape:zoom="0.52243827"
     inkscape:cx="594.57331"
     inkscape:cy="372.36255"
     inkscape:window-x="1920"
     inkscape:window-y="456"
     inkscape:window-maximized="1"
     inkscape:current-layer="svg2" />
  <path
     d="m 74.642857,68.214286 -7.571428,0 0,-4.428571 c -2.857143,3.357143 -5.357143,5 -7.964286,5 -2.357143,0 -3.928572,-1.071429 -4.785714,-3.107143 -0.428572,-1.25 -0.785715,-3.142857 -0.785715,-5.964286 l 0,-32.214286 7.571429,0 0,33.071429 c 0.178571,1.071429 0.642857,1.5 1.607143,1.5 1.428571,0 2.785714,-1.321428 4.392857,-3.571428 l 0,-31.000001 7.571428,0 0,40.714286 M 47.857143,40.785715 c 0,-4.357143 -0.821429,-7.607143 -2.357143,-9.642857 -2,-2.857143 -5.178571,-3.928572 -8.392857,-3.928572 -3.642857,0 -6.428572,1.071429 -8.392857,3.928572 -1.571429,2.035714 -2.392857,5.357142 -2.392857,9.642857 l 0,14.535714 c 0,4.285715 0.714285,7.285715 2.285714,9.285715 2,2.857142 5.285714,4.285714 8.464286,4.285714 3.214285,0 6.5,-1.428572 8.571428,-4.285714 1.428572,-2 2.142857,-5 2.142857,-9.285715 l 0,-14.607143 z m -7.5,15.357143 c 0.357143,4.035714 -0.892857,6.071428 -3.214286,6.071428 -2.357143,0 -3.571428,-2.035714 -3.214286,-6.071428 l 0,-16.142858 c -0.357142,-4.035714 0.857143,-5.928571 3.214286,-5.928571 2.321429,0 3.571429,1.892857 3.214286,5.928571 l 0,16.142858 z m -22.392857,-10.071429 0,22.142857 -7.964286,0 0,-22.142857 c 0,0 -8.321429,-27.285714 -10,-32.357143 l 8.392857,0 L 14,35 l 5.571429,-21.25 8.357142,0 -10,32.285715"
     id="path4"
     inkscape:connector-curvature="0"
     style="fill:#000000" />
  <path
     d="m 152.64286,33.928572 c -1.17857,0 -2.5,0.714286 -3.75,1.857143 l 0,24.5 c 1.17857,1.214286 2.5,1.785714 3.71428,1.785714 2.14286,0 3.03572,-1.5 3.03572,-5.535714 l 0,-17.357143 c 0,-4.035714 -0.96429,-5.214286 -3.07143,-5.214286 m 29.85714,4.857143 c 0,-3.75 -0.96428,-4.857143 -3.35714,-4.857143 -2.39286,0 -3.42857,1.071429 -3.42857,4.821429 l 0,4.464285 6.78571,0 0,-4.392857"
     id="path6"
     inkscape:connector-curvature="0"
     style="fill:#000000" />
  <path
     d="m 198.82143,18.142858 c 0,0 -1.17857,-8.2142863 -4.75,-11.892858 C 189.53571,1.428572 184.42857,1.428572 182.14286,1.178572 165.46429,0 140.42857,0 140.42857,0 l -0.0714,0 c 0,0 -25,0 -41.678569,1.178572 C 96.357173,1.464286 91.25003,1.464286 86.714316,6.25 83.142857,9.8928577 82,18.142858 82,18.142858 c 0,0 -1.214286,9.714285 -1.214286,19.428571 l 0,9.107143 C 80.785714,56.392858 82,66.071429 82,66.071429 c 0,0 1.142857,8.285714 4.714286,11.928571 4.535714,4.785715 10.5,4.642858 13.142857,5.107143 9.535717,0.928572 40.535717,1.214286 40.535717,1.214286 0,0 25.10714,0 41.78571,-1.214286 2.32143,-0.285714 7.39286,-0.285714 11.92857,-5.071428 3.57143,-3.642857 4.75,-11.928571 4.75,-11.928571 0,0 1.14286,-9.678572 1.14286,-19.428572 l 0,-9.107143 c 0,-9.714286 -1.17857,-19.428571 -1.17857,-19.428571 z m -91.85714,50.071428 -7.96429,0 0,-46.428571 -8.392857,0 0,-7.571429 25.142857,0 0,7.571429 -8.75,0 0,46.428571 z m 28.75,0 -7.57143,0 0,-4.428571 c -2.85715,3.357143 -5.35715,5 -7.96429,5 -2.35714,0 -3.92857,-1.071429 -4.78571,-3.107143 -0.42857,-1.25 -0.78572,-3.142857 -0.78572,-5.964286 l 0,-31.857143 7.57143,0 0,32.750001 c 0.17857,1.071428 0.64286,1.5 1.60714,1.5 1.42858,0 2.78572,-1.321429 4.39286,-3.571429 l 0,-30.678572 7.53572,0 0,40.357143 z m 27.5,-12.071428 c 0,3.714286 -0.25,6.357143 -0.71429,8.071428 -1,3 -3.10714,4.535715 -5.96429,4.535715 -2.57142,0 -5.21428,-1.571429 -7.64285,-4.571429 l 0,4.071429 -7.21429,0 0,-54.035715 7.14286,0 0,17.571429 c 2.35714,-2.857143 5,-4.535715 7.67857,-4.535715 2.85714,0 4.78571,1.678572 5.71429,4.642858 0.53571,1.678571 1,4.285714 1,8.107142 l 0,16.142858 z m 15.92857,5.964286 c 1.78571,0 2.85714,-1 3.21428,-2.964286 0.0714,-0.357143 0.0714,-2.142857 0.0714,-5.071429 l 7.57143,0 0,1.142857 c 3e-5,2.357143 -0.17854,4.035715 -0.24997,4.75 -0.25,1.642858 -0.82143,3.107143 -1.67857,4.392858 -2,2.928571 -5,4.357142 -8.75,4.357142 -3.75,0 -6.60714,-1.357142 -8.71429,-4.142857 -1.53571,-2.035714 -2.5,-5 -2.5,-9.285714 l 0,-14.142857 c 0,-4.285715 0.89286,-7.642858 2.42857,-9.714286 2.07143,-2.75 5,-4.214286 8.64286,-4.214286 3.64286,0 6.5,1.428572 8.57143,4.214286 1.42857,2.071428 2.32143,5.214286 2.32143,9.535714 l 0,8.321429 -14.35714,0 0,7.214286 c 0,3.75 1.07142,5.607143 3.5,5.607143 z"
     id="path8"
     inkscape:connector-curvature="0"
     style="fill:#000000" />
  <path
     style="fill:#000000"
     id="path2465"
     d="m 59.528656,200.44721 c -0.41727,0 -0.7485,0.32263 -0.80228,0.78292 l -1.4626,11.10932 1.4626,10.91789 c 0.0538,0.46029 0.38501,0.78077 0.80228,0.78077 0.40437,0 0.73345,-0.31833 0.79798,-0.77647 l 0,0 0,-0.002 c 0,0 0,0 0,0.002 l 1.73361,-10.92219 -1.73361,-11.11147 c -0.0624,-0.45814 -0.39576,-0.78077 -0.79798,-0.78077 z m 8.22498,-6.06979 c -0.0688,-0.4775 -0.41081,-0.80659 -0.83239,-0.80659 -0.42372,0 -0.77432,0.33984 -0.83239,0.80659 0,0.004 -1.96591,17.96203 -1.96591,17.96203 l 1.96591,17.56412 c 0.0559,0.47105 0.40652,0.81089 0.83239,0.81089 0.41942,0 0.76142,-0.33124 0.83024,-0.80658 l 2.23692,-17.56843 -2.23477,-17.96203 z m 30.98134,-16.56827 c -0.80658,0 -1.47335,0.66033 -1.51207,1.49917 l -1.56584,33.04619 1.56584,21.35613 c 0.0409,0.83454 0.70549,1.49271 1.51207,1.49271 0.80228,0 1.466914,-0.66032 1.514234,-1.49701 l 0,0.006 1.77017,-21.35828 -1.77017,-33.04618 c -0.0473,-0.83885 -0.711954,-1.49917 -1.514234,-1.49917 z m -16.03484,11.48573 c -0.61945,0 -1.12491,0.4947 -1.17438,1.15502 l -1.76373,21.896 1.76373,21.18407 c 0.0473,0.65601 0.55493,1.15072 1.17438,1.15072 0.613,0 1.11846,-0.49471 1.17223,-1.15072 l 2.00463,-21.18407 -2.00463,-21.9003 c -0.0538,-0.65602 -0.55923,-1.15072 -1.17223,-1.15072 z m 32.329944,45.90632 c 1.00017,0 1.8132,-0.80658 1.85407,-1.839 l 1.53573,-20.99694 -1.53358,-43.99634 c -0.0409,-1.03242 -0.8539,-1.839 -1.85406,-1.839 -1.00877,0 -1.82395,0.80873 -1.85622,1.84115 0,0.002 -1.36151,43.99204 -1.36151,43.99204 l 1.36151,21.00554 c 0.0323,1.02382 0.84745,1.83255 1.85406,1.83255 z m 33.36023,0.0989 c 1.37656,0 2.51223,-1.13351 2.53804,-2.52729 l 0,0.0151 0,-0.0151 1.07114,-20.39468 -1.07114,-50.81249 c -0.0237,-1.39163 -1.16148,-2.52729 -2.53804,-2.52729 -1.37872,0 -2.51654,1.13351 -2.53805,2.52944 l -0.95714,50.79313 c 0,0.0323 0.95714,20.4248 0.95714,20.4248 0.0215,1.38087 1.16148,2.51438 2.53805,2.51438 z m -16.80702,-0.0796 c 1.19805,0 2.16379,-0.96145 2.19606,-2.18745 l 0,0.0151 1.30343,-20.67861 -1.30558,-44.31466 c -0.0323,-1.22601 -0.99802,-2.1853 -2.19606,-2.1853 -1.20664,0 -2.17239,0.95929 -2.1982,2.1853 l -1.15933,44.31682 1.16148,20.6743 c 0.0258,1.21309 0.99156,2.17454 2.1982,2.17454 z m -40.896924,-0.19358 c 0.71195,0 1.28838,-0.56999 1.34216,-1.32064 l 1.88847,-21.36044 -1.88847,-20.3194 c -0.0516,-0.75066 -0.62806,-1.31634 -1.34216,-1.31634 -0.72269,0 -1.29913,0.56998 -1.3443,1.32494 l -1.66263,20.3108 1.66263,21.35829 c 0.0473,0.7528 0.62161,1.32279 1.3443,1.32279 z m -15.90794,-1.17008 c 0.52052,0 0.94209,-0.41082 1.00231,-0.97865 l 2.12078,-20.53665 -2.11862,-21.31096 c -0.0624,-0.56998 -0.48395,-0.9808 -1.00447,-0.9808 -0.52696,0 -0.94854,0.41297 -1.00231,0.9808 0,0.002 -1.86697,21.31096 -1.86697,21.31096 l 1.86697,20.53234 c 0.0516,0.56999 0.47319,0.98296 1.00231,0.98296 z m 65.176104,-66.53976 c -1.30128,0 -2.34446,1.03458 -2.37027,2.35952 l -1.05823,42.69721 1.05823,20.54524 c 0.0258,1.30774 1.06684,2.34232 2.37027,2.34232 1.29914,0 2.33587,-1.03243 2.36598,-2.35737 l 0,0.0172 1.18729,-20.54525 -1.18729,-42.70366 c -0.0301,-1.32064 -1.06684,-2.35522 -2.36598,-2.35522 z m -33.10211,67.92708 c 0.89907,0 1.64113,-0.73345 1.68414,-1.66909 l 1.65188,-21.21417 -1.65188,-40.60439 c -0.0452,-0.93779 -0.78507,-1.66909 -1.68414,-1.66909 -0.90767,0 -1.64758,0.73345 -1.68629,1.66909 0,0.002 -1.4626,40.60439 -1.4626,40.60439 l 1.46475,21.22278 c 0.0366,0.92703 0.77647,1.66048 1.68414,1.66048 z m 18.44599,-2.00247 0,-0.0108 1.41958,-20.86357 -1.41958,-45.4783 c -0.0344,-1.12922 -0.92488,-2.01538 -2.02398,-2.01538 -1.10556,0 -1.99603,0.88401 -2.02614,2.01538 l -1.26042,45.47615 1.26257,20.87433 c 0.0301,1.11846 0.92058,2.00247 2.02399,2.00247 1.10125,0 1.98741,-0.88401 2.02398,-2.00893 l 0,0.009 z m 107.36785,-47.08932 c -3.37043,0 -6.586,0.68184 -9.51551,1.90999 -1.95731,-22.17131 -20.54955,-39.56337 -43.22848,-39.56337 -5.54928,0 -10.95875,1.09265 -15.73587,2.94026 -1.85621,0.7184 -2.35091,1.4583 -2.36812,2.89294 l 0,78.0771 c 0.0194,1.50562 1.18729,2.75959 2.65634,2.908 0.0624,0.006 67.7507,0.0409 68.18948,0.0409 13.585,0 24.59968,-11.01468 24.59968,-24.60182 0,-13.58713 -11.01254,-24.60397 -24.59752,-24.60397 z m -75.87675,-31.88895 c -1.47766,0 -2.69076,1.2131 -2.71226,2.70366 l -1.10986,55.41754 1.11201,20.11292 c 0.0194,1.46905 1.23245,2.68 2.71011,2.68 1.47336,0 2.68646,-1.21095 2.70796,-2.70151 l 0,0.0237 1.20665,-20.11507 -1.20665,-55.42184 c -0.0215,-1.48626 -1.2346,-2.69936 -2.70796,-2.69936 z M 77.129346,250.9973 c -2.91015,-0.68399 -3.69737,-1.04963 -3.69737,-2.20251 0,-0.81303 0.65602,-1.65403 2.62193,-1.65403 1.67984,0 2.99188,0.68183 4.17056,1.88848 l 2.64774,-2.56816 c -1.73146,-1.80889 -3.82857,-2.88433 -6.68495,-2.88433 -3.62209,0 -6.55804,2.04549 -6.55804,5.37721 0,3.61778 2.36167,4.69323 5.74286,5.4783 3.46077,0.78507 4.09098,1.31204 4.09098,2.49287 0,1.38947 -1.02597,1.99387 -3.19837,1.99387 -1.75727,0 -3.40915,-0.60224 -4.69538,-2.10141 l -2.64774,2.36167 c 1.38948,2.04549 4.06733,3.32957 7.13234,3.32957 5.01156,0 7.21406,-2.35952 7.21406,-5.8461 0,-3.98774 -3.22632,-4.9836 -6.13862,-5.66543 z m 16.89305,-7.42055 c -5.00726,0 -7.96903,3.88019 -7.96903,9.46604 0,5.58584 2.96177,9.46389 7.96903,9.46389 5.00726,0 7.973324,-3.87805 7.973324,-9.46389 0,-5.58585 -2.966064,-9.46604 -7.973324,-9.46604 z m 0,15.28848 c -2.96177,0 -4.19638,-2.54449 -4.19638,-5.82029 0,-3.27795 1.23461,-5.82245 4.19638,-5.82245 2.96607,0 4.19637,2.5445 4.19637,5.82245 0,3.2758 -1.2303,5.82029 -4.19637,5.82029 z M 116.81317,254.172 c 0,2.93596 -1.4454,4.747 -3.77695,4.747 -2.33371,0 -3.749,-1.86266 -3.749,-4.79862 l 0,-10.25757 -3.67371,0 0,10.30919 c 0,5.3471 2.99188,8.33683 7.42271,8.33683 4.66741,0 7.44851,-3.06931 7.44851,-8.38845 l 0,-10.25757 -3.67156,0 0,10.30919 0,0 z m 19.50852,-2.54449 c 0,1.02382 0.0516,3.32956 0.0516,4.0114 -0.23659,-0.4732 -0.83884,-1.38948 -1.28408,-2.07346 l -6.50642,-9.70479 -3.5124,0 0,18.35995 3.61994,0 0,-8.07872 c 0,-1.02382 -0.0516,-3.32957 -0.0516,-4.0114 0.23445,0.47104 0.841,1.38947 1.28408,2.07345 l 6.74087,10.01667 3.27795,0 0,-18.35995 -3.61994,0 0,7.76685 0,0 z m 14.08184,-7.7647 -5.74286,0 0,18.35995 5.4783,0 c 4.7212,0 9.39077,-2.72947 9.39077,-9.17997 0,-6.71506 -3.88235,-9.17998 -9.12621,-9.17998 z m -0.26456,14.79379 -1.80674,0 0,-11.22547 1.9401,0 c 3.88235,0 5.48261,1.86052 5.48261,5.61166 0,3.35753 -1.75943,5.61381 -5.61597,5.61381 z m 20.74529,-11.43626 c 1.65188,0 2.70151,0.73561 3.35753,1.99387 l 3.40915,-1.57229 c -1.15503,-2.38533 -3.25429,-4.06517 -6.71506,-4.06517 -4.79432,0 -8.154,3.88019 -8.154,9.46604 0,5.79448 3.22417,9.46389 8.02279,9.46389 3.33172,0 5.53423,-1.54649 6.7925,-4.14261 l -3.09297,-1.83685 c -0.97005,1.62822 -1.94225,2.33586 -3.59413,2.33586 -2.75313,0 -4.35339,-2.51869 -4.35339,-5.82029 -0.002,-3.407 1.5766,-5.82245 4.32758,-5.82245 z m 13.61725,-3.35753 -3.67156,0 0,18.35995 11.03403,0 0,-3.62209 -7.36247,0 0,-14.73786 z m 17.03499,-0.28606 c -5.01155,0 -7.97332,3.88019 -7.97332,9.46604 0,5.58584 2.96177,9.46389 7.97332,9.46389 5.00727,0 7.9712,-3.87805 7.9712,-9.46389 0,-5.58585 -2.96393,-9.46604 -7.9712,-9.46604 z m 0,15.28848 c -2.96606,0 -4.19637,-2.54449 -4.19637,-5.82029 0,-3.27795 1.23031,-5.82245 4.19637,-5.82245 2.95963,0 4.19208,2.5445 4.19208,5.82245 0,3.2758 -1.23245,5.82029 -4.19208,5.82029 z m 22.78648,-4.69323 c 0,2.93596 -1.43895,4.747 -3.77265,4.747 -2.33801,0 -3.75113,-1.86266 -3.75113,-4.79862 l 0,-10.25757 -3.67157,0 0,10.30919 c 0,5.3471 2.98973,8.33683 7.4227,8.33683 4.66743,0 7.44636,-3.06931 7.44636,-8.38845 l 0,-10.25757 -3.67371,0 0,10.30919 z m 14.00442,-10.30919 -5.74072,0 0,18.35995 5.4783,0 c 4.72335,0 9.38862,-2.72947 9.38862,-9.17997 0,-6.71506 -3.88021,-9.17998 -9.1262,-9.17998 z m -0.26242,14.79379 -1.80889,0 0,-11.22547 1.94225,0 c 3.87805,0 5.4783,1.86052 5.4783,5.61166 0,3.35753 -1.75728,5.61381 -5.61166,5.61381 z"
     inkscape:connector-curvature="0" />
  <g
     id="g4221"
     transform="matrix(0.44376401,0,0,0.44376401,278.06376,6.8964715)">
    <g
       id="g4157">
      <g
         id="g4159">
        <path
           id="path4161"
           d="m 25.634,272.867 c -6.45,0.104 -11.945,2.751 -15.96,8.562 l -0.213,0 0,-27.592 -9.305,0 0,75.903 8.774,0 0,-6.873 0.21,0 c 1.903,3.065 5.814,8.456 15.223,8.456 18.815,0 24.314,-17.653 24.314,-30.863 0,-15.541 -8.351,-27.593 -23.043,-27.593 z m -1.481,50.425 c -5.919,0 -15.118,-3.914 -15.118,-18.608 0,-8.985 1.478,-23.468 14.904,-23.468 14.375,0 15.118,13.641 15.118,20.721 10e-4,12.153 -4.758,21.355 -14.904,21.355 z"
           inkscape:connector-curvature="0" />
        <path
           id="path4163"
           d="m 97.409,320.117 0,-31.817 c 0,-14.161 -16.068,-15.434 -20.506,-15.434 -13.637,0 -22.41,5.18 -22.833,18.395 l 8.563,0 c 0.633,-4.231 2.114,-10.674 12.686,-10.674 8.773,0 13.001,3.164 13.001,8.981 0,5.497 -2.642,6.346 -4.863,6.56 l -15.33,1.896 c -15.433,1.9 -16.806,12.686 -16.806,17.339 0,9.51 7.188,15.958 17.334,15.958 10.783,0 16.386,-5.073 19.979,-8.982 0.317,4.227 1.585,8.453 9.832,8.453 2.113,0 3.487,-0.632 5.075,-1.054 l 0,-6.766 c -1.061,0.215 -2.222,0.42 -3.067,0.42 -1.9,0 -3.065,-0.946 -3.065,-3.275 z m -9.304,-9.513 c 0,7.4 -8.456,13 -17.124,13 -6.978,0 -10.045,-3.593 -10.045,-9.617 0,-6.978 7.295,-8.351 11.841,-8.989 11.523,-1.479 13.846,-2.322 15.325,-3.487 l 0,9.094 0.003,0 z"
           inkscape:connector-curvature="0" />
        <path
           id="path4165"
           d="m 133.562,272.867 c -9.514,0 -14.695,6.448 -16.701,9.404 l -0.213,0 0,-7.819 -8.773,0 0,55.286 9.301,0 0,-30.128 c 0,-15.012 9.304,-18.391 14.59,-18.391 9.091,0 11.84,4.863 11.84,14.48 l 0,34.038 9.301,0 0,-37.633 c 0,-15.748 -10.783,-19.237 -19.345,-19.237 z"
           inkscape:connector-curvature="0" />
        <path
           id="path4167"
           d="m 197.94,282.271 -0.21,0 c -2.219,-3.163 -6.45,-9.404 -16.491,-9.404 -14.692,0 -23.043,12.053 -23.043,27.592 0,13.209 5.496,30.862 24.312,30.862 5.396,0 11.737,-1.688 15.75,-9.197 l 0.216,0 0,7.614 8.769,0 0,-75.902 -9.299,0 0,28.436 -0.004,0 z m -15.223,41.021 c -10.15,0 -14.905,-9.201 -14.905,-21.355 0,-7.08 0.74,-20.721 15.117,-20.721 13.424,0 14.901,14.482 14.901,23.468 0.003,14.693 -9.193,18.608 -15.113,18.608 z"
           inkscape:connector-curvature="0" />
        <path
           id="path4169"
           d="m 240.539,281.219 c 7.824,0 11.948,4.438 13.106,11.837 l 8.988,0 c -0.742,-9.617 -6.241,-20.194 -20.722,-20.194 -18.285,0 -26.531,13.641 -26.531,30.763 0,15.963 9.196,27.694 24.733,27.694 16.178,0 21.567,-12.368 22.52,-21.141 l -8.988,0 c -1.585,8.455 -6.976,13.109 -13.212,13.109 -12.79,0 -15.116,-11.736 -15.116,-21.251 0,-9.827 3.701,-20.817 15.222,-20.817 z"
           inkscape:connector-curvature="0" />
        <path
           id="path4171"
           d="m 309.674,320.117 0,-31.817 c 0,-14.161 -16.065,-15.434 -20.507,-15.434 -13.637,0 -22.409,5.18 -22.834,18.395 l 8.563,0 c 0.634,-4.231 2.116,-10.674 12.688,-10.674 8.772,0 13.002,3.164 13.002,8.981 0,5.497 -2.646,6.346 -4.863,6.56 l -15.329,1.896 c -15.434,1.9 -16.807,12.686 -16.807,17.339 0,9.51 7.183,15.958 17.336,15.958 10.78,0 16.385,-5.073 19.979,-8.982 0.315,4.227 1.581,8.453 9.832,8.453 2.109,0 3.487,-0.632 5.073,-1.054 l 0,-6.766 c -1.059,0.215 -2.22,0.42 -3.063,0.42 -1.905,0 -3.07,-0.946 -3.07,-3.275 z m -9.303,-9.513 c 0,7.4 -8.458,13 -17.121,13 -6.985,0 -10.046,-3.593 -10.046,-9.617 0,-6.978 7.292,-8.351 11.839,-8.989 11.523,-1.479 13.848,-2.322 15.328,-3.487 l 0,9.093 z"
           inkscape:connector-curvature="0" />
        <path
           id="path4173"
           d="m 377.433,272.867 c -8.563,0 -12.266,3.805 -16.909,8.987 -1.59,-2.961 -4.759,-8.987 -14.695,-8.987 -9.936,0 -14.694,6.448 -16.702,9.404 l -0.214,0 0,-7.819 -8.769,0 0,55.286 9.3,0 0,-30.128 c 0,-15.012 9.3,-18.391 14.585,-18.391 6.868,0 8.668,5.601 8.668,10.252 l 0,38.27 9.305,0 0,-33.722 c 0,-7.404 5.181,-14.8 13.002,-14.8 7.925,0 10.252,5.179 10.252,12.79 l 0,35.731 9.3,0 0,-38.27 c 0.001,-15.54 -11.202,-18.603 -17.123,-18.603 z"
           inkscape:connector-curvature="0" />
        <path
           id="path4175"
           d="m 427.642,272.867 c -10.037,0 -14.262,6.241 -16.488,9.404 l -0.214,0 0,-7.819 -8.773,0 0,77.166 9.305,0 0,-27.694 0.212,0 c 2.435,3.91 7.295,7.397 14.692,7.397 18.821,0 24.314,-17.653 24.314,-30.862 10e-4,-15.54 -8.352,-27.592 -23.048,-27.592 z m -1.472,50.425 c -5.922,0 -15.121,-3.914 -15.121,-18.608 0,-8.985 1.482,-23.468 14.904,-23.468 14.38,0 15.121,13.641 15.121,20.721 -0.002,12.153 -4.762,21.355 -14.904,21.355 z"
           inkscape:connector-curvature="0" />
      </g>
      <polygon
         id="polygon4177"
         points="181.402,251.739 251.965,99.074 70.561,99.074 0,251.739 " />
      <g
         id="g4179">
        <path
           id="path4181"
           d="m 301.692,136.215 c -12.59,0.208 -23.315,5.368 -31.155,16.712 l -0.417,0 0,-53.855 -18.157,0 0,148.148 17.131,0 0,-13.412 0.41,0 c 3.714,5.982 11.349,16.503 29.709,16.503 36.729,0 47.457,-34.453 47.457,-60.241 -0.002,-30.328 -16.298,-53.855 -44.978,-53.855 z m -2.892,98.42 c -11.549,0 -29.501,-7.639 -29.501,-36.313 0,-17.539 2.883,-45.805 29.09,-45.805 28.06,0 29.504,26.619 29.504,40.442 0,23.718 -9.285,41.676 -29.093,41.676 z"
           inkscape:connector-curvature="0" />
        <path
           id="path4183"
           d="m 407.408,152.517 c 15.268,0 23.324,8.664 25.589,23.106 l 17.534,0 c -1.443,-18.771 -12.171,-39.41 -40.44,-39.41 -35.692,0 -51.78,26.619 -51.78,60.04 0,31.16 17.949,54.058 48.276,54.058 31.567,0 42.095,-24.138 43.944,-41.262 l -17.534,0 c -3.098,16.503 -13.615,25.586 -25.785,25.586 -24.964,0 -29.508,-22.905 -29.508,-41.473 0.002,-19.192 7.224,-40.645 29.704,-40.645 z"
           inkscape:connector-curvature="0" />
      </g>
    </g>
    <g
       id="g4185" />
    <g
       id="g4187" />
    <g
       id="g4189" />
    <g
       id="g4191" />
    <g
       id="g4193" />
    <g
       id="g4195" />
    <g
       id="g4197" />
    <g
       id="g4199" />
    <g
       id="g4201" />
    <g
       id="g4203" />
    <g
       id="g4205" />
    <g
       id="g4207" />
    <g
       id="g4209" />
    <g
       id="g4211" />
    <g
       id="g4213" />
  </g>
</svg>
