<svg width="36px" height="36px" xmlns="http://www.w3.org/2000/svg"><path style="fill:#f8f8fa;fill-opacity:1;fill-rule:nonzero;stroke:none" d="M25.445 8.32c-2.097.004-4.199.008-6.293.004H6.078v19.52c5.004 0 10.008-.004 15.008.004l.781-.23.531-.618c-.003.402-.128.926.461.734h3.715v-.492a2.115 2.115 0 0 1-1.363-1.976c0-.875.543-1.66 1.36-1.973-.005-2.219-.005-4.438-.012-6.652v-3.36h4.64c.684-1.11.692-2.465 1.086-3.68.035-.492.25-1.347-.566-1.265-2.078-.016-4.176-.016-6.274-.016Zm-11.03.48c.624-.003 1.25 0 1.874.036.707.039 1.426.039 2.11.223 1.042.28 2.066.703 2.949 1.324.613.449.789 1.226.879 1.941.03 3.89.003 7.785.011 11.68.063.508-.152.976-.472 1.36a4.146 4.146 0 0 1-1.52 1.456c-.652.36-1.433.407-2.168.528-.578.097-1.18.03-1.758.16-2.836.031-5.672.008-8.504.015-.312-.054-.726.137-.937-.16V9.738c.055-.312-.137-.726.16-.937h5.5c.625.012 1.25.004 1.875 0zm-.34 3.196c-.427.004-.852.02-1.274.008.422.012.847 0 1.273-.008zm.202.004c.145 0 .293-.004.438.004-.145-.008-.293-.004-.438-.004Zm.543.008c.176.008.356.023.528.047l-.004-.004a7.874 7.874 0 0 0-.524-.043zm.957.336c.153.203.211.472.227.746a1.214 1.214 0 0 0-.227-.746zm.22 9.297c-.005.613-.005 1.226-.013 1.843 0-.015.004-.027.004-.039.004-.601.008-1.203.008-1.804zm-.024 1.941c0 .008-.004.012-.004.02 0-.008.004-.012.004-.02zm-.196.36c-.14.12-.328.183-.535.21a.76.76 0 0 0 .535-.21zm-2.976.222c.449-.004.894-.004 1.344 0zm0 0" transform="matrix(1.33853 0 0 1.33853 -7.283 -6.137)"/><path style="fill:#f8f8fa;fill-opacity:.4;fill-rule:nonzero;stroke:none" d="M7.04 8.8c-.298.212-.106.626-.161.938v17.625c.21.297.625.106.937.16 2.832-.007 5.668.016 8.504-.015.578-.13 1.18-.063 1.758-.16.735-.121 1.516-.168 2.168-.528a4.146 4.146 0 0 0 1.52-1.457c.32-.383.535-.851.472-1.36-.008-3.894.02-7.788-.011-11.679-.09-.715-.266-1.492-.88-1.941-.882-.621-1.906-1.043-2.949-1.324-.68-.184-1.402-.184-2.109-.223-1.25-.07-2.5-.012-3.75-.035zm5.76 3.204c.845.027 1.704-.059 2.54.047.504.136.707.676.66 1.152-.008 3.414.016 6.828-.012 10.242 0 .418-.363.73-.773.707-.805.024-1.61.004-2.414.012zM29.45 25.266a2.12 2.12 0 0 1-2.122 2.12 2.117 2.117 0 0 1-2.117-2.12 2.12 2.12 0 0 1 4.238 0zM5.441 8.324h.637v19.52h-.637Zm0 0" transform="matrix(1.33853 0 0 1.33853 -7.283 -6.137)"/></svg>