<svg width="845" height="492" viewBox="0 0 845 492" fill="none" xmlns="http://www.w3.org/2000/svg">
<rect x="0.5" y="48.5" width="796" height="107" rx="7.5" fill="#424557" fill-opacity="0.35"/>
<path d="M38.992 96.492C38.92 96.612 38.84 96.704 38.752 96.768C38.672 96.824 38.572 96.852 38.452 96.852C38.316 96.852 38.156 96.784 37.972 96.648C37.788 96.512 37.556 96.364 37.276 96.204C37.004 96.036 36.672 95.884 36.28 95.748C35.896 95.612 35.428 95.544 34.876 95.544C34.356 95.544 33.896 95.616 33.496 95.76C33.104 95.896 32.772 96.084 32.5 96.324C32.236 96.564 32.036 96.848 31.9 97.176C31.764 97.496 31.696 97.844 31.696 98.22C31.696 98.7 31.812 99.1 32.044 99.42C32.284 99.732 32.596 100 32.98 100.224C33.372 100.448 33.812 100.644 34.3 100.812C34.796 100.972 35.3 101.14 35.812 101.316C36.332 101.492 36.836 101.692 37.324 101.916C37.82 102.132 38.26 102.408 38.644 102.744C39.036 103.08 39.348 103.492 39.58 103.98C39.82 104.468 39.94 105.068 39.94 105.78C39.94 106.532 39.812 107.24 39.556 107.904C39.3 108.56 38.924 109.132 38.428 109.62C37.94 110.108 37.336 110.492 36.616 110.772C35.904 111.052 35.092 111.192 34.18 111.192C33.06 111.192 32.044 110.992 31.132 110.592C30.22 110.184 29.44 109.636 28.792 108.948L29.464 107.844C29.528 107.756 29.604 107.684 29.692 107.628C29.788 107.564 29.892 107.532 30.004 107.532C30.108 107.532 30.224 107.576 30.352 107.664C30.488 107.744 30.64 107.848 30.808 107.976C30.976 108.104 31.168 108.244 31.384 108.396C31.6 108.548 31.844 108.688 32.116 108.816C32.396 108.944 32.712 109.052 33.064 109.14C33.416 109.22 33.812 109.26 34.252 109.26C34.804 109.26 35.296 109.184 35.728 109.032C36.16 108.88 36.524 108.668 36.82 108.396C37.124 108.116 37.356 107.784 37.516 107.4C37.676 107.016 37.756 106.588 37.756 106.116C37.756 105.596 37.636 105.172 37.396 104.844C37.164 104.508 36.856 104.228 36.472 104.004C36.088 103.78 35.648 103.592 35.152 103.44C34.656 103.28 34.152 103.12 33.64 102.96C33.128 102.792 32.624 102.6 32.128 102.384C31.632 102.168 31.192 101.888 30.808 101.544C30.424 101.2 30.112 100.772 29.872 100.26C29.64 99.74 29.524 99.1 29.524 98.34C29.524 97.732 29.64 97.144 29.872 96.576C30.112 96.008 30.456 95.504 30.904 95.064C31.36 94.624 31.916 94.272 32.572 94.008C33.236 93.744 33.996 93.612 34.852 93.612C35.812 93.612 36.684 93.764 37.468 94.068C38.26 94.372 38.956 94.812 39.556 95.388L38.992 96.492ZM50.4289 103.596C50.4289 103.1 50.3569 102.648 50.2129 102.24C50.0769 101.824 49.8729 101.468 49.6009 101.172C49.3369 100.868 49.0129 100.636 48.6289 100.476C48.2449 100.308 47.8089 100.224 47.3209 100.224C46.2969 100.224 45.4849 100.524 44.8849 101.124C44.2929 101.716 43.9249 102.54 43.7809 103.596H50.4289ZM52.1569 109.296C51.8929 109.616 51.5769 109.896 51.2089 110.136C50.8409 110.368 50.4449 110.56 50.0209 110.712C49.6049 110.864 49.1729 110.976 48.7249 111.048C48.2769 111.128 47.8329 111.168 47.3929 111.168C46.5529 111.168 45.7769 111.028 45.0649 110.748C44.3609 110.46 43.7489 110.044 43.2289 109.5C42.7169 108.948 42.3169 108.268 42.0289 107.46C41.7409 106.652 41.5969 105.724 41.5969 104.676C41.5969 103.828 41.7249 103.036 41.9809 102.3C42.2449 101.564 42.6209 100.928 43.1089 100.392C43.5969 99.848 44.1929 99.424 44.8969 99.12C45.6009 98.808 46.3929 98.652 47.2729 98.652C48.0009 98.652 48.6729 98.776 49.2889 99.024C49.9129 99.264 50.4489 99.616 50.8969 100.08C51.3529 100.536 51.7089 101.104 51.9649 101.784C52.2209 102.456 52.3489 103.224 52.3489 104.088C52.3489 104.424 52.3129 104.648 52.2409 104.76C52.1689 104.872 52.0329 104.928 51.8329 104.928H43.7089C43.7329 105.696 43.8369 106.364 44.0209 106.932C44.2129 107.5 44.4769 107.976 44.8129 108.36C45.1489 108.736 45.5489 109.02 46.0129 109.212C46.4769 109.396 46.9969 109.488 47.5729 109.488C48.1089 109.488 48.5689 109.428 48.9529 109.308C49.3449 109.18 49.6809 109.044 49.9609 108.9C50.2409 108.756 50.4729 108.624 50.6569 108.504C50.8489 108.376 51.0129 108.312 51.1489 108.312C51.3249 108.312 51.4609 108.38 51.5569 108.516L52.1569 109.296ZM56.8206 93.324V111H54.6846V93.324H56.8206ZM68.0605 103.596C68.0605 103.1 67.9885 102.648 67.8445 102.24C67.7085 101.824 67.5045 101.468 67.2325 101.172C66.9685 100.868 66.6445 100.636 66.2605 100.476C65.8765 100.308 65.4405 100.224 64.9525 100.224C63.9285 100.224 63.1165 100.524 62.5165 101.124C61.9245 101.716 61.5565 102.54 61.4125 103.596H68.0605ZM69.7885 109.296C69.5245 109.616 69.2085 109.896 68.8405 110.136C68.4725 110.368 68.0765 110.56 67.6525 110.712C67.2365 110.864 66.8045 110.976 66.3565 111.048C65.9085 111.128 65.4645 111.168 65.0245 111.168C64.1845 111.168 63.4085 111.028 62.6965 110.748C61.9925 110.46 61.3805 110.044 60.8605 109.5C60.3485 108.948 59.9485 108.268 59.6605 107.46C59.3725 106.652 59.2285 105.724 59.2285 104.676C59.2285 103.828 59.3565 103.036 59.6125 102.3C59.8765 101.564 60.2525 100.928 60.7405 100.392C61.2285 99.848 61.8245 99.424 62.5285 99.12C63.2325 98.808 64.0245 98.652 64.9045 98.652C65.6325 98.652 66.3045 98.776 66.9205 99.024C67.5445 99.264 68.0805 99.616 68.5285 100.08C68.9845 100.536 69.3405 101.104 69.5965 101.784C69.8525 102.456 69.9805 103.224 69.9805 104.088C69.9805 104.424 69.9445 104.648 69.8725 104.76C69.8005 104.872 69.6645 104.928 69.4645 104.928H61.3405C61.3645 105.696 61.4685 106.364 61.6525 106.932C61.8445 107.5 62.1085 107.976 62.4445 108.36C62.7805 108.736 63.1805 109.02 63.6445 109.212C64.1085 109.396 64.6285 109.488 65.2045 109.488C65.7405 109.488 66.2005 109.428 66.5845 109.308C66.9765 109.18 67.3125 109.044 67.5925 108.9C67.8725 108.756 68.1045 108.624 68.2885 108.504C68.4805 108.376 68.6445 108.312 68.7805 108.312C68.9565 108.312 69.0925 108.38 69.1885 108.516L69.7885 109.296ZM80.7042 101.004C80.6402 101.092 80.5762 101.16 80.5122 101.208C80.4482 101.256 80.3602 101.28 80.2482 101.28C80.1282 101.28 79.9962 101.232 79.8522 101.136C79.7082 101.032 79.5282 100.92 79.3122 100.8C79.1042 100.68 78.8442 100.572 78.5322 100.476C78.2282 100.372 77.8522 100.32 77.4042 100.32C76.8042 100.32 76.2762 100.428 75.8202 100.644C75.3642 100.852 74.9802 101.156 74.6682 101.556C74.3642 101.956 74.1322 102.44 73.9722 103.008C73.8202 103.576 73.7442 104.212 73.7442 104.916C73.7442 105.652 73.8282 106.308 73.9962 106.884C74.1642 107.452 74.4002 107.932 74.7042 108.324C75.0162 108.708 75.3882 109.004 75.8202 109.212C76.2602 109.412 76.7522 109.512 77.2962 109.512C77.8162 109.512 78.2442 109.452 78.5802 109.332C78.9162 109.204 79.1922 109.064 79.4082 108.912C79.6322 108.76 79.8162 108.624 79.9602 108.504C80.1122 108.376 80.2602 108.312 80.4042 108.312C80.5802 108.312 80.7162 108.38 80.8122 108.516L81.4122 109.296C81.1482 109.624 80.8482 109.904 80.5122 110.136C80.1762 110.368 79.8122 110.564 79.4202 110.724C79.0362 110.876 78.6322 110.988 78.2082 111.06C77.7842 111.132 77.3522 111.168 76.9122 111.168C76.1522 111.168 75.4442 111.028 74.7882 110.748C74.1402 110.468 73.5762 110.064 73.0962 109.536C72.6162 109 72.2402 108.344 71.9682 107.568C71.6962 106.792 71.5602 105.908 71.5602 104.916C71.5602 104.012 71.6842 103.176 71.9322 102.408C72.1882 101.64 72.5562 100.98 73.0362 100.428C73.5242 99.868 74.1202 99.432 74.8242 99.12C75.5362 98.808 76.3522 98.652 77.2722 98.652C78.1282 98.652 78.8802 98.792 79.5282 99.072C80.1842 99.344 80.7642 99.732 81.2682 100.236L80.7042 101.004ZM87.0771 111.192C86.1171 111.192 85.3771 110.924 84.8571 110.388C84.3451 109.852 84.0891 109.08 84.0891 108.072V100.632H82.6251C82.4971 100.632 82.3891 100.596 82.3011 100.524C82.2131 100.444 82.1691 100.324 82.1691 100.164V99.312L84.1611 99.06L84.6531 95.304C84.6771 95.184 84.7291 95.088 84.8091 95.016C84.8971 94.936 85.0091 94.896 85.1451 94.896H86.2251V99.084H89.7411V100.632H86.2251V107.928C86.2251 108.44 86.3491 108.82 86.5971 109.068C86.8451 109.316 87.1651 109.44 87.5571 109.44C87.7811 109.44 87.9731 109.412 88.1331 109.356C88.3011 109.292 88.4451 109.224 88.5651 109.152C88.6851 109.08 88.7851 109.016 88.8651 108.96C88.9531 108.896 89.0291 108.864 89.0931 108.864C89.2051 108.864 89.3051 108.932 89.3931 109.068L90.0171 110.088C89.6491 110.432 89.2051 110.704 88.6851 110.904C88.1651 111.096 87.6291 111.192 87.0771 111.192ZM101.099 111.192C100.139 111.192 99.3993 110.924 98.8793 110.388C98.3673 109.852 98.1113 109.08 98.1113 108.072V100.632H96.6473C96.5193 100.632 96.4113 100.596 96.3233 100.524C96.2353 100.444 96.1913 100.324 96.1913 100.164V99.312L98.1833 99.06L98.6753 95.304C98.6993 95.184 98.7513 95.088 98.8313 95.016C98.9193 94.936 99.0313 94.896 99.1673 94.896H100.247V99.084H103.763V100.632H100.247V107.928C100.247 108.44 100.371 108.82 100.619 109.068C100.867 109.316 101.187 109.44 101.579 109.44C101.803 109.44 101.995 109.412 102.155 109.356C102.323 109.292 102.467 109.224 102.587 109.152C102.707 109.08 102.807 109.016 102.887 108.96C102.975 108.896 103.051 108.864 103.115 108.864C103.227 108.864 103.327 108.932 103.415 109.068L104.039 110.088C103.671 110.432 103.227 110.704 102.707 110.904C102.187 111.096 101.651 111.192 101.099 111.192ZM107.757 100.464C108.277 99.912 108.853 99.472 109.485 99.144C110.117 98.816 110.845 98.652 111.669 98.652C112.333 98.652 112.917 98.764 113.421 98.988C113.933 99.204 114.357 99.516 114.693 99.924C115.037 100.324 115.297 100.808 115.473 101.376C115.649 101.944 115.737 102.572 115.737 103.26V111H113.589V103.26C113.589 102.34 113.377 101.628 112.953 101.124C112.537 100.612 111.901 100.356 111.045 100.356C110.413 100.356 109.821 100.508 109.269 100.812C108.725 101.116 108.221 101.528 107.757 102.048V111H105.609V93.324H107.757V100.464ZM126.768 103.596C126.768 103.1 126.696 102.648 126.552 102.24C126.416 101.824 126.212 101.468 125.94 101.172C125.676 100.868 125.352 100.636 124.968 100.476C124.584 100.308 124.148 100.224 123.66 100.224C122.636 100.224 121.824 100.524 121.224 101.124C120.632 101.716 120.264 102.54 120.12 103.596H126.768ZM128.496 109.296C128.232 109.616 127.916 109.896 127.548 110.136C127.18 110.368 126.784 110.56 126.36 110.712C125.944 110.864 125.512 110.976 125.064 111.048C124.616 111.128 124.172 111.168 123.732 111.168C122.892 111.168 122.116 111.028 121.404 110.748C120.7 110.46 120.088 110.044 119.568 109.5C119.056 108.948 118.656 108.268 118.368 107.46C118.08 106.652 117.936 105.724 117.936 104.676C117.936 103.828 118.064 103.036 118.32 102.3C118.584 101.564 118.96 100.928 119.448 100.392C119.936 99.848 120.532 99.424 121.236 99.12C121.94 98.808 122.732 98.652 123.612 98.652C124.34 98.652 125.012 98.776 125.628 99.024C126.252 99.264 126.788 99.616 127.236 100.08C127.692 100.536 128.048 101.104 128.304 101.784C128.56 102.456 128.688 103.224 128.688 104.088C128.688 104.424 128.652 104.648 128.58 104.76C128.508 104.872 128.372 104.928 128.172 104.928H120.048C120.072 105.696 120.176 106.364 120.36 106.932C120.552 107.5 120.816 107.976 121.152 108.36C121.488 108.736 121.888 109.02 122.352 109.212C122.816 109.396 123.336 109.488 123.912 109.488C124.448 109.488 124.908 109.428 125.292 109.308C125.684 109.18 126.02 109.044 126.3 108.9C126.58 108.756 126.812 108.624 126.996 108.504C127.188 108.376 127.352 108.312 127.488 108.312C127.664 108.312 127.8 108.38 127.896 108.516L128.496 109.296ZM144.652 101.736C144.252 101.2 143.82 100.828 143.356 100.62C142.892 100.404 142.372 100.296 141.796 100.296C140.668 100.296 139.8 100.7 139.192 101.508C138.584 102.316 138.28 103.468 138.28 104.964C138.28 105.756 138.348 106.436 138.484 107.004C138.62 107.564 138.82 108.028 139.084 108.396C139.348 108.756 139.672 109.02 140.056 109.188C140.44 109.356 140.876 109.44 141.364 109.44C142.068 109.44 142.68 109.28 143.2 108.96C143.728 108.64 144.212 108.188 144.652 107.604V101.736ZM146.788 93.324V111H145.516C145.212 111 145.02 110.852 144.94 110.556L144.748 109.08C144.228 109.704 143.636 110.208 142.972 110.592C142.308 110.976 141.54 111.168 140.668 111.168C139.972 111.168 139.34 111.036 138.772 110.772C138.204 110.5 137.72 110.104 137.32 109.584C136.92 109.064 136.612 108.416 136.396 107.64C136.18 106.864 136.072 105.972 136.072 104.964C136.072 104.068 136.192 103.236 136.432 102.468C136.672 101.692 137.016 101.02 137.464 100.452C137.912 99.884 138.46 99.44 139.108 99.12C139.764 98.792 140.5 98.628 141.316 98.628C142.06 98.628 142.696 98.756 143.224 99.012C143.76 99.26 144.236 99.608 144.652 100.056V93.324H146.788ZM157.938 103.596C157.938 103.1 157.866 102.648 157.722 102.24C157.586 101.824 157.382 101.468 157.11 101.172C156.846 100.868 156.522 100.636 156.138 100.476C155.754 100.308 155.318 100.224 154.83 100.224C153.806 100.224 152.994 100.524 152.394 101.124C151.802 101.716 151.434 102.54 151.29 103.596H157.938ZM159.666 109.296C159.402 109.616 159.086 109.896 158.718 110.136C158.35 110.368 157.954 110.56 157.53 110.712C157.114 110.864 156.682 110.976 156.234 111.048C155.786 111.128 155.342 111.168 154.902 111.168C154.062 111.168 153.286 111.028 152.574 110.748C151.87 110.46 151.258 110.044 150.738 109.5C150.226 108.948 149.826 108.268 149.538 107.46C149.25 106.652 149.106 105.724 149.106 104.676C149.106 103.828 149.234 103.036 149.49 102.3C149.754 101.564 150.13 100.928 150.618 100.392C151.106 99.848 151.702 99.424 152.406 99.12C153.11 98.808 153.902 98.652 154.782 98.652C155.51 98.652 156.182 98.776 156.798 99.024C157.422 99.264 157.958 99.616 158.406 100.08C158.862 100.536 159.218 101.104 159.474 101.784C159.73 102.456 159.858 103.224 159.858 104.088C159.858 104.424 159.822 104.648 159.75 104.76C159.678 104.872 159.542 104.928 159.342 104.928H151.218C151.242 105.696 151.346 106.364 151.53 106.932C151.722 107.5 151.986 107.976 152.322 108.36C152.658 108.736 153.058 109.02 153.522 109.212C153.986 109.396 154.506 109.488 155.082 109.488C155.618 109.488 156.078 109.428 156.462 109.308C156.854 109.18 157.19 109.044 157.47 108.9C157.75 108.756 157.982 108.624 158.166 108.504C158.358 108.376 158.522 108.312 158.658 108.312C158.834 108.312 158.97 108.38 159.066 108.516L159.666 109.296ZM162.796 111V100.668L161.452 100.512C161.284 100.472 161.144 100.412 161.032 100.332C160.928 100.244 160.876 100.12 160.876 99.96V99.084H162.796V97.908C162.796 97.212 162.892 96.596 163.084 96.06C163.284 95.516 163.564 95.06 163.924 94.692C164.292 94.316 164.732 94.032 165.244 93.84C165.756 93.648 166.332 93.552 166.972 93.552C167.516 93.552 168.016 93.632 168.472 93.792L168.424 94.86C168.408 95.052 168.3 95.156 168.1 95.172C167.908 95.188 167.648 95.196 167.32 95.196C166.952 95.196 166.616 95.244 166.312 95.34C166.016 95.436 165.76 95.592 165.544 95.808C165.328 96.024 165.16 96.308 165.04 96.66C164.928 97.012 164.872 97.448 164.872 97.968V99.084H168.376V100.632H164.944V111H162.796ZM176.576 105.528C175.592 105.56 174.752 105.64 174.056 105.768C173.368 105.888 172.804 106.048 172.364 106.248C171.932 106.448 171.616 106.684 171.416 106.956C171.224 107.228 171.128 107.532 171.128 107.868C171.128 108.188 171.18 108.464 171.284 108.696C171.388 108.928 171.528 109.12 171.704 109.272C171.888 109.416 172.1 109.524 172.34 109.596C172.588 109.66 172.852 109.692 173.132 109.692C173.508 109.692 173.852 109.656 174.164 109.584C174.476 109.504 174.768 109.392 175.04 109.248C175.32 109.104 175.584 108.932 175.832 108.732C176.088 108.532 176.336 108.304 176.576 108.048V105.528ZM169.676 100.56C170.348 99.912 171.072 99.428 171.848 99.108C172.624 98.788 173.484 98.628 174.428 98.628C175.108 98.628 175.712 98.74 176.24 98.964C176.768 99.188 177.212 99.5 177.572 99.9C177.932 100.3 178.204 100.784 178.388 101.352C178.572 101.92 178.664 102.544 178.664 103.224V111H177.716C177.508 111 177.348 110.968 177.236 110.904C177.124 110.832 177.036 110.696 176.972 110.496L176.732 109.344C176.412 109.64 176.1 109.904 175.796 110.136C175.492 110.36 175.172 110.552 174.836 110.712C174.5 110.864 174.14 110.98 173.756 111.06C173.38 111.148 172.96 111.192 172.496 111.192C172.024 111.192 171.58 111.128 171.164 111C170.748 110.864 170.384 110.664 170.072 110.4C169.768 110.136 169.524 109.804 169.34 109.404C169.164 108.996 169.076 108.516 169.076 107.964C169.076 107.484 169.208 107.024 169.472 106.584C169.736 106.136 170.164 105.74 170.756 105.396C171.348 105.052 172.12 104.772 173.072 104.556C174.024 104.332 175.192 104.204 176.576 104.172V103.224C176.576 102.28 176.372 101.568 175.964 101.088C175.556 100.6 174.96 100.356 174.176 100.356C173.648 100.356 173.204 100.424 172.844 100.56C172.492 100.688 172.184 100.836 171.92 101.004C171.664 101.164 171.44 101.312 171.248 101.448C171.064 101.576 170.88 101.64 170.696 101.64C170.552 101.64 170.428 101.604 170.324 101.532C170.22 101.452 170.132 101.356 170.06 101.244L169.676 100.56ZM191.554 98.844V111H190.282C189.978 111 189.786 110.852 189.706 110.556L189.538 109.248C189.01 109.832 188.418 110.304 187.762 110.664C187.106 111.016 186.354 111.192 185.506 111.192C184.842 111.192 184.254 111.084 183.742 110.868C183.238 110.644 182.814 110.332 182.47 109.932C182.126 109.532 181.866 109.048 181.69 108.48C181.522 107.912 181.438 107.284 181.438 106.596V98.844H183.574V106.596C183.574 107.516 183.782 108.228 184.198 108.732C184.622 109.236 185.266 109.488 186.13 109.488C186.762 109.488 187.35 109.34 187.894 109.044C188.446 108.74 188.954 108.324 189.418 107.796V98.844H191.554ZM196.788 93.324V111H194.652V93.324H196.788ZM203.624 111.192C202.664 111.192 201.924 110.924 201.404 110.388C200.892 109.852 200.636 109.08 200.636 108.072V100.632H199.172C199.044 100.632 198.936 100.596 198.848 100.524C198.76 100.444 198.716 100.324 198.716 100.164V99.312L200.708 99.06L201.2 95.304C201.224 95.184 201.276 95.088 201.356 95.016C201.444 94.936 201.556 94.896 201.692 94.896H202.772V99.084H206.288V100.632H202.772V107.928C202.772 108.44 202.896 108.82 203.144 109.068C203.392 109.316 203.712 109.44 204.104 109.44C204.328 109.44 204.52 109.412 204.68 109.356C204.848 109.292 204.992 109.224 205.112 109.152C205.232 109.08 205.332 109.016 205.412 108.96C205.5 108.896 205.576 108.864 205.64 108.864C205.752 108.864 205.852 108.932 205.94 109.068L206.564 110.088C206.196 110.432 205.752 110.704 205.232 110.904C204.712 111.096 204.176 111.192 203.624 111.192ZM213.915 111V98.844H215.199C215.503 98.844 215.691 98.992 215.763 99.288L215.919 100.536C216.367 99.984 216.871 99.532 217.431 99.18C217.991 98.828 218.639 98.652 219.375 98.652C220.191 98.652 220.851 98.88 221.355 99.336C221.867 99.792 222.235 100.408 222.459 101.184C222.635 100.744 222.859 100.364 223.131 100.044C223.411 99.724 223.723 99.46 224.067 99.252C224.411 99.044 224.775 98.892 225.159 98.796C225.551 98.7 225.947 98.652 226.347 98.652C226.987 98.652 227.555 98.756 228.051 98.964C228.555 99.164 228.979 99.46 229.323 99.852C229.675 100.244 229.943 100.728 230.127 101.304C230.311 101.872 230.403 102.524 230.403 103.26V111H228.255V103.26C228.255 102.308 228.047 101.588 227.631 101.1C227.215 100.604 226.615 100.356 225.831 100.356C225.479 100.356 225.143 100.42 224.823 100.548C224.511 100.668 224.235 100.848 223.995 101.088C223.755 101.328 223.563 101.632 223.419 102C223.283 102.36 223.215 102.78 223.215 103.26V111H221.067V103.26C221.067 102.284 220.871 101.556 220.479 101.076C220.087 100.596 219.515 100.356 218.763 100.356C218.235 100.356 217.747 100.5 217.299 100.788C216.851 101.068 216.439 101.452 216.063 101.94V111H213.915ZM243.285 98.844V111H242.013C241.709 111 241.517 110.852 241.437 110.556L241.269 109.248C240.741 109.832 240.149 110.304 239.493 110.664C238.837 111.016 238.085 111.192 237.237 111.192C236.573 111.192 235.985 111.084 235.473 110.868C234.969 110.644 234.545 110.332 234.201 109.932C233.857 109.532 233.597 109.048 233.421 108.48C233.253 107.912 233.169 107.284 233.169 106.596V98.844H235.305V106.596C235.305 107.516 235.513 108.228 235.929 108.732C236.353 109.236 236.997 109.488 237.861 109.488C238.493 109.488 239.081 109.34 239.625 109.044C240.177 108.74 240.685 108.324 241.149 107.796V98.844H243.285ZM253.392 100.848C253.296 101.024 253.148 101.112 252.948 101.112C252.828 101.112 252.692 101.068 252.54 100.98C252.388 100.892 252.2 100.796 251.976 100.692C251.76 100.58 251.5 100.48 251.196 100.392C250.892 100.296 250.532 100.248 250.116 100.248C249.756 100.248 249.432 100.296 249.144 100.392C248.856 100.48 248.608 100.604 248.4 100.764C248.2 100.924 248.044 101.112 247.932 101.328C247.828 101.536 247.776 101.764 247.776 102.012C247.776 102.324 247.864 102.584 248.04 102.792C248.224 103 248.464 103.18 248.76 103.332C249.056 103.484 249.392 103.62 249.768 103.74C250.144 103.852 250.528 103.976 250.92 104.112C251.32 104.24 251.708 104.384 252.084 104.544C252.46 104.704 252.796 104.904 253.092 105.144C253.388 105.384 253.624 105.68 253.8 106.032C253.984 106.376 254.076 106.792 254.076 107.28C254.076 107.84 253.976 108.36 253.776 108.84C253.576 109.312 253.28 109.724 252.888 110.076C252.496 110.42 252.016 110.692 251.448 110.892C250.88 111.092 250.224 111.192 249.48 111.192C248.632 111.192 247.864 111.056 247.176 110.784C246.488 110.504 245.904 110.148 245.424 109.716L245.928 108.9C245.992 108.796 246.068 108.716 246.156 108.66C246.244 108.604 246.356 108.576 246.492 108.576C246.636 108.576 246.788 108.632 246.948 108.744C247.108 108.856 247.3 108.98 247.524 109.116C247.756 109.252 248.036 109.376 248.364 109.488C248.692 109.6 249.1 109.656 249.588 109.656C250.004 109.656 250.368 109.604 250.68 109.5C250.992 109.388 251.252 109.24 251.46 109.056C251.668 108.872 251.82 108.66 251.916 108.42C252.02 108.18 252.072 107.924 252.072 107.652C252.072 107.316 251.98 107.04 251.796 106.824C251.62 106.6 251.384 106.412 251.088 106.26C250.792 106.1 250.452 105.964 250.068 105.852C249.692 105.732 249.304 105.608 248.904 105.48C248.512 105.352 248.124 105.208 247.74 105.048C247.364 104.88 247.028 104.672 246.732 104.424C246.436 104.176 246.196 103.872 246.012 103.512C245.836 103.144 245.748 102.7 245.748 102.18C245.748 101.716 245.844 101.272 246.036 100.848C246.228 100.416 246.508 100.04 246.876 99.72C247.244 99.392 247.696 99.132 248.232 98.94C248.768 98.748 249.38 98.652 250.068 98.652C250.868 98.652 251.584 98.78 252.216 99.036C252.856 99.284 253.408 99.628 253.872 100.068L253.392 100.848ZM258.591 98.844V111H256.455V98.844H258.591ZM259.047 95.028C259.047 95.236 259.003 95.432 258.915 95.616C258.835 95.792 258.723 95.952 258.579 96.096C258.443 96.232 258.279 96.34 258.087 96.42C257.903 96.5 257.707 96.54 257.499 96.54C257.291 96.54 257.095 96.5 256.911 96.42C256.735 96.34 256.579 96.232 256.443 96.096C256.307 95.952 256.199 95.792 256.119 95.616C256.039 95.432 255.999 95.236 255.999 95.028C255.999 94.82 256.039 94.624 256.119 94.44C256.199 94.248 256.307 94.084 256.443 93.948C256.579 93.804 256.735 93.692 256.911 93.612C257.095 93.532 257.291 93.492 257.499 93.492C257.707 93.492 257.903 93.532 258.087 93.612C258.279 93.692 258.443 93.804 258.579 93.948C258.723 94.084 258.835 94.248 258.915 94.44C259.003 94.624 259.047 94.82 259.047 95.028ZM270.2 101.004C270.136 101.092 270.072 101.16 270.008 101.208C269.944 101.256 269.856 101.28 269.744 101.28C269.624 101.28 269.492 101.232 269.348 101.136C269.204 101.032 269.024 100.92 268.808 100.8C268.6 100.68 268.34 100.572 268.028 100.476C267.724 100.372 267.348 100.32 266.9 100.32C266.3 100.32 265.772 100.428 265.316 100.644C264.86 100.852 264.476 101.156 264.164 101.556C263.86 101.956 263.628 102.44 263.468 103.008C263.316 103.576 263.24 104.212 263.24 104.916C263.24 105.652 263.324 106.308 263.492 106.884C263.66 107.452 263.896 107.932 264.2 108.324C264.512 108.708 264.884 109.004 265.316 109.212C265.756 109.412 266.248 109.512 266.792 109.512C267.312 109.512 267.74 109.452 268.076 109.332C268.412 109.204 268.688 109.064 268.904 108.912C269.128 108.76 269.312 108.624 269.456 108.504C269.608 108.376 269.756 108.312 269.9 108.312C270.076 108.312 270.212 108.38 270.308 108.516L270.908 109.296C270.644 109.624 270.344 109.904 270.008 110.136C269.672 110.368 269.308 110.564 268.916 110.724C268.532 110.876 268.128 110.988 267.704 111.06C267.28 111.132 266.848 111.168 266.408 111.168C265.648 111.168 264.94 111.028 264.284 110.748C263.636 110.468 263.072 110.064 262.592 109.536C262.112 109 261.736 108.344 261.464 107.568C261.192 106.792 261.056 105.908 261.056 104.916C261.056 104.012 261.18 103.176 261.428 102.408C261.684 101.64 262.052 100.98 262.532 100.428C263.02 99.868 263.616 99.432 264.32 99.12C265.032 98.808 265.848 98.652 266.768 98.652C267.624 98.652 268.376 98.792 269.024 99.072C269.68 99.344 270.26 99.732 270.764 100.236L270.2 101.004ZM285.702 100.848C285.606 101.024 285.458 101.112 285.258 101.112C285.138 101.112 285.002 101.068 284.85 100.98C284.698 100.892 284.51 100.796 284.286 100.692C284.07 100.58 283.81 100.48 283.506 100.392C283.202 100.296 282.842 100.248 282.426 100.248C282.066 100.248 281.742 100.296 281.454 100.392C281.166 100.48 280.918 100.604 280.71 100.764C280.51 100.924 280.354 101.112 280.242 101.328C280.138 101.536 280.086 101.764 280.086 102.012C280.086 102.324 280.174 102.584 280.35 102.792C280.534 103 280.774 103.18 281.07 103.332C281.366 103.484 281.702 103.62 282.078 103.74C282.454 103.852 282.838 103.976 283.23 104.112C283.63 104.24 284.018 104.384 284.394 104.544C284.77 104.704 285.106 104.904 285.402 105.144C285.698 105.384 285.934 105.68 286.11 106.032C286.294 106.376 286.386 106.792 286.386 107.28C286.386 107.84 286.286 108.36 286.086 108.84C285.886 109.312 285.59 109.724 285.198 110.076C284.806 110.42 284.326 110.692 283.758 110.892C283.19 111.092 282.534 111.192 281.79 111.192C280.942 111.192 280.174 111.056 279.486 110.784C278.798 110.504 278.214 110.148 277.734 109.716L278.238 108.9C278.302 108.796 278.378 108.716 278.466 108.66C278.554 108.604 278.666 108.576 278.802 108.576C278.946 108.576 279.098 108.632 279.258 108.744C279.418 108.856 279.61 108.98 279.834 109.116C280.066 109.252 280.346 109.376 280.674 109.488C281.002 109.6 281.41 109.656 281.898 109.656C282.314 109.656 282.678 109.604 282.99 109.5C283.302 109.388 283.562 109.24 283.77 109.056C283.978 108.872 284.13 108.66 284.226 108.42C284.33 108.18 284.382 107.924 284.382 107.652C284.382 107.316 284.29 107.04 284.106 106.824C283.93 106.6 283.694 106.412 283.398 106.26C283.102 106.1 282.762 105.964 282.378 105.852C282.002 105.732 281.614 105.608 281.214 105.48C280.822 105.352 280.434 105.208 280.05 105.048C279.674 104.88 279.338 104.672 279.042 104.424C278.746 104.176 278.506 103.872 278.322 103.512C278.146 103.144 278.058 102.7 278.058 102.18C278.058 101.716 278.154 101.272 278.346 100.848C278.538 100.416 278.818 100.04 279.186 99.72C279.554 99.392 280.006 99.132 280.542 98.94C281.078 98.748 281.69 98.652 282.378 98.652C283.178 98.652 283.894 98.78 284.526 99.036C285.166 99.284 285.718 99.628 286.182 100.068L285.702 100.848ZM293.769 98.652C294.657 98.652 295.457 98.8 296.169 99.096C296.881 99.392 297.489 99.812 297.993 100.356C298.497 100.9 298.881 101.56 299.145 102.336C299.417 103.104 299.553 103.964 299.553 104.916C299.553 105.876 299.417 106.74 299.145 107.508C298.881 108.276 298.497 108.932 297.993 109.476C297.489 110.02 296.881 110.44 296.169 110.736C295.457 111.024 294.657 111.168 293.769 111.168C292.873 111.168 292.065 111.024 291.345 110.736C290.633 110.44 290.025 110.02 289.521 109.476C289.017 108.932 288.629 108.276 288.357 107.508C288.093 106.74 287.961 105.876 287.961 104.916C287.961 103.964 288.093 103.104 288.357 102.336C288.629 101.56 289.017 100.9 289.521 100.356C290.025 99.812 290.633 99.392 291.345 99.096C292.065 98.8 292.873 98.652 293.769 98.652ZM293.769 109.5C294.969 109.5 295.865 109.1 296.457 108.3C297.049 107.492 297.345 106.368 297.345 104.928C297.345 103.48 297.049 102.352 296.457 101.544C295.865 100.736 294.969 100.332 293.769 100.332C293.161 100.332 292.629 100.436 292.173 100.644C291.725 100.852 291.349 101.152 291.045 101.544C290.749 101.936 290.525 102.42 290.373 102.996C290.229 103.564 290.157 104.208 290.157 104.928C290.157 106.368 290.453 107.492 291.045 108.3C291.645 109.1 292.553 109.5 293.769 109.5ZM311.898 98.844V111H310.626C310.322 111 310.13 110.852 310.05 110.556L309.882 109.248C309.354 109.832 308.762 110.304 308.106 110.664C307.45 111.016 306.698 111.192 305.85 111.192C305.186 111.192 304.598 111.084 304.086 110.868C303.582 110.644 303.158 110.332 302.814 109.932C302.47 109.532 302.21 109.048 302.034 108.48C301.866 107.912 301.782 107.284 301.782 106.596V98.844H303.918V106.596C303.918 107.516 304.126 108.228 304.542 108.732C304.966 109.236 305.61 109.488 306.474 109.488C307.106 109.488 307.694 109.34 308.238 109.044C308.79 108.74 309.298 108.324 309.762 107.796V98.844H311.898ZM316.953 101.28C317.337 100.448 317.809 99.8 318.369 99.336C318.929 98.864 319.613 98.628 320.421 98.628C320.677 98.628 320.921 98.656 321.153 98.712C321.393 98.768 321.605 98.856 321.789 98.976L321.633 100.572C321.585 100.772 321.465 100.872 321.273 100.872C321.161 100.872 320.997 100.848 320.781 100.8C320.565 100.752 320.321 100.728 320.049 100.728C319.665 100.728 319.321 100.784 319.017 100.896C318.721 101.008 318.453 101.176 318.213 101.4C317.981 101.616 317.769 101.888 317.577 102.216C317.393 102.536 317.225 102.904 317.073 103.32V111H314.925V98.844H316.149C316.381 98.844 316.541 98.888 316.629 98.976C316.717 99.064 316.777 99.216 316.809 99.432L316.953 101.28ZM331.274 101.004C331.21 101.092 331.146 101.16 331.082 101.208C331.018 101.256 330.93 101.28 330.818 101.28C330.698 101.28 330.566 101.232 330.422 101.136C330.278 101.032 330.098 100.92 329.882 100.8C329.674 100.68 329.414 100.572 329.102 100.476C328.798 100.372 328.422 100.32 327.974 100.32C327.374 100.32 326.846 100.428 326.39 100.644C325.934 100.852 325.55 101.156 325.238 101.556C324.934 101.956 324.702 102.44 324.542 103.008C324.39 103.576 324.314 104.212 324.314 104.916C324.314 105.652 324.398 106.308 324.566 106.884C324.734 107.452 324.97 107.932 325.274 108.324C325.586 108.708 325.958 109.004 326.39 109.212C326.83 109.412 327.322 109.512 327.866 109.512C328.386 109.512 328.814 109.452 329.15 109.332C329.486 109.204 329.762 109.064 329.978 108.912C330.202 108.76 330.386 108.624 330.53 108.504C330.682 108.376 330.83 108.312 330.974 108.312C331.15 108.312 331.286 108.38 331.382 108.516L331.982 109.296C331.718 109.624 331.418 109.904 331.082 110.136C330.746 110.368 330.382 110.564 329.99 110.724C329.606 110.876 329.202 110.988 328.778 111.06C328.354 111.132 327.922 111.168 327.482 111.168C326.722 111.168 326.014 111.028 325.358 110.748C324.71 110.468 324.146 110.064 323.666 109.536C323.186 109 322.81 108.344 322.538 107.568C322.266 106.792 322.13 105.908 322.13 104.916C322.13 104.012 322.254 103.176 322.502 102.408C322.758 101.64 323.126 100.98 323.606 100.428C324.094 99.868 324.69 99.432 325.394 99.12C326.106 98.808 326.922 98.652 327.842 98.652C328.698 98.652 329.45 98.792 330.098 99.072C330.754 99.344 331.334 99.732 331.838 100.236L331.274 101.004ZM341.841 103.596C341.841 103.1 341.769 102.648 341.625 102.24C341.489 101.824 341.285 101.468 341.013 101.172C340.749 100.868 340.425 100.636 340.041 100.476C339.657 100.308 339.221 100.224 338.733 100.224C337.709 100.224 336.897 100.524 336.297 101.124C335.705 101.716 335.337 102.54 335.193 103.596H341.841ZM343.569 109.296C343.305 109.616 342.989 109.896 342.621 110.136C342.253 110.368 341.857 110.56 341.433 110.712C341.017 110.864 340.585 110.976 340.137 111.048C339.689 111.128 339.245 111.168 338.805 111.168C337.965 111.168 337.189 111.028 336.477 110.748C335.773 110.46 335.161 110.044 334.641 109.5C334.129 108.948 333.729 108.268 333.441 107.46C333.153 106.652 333.009 105.724 333.009 104.676C333.009 103.828 333.137 103.036 333.393 102.3C333.657 101.564 334.033 100.928 334.521 100.392C335.009 99.848 335.605 99.424 336.309 99.12C337.013 98.808 337.805 98.652 338.685 98.652C339.413 98.652 340.085 98.776 340.701 99.024C341.325 99.264 341.861 99.616 342.309 100.08C342.765 100.536 343.121 101.104 343.377 101.784C343.633 102.456 343.761 103.224 343.761 104.088C343.761 104.424 343.725 104.648 343.653 104.76C343.581 104.872 343.445 104.928 343.245 104.928H335.121C335.145 105.696 335.249 106.364 335.433 106.932C335.625 107.5 335.889 107.976 336.225 108.36C336.561 108.736 336.961 109.02 337.425 109.212C337.889 109.396 338.409 109.488 338.985 109.488C339.521 109.488 339.981 109.428 340.365 109.308C340.757 109.18 341.093 109.044 341.373 108.9C341.653 108.756 341.885 108.624 342.069 108.504C342.261 108.376 342.425 108.312 342.561 108.312C342.737 108.312 342.873 108.38 342.969 108.516L343.569 109.296ZM345.832 109.68C345.832 109.472 345.868 109.276 345.94 109.092C346.02 108.908 346.124 108.748 346.252 108.612C346.388 108.476 346.548 108.368 346.732 108.288C346.916 108.208 347.112 108.168 347.32 108.168C347.528 108.168 347.724 108.208 347.908 108.288C348.092 108.368 348.252 108.476 348.388 108.612C348.524 108.748 348.632 108.908 348.712 109.092C348.792 109.276 348.832 109.472 348.832 109.68C348.832 109.896 348.792 110.096 348.712 110.28C348.632 110.456 348.524 110.612 348.388 110.748C348.252 110.884 348.092 110.988 347.908 111.06C347.724 111.14 347.528 111.18 347.32 111.18C347.112 111.18 346.916 111.14 346.732 111.06C346.548 110.988 346.388 110.884 346.252 110.748C346.124 110.612 346.02 110.456 345.94 110.28C345.868 110.096 345.832 109.896 345.832 109.68ZM345.832 100.68C345.832 100.472 345.868 100.276 345.94 100.092C346.02 99.908 346.124 99.748 346.252 99.612C346.388 99.476 346.548 99.368 346.732 99.288C346.916 99.208 347.112 99.168 347.32 99.168C347.528 99.168 347.724 99.208 347.908 99.288C348.092 99.368 348.252 99.476 348.388 99.612C348.524 99.748 348.632 99.908 348.712 100.092C348.792 100.276 348.832 100.472 348.832 100.68C348.832 100.896 348.792 101.096 348.712 101.28C348.632 101.456 348.524 101.612 348.388 101.748C348.252 101.884 348.092 101.992 347.908 102.072C347.724 102.144 347.528 102.18 347.32 102.18C347.112 102.18 346.916 102.144 346.732 102.072C346.548 101.992 346.388 101.884 346.252 101.748C346.124 101.612 346.02 101.456 345.94 101.28C345.868 101.096 345.832 100.896 345.832 100.68Z" fill="#FAFAFA"/>
<rect x="0.5" y="48.5" width="796" height="107" rx="7.5" stroke="#6E7291"/>
<g filter="url(#filter0_dd)">
<rect x="490" y="76" width="279" height="340" rx="8" fill="#1F212D"/>
<path d="M526.652 112.148V119H524.324V112.148L518.024 101.804H520.064C520.272 101.804 520.436 101.856 520.556 101.96C520.676 102.056 520.78 102.184 520.868 102.344L524.804 109.028C524.948 109.308 525.08 109.572 525.2 109.82C525.32 110.06 525.424 110.304 525.512 110.552C525.6 110.304 525.7 110.06 525.812 109.82C525.924 109.572 526.048 109.308 526.184 109.028L530.108 102.344C530.18 102.208 530.28 102.084 530.408 101.972C530.536 101.86 530.7 101.804 530.9 101.804H532.952L526.652 112.148ZM536.808 106.652C537.696 106.652 538.496 106.8 539.208 107.096C539.92 107.392 540.528 107.812 541.032 108.356C541.536 108.9 541.92 109.56 542.184 110.336C542.456 111.104 542.592 111.964 542.592 112.916C542.592 113.876 542.456 114.74 542.184 115.508C541.92 116.276 541.536 116.932 541.032 117.476C540.528 118.02 539.92 118.44 539.208 118.736C538.496 119.024 537.696 119.168 536.808 119.168C535.912 119.168 535.104 119.024 534.384 118.736C533.672 118.44 533.064 118.02 532.56 117.476C532.056 116.932 531.668 116.276 531.396 115.508C531.132 114.74 531 113.876 531 112.916C531 111.964 531.132 111.104 531.396 110.336C531.668 109.56 532.056 108.9 532.56 108.356C533.064 107.812 533.672 107.392 534.384 107.096C535.104 106.8 535.912 106.652 536.808 106.652ZM536.808 117.5C538.008 117.5 538.904 117.1 539.496 116.3C540.088 115.492 540.384 114.368 540.384 112.928C540.384 111.48 540.088 110.352 539.496 109.544C538.904 108.736 538.008 108.332 536.808 108.332C536.2 108.332 535.668 108.436 535.212 108.644C534.764 108.852 534.388 109.152 534.084 109.544C533.788 109.936 533.564 110.42 533.412 110.996C533.268 111.564 533.196 112.208 533.196 112.928C533.196 114.368 533.492 115.492 534.084 116.3C534.684 117.1 535.592 117.5 536.808 117.5ZM554.937 106.844V119H553.665C553.361 119 553.169 118.852 553.089 118.556L552.921 117.248C552.393 117.832 551.801 118.304 551.145 118.664C550.489 119.016 549.737 119.192 548.889 119.192C548.225 119.192 547.637 119.084 547.125 118.868C546.621 118.644 546.197 118.332 545.853 117.932C545.509 117.532 545.249 117.048 545.073 116.48C544.905 115.912 544.821 115.284 544.821 114.596V106.844H546.957V114.596C546.957 115.516 547.165 116.228 547.581 116.732C548.005 117.236 548.649 117.488 549.513 117.488C550.145 117.488 550.733 117.34 551.277 117.044C551.829 116.74 552.337 116.324 552.801 115.796V106.844H554.937ZM561.696 119.192C560.736 119.192 559.996 118.924 559.476 118.388C558.964 117.852 558.708 117.08 558.708 116.072V108.632H557.244C557.116 108.632 557.008 108.596 556.92 108.524C556.832 108.444 556.788 108.324 556.788 108.164V107.312L558.78 107.06L559.272 103.304C559.296 103.184 559.348 103.088 559.428 103.016C559.516 102.936 559.628 102.896 559.764 102.896H560.844V107.084H564.36V108.632H560.844V115.928C560.844 116.44 560.968 116.82 561.216 117.068C561.464 117.316 561.784 117.44 562.176 117.44C562.4 117.44 562.592 117.412 562.752 117.356C562.92 117.292 563.064 117.224 563.184 117.152C563.304 117.08 563.404 117.016 563.484 116.96C563.572 116.896 563.648 116.864 563.712 116.864C563.824 116.864 563.924 116.932 564.012 117.068L564.636 118.088C564.268 118.432 563.824 118.704 563.304 118.904C562.784 119.096 562.248 119.192 561.696 119.192ZM576.201 106.844V119H574.929C574.625 119 574.433 118.852 574.353 118.556L574.185 117.248C573.657 117.832 573.065 118.304 572.409 118.664C571.753 119.016 571.001 119.192 570.153 119.192C569.489 119.192 568.901 119.084 568.389 118.868C567.885 118.644 567.461 118.332 567.117 117.932C566.773 117.532 566.513 117.048 566.337 116.48C566.169 115.912 566.085 115.284 566.085 114.596V106.844H568.221V114.596C568.221 115.516 568.429 116.228 568.845 116.732C569.269 117.236 569.913 117.488 570.777 117.488C571.409 117.488 571.997 117.34 572.541 117.044C573.093 116.74 573.601 116.324 574.065 115.796V106.844H576.201ZM581.376 116.072C581.768 116.6 582.196 116.972 582.66 117.188C583.132 117.404 583.648 117.512 584.208 117.512C585.352 117.512 586.228 117.108 586.836 116.3C587.444 115.492 587.748 114.288 587.748 112.688C587.748 111.2 587.476 110.108 586.932 109.412C586.396 108.708 585.628 108.356 584.628 108.356C583.932 108.356 583.324 108.516 582.804 108.836C582.292 109.156 581.816 109.608 581.376 110.192V116.072ZM581.376 108.596C581.888 108.004 582.464 107.532 583.104 107.18C583.752 106.828 584.496 106.652 585.336 106.652C586.048 106.652 586.688 106.788 587.256 107.06C587.832 107.332 588.32 107.728 588.72 108.248C589.12 108.76 589.424 109.384 589.632 110.12C589.848 110.856 589.956 111.684 589.956 112.604C589.956 113.588 589.836 114.484 589.596 115.292C589.356 116.1 589.008 116.792 588.552 117.368C588.104 117.936 587.556 118.38 586.908 118.7C586.26 119.012 585.532 119.168 584.724 119.168C583.924 119.168 583.248 119.02 582.696 118.724C582.152 118.42 581.676 117.992 581.268 117.44L581.16 118.544C581.096 118.848 580.912 119 580.608 119H579.228V101.324H581.376V108.596ZM600.434 111.596C600.434 111.1 600.362 110.648 600.218 110.24C600.082 109.824 599.878 109.468 599.606 109.172C599.342 108.868 599.018 108.636 598.634 108.476C598.25 108.308 597.814 108.224 597.326 108.224C596.302 108.224 595.49 108.524 594.89 109.124C594.298 109.716 593.93 110.54 593.786 111.596H600.434ZM602.162 117.296C601.898 117.616 601.582 117.896 601.214 118.136C600.846 118.368 600.45 118.56 600.026 118.712C599.61 118.864 599.178 118.976 598.73 119.048C598.282 119.128 597.838 119.168 597.398 119.168C596.558 119.168 595.782 119.028 595.07 118.748C594.366 118.46 593.754 118.044 593.234 117.5C592.722 116.948 592.322 116.268 592.034 115.46C591.746 114.652 591.602 113.724 591.602 112.676C591.602 111.828 591.73 111.036 591.986 110.3C592.25 109.564 592.626 108.928 593.114 108.392C593.602 107.848 594.198 107.424 594.902 107.12C595.606 106.808 596.398 106.652 597.278 106.652C598.006 106.652 598.678 106.776 599.294 107.024C599.918 107.264 600.454 107.616 600.902 108.08C601.358 108.536 601.714 109.104 601.97 109.784C602.226 110.456 602.354 111.224 602.354 112.088C602.354 112.424 602.318 112.648 602.246 112.76C602.174 112.872 602.038 112.928 601.838 112.928H593.714C593.738 113.696 593.842 114.364 594.026 114.932C594.218 115.5 594.482 115.976 594.818 116.36C595.154 116.736 595.554 117.02 596.018 117.212C596.482 117.396 597.002 117.488 597.578 117.488C598.114 117.488 598.574 117.428 598.958 117.308C599.35 117.18 599.686 117.044 599.966 116.9C600.246 116.756 600.478 116.624 600.662 116.504C600.854 116.376 601.018 116.312 601.154 116.312C601.33 116.312 601.466 116.38 601.562 116.516L602.162 117.296Z" fill="#FAFAFA"/>
<rect x="490" y="144" width="279" height="1" fill="#6E7291"/>
<path d="M726.565 114H739.43C740.32 114 740.765 112.925 740.135 112.295L733.705 105.86C733.315 105.47 732.68 105.47 732.29 105.86L725.86 112.295C725.23 112.925 725.675 114 726.565 114Z" fill="#FAFAFA"/>
<rect width="279" height="68" transform="translate(490 144)" fill="#2C2E3A"/>
<path d="M528.992 172.492C528.92 172.612 528.84 172.704 528.752 172.768C528.672 172.824 528.572 172.852 528.452 172.852C528.316 172.852 528.156 172.784 527.972 172.648C527.788 172.512 527.556 172.364 527.276 172.204C527.004 172.036 526.672 171.884 526.28 171.748C525.896 171.612 525.428 171.544 524.876 171.544C524.356 171.544 523.896 171.616 523.496 171.76C523.104 171.896 522.772 172.084 522.5 172.324C522.236 172.564 522.036 172.848 521.9 173.176C521.764 173.496 521.696 173.844 521.696 174.22C521.696 174.7 521.812 175.1 522.044 175.42C522.284 175.732 522.596 176 522.98 176.224C523.372 176.448 523.812 176.644 524.3 176.812C524.796 176.972 525.3 177.14 525.812 177.316C526.332 177.492 526.836 177.692 527.324 177.916C527.82 178.132 528.26 178.408 528.644 178.744C529.036 179.08 529.348 179.492 529.58 179.98C529.82 180.468 529.94 181.068 529.94 181.78C529.94 182.532 529.812 183.24 529.556 183.904C529.3 184.56 528.924 185.132 528.428 185.62C527.94 186.108 527.336 186.492 526.616 186.772C525.904 187.052 525.092 187.192 524.18 187.192C523.06 187.192 522.044 186.992 521.132 186.592C520.22 186.184 519.44 185.636 518.792 184.948L519.464 183.844C519.528 183.756 519.604 183.684 519.692 183.628C519.788 183.564 519.892 183.532 520.004 183.532C520.108 183.532 520.224 183.576 520.352 183.664C520.488 183.744 520.64 183.848 520.808 183.976C520.976 184.104 521.168 184.244 521.384 184.396C521.6 184.548 521.844 184.688 522.116 184.816C522.396 184.944 522.712 185.052 523.064 185.14C523.416 185.22 523.812 185.26 524.252 185.26C524.804 185.26 525.296 185.184 525.728 185.032C526.16 184.88 526.524 184.668 526.82 184.396C527.124 184.116 527.356 183.784 527.516 183.4C527.676 183.016 527.756 182.588 527.756 182.116C527.756 181.596 527.636 181.172 527.396 180.844C527.164 180.508 526.856 180.228 526.472 180.004C526.088 179.78 525.648 179.592 525.152 179.44C524.656 179.28 524.152 179.12 523.64 178.96C523.128 178.792 522.624 178.6 522.128 178.384C521.632 178.168 521.192 177.888 520.808 177.544C520.424 177.2 520.112 176.772 519.872 176.26C519.64 175.74 519.524 175.1 519.524 174.34C519.524 173.732 519.64 173.144 519.872 172.576C520.112 172.008 520.456 171.504 520.904 171.064C521.36 170.624 521.916 170.272 522.572 170.008C523.236 169.744 523.996 169.612 524.852 169.612C525.812 169.612 526.684 169.764 527.468 170.068C528.26 170.372 528.956 170.812 529.556 171.388L528.992 172.492ZM537.417 174.652C538.305 174.652 539.105 174.8 539.817 175.096C540.529 175.392 541.137 175.812 541.641 176.356C542.145 176.9 542.529 177.56 542.793 178.336C543.065 179.104 543.201 179.964 543.201 180.916C543.201 181.876 543.065 182.74 542.793 183.508C542.529 184.276 542.145 184.932 541.641 185.476C541.137 186.02 540.529 186.44 539.817 186.736C539.105 187.024 538.305 187.168 537.417 187.168C536.521 187.168 535.713 187.024 534.993 186.736C534.281 186.44 533.673 186.02 533.169 185.476C532.665 184.932 532.277 184.276 532.005 183.508C531.741 182.74 531.609 181.876 531.609 180.916C531.609 179.964 531.741 179.104 532.005 178.336C532.277 177.56 532.665 176.9 533.169 176.356C533.673 175.812 534.281 175.392 534.993 175.096C535.713 174.8 536.521 174.652 537.417 174.652ZM537.417 185.5C538.617 185.5 539.513 185.1 540.105 184.3C540.697 183.492 540.993 182.368 540.993 180.928C540.993 179.48 540.697 178.352 540.105 177.544C539.513 176.736 538.617 176.332 537.417 176.332C536.809 176.332 536.277 176.436 535.821 176.644C535.373 176.852 534.997 177.152 534.693 177.544C534.397 177.936 534.173 178.42 534.021 178.996C533.877 179.564 533.805 180.208 533.805 180.928C533.805 182.368 534.101 183.492 534.693 184.3C535.293 185.1 536.201 185.5 537.417 185.5ZM555.546 174.844V187H554.274C553.97 187 553.778 186.852 553.698 186.556L553.53 185.248C553.002 185.832 552.41 186.304 551.754 186.664C551.098 187.016 550.346 187.192 549.498 187.192C548.834 187.192 548.246 187.084 547.734 186.868C547.23 186.644 546.806 186.332 546.462 185.932C546.118 185.532 545.858 185.048 545.682 184.48C545.514 183.912 545.43 183.284 545.43 182.596V174.844H547.566V182.596C547.566 183.516 547.774 184.228 548.19 184.732C548.614 185.236 549.258 185.488 550.122 185.488C550.754 185.488 551.342 185.34 551.886 185.044C552.438 184.74 552.946 184.324 553.41 183.796V174.844H555.546ZM560.589 176.608C560.853 176.312 561.133 176.044 561.429 175.804C561.725 175.564 562.037 175.36 562.365 175.192C562.701 175.016 563.053 174.884 563.421 174.796C563.797 174.7 564.201 174.652 564.633 174.652C565.297 174.652 565.881 174.764 566.385 174.988C566.897 175.204 567.321 175.516 567.657 175.924C568.001 176.324 568.261 176.808 568.437 177.376C568.613 177.944 568.701 178.572 568.701 179.26V187H566.553V179.26C566.553 178.34 566.341 177.628 565.917 177.124C565.501 176.612 564.865 176.356 564.009 176.356C563.377 176.356 562.785 176.508 562.233 176.812C561.689 177.116 561.185 177.528 560.721 178.048V187H558.573V174.844H559.857C560.161 174.844 560.349 174.992 560.421 175.288L560.589 176.608ZM579.516 177.736C579.116 177.2 578.684 176.828 578.22 176.62C577.756 176.404 577.236 176.296 576.66 176.296C575.532 176.296 574.664 176.7 574.056 177.508C573.448 178.316 573.144 179.468 573.144 180.964C573.144 181.756 573.212 182.436 573.348 183.004C573.484 183.564 573.684 184.028 573.948 184.396C574.212 184.756 574.536 185.02 574.92 185.188C575.304 185.356 575.74 185.44 576.228 185.44C576.932 185.44 577.544 185.28 578.064 184.96C578.592 184.64 579.076 184.188 579.516 183.604V177.736ZM581.652 169.324V187H580.38C580.076 187 579.884 186.852 579.804 186.556L579.612 185.08C579.092 185.704 578.5 186.208 577.836 186.592C577.172 186.976 576.404 187.168 575.532 187.168C574.836 187.168 574.204 187.036 573.636 186.772C573.068 186.5 572.584 186.104 572.184 185.584C571.784 185.064 571.476 184.416 571.26 183.64C571.044 182.864 570.936 181.972 570.936 180.964C570.936 180.068 571.056 179.236 571.296 178.468C571.536 177.692 571.88 177.02 572.328 176.452C572.776 175.884 573.324 175.44 573.972 175.12C574.628 174.792 575.364 174.628 576.18 174.628C576.924 174.628 577.56 174.756 578.088 175.012C578.624 175.26 579.1 175.608 579.516 176.056V169.324H581.652ZM593.125 177.004C593.061 177.092 592.997 177.16 592.933 177.208C592.869 177.256 592.781 177.28 592.669 177.28C592.549 177.28 592.417 177.232 592.273 177.136C592.129 177.032 591.949 176.92 591.733 176.8C591.525 176.68 591.265 176.572 590.953 176.476C590.649 176.372 590.273 176.32 589.825 176.32C589.225 176.32 588.697 176.428 588.241 176.644C587.785 176.852 587.401 177.156 587.089 177.556C586.785 177.956 586.553 178.44 586.393 179.008C586.241 179.576 586.165 180.212 586.165 180.916C586.165 181.652 586.249 182.308 586.417 182.884C586.585 183.452 586.821 183.932 587.125 184.324C587.437 184.708 587.809 185.004 588.241 185.212C588.681 185.412 589.173 185.512 589.717 185.512C590.237 185.512 590.665 185.452 591.001 185.332C591.337 185.204 591.613 185.064 591.829 184.912C592.053 184.76 592.237 184.624 592.381 184.504C592.533 184.376 592.681 184.312 592.825 184.312C593.001 184.312 593.137 184.38 593.233 184.516L593.833 185.296C593.569 185.624 593.269 185.904 592.933 186.136C592.597 186.368 592.233 186.564 591.841 186.724C591.457 186.876 591.053 186.988 590.629 187.06C590.205 187.132 589.773 187.168 589.333 187.168C588.573 187.168 587.865 187.028 587.209 186.748C586.561 186.468 585.997 186.064 585.517 185.536C585.037 185 584.661 184.344 584.389 183.568C584.117 182.792 583.981 181.908 583.981 180.916C583.981 180.012 584.105 179.176 584.353 178.408C584.609 177.64 584.977 176.98 585.457 176.428C585.945 175.868 586.541 175.432 587.245 175.12C587.957 174.808 588.773 174.652 589.693 174.652C590.549 174.652 591.301 174.792 591.949 175.072C592.605 175.344 593.185 175.732 593.689 176.236L593.125 177.004ZM597.974 169.324V187H595.838V169.324H597.974ZM606.202 174.652C607.09 174.652 607.89 174.8 608.602 175.096C609.314 175.392 609.922 175.812 610.426 176.356C610.93 176.9 611.314 177.56 611.578 178.336C611.85 179.104 611.986 179.964 611.986 180.916C611.986 181.876 611.85 182.74 611.578 183.508C611.314 184.276 610.93 184.932 610.426 185.476C609.922 186.02 609.314 186.44 608.602 186.736C607.89 187.024 607.09 187.168 606.202 187.168C605.306 187.168 604.498 187.024 603.778 186.736C603.066 186.44 602.458 186.02 601.954 185.476C601.45 184.932 601.062 184.276 600.79 183.508C600.526 182.74 600.394 181.876 600.394 180.916C600.394 179.964 600.526 179.104 600.79 178.336C601.062 177.56 601.45 176.9 601.954 176.356C602.458 175.812 603.066 175.392 603.778 175.096C604.498 174.8 605.306 174.652 606.202 174.652ZM606.202 185.5C607.402 185.5 608.298 185.1 608.89 184.3C609.482 183.492 609.778 182.368 609.778 180.928C609.778 179.48 609.482 178.352 608.89 177.544C608.298 176.736 607.402 176.332 606.202 176.332C605.594 176.332 605.062 176.436 604.606 176.644C604.158 176.852 603.782 177.152 603.478 177.544C603.182 177.936 602.958 178.42 602.806 178.996C602.662 179.564 602.59 180.208 602.59 180.928C602.59 182.368 602.886 183.492 603.478 184.3C604.078 185.1 604.986 185.5 606.202 185.5ZM624.331 174.844V187H623.059C622.755 187 622.563 186.852 622.483 186.556L622.315 185.248C621.787 185.832 621.195 186.304 620.539 186.664C619.883 187.016 619.131 187.192 618.283 187.192C617.619 187.192 617.031 187.084 616.519 186.868C616.015 186.644 615.591 186.332 615.247 185.932C614.903 185.532 614.643 185.048 614.467 184.48C614.299 183.912 614.215 183.284 614.215 182.596V174.844H616.351V182.596C616.351 183.516 616.559 184.228 616.975 184.732C617.399 185.236 618.043 185.488 618.907 185.488C619.539 185.488 620.127 185.34 620.671 185.044C621.223 184.74 621.731 184.324 622.195 183.796V174.844H624.331ZM635.278 177.736C634.878 177.2 634.446 176.828 633.982 176.62C633.518 176.404 632.998 176.296 632.422 176.296C631.294 176.296 630.426 176.7 629.818 177.508C629.21 178.316 628.906 179.468 628.906 180.964C628.906 181.756 628.974 182.436 629.11 183.004C629.246 183.564 629.446 184.028 629.71 184.396C629.974 184.756 630.298 185.02 630.682 185.188C631.066 185.356 631.502 185.44 631.99 185.44C632.694 185.44 633.306 185.28 633.826 184.96C634.354 184.64 634.838 184.188 635.278 183.604V177.736ZM637.414 169.324V187H636.142C635.838 187 635.646 186.852 635.566 186.556L635.374 185.08C634.854 185.704 634.262 186.208 633.598 186.592C632.934 186.976 632.166 187.168 631.294 187.168C630.598 187.168 629.966 187.036 629.398 186.772C628.83 186.5 628.346 186.104 627.946 185.584C627.546 185.064 627.238 184.416 627.022 183.64C626.806 182.864 626.698 181.972 626.698 180.964C626.698 180.068 626.818 179.236 627.058 178.468C627.298 177.692 627.642 177.02 628.09 176.452C628.538 175.884 629.086 175.44 629.734 175.12C630.39 174.792 631.126 174.628 631.942 174.628C632.686 174.628 633.322 174.756 633.85 175.012C634.386 175.26 634.862 175.608 635.278 176.056V169.324H637.414Z" fill="#FAFAFA"/>
<rect width="279" height="68" transform="translate(490 212)" fill="#2C2E3A"/>
<path d="M526.232 253.152C526.896 253.152 527.468 253.076 527.948 252.924C528.428 252.772 528.82 252.56 529.124 252.288C529.436 252.008 529.664 251.68 529.808 251.304C529.952 250.92 530.024 250.5 530.024 250.044C530.024 249.156 529.708 248.456 529.076 247.944C528.444 247.424 527.496 247.164 526.232 247.164H522.512V253.152H526.232ZM522.512 239.64V245.508H525.584C526.24 245.508 526.808 245.436 527.288 245.292C527.776 245.148 528.176 244.948 528.488 244.692C528.808 244.436 529.044 244.128 529.196 243.768C529.348 243.4 529.424 243 529.424 242.568C529.424 241.552 529.12 240.812 528.512 240.348C527.904 239.876 526.96 239.64 525.68 239.64H522.512ZM525.68 237.804C526.736 237.804 527.644 237.908 528.404 238.116C529.172 238.324 529.8 238.62 530.288 239.004C530.784 239.388 531.148 239.86 531.38 240.42C531.612 240.972 531.728 241.596 531.728 242.292C531.728 242.716 531.66 243.124 531.524 243.516C531.396 243.9 531.2 244.26 530.936 244.596C530.672 244.932 530.336 245.236 529.928 245.508C529.528 245.772 529.056 245.988 528.512 246.156C529.776 246.396 530.724 246.848 531.356 247.512C531.996 248.168 532.316 249.032 532.316 250.104C532.316 250.832 532.18 251.496 531.908 252.096C531.644 252.696 531.252 253.212 530.732 253.644C530.22 254.076 529.588 254.412 528.836 254.652C528.084 254.884 527.228 255 526.268 255H520.196V237.804H525.68ZM541.248 249.528C540.264 249.56 539.424 249.64 538.728 249.768C538.04 249.888 537.476 250.048 537.036 250.248C536.604 250.448 536.288 250.684 536.088 250.956C535.896 251.228 535.8 251.532 535.8 251.868C535.8 252.188 535.852 252.464 535.956 252.696C536.06 252.928 536.2 253.12 536.376 253.272C536.56 253.416 536.772 253.524 537.012 253.596C537.26 253.66 537.524 253.692 537.804 253.692C538.18 253.692 538.524 253.656 538.836 253.584C539.148 253.504 539.44 253.392 539.712 253.248C539.992 253.104 540.256 252.932 540.504 252.732C540.76 252.532 541.008 252.304 541.248 252.048V249.528ZM534.348 244.56C535.02 243.912 535.744 243.428 536.52 243.108C537.296 242.788 538.156 242.628 539.1 242.628C539.78 242.628 540.384 242.74 540.912 242.964C541.44 243.188 541.884 243.5 542.244 243.9C542.604 244.3 542.876 244.784 543.06 245.352C543.244 245.92 543.336 246.544 543.336 247.224V255H542.388C542.18 255 542.02 254.968 541.908 254.904C541.796 254.832 541.708 254.696 541.644 254.496L541.404 253.344C541.084 253.64 540.772 253.904 540.468 254.136C540.164 254.36 539.844 254.552 539.508 254.712C539.172 254.864 538.812 254.98 538.428 255.06C538.052 255.148 537.632 255.192 537.168 255.192C536.696 255.192 536.252 255.128 535.836 255C535.42 254.864 535.056 254.664 534.744 254.4C534.44 254.136 534.196 253.804 534.012 253.404C533.836 252.996 533.748 252.516 533.748 251.964C533.748 251.484 533.88 251.024 534.144 250.584C534.408 250.136 534.836 249.74 535.428 249.396C536.02 249.052 536.792 248.772 537.744 248.556C538.696 248.332 539.864 248.204 541.248 248.172V247.224C541.248 246.28 541.044 245.568 540.636 245.088C540.228 244.6 539.632 244.356 538.848 244.356C538.32 244.356 537.876 244.424 537.516 244.56C537.164 244.688 536.856 244.836 536.592 245.004C536.336 245.164 536.112 245.312 535.92 245.448C535.736 245.576 535.552 245.64 535.368 245.64C535.224 245.64 535.1 245.604 534.996 245.532C534.892 245.452 534.804 245.356 534.732 245.244L534.348 244.56ZM548.246 244.608C548.51 244.312 548.79 244.044 549.086 243.804C549.382 243.564 549.694 243.36 550.022 243.192C550.358 243.016 550.71 242.884 551.078 242.796C551.454 242.7 551.858 242.652 552.29 242.652C552.954 242.652 553.538 242.764 554.042 242.988C554.554 243.204 554.978 243.516 555.314 243.924C555.658 244.324 555.918 244.808 556.094 245.376C556.27 245.944 556.358 246.572 556.358 247.26V255H554.21V247.26C554.21 246.34 553.998 245.628 553.574 245.124C553.158 244.612 552.522 244.356 551.666 244.356C551.034 244.356 550.442 244.508 549.89 244.812C549.346 245.116 548.842 245.528 548.378 246.048V255H546.23V242.844H547.514C547.818 242.844 548.006 242.992 548.078 243.288L548.246 244.608ZM567.173 245.736C566.773 245.2 566.341 244.828 565.877 244.62C565.413 244.404 564.893 244.296 564.317 244.296C563.189 244.296 562.321 244.7 561.713 245.508C561.105 246.316 560.801 247.468 560.801 248.964C560.801 249.756 560.869 250.436 561.005 251.004C561.141 251.564 561.341 252.028 561.605 252.396C561.869 252.756 562.193 253.02 562.577 253.188C562.961 253.356 563.397 253.44 563.885 253.44C564.589 253.44 565.201 253.28 565.721 252.96C566.249 252.64 566.733 252.188 567.173 251.604V245.736ZM569.309 237.324V255H568.037C567.733 255 567.541 254.852 567.461 254.556L567.269 253.08C566.749 253.704 566.157 254.208 565.493 254.592C564.829 254.976 564.061 255.168 563.189 255.168C562.493 255.168 561.861 255.036 561.293 254.772C560.725 254.5 560.241 254.104 559.841 253.584C559.441 253.064 559.133 252.416 558.917 251.64C558.701 250.864 558.593 249.972 558.593 248.964C558.593 248.068 558.713 247.236 558.953 246.468C559.193 245.692 559.537 245.02 559.985 244.452C560.433 243.884 560.981 243.44 561.629 243.12C562.285 242.792 563.021 242.628 563.837 242.628C564.581 242.628 565.217 242.756 565.745 243.012C566.281 243.26 566.757 243.608 567.173 244.056V237.324H569.309ZM580.782 245.004C580.718 245.092 580.654 245.16 580.59 245.208C580.526 245.256 580.438 245.28 580.326 245.28C580.206 245.28 580.074 245.232 579.93 245.136C579.786 245.032 579.606 244.92 579.39 244.8C579.182 244.68 578.922 244.572 578.61 244.476C578.306 244.372 577.93 244.32 577.482 244.32C576.882 244.32 576.354 244.428 575.898 244.644C575.442 244.852 575.058 245.156 574.746 245.556C574.442 245.956 574.21 246.44 574.05 247.008C573.898 247.576 573.822 248.212 573.822 248.916C573.822 249.652 573.906 250.308 574.074 250.884C574.242 251.452 574.478 251.932 574.782 252.324C575.094 252.708 575.466 253.004 575.898 253.212C576.338 253.412 576.83 253.512 577.374 253.512C577.894 253.512 578.322 253.452 578.658 253.332C578.994 253.204 579.27 253.064 579.486 252.912C579.71 252.76 579.894 252.624 580.038 252.504C580.19 252.376 580.338 252.312 580.482 252.312C580.658 252.312 580.794 252.38 580.89 252.516L581.49 253.296C581.226 253.624 580.926 253.904 580.59 254.136C580.254 254.368 579.89 254.564 579.498 254.724C579.114 254.876 578.71 254.988 578.286 255.06C577.862 255.132 577.43 255.168 576.99 255.168C576.23 255.168 575.522 255.028 574.866 254.748C574.218 254.468 573.654 254.064 573.174 253.536C572.694 253 572.318 252.344 572.046 251.568C571.774 250.792 571.638 249.908 571.638 248.916C571.638 248.012 571.762 247.176 572.01 246.408C572.266 245.64 572.634 244.98 573.114 244.428C573.602 243.868 574.198 243.432 574.902 243.12C575.614 242.808 576.43 242.652 577.35 242.652C578.206 242.652 578.958 242.792 579.606 243.072C580.262 243.344 580.842 243.732 581.346 244.236L580.782 245.004ZM590.011 249.528C589.027 249.56 588.187 249.64 587.491 249.768C586.803 249.888 586.239 250.048 585.799 250.248C585.367 250.448 585.051 250.684 584.851 250.956C584.659 251.228 584.563 251.532 584.563 251.868C584.563 252.188 584.615 252.464 584.719 252.696C584.823 252.928 584.963 253.12 585.139 253.272C585.323 253.416 585.535 253.524 585.775 253.596C586.023 253.66 586.287 253.692 586.567 253.692C586.943 253.692 587.287 253.656 587.599 253.584C587.911 253.504 588.203 253.392 588.475 253.248C588.755 253.104 589.019 252.932 589.267 252.732C589.523 252.532 589.771 252.304 590.011 252.048V249.528ZM583.111 244.56C583.783 243.912 584.507 243.428 585.283 243.108C586.059 242.788 586.919 242.628 587.863 242.628C588.543 242.628 589.147 242.74 589.675 242.964C590.203 243.188 590.647 243.5 591.007 243.9C591.367 244.3 591.639 244.784 591.823 245.352C592.007 245.92 592.099 246.544 592.099 247.224V255H591.151C590.943 255 590.783 254.968 590.671 254.904C590.559 254.832 590.471 254.696 590.407 254.496L590.167 253.344C589.847 253.64 589.535 253.904 589.231 254.136C588.927 254.36 588.607 254.552 588.271 254.712C587.935 254.864 587.575 254.98 587.191 255.06C586.815 255.148 586.395 255.192 585.931 255.192C585.459 255.192 585.015 255.128 584.599 255C584.183 254.864 583.819 254.664 583.507 254.4C583.203 254.136 582.959 253.804 582.775 253.404C582.599 252.996 582.511 252.516 582.511 251.964C582.511 251.484 582.643 251.024 582.907 250.584C583.171 250.136 583.599 249.74 584.191 249.396C584.783 249.052 585.555 248.772 586.507 248.556C587.459 248.332 588.627 248.204 590.011 248.172V247.224C590.011 246.28 589.807 245.568 589.399 245.088C588.991 244.6 588.395 244.356 587.611 244.356C587.083 244.356 586.639 244.424 586.279 244.56C585.927 244.688 585.619 244.836 585.355 245.004C585.099 245.164 584.875 245.312 584.683 245.448C584.499 245.576 584.315 245.64 584.131 245.64C583.987 245.64 583.863 245.604 583.759 245.532C583.655 245.452 583.567 245.356 583.495 245.244L583.111 244.56ZM594.993 255V242.844H596.277C596.581 242.844 596.769 242.992 596.841 243.288L596.997 244.536C597.445 243.984 597.949 243.532 598.509 243.18C599.069 242.828 599.717 242.652 600.453 242.652C601.269 242.652 601.929 242.88 602.433 243.336C602.945 243.792 603.313 244.408 603.537 245.184C603.713 244.744 603.937 244.364 604.209 244.044C604.489 243.724 604.801 243.46 605.145 243.252C605.489 243.044 605.853 242.892 606.237 242.796C606.629 242.7 607.025 242.652 607.425 242.652C608.065 242.652 608.633 242.756 609.129 242.964C609.633 243.164 610.057 243.46 610.401 243.852C610.753 244.244 611.021 244.728 611.205 245.304C611.389 245.872 611.481 246.524 611.481 247.26V255H609.333V247.26C609.333 246.308 609.125 245.588 608.709 245.1C608.293 244.604 607.693 244.356 606.909 244.356C606.557 244.356 606.221 244.42 605.901 244.548C605.589 244.668 605.313 244.848 605.073 245.088C604.833 245.328 604.641 245.632 604.497 246C604.361 246.36 604.293 246.78 604.293 247.26V255H602.145V247.26C602.145 246.284 601.949 245.556 601.557 245.076C601.165 244.596 600.593 244.356 599.841 244.356C599.313 244.356 598.825 244.5 598.377 244.788C597.929 245.068 597.517 245.452 597.141 245.94V255H594.993ZM616.515 252.072C616.907 252.6 617.335 252.972 617.799 253.188C618.263 253.404 618.783 253.512 619.359 253.512C620.495 253.512 621.367 253.108 621.975 252.3C622.583 251.492 622.887 250.34 622.887 248.844C622.887 248.052 622.815 247.372 622.671 246.804C622.535 246.236 622.335 245.772 622.071 245.412C621.807 245.044 621.483 244.776 621.099 244.608C620.715 244.44 620.279 244.356 619.791 244.356C619.095 244.356 618.483 244.516 617.955 244.836C617.435 245.156 616.955 245.608 616.515 246.192V252.072ZM616.407 244.728C616.919 244.096 617.511 243.588 618.183 243.204C618.855 242.82 619.623 242.628 620.487 242.628C621.191 242.628 621.827 242.764 622.395 243.036C622.963 243.3 623.447 243.696 623.847 244.224C624.247 244.744 624.555 245.392 624.771 246.168C624.987 246.944 625.095 247.836 625.095 248.844C625.095 249.74 624.975 250.576 624.735 251.352C624.495 252.12 624.147 252.788 623.691 253.356C623.243 253.916 622.691 254.36 622.035 254.688C621.387 255.008 620.655 255.168 619.839 255.168C619.095 255.168 618.455 255.044 617.919 254.796C617.391 254.54 616.923 254.188 616.515 253.74V259.116H614.367V242.844H615.651C615.955 242.844 616.143 242.992 616.215 243.288L616.407 244.728Z" fill="#FAFAFA"/>
<rect width="279" height="68" transform="translate(490 280)" fill="#2C2E3A"/>
<path d="M522.524 323H520.196V305.804H522.524V323ZM527.887 312.608C528.151 312.312 528.431 312.044 528.727 311.804C529.023 311.564 529.335 311.36 529.663 311.192C529.999 311.016 530.351 310.884 530.719 310.796C531.095 310.7 531.499 310.652 531.931 310.652C532.595 310.652 533.179 310.764 533.683 310.988C534.195 311.204 534.619 311.516 534.955 311.924C535.299 312.324 535.559 312.808 535.735 313.376C535.911 313.944 535.999 314.572 535.999 315.26V323H533.851V315.26C533.851 314.34 533.639 313.628 533.215 313.124C532.799 312.612 532.163 312.356 531.307 312.356C530.675 312.356 530.083 312.508 529.531 312.812C528.987 313.116 528.483 313.528 528.019 314.048V323H525.871V310.844H527.155C527.459 310.844 527.647 310.992 527.719 311.288L527.887 312.608ZM549.052 310.844L544.096 323H542.176L537.22 310.844H538.96C539.136 310.844 539.28 310.888 539.392 310.976C539.504 311.064 539.58 311.168 539.62 311.288L542.704 319.112C542.8 319.408 542.884 319.696 542.956 319.976C543.028 320.256 543.096 320.536 543.16 320.816C543.224 320.536 543.292 320.256 543.364 319.976C543.436 319.696 543.524 319.408 543.628 319.112L546.748 311.288C546.796 311.16 546.876 311.056 546.988 310.976C547.1 310.888 547.232 310.844 547.384 310.844H549.052ZM552.907 310.844V323H550.771V310.844H552.907ZM553.363 307.028C553.363 307.236 553.319 307.432 553.231 307.616C553.151 307.792 553.039 307.952 552.895 308.096C552.759 308.232 552.595 308.34 552.403 308.42C552.219 308.5 552.023 308.54 551.815 308.54C551.607 308.54 551.411 308.5 551.227 308.42C551.051 308.34 550.895 308.232 550.759 308.096C550.623 307.952 550.515 307.792 550.435 307.616C550.355 307.432 550.315 307.236 550.315 307.028C550.315 306.82 550.355 306.624 550.435 306.44C550.515 306.248 550.623 306.084 550.759 305.948C550.895 305.804 551.051 305.692 551.227 305.612C551.411 305.532 551.607 305.492 551.815 305.492C552.023 305.492 552.219 305.532 552.403 305.612C552.595 305.692 552.759 305.804 552.895 305.948C553.039 306.084 553.151 306.248 553.231 306.44C553.319 306.624 553.363 306.82 553.363 307.028ZM563.977 313.736C563.577 313.2 563.145 312.828 562.681 312.62C562.217 312.404 561.697 312.296 561.121 312.296C559.993 312.296 559.125 312.7 558.517 313.508C557.909 314.316 557.605 315.468 557.605 316.964C557.605 317.756 557.673 318.436 557.809 319.004C557.945 319.564 558.145 320.028 558.409 320.396C558.673 320.756 558.997 321.02 559.381 321.188C559.765 321.356 560.201 321.44 560.689 321.44C561.393 321.44 562.005 321.28 562.525 320.96C563.053 320.64 563.537 320.188 563.977 319.604V313.736ZM566.113 305.324V323H564.841C564.537 323 564.345 322.852 564.265 322.556L564.073 321.08C563.553 321.704 562.961 322.208 562.297 322.592C561.633 322.976 560.865 323.168 559.993 323.168C559.297 323.168 558.665 323.036 558.097 322.772C557.529 322.5 557.045 322.104 556.645 321.584C556.245 321.064 555.937 320.416 555.721 319.64C555.505 318.864 555.397 317.972 555.397 316.964C555.397 316.068 555.517 315.236 555.757 314.468C555.997 313.692 556.341 313.02 556.789 312.452C557.237 311.884 557.785 311.44 558.433 311.12C559.089 310.792 559.825 310.628 560.641 310.628C561.385 310.628 562.021 310.756 562.549 311.012C563.085 311.26 563.561 311.608 563.977 312.056V305.324H566.113ZM571.382 310.844V323H569.246V310.844H571.382ZM571.838 307.028C571.838 307.236 571.794 307.432 571.706 307.616C571.626 307.792 571.514 307.952 571.37 308.096C571.234 308.232 571.07 308.34 570.878 308.42C570.694 308.5 570.498 308.54 570.29 308.54C570.082 308.54 569.886 308.5 569.702 308.42C569.526 308.34 569.37 308.232 569.234 308.096C569.098 307.952 568.99 307.792 568.91 307.616C568.83 307.432 568.79 307.236 568.79 307.028C568.79 306.82 568.83 306.624 568.91 306.44C568.99 306.248 569.098 306.084 569.234 305.948C569.37 305.804 569.526 305.692 569.702 305.612C569.886 305.532 570.082 305.492 570.29 305.492C570.498 305.492 570.694 305.532 570.878 305.612C571.07 305.692 571.234 305.804 571.37 305.948C571.514 306.084 571.626 306.248 571.706 306.44C571.794 306.624 571.838 306.82 571.838 307.028ZM579.656 310.652C580.544 310.652 581.344 310.8 582.056 311.096C582.768 311.392 583.376 311.812 583.88 312.356C584.384 312.9 584.768 313.56 585.032 314.336C585.304 315.104 585.44 315.964 585.44 316.916C585.44 317.876 585.304 318.74 585.032 319.508C584.768 320.276 584.384 320.932 583.88 321.476C583.376 322.02 582.768 322.44 582.056 322.736C581.344 323.024 580.544 323.168 579.656 323.168C578.76 323.168 577.952 323.024 577.232 322.736C576.52 322.44 575.912 322.02 575.408 321.476C574.904 320.932 574.516 320.276 574.244 319.508C573.98 318.74 573.848 317.876 573.848 316.916C573.848 315.964 573.98 315.104 574.244 314.336C574.516 313.56 574.904 312.9 575.408 312.356C575.912 311.812 576.52 311.392 577.232 311.096C577.952 310.8 578.76 310.652 579.656 310.652ZM579.656 321.5C580.856 321.5 581.752 321.1 582.344 320.3C582.936 319.492 583.232 318.368 583.232 316.928C583.232 315.48 582.936 314.352 582.344 313.544C581.752 312.736 580.856 312.332 579.656 312.332C579.048 312.332 578.516 312.436 578.06 312.644C577.612 312.852 577.236 313.152 576.932 313.544C576.636 313.936 576.412 314.42 576.26 314.996C576.116 315.564 576.044 316.208 576.044 316.928C576.044 318.368 576.34 319.492 576.932 320.3C577.532 321.1 578.44 321.5 579.656 321.5ZM597.785 310.844V323H596.513C596.209 323 596.017 322.852 595.937 322.556L595.769 321.248C595.241 321.832 594.649 322.304 593.993 322.664C593.337 323.016 592.585 323.192 591.737 323.192C591.073 323.192 590.485 323.084 589.973 322.868C589.469 322.644 589.045 322.332 588.701 321.932C588.357 321.532 588.097 321.048 587.921 320.48C587.753 319.912 587.669 319.284 587.669 318.596V310.844H589.805V318.596C589.805 319.516 590.013 320.228 590.429 320.732C590.853 321.236 591.497 321.488 592.361 321.488C592.993 321.488 593.581 321.34 594.125 321.044C594.677 320.74 595.185 320.324 595.649 319.796V310.844H597.785ZM607.892 312.848C607.796 313.024 607.648 313.112 607.448 313.112C607.328 313.112 607.192 313.068 607.04 312.98C606.888 312.892 606.7 312.796 606.476 312.692C606.26 312.58 606 312.48 605.696 312.392C605.392 312.296 605.032 312.248 604.616 312.248C604.256 312.248 603.932 312.296 603.644 312.392C603.356 312.48 603.108 312.604 602.9 312.764C602.7 312.924 602.544 313.112 602.432 313.328C602.328 313.536 602.276 313.764 602.276 314.012C602.276 314.324 602.364 314.584 602.54 314.792C602.724 315 602.964 315.18 603.26 315.332C603.556 315.484 603.892 315.62 604.268 315.74C604.644 315.852 605.028 315.976 605.42 316.112C605.82 316.24 606.208 316.384 606.584 316.544C606.96 316.704 607.296 316.904 607.592 317.144C607.888 317.384 608.124 317.68 608.3 318.032C608.484 318.376 608.576 318.792 608.576 319.28C608.576 319.84 608.476 320.36 608.276 320.84C608.076 321.312 607.78 321.724 607.388 322.076C606.996 322.42 606.516 322.692 605.948 322.892C605.38 323.092 604.724 323.192 603.98 323.192C603.132 323.192 602.364 323.056 601.676 322.784C600.988 322.504 600.404 322.148 599.924 321.716L600.428 320.9C600.492 320.796 600.568 320.716 600.656 320.66C600.744 320.604 600.856 320.576 600.992 320.576C601.136 320.576 601.288 320.632 601.448 320.744C601.608 320.856 601.8 320.98 602.024 321.116C602.256 321.252 602.536 321.376 602.864 321.488C603.192 321.6 603.6 321.656 604.088 321.656C604.504 321.656 604.868 321.604 605.18 321.5C605.492 321.388 605.752 321.24 605.96 321.056C606.168 320.872 606.32 320.66 606.416 320.42C606.52 320.18 606.572 319.924 606.572 319.652C606.572 319.316 606.48 319.04 606.296 318.824C606.12 318.6 605.884 318.412 605.588 318.26C605.292 318.1 604.952 317.964 604.568 317.852C604.192 317.732 603.804 317.608 603.404 317.48C603.012 317.352 602.624 317.208 602.24 317.048C601.864 316.88 601.528 316.672 601.232 316.424C600.936 316.176 600.696 315.872 600.512 315.512C600.336 315.144 600.248 314.7 600.248 314.18C600.248 313.716 600.344 313.272 600.536 312.848C600.728 312.416 601.008 312.04 601.376 311.72C601.744 311.392 602.196 311.132 602.732 310.94C603.268 310.748 603.88 310.652 604.568 310.652C605.368 310.652 606.084 310.78 606.716 311.036C607.356 311.284 607.908 311.628 608.372 312.068L607.892 312.848Z" fill="#FAFAFA"/>
<rect width="279" height="68" transform="translate(490 348)" fill="#424557"/>
<path d="M529.1 384.448L526.988 378.676C526.884 378.42 526.776 378.116 526.664 377.764C526.552 377.412 526.44 377.032 526.328 376.624C526.224 377.032 526.116 377.416 526.004 377.776C525.892 378.128 525.784 378.436 525.68 378.7L523.58 384.448H529.1ZM534.8 391H532.304C532.024 391 531.796 390.932 531.62 390.796C531.444 390.652 531.312 390.476 531.224 390.268L529.928 386.728H522.74L521.444 390.268C521.38 390.452 521.256 390.62 521.072 390.772C520.888 390.924 520.66 391 520.388 391H517.868L524.696 373.648H527.984L534.8 391ZM543.238 381.832C542.902 381.424 542.534 381.136 542.134 380.968C541.742 380.8 541.318 380.716 540.862 380.716C540.414 380.716 540.01 380.8 539.65 380.968C539.29 381.136 538.982 381.392 538.726 381.736C538.47 382.072 538.274 382.504 538.138 383.032C538.002 383.552 537.934 384.168 537.934 384.88C537.934 385.6 537.99 386.212 538.102 386.716C538.222 387.212 538.39 387.62 538.606 387.94C538.822 388.252 539.086 388.48 539.398 388.624C539.71 388.76 540.058 388.828 540.442 388.828C541.058 388.828 541.582 388.7 542.014 388.444C542.446 388.188 542.854 387.824 543.238 387.352V381.832ZM546.202 373.168V391H544.39C543.998 391 543.75 390.82 543.646 390.46L543.394 389.272C542.898 389.84 542.326 390.3 541.678 390.652C541.038 391.004 540.29 391.18 539.434 391.18C538.762 391.18 538.146 391.04 537.586 390.76C537.026 390.48 536.542 390.076 536.134 389.548C535.734 389.012 535.422 388.352 535.198 387.568C534.982 386.784 534.874 385.888 534.874 384.88C534.874 383.968 534.998 383.12 535.246 382.336C535.494 381.552 535.85 380.872 536.314 380.296C536.778 379.72 537.334 379.272 537.982 378.952C538.63 378.624 539.358 378.46 540.166 378.46C540.854 378.46 541.442 378.568 541.93 378.784C542.418 379 542.854 379.292 543.238 379.66V373.168H546.202ZM556.495 381.832C556.159 381.424 555.791 381.136 555.391 380.968C554.999 380.8 554.575 380.716 554.119 380.716C553.671 380.716 553.267 380.8 552.907 380.968C552.547 381.136 552.239 381.392 551.983 381.736C551.727 382.072 551.531 382.504 551.395 383.032C551.259 383.552 551.191 384.168 551.191 384.88C551.191 385.6 551.247 386.212 551.359 386.716C551.479 387.212 551.647 387.62 551.863 387.94C552.079 388.252 552.343 388.48 552.655 388.624C552.967 388.76 553.315 388.828 553.699 388.828C554.315 388.828 554.839 388.7 555.271 388.444C555.703 388.188 556.111 387.824 556.495 387.352V381.832ZM559.459 373.168V391H557.647C557.255 391 557.007 390.82 556.903 390.46L556.651 389.272C556.155 389.84 555.583 390.3 554.935 390.652C554.295 391.004 553.547 391.18 552.691 391.18C552.019 391.18 551.403 391.04 550.843 390.76C550.283 390.48 549.799 390.076 549.391 389.548C548.991 389.012 548.679 388.352 548.455 387.568C548.239 386.784 548.131 385.888 548.131 384.88C548.131 383.968 548.255 383.12 548.503 382.336C548.751 381.552 549.107 380.872 549.571 380.296C550.035 379.72 550.591 379.272 551.239 378.952C551.887 378.624 552.615 378.46 553.423 378.46C554.111 378.46 554.699 378.568 555.187 378.784C555.675 379 556.111 379.292 556.495 379.66V373.168H559.459ZM578.075 378.688L571.367 394.384C571.279 394.592 571.163 394.748 571.019 394.852C570.883 394.964 570.671 395.02 570.383 395.02H568.175L570.479 390.076L565.499 378.688H568.103C568.335 378.688 568.515 378.744 568.643 378.856C568.779 378.968 568.879 379.096 568.943 379.24L571.559 385.624C571.647 385.84 571.719 386.056 571.775 386.272C571.839 386.488 571.899 386.708 571.955 386.932C572.027 386.708 572.099 386.488 572.171 386.272C572.243 386.048 572.323 385.828 572.411 385.612L574.883 379.24C574.947 379.08 575.051 378.948 575.195 378.844C575.347 378.74 575.515 378.688 575.699 378.688H578.075ZM584.26 378.496C585.172 378.496 586 378.644 586.744 378.94C587.496 379.236 588.136 379.656 588.664 380.2C589.2 380.744 589.612 381.408 589.9 382.192C590.188 382.976 590.332 383.852 590.332 384.82C590.332 385.796 590.188 386.676 589.9 387.46C589.612 388.244 589.2 388.912 588.664 389.464C588.136 390.016 587.496 390.44 586.744 390.736C586 391.032 585.172 391.18 584.26 391.18C583.34 391.18 582.504 391.032 581.752 390.736C581 390.44 580.356 390.016 579.82 389.464C579.292 388.912 578.88 388.244 578.584 387.46C578.296 386.676 578.152 385.796 578.152 384.82C578.152 383.852 578.296 382.976 578.584 382.192C578.88 381.408 579.292 380.744 579.82 380.2C580.356 379.656 581 379.236 581.752 378.94C582.504 378.644 583.34 378.496 584.26 378.496ZM584.26 388.9C585.284 388.9 586.04 388.556 586.528 387.868C587.024 387.18 587.272 386.172 587.272 384.844C587.272 383.516 587.024 382.504 586.528 381.808C586.04 381.112 585.284 380.764 584.26 380.764C583.22 380.764 582.448 381.116 581.944 381.82C581.448 382.516 581.2 383.524 581.2 384.844C581.2 386.164 581.448 387.172 581.944 387.868C582.448 388.556 583.22 388.9 584.26 388.9ZM602.842 378.688V391H601.03C600.638 391 600.39 390.82 600.286 390.46L600.082 389.476C599.578 389.988 599.022 390.404 598.414 390.724C597.806 391.036 597.09 391.192 596.266 391.192C595.594 391.192 594.998 391.08 594.478 390.856C593.966 390.624 593.534 390.3 593.182 389.884C592.83 389.468 592.562 388.976 592.378 388.408C592.202 387.832 592.114 387.2 592.114 386.512V378.688H595.078V386.512C595.078 387.264 595.25 387.848 595.594 388.264C595.946 388.672 596.47 388.876 597.166 388.876C597.678 388.876 598.158 388.764 598.606 388.54C599.054 388.308 599.478 387.992 599.878 387.592V378.688H602.842ZM608.217 380.824C608.601 380.088 609.057 379.512 609.585 379.096C610.113 378.672 610.737 378.46 611.457 378.46C612.025 378.46 612.481 378.584 612.825 378.832L612.633 381.052C612.593 381.196 612.533 381.3 612.453 381.364C612.381 381.42 612.281 381.448 612.153 381.448C612.033 381.448 611.853 381.428 611.613 381.388C611.381 381.348 611.153 381.328 610.929 381.328C610.601 381.328 610.309 381.376 610.053 381.472C609.797 381.568 609.565 381.708 609.357 381.892C609.157 382.068 608.977 382.284 608.817 382.54C608.665 382.796 608.521 383.088 608.385 383.416V391H605.421V378.688H607.161C607.465 378.688 607.677 378.744 607.797 378.856C607.917 378.96 607.997 379.152 608.037 379.432L608.217 380.824ZM624.422 378.496C625.334 378.496 626.162 378.644 626.906 378.94C627.658 379.236 628.298 379.656 628.826 380.2C629.362 380.744 629.774 381.408 630.062 382.192C630.35 382.976 630.494 383.852 630.494 384.82C630.494 385.796 630.35 386.676 630.062 387.46C629.774 388.244 629.362 388.912 628.826 389.464C628.298 390.016 627.658 390.44 626.906 390.736C626.162 391.032 625.334 391.18 624.422 391.18C623.502 391.18 622.666 391.032 621.914 390.736C621.162 390.44 620.518 390.016 619.982 389.464C619.454 388.912 619.042 388.244 618.746 387.46C618.458 386.676 618.314 385.796 618.314 384.82C618.314 383.852 618.458 382.976 618.746 382.192C619.042 381.408 619.454 380.744 619.982 380.2C620.518 379.656 621.162 379.236 621.914 378.94C622.666 378.644 623.502 378.496 624.422 378.496ZM624.422 388.9C625.446 388.9 626.202 388.556 626.69 387.868C627.186 387.18 627.434 386.172 627.434 384.844C627.434 383.516 627.186 382.504 626.69 381.808C626.202 381.112 625.446 380.764 624.422 380.764C623.382 380.764 622.61 381.116 622.106 381.82C621.61 382.516 621.362 383.524 621.362 384.844C621.362 386.164 621.61 387.172 622.106 387.868C622.61 388.556 623.382 388.9 624.422 388.9ZM649.764 378.688L645.852 391H643.476C643.204 391 643.016 390.824 642.912 390.472L640.704 383.356C640.632 383.116 640.564 382.88 640.5 382.648C640.444 382.408 640.396 382.168 640.356 381.928C640.308 382.168 640.252 382.412 640.188 382.66C640.132 382.9 640.068 383.14 639.996 383.38L637.752 390.472C637.656 390.824 637.444 391 637.116 391H634.836L630.936 378.688H633.3C633.516 378.688 633.7 378.74 633.852 378.844C634.004 378.948 634.104 379.08 634.152 379.24L635.916 385.816C636.004 386.176 636.08 386.528 636.144 386.872C636.216 387.216 636.276 387.56 636.324 387.904C636.412 387.56 636.504 387.216 636.6 386.872C636.704 386.528 636.812 386.176 636.924 385.816L638.964 379.216C639.012 379.056 639.104 378.924 639.24 378.82C639.384 378.716 639.556 378.664 639.756 378.664H641.064C641.272 378.664 641.448 378.716 641.592 378.82C641.744 378.924 641.844 379.056 641.892 379.216L643.872 385.816C643.976 386.176 644.072 386.532 644.16 386.884C644.256 387.228 644.348 387.572 644.436 387.916C644.54 387.236 644.688 386.536 644.88 385.816L646.692 379.24C646.748 379.08 646.848 378.948 646.992 378.844C647.136 378.74 647.308 378.688 647.508 378.688H649.764ZM653.862 380.2C654.11 379.952 654.37 379.724 654.642 379.516C654.922 379.3 655.214 379.12 655.518 378.976C655.83 378.824 656.162 378.708 656.514 378.628C656.866 378.54 657.25 378.496 657.666 378.496C658.338 378.496 658.934 378.612 659.454 378.844C659.974 379.068 660.406 379.388 660.75 379.804C661.102 380.212 661.366 380.704 661.542 381.28C661.726 381.848 661.818 382.476 661.818 383.164V391H658.854V383.164C658.854 382.412 658.682 381.832 658.338 381.424C657.994 381.008 657.47 380.8 656.766 380.8C656.254 380.8 655.774 380.916 655.326 381.148C654.878 381.38 654.454 381.696 654.054 382.096V391H651.09V378.688H652.902C653.286 378.688 653.538 378.868 653.658 379.228L653.862 380.2ZM663.845 389.368C663.845 389.12 663.889 388.884 663.977 388.66C664.073 388.436 664.201 388.244 664.361 388.084C664.521 387.924 664.713 387.796 664.937 387.7C665.161 387.604 665.401 387.556 665.657 387.556C665.913 387.556 666.149 387.604 666.365 387.7C666.589 387.796 666.781 387.924 666.941 388.084C667.109 388.244 667.241 388.436 667.337 388.66C667.433 388.884 667.481 389.12 667.481 389.368C667.481 389.624 667.433 389.864 667.337 390.088C667.241 390.304 667.109 390.492 666.941 390.652C666.781 390.812 666.589 390.936 666.365 391.024C666.149 391.12 665.913 391.168 665.657 391.168C665.401 391.168 665.161 391.12 664.937 391.024C664.713 390.936 664.521 390.812 664.361 390.652C664.201 390.492 664.073 390.304 663.977 390.088C663.889 389.864 663.845 389.624 663.845 389.368ZM669.18 389.368C669.18 389.12 669.224 388.884 669.312 388.66C669.408 388.436 669.536 388.244 669.696 388.084C669.856 387.924 670.048 387.796 670.272 387.7C670.496 387.604 670.736 387.556 670.992 387.556C671.248 387.556 671.484 387.604 671.7 387.7C671.924 387.796 672.116 387.924 672.276 388.084C672.444 388.244 672.576 388.436 672.672 388.66C672.768 388.884 672.816 389.12 672.816 389.368C672.816 389.624 672.768 389.864 672.672 390.088C672.576 390.304 672.444 390.492 672.276 390.652C672.116 390.812 671.924 390.936 671.7 391.024C671.484 391.12 671.248 391.168 670.992 391.168C670.736 391.168 670.496 391.12 670.272 391.024C670.048 390.936 669.856 390.812 669.696 390.652C669.536 390.492 669.408 390.304 669.312 390.088C669.224 389.864 669.18 389.624 669.18 389.368ZM674.515 389.368C674.515 389.12 674.559 388.884 674.647 388.66C674.743 388.436 674.871 388.244 675.031 388.084C675.191 387.924 675.383 387.796 675.607 387.7C675.831 387.604 676.071 387.556 676.327 387.556C676.583 387.556 676.819 387.604 677.035 387.7C677.259 387.796 677.451 387.924 677.611 388.084C677.779 388.244 677.911 388.436 678.007 388.66C678.103 388.884 678.151 389.12 678.151 389.368C678.151 389.624 678.103 389.864 678.007 390.088C677.911 390.304 677.779 390.492 677.611 390.652C677.451 390.812 677.259 390.936 677.035 391.024C676.819 391.12 676.583 391.168 676.327 391.168C676.071 391.168 675.831 391.12 675.607 391.024C675.383 390.936 675.191 390.812 675.031 390.652C674.871 390.492 674.743 390.304 674.647 390.088C674.559 389.864 674.515 389.624 674.515 389.368Z" fill="#FAFAFA"/>
</g>
<g clip-path="url(#clip0)">
<path d="M740 410.5V419.5C740 419.789 739.967 420.077 739.9 420.359L736.9 433.109C736.502 434.803 734.99 436 733.25 436H713.75C713.158 436 712.575 435.86 712.048 435.592C711.521 435.323 711.065 434.934 710.717 434.456L698.717 417.956C697.499 416.281 697.87 413.935 699.544 412.717C701.22 411.499 703.565 411.869 704.783 413.544L707.75 417.624V391.75C707.75 389.679 709.429 388 711.5 388C713.571 388 715.25 389.679 715.25 391.75V410.5H716V406.75C716 404.679 717.679 403 719.75 403C721.821 403 723.5 404.679 723.5 406.75V410.5H724.25V408.25C724.25 406.179 725.929 404.5 728 404.5C730.071 404.5 731.75 406.179 731.75 408.25V410.5H732.5C732.5 408.429 734.179 406.75 736.25 406.75C738.321 406.75 740 408.429 740 410.5ZM716 418H715.25V427H716V418ZM724.25 418H723.5V427H724.25V418ZM732.5 418H731.75V427H732.5V418Z" fill="#FAFAFA"/>
</g>
<path d="M195.06 235.266C193.883 230.831 190.413 227.339 186.007 226.154C178.021 224 146 224 146 224C146 224 113.979 224 105.993 226.154C101.587 227.339 98.1174 230.831 96.9397 235.266C94.8 243.303 94.8 260.073 94.8 260.073C94.8 260.073 94.8 276.842 96.9397 284.88C98.1174 289.314 101.587 292.661 105.993 293.846C113.979 296 146 296 146 296C146 296 178.021 296 186.007 293.846C190.413 292.661 193.883 289.314 195.06 284.88C197.2 276.842 197.2 260.073 197.2 260.073C197.2 260.073 197.2 243.303 195.06 235.266ZM135.527 275.298V244.847L162.291 260.073L135.527 275.298Z" fill="#FAFAFA"/>
<path d="M140.888 404.057L141.975 416.244L140.888 429.05C140.831 429.519 140.475 429.875 140.062 429.875C139.65 429.875 139.275 429.519 139.275 429.05L138.225 416.244L139.275 404.057C139.275 403.644 139.631 403.269 140.062 403.269C140.475 403.269 140.831 403.644 140.888 404.057ZM144.9 395.507C144.375 395.507 144.019 395.919 143.963 396.444L143.025 416.244L143.963 429.05C144.019 429.575 144.375 429.988 144.9 429.988C145.369 429.988 145.781 429.575 145.781 429.05L146.869 416.244L145.781 396.444C145.781 395.919 145.369 395.507 144.9 395.507ZM149.681 390.988C149.1 390.988 148.688 391.4 148.631 391.982L147.806 416.357L148.631 429.069C148.688 429.65 149.1 430.063 149.681 430.063C150.206 430.063 150.675 429.65 150.675 429.069L151.669 416.357L150.675 391.982C150.675 391.4 150.206 390.988 149.681 390.988ZM121.35 409.1C121.087 409.1 120.937 409.307 120.881 409.569L120 416.244L120.881 422.807C120.937 423.069 121.087 423.275 121.35 423.275C121.612 423.275 121.762 423.069 121.819 422.807L122.869 416.244L121.819 409.569C121.762 409.307 121.612 409.1 121.35 409.1ZM125.775 404.994C125.512 404.994 125.306 405.2 125.306 405.463L124.106 416.244L125.306 426.763C125.306 427.082 125.512 427.288 125.775 427.288C126.037 427.288 126.244 427.082 126.3 426.819L127.65 416.244L126.3 405.463C126.244 405.2 126.037 404.994 125.775 404.994ZM130.519 402.857C130.2 402.857 129.938 403.119 129.9 403.475L128.812 416.244L129.9 428.582C129.956 428.9 130.219 429.163 130.519 429.163C130.837 429.163 131.1 428.9 131.1 428.582L132.394 416.244L131.1 403.475C131.1 403.119 130.837 402.857 130.519 402.857ZM135.263 402.444C134.906 402.444 134.588 402.707 134.588 403.119L133.5 416.244L134.588 428.957C134.588 429.369 134.906 429.632 135.263 429.632C135.619 429.632 135.938 429.369 135.994 428.957L137.194 416.244L135.994 403.119C135.938 402.707 135.619 402.444 135.263 402.444ZM180.525 381.65C180.319 381.5 180 381.388 179.738 381.388C179.325 381.388 178.95 381.538 178.688 381.744C178.331 382.063 178.106 382.532 178.069 383V383.15L177.45 416.282L177.769 422.375L178.087 428.319C178.144 429.2 178.875 429.932 179.756 429.932C180.638 429.932 181.369 429.2 181.369 428.319L182.1 416.282L181.369 383C181.294 382.438 180.994 381.913 180.525 381.65ZM175.519 384.519C175.256 384.369 174.994 384.257 174.694 384.257C174.394 384.257 174.112 384.369 173.869 384.519C173.456 384.782 173.194 385.25 173.194 385.775L173.137 386.094L172.613 416.244C172.613 416.244 172.613 416.3 173.194 428.544V428.6C173.194 428.919 173.306 429.219 173.512 429.482C173.831 429.838 174.244 430.063 174.712 430.063C175.125 430.063 175.5 429.857 175.762 429.594C176.081 429.332 176.231 428.975 176.231 428.544L176.288 427.288L176.869 416.3L176.25 385.775C176.194 385.25 175.931 384.782 175.519 384.519ZM154.631 388.738C154.05 388.738 153.544 389.263 153.544 389.882L152.719 416.244L153.544 428.844C153.6 429.463 154.069 429.932 154.631 429.932C155.25 429.932 155.719 429.463 155.775 428.844L156.713 416.244L155.775 389.882C155.737 389.263 155.269 388.738 154.631 388.738ZM225.263 400.513C223.238 400.513 221.306 400.925 219.525 401.657C218.325 388.382 207.188 377.957 193.594 377.957C190.256 377.957 187.031 378.575 184.163 379.719C183.019 380.132 182.7 380.544 182.7 381.444V428.263C182.7 429.2 183.431 429.875 184.312 429.988H225.244C233.362 429.988 239.981 423.425 239.981 415.307C240 407.132 233.381 400.513 225.263 400.513ZM169.631 389.207C168.844 389.207 168.225 389.825 168.169 390.669L167.55 416.3L168.169 428.6C168.225 429.388 168.844 430.007 169.631 430.007C170.419 430.007 171.038 429.388 171.038 428.6L171.769 416.3L171.038 390.669C170.981 389.825 170.419 389.207 169.631 389.207ZM159.581 387.744C158.963 387.744 158.381 388.325 158.381 389L157.65 416.244L158.381 428.788C158.438 429.463 158.963 429.988 159.581 429.988C160.256 429.988 160.781 429.463 160.838 428.788L161.662 416.244L160.838 389C160.781 388.325 160.256 387.744 159.581 387.744ZM164.588 388.382C163.856 388.382 163.294 388.963 163.294 389.675L162.562 416.244L163.294 428.694C163.35 429.425 163.875 429.988 164.588 429.988C165.3 429.988 165.881 429.407 165.881 428.694L166.669 416.244L165.881 389.675C165.881 388.944 165.319 388.382 164.588 388.382Z" fill="#FAFAFA"/>
<path d="M314 261.5C288.312 261.5 267.5 282.312 267.5 308C267.5 333.688 288.312 354.5 314 354.5C339.688 354.5 360.5 333.688 360.5 308C360.5 282.312 339.688 261.5 314 261.5ZM323.038 322.644H289.1L304.981 293.375H338.919L323.038 322.644Z" fill="#FAFAFA"/>
<defs>
<filter id="filter0_dd" x="414" y="0" width="431" height="492" filterUnits="userSpaceOnUse" color-interpolation-filters="sRGB">
<feFlood flood-opacity="0" result="BackgroundImageFix"/>
<feColorMatrix in="SourceAlpha" type="matrix" values="0 0 0 0 0 0 0 0 0 0 0 0 0 0 0 0 0 0 127 0" result="hardAlpha"/>
<feOffset/>
<feGaussianBlur stdDeviation="12"/>
<feColorMatrix type="matrix" values="0 0 0 0 0 0 0 0 0 0 0 0 0 0 0 0 0 0 0.22 0"/>
<feBlend mode="normal" in2="BackgroundImageFix" result="effect1_dropShadow"/>
<feColorMatrix in="SourceAlpha" type="matrix" values="0 0 0 0 0 0 0 0 0 0 0 0 0 0 0 0 0 0 127 0" result="hardAlpha"/>
<feOffset/>
<feGaussianBlur stdDeviation="38"/>
<feColorMatrix type="matrix" values="0 0 0 0 0 0 0 0 0 0 0 0 0 0 0 0 0 0 0.3 0"/>
<feBlend mode="normal" in2="effect1_dropShadow" result="effect2_dropShadow"/>
<feBlend mode="normal" in="SourceGraphic" in2="effect2_dropShadow" result="shape"/>
</filter>
<clipPath id="clip0">
<rect width="42" height="48" fill="white" transform="translate(698 388)"/>
</clipPath>
</defs>
</svg>
