<svg width="1049" height="563" viewBox="0 0 1049 563" fill="none" xmlns="http://www.w3.org/2000/svg">
<g filter="url(#filter0_ddsocial)">
<rect x="176" y="76" width="797" height="181" rx="8" fill="#1F212D"/>
</g>
<g filter="url(#filter1_dd)">
<rect x="76" y="306" width="884" height="181" rx="8" fill="#1F212D"/>
</g>
<rect x="176.5" y="76.5" width="796" height="180" rx="7.5" fill="#424557" fill-opacity="0.35"/>
<path d="M287.952 137.044V139H278.196V121.804H280.512V137.044H287.952ZM296.248 133.528C295.264 133.56 294.424 133.64 293.728 133.768C293.04 133.888 292.476 134.048 292.036 134.248C291.604 134.448 291.288 134.684 291.088 134.956C290.896 135.228 290.8 135.532 290.8 135.868C290.8 136.188 290.852 136.464 290.956 136.696C291.06 136.928 291.2 137.12 291.376 137.272C291.56 137.416 291.772 137.524 292.012 137.596C292.26 137.66 292.524 137.692 292.804 137.692C293.18 137.692 293.524 137.656 293.836 137.584C294.148 137.504 294.44 137.392 294.712 137.248C294.992 137.104 295.256 136.932 295.504 136.732C295.76 136.532 296.008 136.304 296.248 136.048V133.528ZM289.348 128.56C290.02 127.912 290.744 127.428 291.52 127.108C292.296 126.788 293.156 126.628 294.1 126.628C294.78 126.628 295.384 126.74 295.912 126.964C296.44 127.188 296.884 127.5 297.244 127.9C297.604 128.3 297.876 128.784 298.06 129.352C298.244 129.92 298.336 130.544 298.336 131.224V139H297.388C297.18 139 297.02 138.968 296.908 138.904C296.796 138.832 296.708 138.696 296.644 138.496L296.404 137.344C296.084 137.64 295.772 137.904 295.468 138.136C295.164 138.36 294.844 138.552 294.508 138.712C294.172 138.864 293.812 138.98 293.428 139.06C293.052 139.148 292.632 139.192 292.168 139.192C291.696 139.192 291.252 139.128 290.836 139C290.42 138.864 290.056 138.664 289.744 138.4C289.44 138.136 289.196 137.804 289.012 137.404C288.836 136.996 288.748 136.516 288.748 135.964C288.748 135.484 288.88 135.024 289.144 134.584C289.408 134.136 289.836 133.74 290.428 133.396C291.02 133.052 291.792 132.772 292.744 132.556C293.696 132.332 294.864 132.204 296.248 132.172V131.224C296.248 130.28 296.044 129.568 295.636 129.088C295.228 128.6 294.632 128.356 293.848 128.356C293.32 128.356 292.876 128.424 292.516 128.56C292.164 128.688 291.856 128.836 291.592 129.004C291.336 129.164 291.112 129.312 290.92 129.448C290.736 129.576 290.552 129.64 290.368 129.64C290.224 129.64 290.1 129.604 289.996 129.532C289.892 129.452 289.804 129.356 289.732 129.244L289.348 128.56ZM308.31 128.848C308.214 129.024 308.066 129.112 307.866 129.112C307.746 129.112 307.61 129.068 307.458 128.98C307.306 128.892 307.118 128.796 306.894 128.692C306.678 128.58 306.418 128.48 306.114 128.392C305.81 128.296 305.45 128.248 305.034 128.248C304.674 128.248 304.35 128.296 304.062 128.392C303.774 128.48 303.526 128.604 303.318 128.764C303.118 128.924 302.962 129.112 302.85 129.328C302.746 129.536 302.694 129.764 302.694 130.012C302.694 130.324 302.782 130.584 302.958 130.792C303.142 131 303.382 131.18 303.678 131.332C303.974 131.484 304.31 131.62 304.686 131.74C305.062 131.852 305.446 131.976 305.838 132.112C306.238 132.24 306.626 132.384 307.002 132.544C307.378 132.704 307.714 132.904 308.01 133.144C308.306 133.384 308.542 133.68 308.718 134.032C308.902 134.376 308.994 134.792 308.994 135.28C308.994 135.84 308.894 136.36 308.694 136.84C308.494 137.312 308.198 137.724 307.806 138.076C307.414 138.42 306.934 138.692 306.366 138.892C305.798 139.092 305.142 139.192 304.398 139.192C303.55 139.192 302.782 139.056 302.094 138.784C301.406 138.504 300.822 138.148 300.342 137.716L300.846 136.9C300.91 136.796 300.986 136.716 301.074 136.66C301.162 136.604 301.274 136.576 301.41 136.576C301.554 136.576 301.706 136.632 301.866 136.744C302.026 136.856 302.218 136.98 302.442 137.116C302.674 137.252 302.954 137.376 303.282 137.488C303.61 137.6 304.018 137.656 304.506 137.656C304.922 137.656 305.286 137.604 305.598 137.5C305.91 137.388 306.17 137.24 306.378 137.056C306.586 136.872 306.738 136.66 306.834 136.42C306.938 136.18 306.99 135.924 306.99 135.652C306.99 135.316 306.898 135.04 306.714 134.824C306.538 134.6 306.302 134.412 306.006 134.26C305.71 134.1 305.37 133.964 304.986 133.852C304.61 133.732 304.222 133.608 303.822 133.48C303.43 133.352 303.042 133.208 302.658 133.048C302.282 132.88 301.946 132.672 301.65 132.424C301.354 132.176 301.114 131.872 300.93 131.512C300.754 131.144 300.666 130.7 300.666 130.18C300.666 129.716 300.762 129.272 300.954 128.848C301.146 128.416 301.426 128.04 301.794 127.72C302.162 127.392 302.614 127.132 303.15 126.94C303.686 126.748 304.298 126.652 304.986 126.652C305.786 126.652 306.502 126.78 307.134 127.036C307.774 127.284 308.326 127.628 308.79 128.068L308.31 128.848ZM314.985 139.192C314.025 139.192 313.285 138.924 312.765 138.388C312.253 137.852 311.997 137.08 311.997 136.072V128.632H310.533C310.405 128.632 310.297 128.596 310.209 128.524C310.121 128.444 310.077 128.324 310.077 128.164V127.312L312.069 127.06L312.561 123.304C312.585 123.184 312.637 123.088 312.717 123.016C312.805 122.936 312.917 122.896 313.053 122.896H314.133V127.084H317.649V128.632H314.133V135.928C314.133 136.44 314.257 136.82 314.505 137.068C314.753 137.316 315.073 137.44 315.465 137.44C315.689 137.44 315.881 137.412 316.041 137.356C316.209 137.292 316.353 137.224 316.473 137.152C316.593 137.08 316.693 137.016 316.773 136.96C316.861 136.896 316.937 136.864 317.001 136.864C317.113 136.864 317.213 136.932 317.301 137.068L317.925 138.088C317.557 138.432 317.113 138.704 316.593 138.904C316.073 139.096 315.537 139.192 314.985 139.192ZM319.134 137.68C319.134 137.472 319.17 137.276 319.242 137.092C319.322 136.908 319.426 136.748 319.554 136.612C319.69 136.476 319.85 136.368 320.034 136.288C320.218 136.208 320.414 136.168 320.622 136.168C320.83 136.168 321.026 136.208 321.21 136.288C321.394 136.368 321.554 136.476 321.69 136.612C321.826 136.748 321.934 136.908 322.014 137.092C322.094 137.276 322.134 137.472 322.134 137.68C322.134 137.896 322.094 138.096 322.014 138.28C321.934 138.456 321.826 138.612 321.69 138.748C321.554 138.884 321.394 138.988 321.21 139.06C321.026 139.14 320.83 139.18 320.622 139.18C320.414 139.18 320.218 139.14 320.034 139.06C319.85 138.988 319.69 138.884 319.554 138.748C319.426 138.612 319.322 138.456 319.242 138.28C319.17 138.096 319.134 137.896 319.134 137.68ZM325.598 139V128.668L324.254 128.512C324.086 128.472 323.946 128.412 323.834 128.332C323.73 128.244 323.678 128.12 323.678 127.96V127.084H325.598V125.908C325.598 125.212 325.694 124.596 325.886 124.06C326.086 123.516 326.366 123.06 326.726 122.692C327.094 122.316 327.534 122.032 328.046 121.84C328.558 121.648 329.134 121.552 329.774 121.552C330.318 121.552 330.818 121.632 331.274 121.792L331.226 122.86C331.21 123.052 331.102 123.156 330.902 123.172C330.71 123.188 330.45 123.196 330.122 123.196C329.754 123.196 329.418 123.244 329.114 123.34C328.818 123.436 328.562 123.592 328.346 123.808C328.13 124.024 327.962 124.308 327.842 124.66C327.73 125.012 327.674 125.448 327.674 125.968V127.084H331.178V128.632H327.746V139H325.598ZM332.86 139V126.844H334.144C334.448 126.844 334.636 126.992 334.708 127.288L334.864 128.536C335.312 127.984 335.816 127.532 336.376 127.18C336.936 126.828 337.584 126.652 338.32 126.652C339.136 126.652 339.796 126.88 340.3 127.336C340.812 127.792 341.18 128.408 341.404 129.184C341.58 128.744 341.804 128.364 342.076 128.044C342.356 127.724 342.668 127.46 343.012 127.252C343.356 127.044 343.72 126.892 344.104 126.796C344.496 126.7 344.892 126.652 345.292 126.652C345.932 126.652 346.5 126.756 346.996 126.964C347.5 127.164 347.924 127.46 348.268 127.852C348.62 128.244 348.888 128.728 349.072 129.304C349.256 129.872 349.348 130.524 349.348 131.26V139H347.2V131.26C347.2 130.308 346.992 129.588 346.576 129.1C346.16 128.604 345.56 128.356 344.776 128.356C344.424 128.356 344.088 128.42 343.768 128.548C343.456 128.668 343.18 128.848 342.94 129.088C342.7 129.328 342.508 129.632 342.364 130C342.228 130.36 342.16 130.78 342.16 131.26V139H340.012V131.26C340.012 130.284 339.816 129.556 339.424 129.076C339.032 128.596 338.46 128.356 337.708 128.356C337.18 128.356 336.692 128.5 336.244 128.788C335.796 129.068 335.384 129.452 335.008 129.94V139H332.86Z" fill="#FAFAFA"/>
<path d="M216.804 218.104L216.792 220H206.196V202.804H216.792V204.7H208.524V210.412H215.22V212.236H208.524V218.104H216.804ZM220.871 209.608C221.135 209.312 221.415 209.044 221.711 208.804C222.007 208.564 222.319 208.36 222.647 208.192C222.983 208.016 223.335 207.884 223.703 207.796C224.079 207.7 224.483 207.652 224.915 207.652C225.579 207.652 226.163 207.764 226.667 207.988C227.179 208.204 227.603 208.516 227.939 208.924C228.283 209.324 228.543 209.808 228.719 210.376C228.895 210.944 228.983 211.572 228.983 212.26V220H226.835V212.26C226.835 211.34 226.623 210.628 226.199 210.124C225.783 209.612 225.147 209.356 224.291 209.356C223.659 209.356 223.067 209.508 222.515 209.812C221.971 210.116 221.467 210.528 221.003 211.048V220H218.855V207.844H220.139C220.443 207.844 220.631 207.992 220.703 208.288L220.871 209.608ZM238.466 214.528C237.482 214.56 236.642 214.64 235.946 214.768C235.258 214.888 234.694 215.048 234.254 215.248C233.822 215.448 233.506 215.684 233.306 215.956C233.114 216.228 233.018 216.532 233.018 216.868C233.018 217.188 233.07 217.464 233.174 217.696C233.278 217.928 233.418 218.12 233.594 218.272C233.778 218.416 233.99 218.524 234.23 218.596C234.478 218.66 234.742 218.692 235.022 218.692C235.398 218.692 235.742 218.656 236.054 218.584C236.366 218.504 236.658 218.392 236.93 218.248C237.21 218.104 237.474 217.932 237.722 217.732C237.978 217.532 238.226 217.304 238.466 217.048V214.528ZM231.566 209.56C232.238 208.912 232.962 208.428 233.738 208.108C234.514 207.788 235.374 207.628 236.318 207.628C236.998 207.628 237.602 207.74 238.13 207.964C238.658 208.188 239.102 208.5 239.462 208.9C239.822 209.3 240.094 209.784 240.278 210.352C240.462 210.92 240.554 211.544 240.554 212.224V220H239.606C239.398 220 239.238 219.968 239.126 219.904C239.014 219.832 238.926 219.696 238.862 219.496L238.622 218.344C238.302 218.64 237.99 218.904 237.686 219.136C237.382 219.36 237.062 219.552 236.726 219.712C236.39 219.864 236.03 219.98 235.646 220.06C235.27 220.148 234.85 220.192 234.386 220.192C233.914 220.192 233.47 220.128 233.054 220C232.638 219.864 232.274 219.664 231.962 219.4C231.658 219.136 231.414 218.804 231.23 218.404C231.054 217.996 230.966 217.516 230.966 216.964C230.966 216.484 231.098 216.024 231.362 215.584C231.626 215.136 232.054 214.74 232.646 214.396C233.238 214.052 234.01 213.772 234.962 213.556C235.914 213.332 237.082 213.204 238.466 213.172V212.224C238.466 211.28 238.262 210.568 237.854 210.088C237.446 209.6 236.85 209.356 236.066 209.356C235.538 209.356 235.094 209.424 234.734 209.56C234.382 209.688 234.074 209.836 233.81 210.004C233.554 210.164 233.33 210.312 233.138 210.448C232.954 210.576 232.77 210.64 232.586 210.64C232.442 210.64 232.318 210.604 232.214 210.532C232.11 210.452 232.022 210.356 231.95 210.244L231.566 209.56ZM245.596 217.072C245.988 217.6 246.416 217.972 246.88 218.188C247.352 218.404 247.868 218.512 248.428 218.512C249.572 218.512 250.448 218.108 251.056 217.3C251.664 216.492 251.968 215.288 251.968 213.688C251.968 212.2 251.696 211.108 251.152 210.412C250.616 209.708 249.848 209.356 248.848 209.356C248.152 209.356 247.544 209.516 247.024 209.836C246.512 210.156 246.036 210.608 245.596 211.192V217.072ZM245.596 209.596C246.108 209.004 246.684 208.532 247.324 208.18C247.972 207.828 248.716 207.652 249.556 207.652C250.268 207.652 250.908 207.788 251.476 208.06C252.052 208.332 252.54 208.728 252.94 209.248C253.34 209.76 253.644 210.384 253.852 211.12C254.068 211.856 254.176 212.684 254.176 213.604C254.176 214.588 254.056 215.484 253.816 216.292C253.576 217.1 253.228 217.792 252.772 218.368C252.324 218.936 251.776 219.38 251.128 219.7C250.48 220.012 249.752 220.168 248.944 220.168C248.144 220.168 247.468 220.02 246.916 219.724C246.372 219.42 245.896 218.992 245.488 218.44L245.38 219.544C245.316 219.848 245.132 220 244.828 220H243.448V202.324H245.596V209.596ZM258.726 202.324V220H256.59V202.324H258.726ZM269.966 212.596C269.966 212.1 269.894 211.648 269.75 211.24C269.614 210.824 269.41 210.468 269.138 210.172C268.874 209.868 268.55 209.636 268.166 209.476C267.782 209.308 267.346 209.224 266.858 209.224C265.834 209.224 265.022 209.524 264.422 210.124C263.83 210.716 263.462 211.54 263.318 212.596H269.966ZM271.694 218.296C271.43 218.616 271.114 218.896 270.746 219.136C270.378 219.368 269.982 219.56 269.558 219.712C269.142 219.864 268.71 219.976 268.262 220.048C267.814 220.128 267.37 220.168 266.93 220.168C266.09 220.168 265.314 220.028 264.602 219.748C263.898 219.46 263.286 219.044 262.766 218.5C262.254 217.948 261.854 217.268 261.566 216.46C261.278 215.652 261.134 214.724 261.134 213.676C261.134 212.828 261.262 212.036 261.518 211.3C261.782 210.564 262.158 209.928 262.646 209.392C263.134 208.848 263.73 208.424 264.434 208.12C265.138 207.808 265.93 207.652 266.81 207.652C267.538 207.652 268.21 207.776 268.826 208.024C269.45 208.264 269.986 208.616 270.434 209.08C270.89 209.536 271.246 210.104 271.502 210.784C271.758 211.456 271.886 212.224 271.886 213.088C271.886 213.424 271.85 213.648 271.778 213.76C271.706 213.872 271.57 213.928 271.37 213.928H263.246C263.27 214.696 263.374 215.364 263.558 215.932C263.75 216.5 264.014 216.976 264.35 217.36C264.686 217.736 265.086 218.02 265.55 218.212C266.014 218.396 266.534 218.488 267.11 218.488C267.646 218.488 268.106 218.428 268.49 218.308C268.882 218.18 269.218 218.044 269.498 217.9C269.778 217.756 270.01 217.624 270.194 217.504C270.386 217.376 270.55 217.312 270.686 217.312C270.862 217.312 270.998 217.38 271.094 217.516L271.694 218.296ZM287.01 209.848C286.914 210.024 286.766 210.112 286.566 210.112C286.446 210.112 286.31 210.068 286.158 209.98C286.006 209.892 285.818 209.796 285.594 209.692C285.378 209.58 285.118 209.48 284.814 209.392C284.51 209.296 284.15 209.248 283.734 209.248C283.374 209.248 283.05 209.296 282.762 209.392C282.474 209.48 282.226 209.604 282.018 209.764C281.818 209.924 281.662 210.112 281.55 210.328C281.446 210.536 281.394 210.764 281.394 211.012C281.394 211.324 281.482 211.584 281.658 211.792C281.842 212 282.082 212.18 282.378 212.332C282.674 212.484 283.01 212.62 283.386 212.74C283.762 212.852 284.146 212.976 284.538 213.112C284.938 213.24 285.326 213.384 285.702 213.544C286.078 213.704 286.414 213.904 286.71 214.144C287.006 214.384 287.242 214.68 287.418 215.032C287.602 215.376 287.694 215.792 287.694 216.28C287.694 216.84 287.594 217.36 287.394 217.84C287.194 218.312 286.898 218.724 286.506 219.076C286.114 219.42 285.634 219.692 285.066 219.892C284.498 220.092 283.842 220.192 283.098 220.192C282.25 220.192 281.482 220.056 280.794 219.784C280.106 219.504 279.522 219.148 279.042 218.716L279.546 217.9C279.61 217.796 279.686 217.716 279.774 217.66C279.862 217.604 279.974 217.576 280.11 217.576C280.254 217.576 280.406 217.632 280.566 217.744C280.726 217.856 280.918 217.98 281.142 218.116C281.374 218.252 281.654 218.376 281.982 218.488C282.31 218.6 282.718 218.656 283.206 218.656C283.622 218.656 283.986 218.604 284.298 218.5C284.61 218.388 284.87 218.24 285.078 218.056C285.286 217.872 285.438 217.66 285.534 217.42C285.638 217.18 285.69 216.924 285.69 216.652C285.69 216.316 285.598 216.04 285.414 215.824C285.238 215.6 285.002 215.412 284.706 215.26C284.41 215.1 284.07 214.964 283.686 214.852C283.31 214.732 282.922 214.608 282.522 214.48C282.13 214.352 281.742 214.208 281.358 214.048C280.982 213.88 280.646 213.672 280.35 213.424C280.054 213.176 279.814 212.872 279.63 212.512C279.454 212.144 279.366 211.7 279.366 211.18C279.366 210.716 279.462 210.272 279.654 209.848C279.846 209.416 280.126 209.04 280.494 208.72C280.862 208.392 281.314 208.132 281.85 207.94C282.386 207.748 282.998 207.652 283.686 207.652C284.486 207.652 285.202 207.78 285.834 208.036C286.474 208.284 287.026 208.628 287.49 209.068L287.01 209.848ZM298.413 210.004C298.349 210.092 298.285 210.16 298.221 210.208C298.157 210.256 298.069 210.28 297.957 210.28C297.837 210.28 297.705 210.232 297.561 210.136C297.417 210.032 297.237 209.92 297.021 209.8C296.813 209.68 296.553 209.572 296.241 209.476C295.937 209.372 295.561 209.32 295.113 209.32C294.513 209.32 293.985 209.428 293.529 209.644C293.073 209.852 292.689 210.156 292.377 210.556C292.073 210.956 291.841 211.44 291.681 212.008C291.529 212.576 291.453 213.212 291.453 213.916C291.453 214.652 291.537 215.308 291.705 215.884C291.873 216.452 292.109 216.932 292.413 217.324C292.725 217.708 293.097 218.004 293.529 218.212C293.969 218.412 294.461 218.512 295.005 218.512C295.525 218.512 295.953 218.452 296.289 218.332C296.625 218.204 296.901 218.064 297.117 217.912C297.341 217.76 297.525 217.624 297.669 217.504C297.821 217.376 297.969 217.312 298.113 217.312C298.289 217.312 298.425 217.38 298.521 217.516L299.121 218.296C298.857 218.624 298.557 218.904 298.221 219.136C297.885 219.368 297.521 219.564 297.129 219.724C296.745 219.876 296.341 219.988 295.917 220.06C295.493 220.132 295.061 220.168 294.621 220.168C293.861 220.168 293.153 220.028 292.497 219.748C291.849 219.468 291.285 219.064 290.805 218.536C290.325 218 289.949 217.344 289.677 216.568C289.405 215.792 289.269 214.908 289.269 213.916C289.269 213.012 289.393 212.176 289.641 211.408C289.897 210.64 290.265 209.98 290.745 209.428C291.233 208.868 291.829 208.432 292.533 208.12C293.245 207.808 294.061 207.652 294.981 207.652C295.837 207.652 296.589 207.792 297.237 208.072C297.893 208.344 298.473 208.732 298.977 209.236L298.413 210.004ZM303.082 210.28C303.466 209.448 303.938 208.8 304.498 208.336C305.058 207.864 305.742 207.628 306.55 207.628C306.806 207.628 307.05 207.656 307.282 207.712C307.522 207.768 307.734 207.856 307.918 207.976L307.762 209.572C307.714 209.772 307.594 209.872 307.402 209.872C307.29 209.872 307.126 209.848 306.91 209.8C306.694 209.752 306.45 209.728 306.178 209.728C305.794 209.728 305.45 209.784 305.146 209.896C304.85 210.008 304.582 210.176 304.342 210.4C304.11 210.616 303.898 210.888 303.706 211.216C303.522 211.536 303.354 211.904 303.202 212.32V220H301.054V207.844H302.278C302.51 207.844 302.67 207.888 302.758 207.976C302.846 208.064 302.906 208.216 302.938 208.432L303.082 210.28ZM314.068 207.652C314.956 207.652 315.756 207.8 316.468 208.096C317.18 208.392 317.788 208.812 318.292 209.356C318.796 209.9 319.18 210.56 319.444 211.336C319.716 212.104 319.852 212.964 319.852 213.916C319.852 214.876 319.716 215.74 319.444 216.508C319.18 217.276 318.796 217.932 318.292 218.476C317.788 219.02 317.18 219.44 316.468 219.736C315.756 220.024 314.956 220.168 314.068 220.168C313.172 220.168 312.364 220.024 311.644 219.736C310.932 219.44 310.324 219.02 309.82 218.476C309.316 217.932 308.928 217.276 308.656 216.508C308.392 215.74 308.26 214.876 308.26 213.916C308.26 212.964 308.392 212.104 308.656 211.336C308.928 210.56 309.316 209.9 309.82 209.356C310.324 208.812 310.932 208.392 311.644 208.096C312.364 207.8 313.172 207.652 314.068 207.652ZM314.068 218.5C315.268 218.5 316.164 218.1 316.756 217.3C317.348 216.492 317.644 215.368 317.644 213.928C317.644 212.48 317.348 211.352 316.756 210.544C316.164 209.736 315.268 209.332 314.068 209.332C313.46 209.332 312.928 209.436 312.472 209.644C312.024 209.852 311.648 210.152 311.344 210.544C311.048 210.936 310.824 211.42 310.672 211.996C310.528 212.564 310.456 213.208 310.456 213.928C310.456 215.368 310.752 216.492 311.344 217.3C311.944 218.1 312.852 218.5 314.068 218.5ZM324.349 217.072C324.741 217.6 325.169 217.972 325.633 218.188C326.105 218.404 326.621 218.512 327.181 218.512C328.325 218.512 329.201 218.108 329.809 217.3C330.417 216.492 330.721 215.288 330.721 213.688C330.721 212.2 330.449 211.108 329.905 210.412C329.369 209.708 328.601 209.356 327.601 209.356C326.905 209.356 326.297 209.516 325.777 209.836C325.265 210.156 324.789 210.608 324.349 211.192V217.072ZM324.349 209.596C324.861 209.004 325.437 208.532 326.077 208.18C326.725 207.828 327.469 207.652 328.309 207.652C329.021 207.652 329.661 207.788 330.229 208.06C330.805 208.332 331.293 208.728 331.693 209.248C332.093 209.76 332.397 210.384 332.605 211.12C332.821 211.856 332.929 212.684 332.929 213.604C332.929 214.588 332.809 215.484 332.569 216.292C332.329 217.1 331.981 217.792 331.525 218.368C331.077 218.936 330.529 219.38 329.881 219.7C329.233 220.012 328.505 220.168 327.697 220.168C326.897 220.168 326.221 220.02 325.669 219.724C325.125 219.42 324.649 218.992 324.241 218.44L324.133 219.544C324.069 219.848 323.885 220 323.581 220H322.201V202.324H324.349V209.596ZM337.418 217.072C337.81 217.6 338.238 217.972 338.702 218.188C339.174 218.404 339.69 218.512 340.25 218.512C341.394 218.512 342.27 218.108 342.878 217.3C343.486 216.492 343.79 215.288 343.79 213.688C343.79 212.2 343.518 211.108 342.974 210.412C342.438 209.708 341.67 209.356 340.67 209.356C339.974 209.356 339.366 209.516 338.846 209.836C338.334 210.156 337.858 210.608 337.418 211.192V217.072ZM337.418 209.596C337.93 209.004 338.506 208.532 339.146 208.18C339.794 207.828 340.538 207.652 341.378 207.652C342.09 207.652 342.73 207.788 343.298 208.06C343.874 208.332 344.362 208.728 344.762 209.248C345.162 209.76 345.466 210.384 345.674 211.12C345.89 211.856 345.998 212.684 345.998 213.604C345.998 214.588 345.878 215.484 345.638 216.292C345.398 217.1 345.05 217.792 344.594 218.368C344.146 218.936 343.598 219.38 342.95 219.7C342.302 220.012 341.574 220.168 340.766 220.168C339.966 220.168 339.29 220.02 338.738 219.724C338.194 219.42 337.718 218.992 337.31 218.44L337.202 219.544C337.138 219.848 336.954 220 336.65 220H335.27V202.324H337.418V209.596ZM350.548 202.324V220H348.412V202.324H350.548ZM355.908 207.844V220H353.772V207.844H355.908ZM356.364 204.028C356.364 204.236 356.32 204.432 356.232 204.616C356.152 204.792 356.04 204.952 355.896 205.096C355.76 205.232 355.596 205.34 355.404 205.42C355.22 205.5 355.024 205.54 354.816 205.54C354.608 205.54 354.412 205.5 354.228 205.42C354.052 205.34 353.896 205.232 353.76 205.096C353.624 204.952 353.516 204.792 353.436 204.616C353.356 204.432 353.316 204.236 353.316 204.028C353.316 203.82 353.356 203.624 353.436 203.44C353.516 203.248 353.624 203.084 353.76 202.948C353.896 202.804 354.052 202.692 354.228 202.612C354.412 202.532 354.608 202.492 354.816 202.492C355.024 202.492 355.22 202.532 355.404 202.612C355.596 202.692 355.76 202.804 355.896 202.948C356.04 203.084 356.152 203.248 356.232 203.44C356.32 203.624 356.364 203.82 356.364 204.028ZM361.074 209.608C361.338 209.312 361.618 209.044 361.914 208.804C362.21 208.564 362.522 208.36 362.85 208.192C363.186 208.016 363.538 207.884 363.906 207.796C364.282 207.7 364.686 207.652 365.118 207.652C365.782 207.652 366.366 207.764 366.87 207.988C367.382 208.204 367.806 208.516 368.142 208.924C368.486 209.324 368.746 209.808 368.922 210.376C369.098 210.944 369.186 211.572 369.186 212.26V220H367.038V212.26C367.038 211.34 366.826 210.628 366.402 210.124C365.986 209.612 365.35 209.356 364.494 209.356C363.862 209.356 363.27 209.508 362.718 209.812C362.174 210.116 361.67 210.528 361.206 211.048V220H359.058V207.844H360.342C360.646 207.844 360.834 207.992 360.906 208.288L361.074 209.608ZM376.316 214.06C376.748 214.06 377.128 214 377.456 213.88C377.784 213.76 378.06 213.592 378.284 213.376C378.508 213.16 378.676 212.904 378.788 212.608C378.9 212.304 378.956 211.972 378.956 211.612C378.956 210.868 378.728 210.276 378.272 209.836C377.824 209.396 377.172 209.176 376.316 209.176C375.452 209.176 374.792 209.396 374.336 209.836C373.888 210.276 373.664 210.868 373.664 211.612C373.664 211.972 373.72 212.304 373.832 212.608C373.952 212.904 374.124 213.16 374.348 213.376C374.572 213.592 374.848 213.76 375.176 213.88C375.504 214 375.884 214.06 376.316 214.06ZM380.168 220.66C380.168 220.364 380.084 220.124 379.916 219.94C379.748 219.756 379.52 219.612 379.232 219.508C378.952 219.404 378.624 219.332 378.248 219.292C377.872 219.244 377.472 219.208 377.048 219.184C376.632 219.16 376.208 219.136 375.776 219.112C375.344 219.088 374.928 219.048 374.528 218.992C374.08 219.2 373.712 219.464 373.424 219.784C373.144 220.096 373.004 220.464 373.004 220.888C373.004 221.16 373.072 221.412 373.208 221.644C373.352 221.884 373.568 222.088 373.856 222.256C374.144 222.432 374.504 222.568 374.936 222.664C375.376 222.768 375.892 222.82 376.484 222.82C377.06 222.82 377.576 222.768 378.032 222.664C378.488 222.56 378.872 222.412 379.184 222.22C379.504 222.028 379.748 221.8 379.916 221.536C380.084 221.272 380.168 220.98 380.168 220.66ZM382.34 208.324V209.116C382.34 209.38 382.172 209.548 381.836 209.62L380.456 209.8C380.728 210.328 380.864 210.912 380.864 211.552C380.864 212.144 380.748 212.684 380.516 213.172C380.292 213.652 379.98 214.064 379.58 214.408C379.18 214.752 378.7 215.016 378.14 215.2C377.58 215.384 376.972 215.476 376.316 215.476C375.748 215.476 375.212 215.408 374.708 215.272C374.452 215.432 374.256 215.604 374.12 215.788C373.984 215.964 373.916 216.144 373.916 216.328C373.916 216.616 374.032 216.836 374.264 216.988C374.504 217.132 374.816 217.236 375.2 217.3C375.584 217.364 376.02 217.404 376.508 217.42C377.004 217.436 377.508 217.464 378.02 217.504C378.54 217.536 379.044 217.596 379.532 217.684C380.028 217.772 380.468 217.916 380.852 218.116C381.236 218.316 381.544 218.592 381.776 218.944C382.016 219.296 382.136 219.752 382.136 220.312C382.136 220.832 382.004 221.336 381.74 221.824C381.484 222.312 381.112 222.744 380.624 223.12C380.136 223.504 379.536 223.808 378.824 224.032C378.12 224.264 377.324 224.38 376.436 224.38C375.548 224.38 374.772 224.292 374.108 224.116C373.444 223.94 372.892 223.704 372.452 223.408C372.012 223.112 371.68 222.768 371.456 222.376C371.24 221.992 371.132 221.588 371.132 221.164C371.132 220.564 371.32 220.056 371.696 219.64C372.072 219.224 372.588 218.892 373.244 218.644C372.884 218.484 372.596 218.272 372.38 218.008C372.172 217.736 372.068 217.372 372.068 216.916C372.068 216.74 372.1 216.56 372.164 216.376C372.228 216.184 372.324 215.996 372.452 215.812C372.588 215.62 372.752 215.44 372.944 215.272C373.136 215.104 373.36 214.956 373.616 214.828C373.016 214.492 372.548 214.048 372.212 213.496C371.876 212.936 371.708 212.288 371.708 211.552C371.708 210.96 371.82 210.424 372.044 209.944C372.276 209.456 372.596 209.044 373.004 208.708C373.412 208.364 373.896 208.1 374.456 207.916C375.024 207.732 375.644 207.64 376.316 207.64C376.844 207.64 377.336 207.7 377.792 207.82C378.248 207.932 378.664 208.1 379.04 208.324H382.34Z" fill="#FAFAFA"/>
<rect x="204" y="102" width="56" height="56" rx="8" fill="#FAFAFA"/>
<path d="M254 102H210C206.688 102 204 104.688 204 108V152C204 155.312 206.688 158 210 158H254C257.312 158 260 155.312 260 152V108C260 104.688 257.312 102 254 102ZM242.475 141.112C234.55 141.112 231.8 137.537 230.337 133.1C228.3 126.725 227.65 122.562 222.462 122.562C219.662 122.562 216.825 124.575 216.825 130.213C216.825 134.613 219.075 137.362 222.237 137.362C225.812 137.362 228.188 134.7 228.188 134.7L229.65 138.688C229.65 138.688 227.175 141.112 222 141.112C215.587 141.112 212.012 137.35 212.012 130.388C212.012 123.15 215.588 118.888 222.325 118.888C231.513 118.888 232.425 124.062 234.925 131.625C236.025 134.975 237.95 137.4 242.575 137.4C245.688 137.4 247.338 136.713 247.338 135.013C247.338 132.525 244.612 132.263 241.1 131.438C237.3 130.525 235.788 128.55 235.788 125.438C235.788 120.438 239.825 118.888 243.938 118.888C248.612 118.888 251.45 120.587 251.812 124.712L247.225 125.263C247.037 123.288 245.85 122.462 243.65 122.462C241.638 122.462 240.4 123.375 240.4 124.938C240.4 126.312 241 127.138 243.013 127.6C247.1 128.488 251.987 129.1 251.987 134.787C252 139.375 248.15 141.112 242.475 141.112Z" fill="#FF5555"/>
<rect x="817" y="106" width="128" height="48" rx="8" fill="#6E7291"/>
<path d="M862.096 136.336V139H851.932V121.648H855.16V136.336H862.096ZM868.388 126.496C869.3 126.496 870.128 126.644 870.872 126.94C871.624 127.236 872.264 127.656 872.792 128.2C873.328 128.744 873.74 129.408 874.028 130.192C874.316 130.976 874.46 131.852 874.46 132.82C874.46 133.796 874.316 134.676 874.028 135.46C873.74 136.244 873.328 136.912 872.792 137.464C872.264 138.016 871.624 138.44 870.872 138.736C870.128 139.032 869.3 139.18 868.388 139.18C867.468 139.18 866.632 139.032 865.88 138.736C865.128 138.44 864.484 138.016 863.948 137.464C863.42 136.912 863.008 136.244 862.712 135.46C862.424 134.676 862.28 133.796 862.28 132.82C862.28 131.852 862.424 130.976 862.712 130.192C863.008 129.408 863.42 128.744 863.948 128.2C864.484 127.656 865.128 127.236 865.88 126.94C866.632 126.644 867.468 126.496 868.388 126.496ZM868.388 136.9C869.412 136.9 870.168 136.556 870.656 135.868C871.152 135.18 871.4 134.172 871.4 132.844C871.4 131.516 871.152 130.504 870.656 129.808C870.168 129.112 869.412 128.764 868.388 128.764C867.348 128.764 866.576 129.116 866.072 129.82C865.576 130.516 865.328 131.524 865.328 132.844C865.328 134.164 865.576 135.172 866.072 135.868C866.576 136.556 867.348 136.9 868.388 136.9ZM880.767 132.544C881.135 132.544 881.455 132.496 881.727 132.4C881.999 132.296 882.223 132.156 882.399 131.98C882.583 131.804 882.719 131.592 882.807 131.344C882.903 131.096 882.951 130.824 882.951 130.528C882.951 129.92 882.767 129.44 882.399 129.088C882.039 128.728 881.495 128.548 880.767 128.548C880.039 128.548 879.491 128.728 879.123 129.088C878.763 129.44 878.583 129.92 878.583 130.528C878.583 130.816 878.627 131.084 878.715 131.332C878.811 131.58 878.947 131.796 879.123 131.98C879.307 132.156 879.535 132.296 879.807 132.4C880.087 132.496 880.407 132.544 880.767 132.544ZM884.115 139.552C884.115 139.312 884.043 139.116 883.899 138.964C883.755 138.812 883.559 138.696 883.311 138.616C883.063 138.528 882.771 138.464 882.435 138.424C882.107 138.384 881.755 138.356 881.379 138.34C881.011 138.316 880.627 138.296 880.227 138.28C879.835 138.264 879.451 138.232 879.075 138.184C878.747 138.368 878.479 138.584 878.271 138.832C878.071 139.08 877.971 139.368 877.971 139.696C877.971 139.912 878.023 140.112 878.127 140.296C878.239 140.488 878.411 140.652 878.643 140.788C878.883 140.924 879.191 141.028 879.567 141.1C879.943 141.18 880.403 141.22 880.947 141.22C881.499 141.22 881.975 141.176 882.375 141.088C882.775 141.008 883.103 140.892 883.359 140.74C883.623 140.596 883.815 140.42 883.935 140.212C884.055 140.012 884.115 139.792 884.115 139.552ZM887.067 127.108V128.212C887.067 128.564 886.855 128.78 886.431 128.86L885.327 129.064C885.495 129.488 885.579 129.952 885.579 130.456C885.579 131.064 885.455 131.616 885.207 132.112C884.967 132.6 884.631 133.016 884.199 133.36C883.767 133.704 883.255 133.972 882.663 134.164C882.079 134.348 881.447 134.44 880.767 134.44C880.527 134.44 880.295 134.428 880.071 134.404C879.847 134.38 879.627 134.348 879.411 134.308C879.027 134.54 878.835 134.8 878.835 135.088C878.835 135.336 878.947 135.52 879.171 135.64C879.403 135.752 879.707 135.832 880.083 135.88C880.459 135.928 880.887 135.96 881.367 135.976C881.847 135.984 882.339 136.008 882.843 136.048C883.347 136.088 883.839 136.16 884.319 136.264C884.799 136.36 885.227 136.516 885.603 136.732C885.979 136.948 886.279 137.244 886.503 137.62C886.735 137.988 886.851 138.464 886.851 139.048C886.851 139.592 886.715 140.12 886.443 140.632C886.179 141.144 885.791 141.6 885.279 142C884.775 142.4 884.151 142.72 883.407 142.96C882.671 143.208 881.831 143.332 880.887 143.332C879.959 143.332 879.151 143.24 878.463 143.056C877.775 142.88 877.203 142.64 876.747 142.336C876.291 142.04 875.951 141.696 875.727 141.304C875.503 140.912 875.391 140.504 875.391 140.08C875.391 139.504 875.563 139.024 875.907 138.64C876.259 138.248 876.739 137.936 877.347 137.704C877.019 137.536 876.759 137.312 876.567 137.032C876.375 136.752 876.279 136.384 876.279 135.928C876.279 135.744 876.311 135.556 876.375 135.364C876.447 135.164 876.547 134.968 876.675 134.776C876.811 134.584 876.979 134.404 877.179 134.236C877.379 134.06 877.615 133.904 877.887 133.768C877.263 133.432 876.771 132.984 876.411 132.424C876.059 131.864 875.883 131.208 875.883 130.456C875.883 129.848 876.003 129.3 876.243 128.812C876.491 128.316 876.831 127.896 877.263 127.552C877.703 127.2 878.219 126.932 878.811 126.748C879.411 126.564 880.063 126.472 880.767 126.472C881.295 126.472 881.791 126.528 882.255 126.64C882.719 126.744 883.143 126.9 883.527 127.108H887.067ZM897.135 126.688V139H894.159V126.688H897.135ZM897.543 123.1C897.543 123.356 897.491 123.596 897.387 123.82C897.283 124.044 897.143 124.24 896.967 124.408C896.799 124.576 896.599 124.712 896.367 124.816C896.135 124.912 895.887 124.96 895.623 124.96C895.367 124.96 895.123 124.912 894.891 124.816C894.667 124.712 894.471 124.576 894.303 124.408C894.135 124.24 893.999 124.044 893.895 123.82C893.799 123.596 893.751 123.356 893.751 123.1C893.751 122.836 893.799 122.588 893.895 122.356C893.999 122.124 894.135 121.924 894.303 121.756C894.471 121.588 894.667 121.456 894.891 121.36C895.123 121.256 895.367 121.204 895.623 121.204C895.887 121.204 896.135 121.256 896.367 121.36C896.599 121.456 896.799 121.588 896.967 121.756C897.143 121.924 897.283 122.124 897.387 122.356C897.491 122.588 897.543 122.836 897.543 123.1ZM902.569 128.2C902.817 127.952 903.077 127.724 903.349 127.516C903.629 127.3 903.921 127.12 904.225 126.976C904.537 126.824 904.869 126.708 905.221 126.628C905.573 126.54 905.957 126.496 906.373 126.496C907.045 126.496 907.641 126.612 908.161 126.844C908.681 127.068 909.113 127.388 909.457 127.804C909.809 128.212 910.073 128.704 910.249 129.28C910.433 129.848 910.525 130.476 910.525 131.164V139H907.561V131.164C907.561 130.412 907.389 129.832 907.045 129.424C906.701 129.008 906.177 128.8 905.473 128.8C904.961 128.8 904.481 128.916 904.033 129.148C903.585 129.38 903.161 129.696 902.761 130.096V139H899.797V126.688H901.609C901.993 126.688 902.245 126.868 902.365 127.228L902.569 128.2Z" fill="#FAFAFA"/>
<rect x="849" y="187" width="96" height="48" rx="24" fill="#6272A4"/>
<circle cx="921" cy="211" r="24" fill="#FAFAFA"/>
<rect x="176.5" y="76.5" width="796" height="180" rx="7.5" stroke="#6E7291"/>
<rect x="76.5" y="306.5" width="883" height="180" rx="7.5" fill="#424557" fill-opacity="0.35"/>
<path d="M108.524 450H106.196V432.804H108.524V450ZM113.887 439.608C114.151 439.312 114.431 439.044 114.727 438.804C115.023 438.564 115.335 438.36 115.663 438.192C115.999 438.016 116.351 437.884 116.719 437.796C117.095 437.7 117.499 437.652 117.931 437.652C118.595 437.652 119.179 437.764 119.683 437.988C120.195 438.204 120.619 438.516 120.955 438.924C121.299 439.324 121.559 439.808 121.735 440.376C121.911 440.944 121.999 441.572 121.999 442.26V450H119.851V442.26C119.851 441.34 119.639 440.628 119.215 440.124C118.799 439.612 118.163 439.356 117.307 439.356C116.675 439.356 116.083 439.508 115.531 439.812C114.987 440.116 114.483 440.528 114.019 441.048V450H111.871V437.844H113.155C113.459 437.844 113.647 437.992 113.719 438.288L113.887 439.608ZM131.974 439.848C131.878 440.024 131.73 440.112 131.53 440.112C131.41 440.112 131.274 440.068 131.122 439.98C130.97 439.892 130.782 439.796 130.558 439.692C130.342 439.58 130.082 439.48 129.778 439.392C129.474 439.296 129.114 439.248 128.698 439.248C128.338 439.248 128.014 439.296 127.726 439.392C127.438 439.48 127.19 439.604 126.982 439.764C126.782 439.924 126.626 440.112 126.514 440.328C126.41 440.536 126.358 440.764 126.358 441.012C126.358 441.324 126.446 441.584 126.622 441.792C126.806 442 127.046 442.18 127.342 442.332C127.638 442.484 127.974 442.62 128.35 442.74C128.726 442.852 129.11 442.976 129.502 443.112C129.902 443.24 130.29 443.384 130.666 443.544C131.042 443.704 131.378 443.904 131.674 444.144C131.97 444.384 132.206 444.68 132.382 445.032C132.566 445.376 132.658 445.792 132.658 446.28C132.658 446.84 132.558 447.36 132.358 447.84C132.158 448.312 131.862 448.724 131.47 449.076C131.078 449.42 130.598 449.692 130.03 449.892C129.462 450.092 128.806 450.192 128.062 450.192C127.214 450.192 126.446 450.056 125.758 449.784C125.07 449.504 124.486 449.148 124.006 448.716L124.51 447.9C124.574 447.796 124.65 447.716 124.738 447.66C124.826 447.604 124.938 447.576 125.074 447.576C125.218 447.576 125.37 447.632 125.53 447.744C125.69 447.856 125.882 447.98 126.106 448.116C126.338 448.252 126.618 448.376 126.946 448.488C127.274 448.6 127.682 448.656 128.17 448.656C128.586 448.656 128.95 448.604 129.262 448.5C129.574 448.388 129.834 448.24 130.042 448.056C130.25 447.872 130.402 447.66 130.498 447.42C130.602 447.18 130.654 446.924 130.654 446.652C130.654 446.316 130.562 446.04 130.378 445.824C130.202 445.6 129.966 445.412 129.67 445.26C129.374 445.1 129.034 444.964 128.65 444.852C128.274 444.732 127.886 444.608 127.486 444.48C127.094 444.352 126.706 444.208 126.322 444.048C125.946 443.88 125.61 443.672 125.314 443.424C125.018 443.176 124.778 442.872 124.594 442.512C124.418 442.144 124.33 441.7 124.33 441.18C124.33 440.716 124.426 440.272 124.618 439.848C124.81 439.416 125.09 439.04 125.458 438.72C125.826 438.392 126.278 438.132 126.814 437.94C127.35 437.748 127.962 437.652 128.65 437.652C129.45 437.652 130.166 437.78 130.798 438.036C131.438 438.284 131.99 438.628 132.454 439.068L131.974 439.848ZM138.649 450.192C137.689 450.192 136.949 449.924 136.429 449.388C135.917 448.852 135.661 448.08 135.661 447.072V439.632H134.197C134.069 439.632 133.961 439.596 133.873 439.524C133.785 439.444 133.741 439.324 133.741 439.164V438.312L135.733 438.06L136.225 434.304C136.249 434.184 136.301 434.088 136.381 434.016C136.469 433.936 136.581 433.896 136.717 433.896H137.797V438.084H141.313V439.632H137.797V446.928C137.797 447.44 137.921 447.82 138.169 448.068C138.417 448.316 138.737 448.44 139.129 448.44C139.353 448.44 139.545 448.412 139.705 448.356C139.873 448.292 140.017 448.224 140.137 448.152C140.257 448.08 140.357 448.016 140.437 447.96C140.525 447.896 140.601 447.864 140.665 447.864C140.777 447.864 140.877 447.932 140.965 448.068L141.589 449.088C141.221 449.432 140.777 449.704 140.257 449.904C139.737 450.096 139.201 450.192 138.649 450.192ZM149.746 444.528C148.762 444.56 147.922 444.64 147.226 444.768C146.538 444.888 145.974 445.048 145.534 445.248C145.102 445.448 144.786 445.684 144.586 445.956C144.394 446.228 144.298 446.532 144.298 446.868C144.298 447.188 144.35 447.464 144.454 447.696C144.558 447.928 144.698 448.12 144.874 448.272C145.058 448.416 145.27 448.524 145.51 448.596C145.758 448.66 146.022 448.692 146.302 448.692C146.678 448.692 147.022 448.656 147.334 448.584C147.646 448.504 147.938 448.392 148.21 448.248C148.49 448.104 148.754 447.932 149.002 447.732C149.258 447.532 149.506 447.304 149.746 447.048V444.528ZM142.846 439.56C143.518 438.912 144.242 438.428 145.018 438.108C145.794 437.788 146.654 437.628 147.598 437.628C148.278 437.628 148.882 437.74 149.41 437.964C149.938 438.188 150.382 438.5 150.742 438.9C151.102 439.3 151.374 439.784 151.558 440.352C151.742 440.92 151.834 441.544 151.834 442.224V450H150.886C150.678 450 150.518 449.968 150.406 449.904C150.294 449.832 150.206 449.696 150.142 449.496L149.902 448.344C149.582 448.64 149.27 448.904 148.966 449.136C148.662 449.36 148.342 449.552 148.006 449.712C147.67 449.864 147.31 449.98 146.926 450.06C146.55 450.148 146.13 450.192 145.666 450.192C145.194 450.192 144.75 450.128 144.334 450C143.918 449.864 143.554 449.664 143.242 449.4C142.938 449.136 142.694 448.804 142.51 448.404C142.334 447.996 142.246 447.516 142.246 446.964C142.246 446.484 142.378 446.024 142.642 445.584C142.906 445.136 143.334 444.74 143.926 444.396C144.518 444.052 145.29 443.772 146.242 443.556C147.194 443.332 148.362 443.204 149.746 443.172V442.224C149.746 441.28 149.542 440.568 149.134 440.088C148.726 439.6 148.13 439.356 147.346 439.356C146.818 439.356 146.374 439.424 146.014 439.56C145.662 439.688 145.354 439.836 145.09 440.004C144.834 440.164 144.61 440.312 144.418 440.448C144.234 440.576 144.05 440.64 143.866 440.64C143.722 440.64 143.598 440.604 143.494 440.532C143.39 440.452 143.302 440.356 143.23 440.244L142.846 439.56ZM156.744 439.608C157.008 439.312 157.288 439.044 157.584 438.804C157.88 438.564 158.192 438.36 158.52 438.192C158.856 438.016 159.208 437.884 159.576 437.796C159.952 437.7 160.356 437.652 160.788 437.652C161.452 437.652 162.036 437.764 162.54 437.988C163.052 438.204 163.476 438.516 163.812 438.924C164.156 439.324 164.416 439.808 164.592 440.376C164.768 440.944 164.856 441.572 164.856 442.26V450H162.708V442.26C162.708 441.34 162.496 440.628 162.072 440.124C161.656 439.612 161.02 439.356 160.164 439.356C159.532 439.356 158.94 439.508 158.388 439.812C157.844 440.116 157.34 440.528 156.876 441.048V450H154.728V437.844H156.012C156.316 437.844 156.504 437.992 156.576 438.288L156.744 439.608ZM176.211 440.004C176.147 440.092 176.083 440.16 176.019 440.208C175.955 440.256 175.867 440.28 175.755 440.28C175.635 440.28 175.503 440.232 175.359 440.136C175.215 440.032 175.035 439.92 174.819 439.8C174.611 439.68 174.351 439.572 174.039 439.476C173.735 439.372 173.359 439.32 172.911 439.32C172.311 439.32 171.783 439.428 171.327 439.644C170.871 439.852 170.487 440.156 170.175 440.556C169.871 440.956 169.639 441.44 169.479 442.008C169.327 442.576 169.251 443.212 169.251 443.916C169.251 444.652 169.335 445.308 169.503 445.884C169.671 446.452 169.907 446.932 170.211 447.324C170.523 447.708 170.895 448.004 171.327 448.212C171.767 448.412 172.259 448.512 172.803 448.512C173.323 448.512 173.751 448.452 174.087 448.332C174.423 448.204 174.699 448.064 174.915 447.912C175.139 447.76 175.323 447.624 175.467 447.504C175.619 447.376 175.767 447.312 175.911 447.312C176.087 447.312 176.223 447.38 176.319 447.516L176.919 448.296C176.655 448.624 176.355 448.904 176.019 449.136C175.683 449.368 175.319 449.564 174.927 449.724C174.543 449.876 174.139 449.988 173.715 450.06C173.291 450.132 172.859 450.168 172.419 450.168C171.659 450.168 170.951 450.028 170.295 449.748C169.647 449.468 169.083 449.064 168.603 448.536C168.123 448 167.747 447.344 167.475 446.568C167.203 445.792 167.067 444.908 167.067 443.916C167.067 443.012 167.191 442.176 167.439 441.408C167.695 440.64 168.063 439.98 168.543 439.428C169.031 438.868 169.627 438.432 170.331 438.12C171.043 437.808 171.859 437.652 172.779 437.652C173.635 437.652 174.387 437.792 175.035 438.072C175.691 438.344 176.271 438.732 176.775 439.236L176.211 440.004ZM186.777 442.596C186.777 442.1 186.705 441.648 186.561 441.24C186.425 440.824 186.221 440.468 185.949 440.172C185.685 439.868 185.361 439.636 184.977 439.476C184.593 439.308 184.157 439.224 183.669 439.224C182.645 439.224 181.833 439.524 181.233 440.124C180.641 440.716 180.273 441.54 180.129 442.596H186.777ZM188.505 448.296C188.241 448.616 187.925 448.896 187.557 449.136C187.189 449.368 186.793 449.56 186.369 449.712C185.953 449.864 185.521 449.976 185.073 450.048C184.625 450.128 184.181 450.168 183.741 450.168C182.901 450.168 182.125 450.028 181.413 449.748C180.709 449.46 180.097 449.044 179.577 448.5C179.065 447.948 178.665 447.268 178.377 446.46C178.089 445.652 177.945 444.724 177.945 443.676C177.945 442.828 178.073 442.036 178.329 441.3C178.593 440.564 178.969 439.928 179.457 439.392C179.945 438.848 180.541 438.424 181.245 438.12C181.949 437.808 182.741 437.652 183.621 437.652C184.349 437.652 185.021 437.776 185.637 438.024C186.261 438.264 186.797 438.616 187.245 439.08C187.701 439.536 188.057 440.104 188.313 440.784C188.569 441.456 188.697 442.224 188.697 443.088C188.697 443.424 188.661 443.648 188.589 443.76C188.517 443.872 188.381 443.928 188.181 443.928H180.057C180.081 444.696 180.185 445.364 180.369 445.932C180.561 446.5 180.825 446.976 181.161 447.36C181.497 447.736 181.897 448.02 182.361 448.212C182.825 448.396 183.345 448.488 183.921 448.488C184.457 448.488 184.917 448.428 185.301 448.308C185.693 448.18 186.029 448.044 186.309 447.9C186.589 447.756 186.821 447.624 187.005 447.504C187.197 447.376 187.361 447.312 187.497 447.312C187.673 447.312 187.809 447.38 187.905 447.516L188.505 448.296ZM203.881 448.152C204.593 448.152 205.229 448.032 205.789 447.792C206.349 447.552 206.821 447.216 207.205 446.784C207.597 446.352 207.893 445.836 208.093 445.236C208.301 444.636 208.405 443.976 208.405 443.256V432.804H210.721V443.256C210.721 444.248 210.561 445.168 210.241 446.016C209.929 446.864 209.477 447.6 208.885 448.224C208.301 448.84 207.585 449.324 206.737 449.676C205.889 450.028 204.937 450.204 203.881 450.204C202.825 450.204 201.873 450.028 201.025 449.676C200.177 449.324 199.457 448.84 198.865 448.224C198.273 447.6 197.817 446.864 197.497 446.016C197.185 445.168 197.029 444.248 197.029 443.256V432.804H199.345V443.244C199.345 443.964 199.445 444.624 199.645 445.224C199.853 445.824 200.149 446.34 200.533 446.772C200.925 447.204 201.401 447.544 201.961 447.792C202.529 448.032 203.169 448.152 203.881 448.152ZM219.298 441.132C219.97 441.132 220.562 441.052 221.074 440.892C221.594 440.724 222.026 440.492 222.37 440.196C222.722 439.892 222.986 439.532 223.162 439.116C223.338 438.7 223.426 438.24 223.426 437.736C223.426 436.712 223.09 435.94 222.418 435.42C221.746 434.9 220.738 434.64 219.394 434.64H216.85V441.132H219.298ZM227.242 450H225.178C224.754 450 224.442 449.836 224.242 449.508L219.778 443.364C219.642 443.172 219.494 443.036 219.334 442.956C219.182 442.868 218.942 442.824 218.614 442.824H216.85V450H214.534V432.804H219.394C220.482 432.804 221.422 432.916 222.214 433.14C223.006 433.356 223.658 433.672 224.17 434.088C224.69 434.504 225.074 435.008 225.322 435.6C225.57 436.184 225.694 436.84 225.694 437.568C225.694 438.176 225.598 438.744 225.406 439.272C225.214 439.8 224.934 440.276 224.566 440.7C224.206 441.116 223.762 441.472 223.234 441.768C222.714 442.064 222.122 442.288 221.458 442.44C221.754 442.608 222.01 442.852 222.226 443.172L227.242 450ZM238.976 448.044V450H229.22V432.804H231.536V448.044H238.976Z" fill="#FAFAFA"/>
<rect x="804" y="414" width="128" height="48" rx="8" fill="#6E7291"/>
<path d="M849.096 444.336V447H838.932V429.648H842.16V444.336H849.096ZM855.388 434.496C856.3 434.496 857.128 434.644 857.872 434.94C858.624 435.236 859.264 435.656 859.792 436.2C860.328 436.744 860.74 437.408 861.028 438.192C861.316 438.976 861.46 439.852 861.46 440.82C861.46 441.796 861.316 442.676 861.028 443.46C860.74 444.244 860.328 444.912 859.792 445.464C859.264 446.016 858.624 446.44 857.872 446.736C857.128 447.032 856.3 447.18 855.388 447.18C854.468 447.18 853.632 447.032 852.88 446.736C852.128 446.44 851.484 446.016 850.948 445.464C850.42 444.912 850.008 444.244 849.712 443.46C849.424 442.676 849.28 441.796 849.28 440.82C849.28 439.852 849.424 438.976 849.712 438.192C850.008 437.408 850.42 436.744 850.948 436.2C851.484 435.656 852.128 435.236 852.88 434.94C853.632 434.644 854.468 434.496 855.388 434.496ZM855.388 444.9C856.412 444.9 857.168 444.556 857.656 443.868C858.152 443.18 858.4 442.172 858.4 440.844C858.4 439.516 858.152 438.504 857.656 437.808C857.168 437.112 856.412 436.764 855.388 436.764C854.348 436.764 853.576 437.116 853.072 437.82C852.576 438.516 852.328 439.524 852.328 440.844C852.328 442.164 852.576 443.172 853.072 443.868C853.576 444.556 854.348 444.9 855.388 444.9ZM867.767 440.544C868.135 440.544 868.455 440.496 868.727 440.4C868.999 440.296 869.223 440.156 869.399 439.98C869.583 439.804 869.719 439.592 869.807 439.344C869.903 439.096 869.951 438.824 869.951 438.528C869.951 437.92 869.767 437.44 869.399 437.088C869.039 436.728 868.495 436.548 867.767 436.548C867.039 436.548 866.491 436.728 866.123 437.088C865.763 437.44 865.583 437.92 865.583 438.528C865.583 438.816 865.627 439.084 865.715 439.332C865.811 439.58 865.947 439.796 866.123 439.98C866.307 440.156 866.535 440.296 866.807 440.4C867.087 440.496 867.407 440.544 867.767 440.544ZM871.115 447.552C871.115 447.312 871.043 447.116 870.899 446.964C870.755 446.812 870.559 446.696 870.311 446.616C870.063 446.528 869.771 446.464 869.435 446.424C869.107 446.384 868.755 446.356 868.379 446.34C868.011 446.316 867.627 446.296 867.227 446.28C866.835 446.264 866.451 446.232 866.075 446.184C865.747 446.368 865.479 446.584 865.271 446.832C865.071 447.08 864.971 447.368 864.971 447.696C864.971 447.912 865.023 448.112 865.127 448.296C865.239 448.488 865.411 448.652 865.643 448.788C865.883 448.924 866.191 449.028 866.567 449.1C866.943 449.18 867.403 449.22 867.947 449.22C868.499 449.22 868.975 449.176 869.375 449.088C869.775 449.008 870.103 448.892 870.359 448.74C870.623 448.596 870.815 448.42 870.935 448.212C871.055 448.012 871.115 447.792 871.115 447.552ZM874.067 435.108V436.212C874.067 436.564 873.855 436.78 873.431 436.86L872.327 437.064C872.495 437.488 872.579 437.952 872.579 438.456C872.579 439.064 872.455 439.616 872.207 440.112C871.967 440.6 871.631 441.016 871.199 441.36C870.767 441.704 870.255 441.972 869.663 442.164C869.079 442.348 868.447 442.44 867.767 442.44C867.527 442.44 867.295 442.428 867.071 442.404C866.847 442.38 866.627 442.348 866.411 442.308C866.027 442.54 865.835 442.8 865.835 443.088C865.835 443.336 865.947 443.52 866.171 443.64C866.403 443.752 866.707 443.832 867.083 443.88C867.459 443.928 867.887 443.96 868.367 443.976C868.847 443.984 869.339 444.008 869.843 444.048C870.347 444.088 870.839 444.16 871.319 444.264C871.799 444.36 872.227 444.516 872.603 444.732C872.979 444.948 873.279 445.244 873.503 445.62C873.735 445.988 873.851 446.464 873.851 447.048C873.851 447.592 873.715 448.12 873.443 448.632C873.179 449.144 872.791 449.6 872.279 450C871.775 450.4 871.151 450.72 870.407 450.96C869.671 451.208 868.831 451.332 867.887 451.332C866.959 451.332 866.151 451.24 865.463 451.056C864.775 450.88 864.203 450.64 863.747 450.336C863.291 450.04 862.951 449.696 862.727 449.304C862.503 448.912 862.391 448.504 862.391 448.08C862.391 447.504 862.563 447.024 862.907 446.64C863.259 446.248 863.739 445.936 864.347 445.704C864.019 445.536 863.759 445.312 863.567 445.032C863.375 444.752 863.279 444.384 863.279 443.928C863.279 443.744 863.311 443.556 863.375 443.364C863.447 443.164 863.547 442.968 863.675 442.776C863.811 442.584 863.979 442.404 864.179 442.236C864.379 442.06 864.615 441.904 864.887 441.768C864.263 441.432 863.771 440.984 863.411 440.424C863.059 439.864 862.883 439.208 862.883 438.456C862.883 437.848 863.003 437.3 863.243 436.812C863.491 436.316 863.831 435.896 864.263 435.552C864.703 435.2 865.219 434.932 865.811 434.748C866.411 434.564 867.063 434.472 867.767 434.472C868.295 434.472 868.791 434.528 869.255 434.64C869.719 434.744 870.143 434.9 870.527 435.108H874.067ZM884.135 434.688V447H881.159V434.688H884.135ZM884.543 431.1C884.543 431.356 884.491 431.596 884.387 431.82C884.283 432.044 884.143 432.24 883.967 432.408C883.799 432.576 883.599 432.712 883.367 432.816C883.135 432.912 882.887 432.96 882.623 432.96C882.367 432.96 882.123 432.912 881.891 432.816C881.667 432.712 881.471 432.576 881.303 432.408C881.135 432.24 880.999 432.044 880.895 431.82C880.799 431.596 880.751 431.356 880.751 431.1C880.751 430.836 880.799 430.588 880.895 430.356C880.999 430.124 881.135 429.924 881.303 429.756C881.471 429.588 881.667 429.456 881.891 429.36C882.123 429.256 882.367 429.204 882.623 429.204C882.887 429.204 883.135 429.256 883.367 429.36C883.599 429.456 883.799 429.588 883.967 429.756C884.143 429.924 884.283 430.124 884.387 430.356C884.491 430.588 884.543 430.836 884.543 431.1ZM889.569 436.2C889.817 435.952 890.077 435.724 890.349 435.516C890.629 435.3 890.921 435.12 891.225 434.976C891.537 434.824 891.869 434.708 892.221 434.628C892.573 434.54 892.957 434.496 893.373 434.496C894.045 434.496 894.641 434.612 895.161 434.844C895.681 435.068 896.113 435.388 896.457 435.804C896.809 436.212 897.073 436.704 897.249 437.28C897.433 437.848 897.525 438.476 897.525 439.164V447H894.561V439.164C894.561 438.412 894.389 437.832 894.045 437.424C893.701 437.008 893.177 436.8 892.473 436.8C891.961 436.8 891.481 436.916 891.033 437.148C890.585 437.38 890.161 437.696 889.761 438.096V447H886.797V434.688H888.609C888.993 434.688 889.245 434.868 889.365 435.228L889.569 436.2Z" fill="#FAFAFA"/>
<g clip-path="url(#clip0social)">
<path d="M149.312 361.755C148.631 365.256 143.217 369.088 136.998 369.83C133.755 370.218 130.562 370.573 127.157 370.417C121.589 370.162 117.196 369.088 117.196 369.088C117.196 369.63 117.229 370.146 117.296 370.629C118.02 376.124 122.745 376.453 127.22 376.607C131.738 376.761 135.76 375.493 135.76 375.493L135.946 379.577C135.946 379.577 132.786 381.274 127.157 381.585C124.053 381.756 120.199 381.507 115.71 380.32C105.975 377.743 104.301 367.365 104.045 356.836C103.966 353.709 104.015 350.761 104.015 348.296C104.015 337.528 111.069 334.372 111.069 334.372C114.626 332.739 120.73 332.052 127.075 332H127.231C133.577 332.052 139.684 332.739 143.242 334.372C143.242 334.372 150.296 337.528 150.296 348.296C150.296 348.296 150.384 356.24 149.312 361.755Z" fill="#3088D4"/>
<path d="M113.781 345.686C113.781 344.119 115.052 342.848 116.619 342.848C118.186 342.848 119.457 344.119 119.457 345.686C119.457 347.253 118.186 348.524 116.619 348.524C115.052 348.524 113.781 347.253 113.781 345.686ZM154.48 349.131V362.168H149.315V349.514C149.315 346.846 148.192 345.493 145.947 345.493C143.465 345.493 142.221 347.099 142.221 350.275V357.201H137.086V350.275C137.086 347.099 135.842 345.493 133.36 345.493C131.115 345.493 129.993 346.846 129.993 349.514V362.168H124.828V349.131C124.828 346.466 125.506 344.349 126.869 342.782C128.274 341.216 130.115 340.413 132.399 340.413C135.042 340.413 137.044 341.429 138.367 343.461L139.654 345.618L140.94 343.461C142.264 341.429 144.265 340.413 146.909 340.413C149.193 340.413 151.033 341.216 152.438 342.782C153.801 344.349 154.48 346.466 154.48 349.131ZM172.273 355.612C173.339 354.486 173.852 353.068 173.852 351.357C173.852 349.647 173.339 348.229 172.273 347.144C171.247 346.018 169.944 345.476 168.365 345.476C166.785 345.476 165.483 346.018 164.456 347.144C163.43 348.229 162.916 349.647 162.916 351.357C162.916 353.068 163.43 354.486 164.456 355.612C165.483 356.696 166.785 357.238 168.365 357.238C169.944 357.238 171.247 356.696 172.273 355.612ZM173.852 340.929H178.945V361.785H173.852V359.324C172.313 361.368 170.18 362.369 167.417 362.369C164.772 362.369 162.522 361.326 160.627 359.199C158.771 357.072 157.824 354.444 157.824 351.357C157.824 348.312 158.771 345.684 160.627 343.557C162.522 341.43 164.772 340.345 167.417 340.345C170.18 340.345 172.313 341.346 173.852 343.39V340.929ZM196.081 350.982C197.581 352.108 198.331 353.693 198.291 355.695C198.291 357.823 197.541 359.491 196.001 360.659C194.462 361.785 192.606 362.369 190.356 362.369C186.29 362.369 183.526 360.701 182.065 357.405L186.487 354.778C187.079 356.571 188.382 357.489 190.356 357.489C192.172 357.489 193.08 356.905 193.08 355.695C193.08 354.819 191.896 354.027 189.487 353.401C188.579 353.151 187.829 352.901 187.237 352.692C186.408 352.358 185.698 351.983 185.105 351.524C183.644 350.398 182.894 348.896 182.894 346.978C182.894 344.934 183.605 343.307 185.026 342.139C186.487 340.929 188.263 340.345 190.396 340.345C193.791 340.345 196.278 341.805 197.896 344.767L193.554 347.269C192.922 345.851 191.856 345.142 190.396 345.142C188.856 345.142 188.106 345.726 188.106 346.852C188.106 347.728 189.29 348.521 191.698 349.146C193.554 349.563 195.014 350.189 196.081 350.982ZM212.268 346.102H207.807V354.778C207.807 355.821 208.202 356.446 208.952 356.738C209.505 356.947 210.61 356.988 212.268 356.905V361.785C208.834 362.202 206.346 361.869 204.885 360.742C203.425 359.658 202.714 357.656 202.714 354.778V346.102H199.279V340.929H202.714V336.716L207.807 335.09V340.929H212.268V346.102ZM228.495 355.487C229.522 354.402 230.035 353.025 230.035 351.357C230.035 349.689 229.522 348.312 228.495 347.228C227.469 346.143 226.205 345.601 224.665 345.601C223.126 345.601 221.863 346.143 220.836 347.228C219.849 348.354 219.336 349.73 219.336 351.357C219.336 352.984 219.849 354.361 220.836 355.487C221.863 356.571 223.126 357.113 224.665 357.113C226.205 357.113 227.469 356.571 228.495 355.487ZM217.243 359.199C215.23 357.072 214.243 354.486 214.243 351.357C214.243 348.27 215.23 345.684 217.243 343.557C219.257 341.43 221.744 340.345 224.665 340.345C227.587 340.345 230.074 341.43 232.088 343.557C234.102 345.684 235.128 348.312 235.128 351.357C235.128 354.444 234.102 357.072 232.088 359.199C230.074 361.327 227.627 362.369 224.665 362.369C221.705 362.369 219.257 361.327 217.243 359.199ZM252.144 355.612C253.171 354.486 253.684 353.068 253.684 351.357C253.684 349.647 253.171 348.229 252.144 347.144C251.118 346.018 249.815 345.476 248.236 345.476C246.657 345.476 245.354 346.018 244.288 347.144C243.262 348.229 242.748 349.647 242.748 351.357C242.748 353.068 243.262 354.486 244.288 355.612C245.354 356.696 246.696 357.238 248.236 357.238C249.815 357.238 251.118 356.696 252.144 355.612ZM253.684 332.587H258.777V361.785H253.684V359.324C252.184 361.368 250.052 362.369 247.288 362.369C244.643 362.369 242.354 361.326 240.459 359.199C238.603 357.072 237.656 354.444 237.656 351.357C237.656 348.312 238.603 345.684 240.459 343.557C242.354 341.43 244.643 340.345 247.288 340.345C250.052 340.345 252.184 341.346 253.684 343.39V332.587ZM276.662 355.487C277.689 354.402 278.202 353.025 278.202 351.357C278.202 349.689 277.689 348.312 276.662 347.228C275.636 346.143 274.373 345.601 272.833 345.601C271.293 345.601 270.03 346.143 269.003 347.228C268.016 348.354 267.503 349.73 267.503 351.357C267.503 352.984 268.016 354.361 269.003 355.487C270.03 356.571 271.293 357.113 272.833 357.113C274.373 357.113 275.636 356.571 276.662 355.487ZM265.411 359.199C263.397 357.072 262.41 354.486 262.41 351.357C262.41 348.27 263.397 345.684 265.411 343.557C267.424 341.43 269.911 340.345 272.833 340.345C275.754 340.345 278.242 341.43 280.255 343.557C282.269 345.684 283.295 348.312 283.295 351.357C283.295 354.444 282.269 357.072 280.255 359.199C278.242 361.327 275.794 362.369 272.833 362.369C269.872 362.369 267.424 361.327 265.411 359.199ZM305.326 348.98V361.785H300.233V349.647C300.233 348.271 299.877 347.228 299.167 346.435C298.496 345.726 297.548 345.351 296.324 345.351C293.442 345.351 291.982 347.061 291.982 350.523V361.785H286.888V340.929H291.982V343.265C293.205 341.305 295.14 340.345 297.864 340.345C300.035 340.345 301.812 341.096 303.194 342.639C304.615 344.183 305.326 346.269 305.326 348.98Z" fill="white"/>
</g>
<rect x="402" y="414" width="374" height="48" rx="8" fill="#1F212D"/>
<path d="M433.84 436.464C434.36 435.912 434.936 435.472 435.568 435.144C436.2 434.816 436.928 434.652 437.752 434.652C438.416 434.652 439 434.764 439.504 434.988C440.016 435.204 440.44 435.516 440.776 435.924C441.12 436.324 441.38 436.808 441.556 437.376C441.732 437.944 441.82 438.572 441.82 439.26V447H439.672V439.26C439.672 438.34 439.46 437.628 439.036 437.124C438.62 436.612 437.984 436.356 437.128 436.356C436.496 436.356 435.904 436.508 435.352 436.812C434.808 437.116 434.304 437.528 433.84 438.048V447H431.692V429.324H433.84V436.464ZM448.283 447.192C447.323 447.192 446.583 446.924 446.063 446.388C445.551 445.852 445.295 445.08 445.295 444.072V436.632H443.831C443.703 436.632 443.595 436.596 443.507 436.524C443.419 436.444 443.375 436.324 443.375 436.164V435.312L445.367 435.06L445.859 431.304C445.883 431.184 445.935 431.088 446.015 431.016C446.103 430.936 446.215 430.896 446.351 430.896H447.431V435.084H453.155L453.647 431.304C453.671 431.184 453.723 431.088 453.803 431.016C453.891 430.936 454.003 430.896 454.139 430.896H455.219V435.084H458.735V436.632H455.219V443.928C455.219 444.44 455.343 444.82 455.591 445.068C455.847 445.316 456.167 445.44 456.551 445.44C456.775 445.44 456.967 445.412 457.127 445.356C457.295 445.292 457.439 445.224 457.559 445.152C457.679 445.08 457.779 445.016 457.859 444.96C457.947 444.896 458.023 444.864 458.087 444.864C458.207 444.864 458.307 444.932 458.387 445.068L459.023 446.088C458.647 446.432 458.199 446.704 457.679 446.904C457.159 447.096 456.623 447.192 456.071 447.192C455.119 447.192 454.383 446.924 453.863 446.388C453.343 445.852 453.083 445.08 453.083 444.072V436.632H447.431V443.928C447.431 444.44 447.555 444.82 447.803 445.068C448.051 445.316 448.371 445.44 448.763 445.44C448.987 445.44 449.179 445.412 449.339 445.356C449.507 445.292 449.651 445.224 449.771 445.152C449.891 445.08 449.991 445.016 450.071 444.96C450.159 444.896 450.235 444.864 450.299 444.864C450.411 444.864 450.511 444.932 450.599 445.068L451.223 446.088C450.855 446.432 450.411 446.704 449.891 446.904C449.371 447.096 448.835 447.192 448.283 447.192ZM462.722 444.072C463.114 444.6 463.542 444.972 464.006 445.188C464.47 445.404 464.99 445.512 465.566 445.512C466.702 445.512 467.574 445.108 468.182 444.3C468.79 443.492 469.094 442.34 469.094 440.844C469.094 440.052 469.022 439.372 468.878 438.804C468.742 438.236 468.542 437.772 468.278 437.412C468.014 437.044 467.69 436.776 467.306 436.608C466.922 436.44 466.486 436.356 465.998 436.356C465.302 436.356 464.69 436.516 464.162 436.836C463.642 437.156 463.162 437.608 462.722 438.192V444.072ZM462.614 436.728C463.126 436.096 463.718 435.588 464.39 435.204C465.062 434.82 465.83 434.628 466.694 434.628C467.398 434.628 468.034 434.764 468.602 435.036C469.17 435.3 469.654 435.696 470.054 436.224C470.454 436.744 470.762 437.392 470.978 438.168C471.194 438.944 471.302 439.836 471.302 440.844C471.302 441.74 471.182 442.576 470.942 443.352C470.702 444.12 470.354 444.788 469.898 445.356C469.45 445.916 468.898 446.36 468.242 446.688C467.594 447.008 466.862 447.168 466.046 447.168C465.302 447.168 464.662 447.044 464.126 446.796C463.598 446.54 463.13 446.188 462.722 445.74V451.116H460.574V434.844H461.858C462.162 434.844 462.35 434.992 462.422 435.288L462.614 436.728ZM480.747 436.848C480.651 437.024 480.503 437.112 480.303 437.112C480.183 437.112 480.047 437.068 479.895 436.98C479.743 436.892 479.555 436.796 479.331 436.692C479.115 436.58 478.855 436.48 478.551 436.392C478.247 436.296 477.887 436.248 477.471 436.248C477.111 436.248 476.787 436.296 476.499 436.392C476.211 436.48 475.963 436.604 475.755 436.764C475.555 436.924 475.399 437.112 475.287 437.328C475.183 437.536 475.131 437.764 475.131 438.012C475.131 438.324 475.219 438.584 475.395 438.792C475.579 439 475.819 439.18 476.115 439.332C476.411 439.484 476.747 439.62 477.123 439.74C477.499 439.852 477.883 439.976 478.275 440.112C478.675 440.24 479.063 440.384 479.439 440.544C479.815 440.704 480.151 440.904 480.447 441.144C480.743 441.384 480.979 441.68 481.155 442.032C481.339 442.376 481.431 442.792 481.431 443.28C481.431 443.84 481.331 444.36 481.131 444.84C480.931 445.312 480.635 445.724 480.243 446.076C479.851 446.42 479.371 446.692 478.803 446.892C478.235 447.092 477.579 447.192 476.835 447.192C475.987 447.192 475.219 447.056 474.531 446.784C473.843 446.504 473.259 446.148 472.779 445.716L473.283 444.9C473.347 444.796 473.423 444.716 473.511 444.66C473.599 444.604 473.711 444.576 473.847 444.576C473.991 444.576 474.143 444.632 474.303 444.744C474.463 444.856 474.655 444.98 474.879 445.116C475.111 445.252 475.391 445.376 475.719 445.488C476.047 445.6 476.455 445.656 476.943 445.656C477.359 445.656 477.723 445.604 478.035 445.5C478.347 445.388 478.607 445.24 478.815 445.056C479.023 444.872 479.175 444.66 479.271 444.42C479.375 444.18 479.427 443.924 479.427 443.652C479.427 443.316 479.335 443.04 479.151 442.824C478.975 442.6 478.739 442.412 478.443 442.26C478.147 442.1 477.807 441.964 477.423 441.852C477.047 441.732 476.659 441.608 476.259 441.48C475.867 441.352 475.479 441.208 475.095 441.048C474.719 440.88 474.383 440.672 474.087 440.424C473.791 440.176 473.551 439.872 473.367 439.512C473.191 439.144 473.103 438.7 473.103 438.18C473.103 437.716 473.199 437.272 473.391 436.848C473.583 436.416 473.863 436.04 474.231 435.72C474.599 435.392 475.051 435.132 475.587 434.94C476.123 434.748 476.735 434.652 477.423 434.652C478.223 434.652 478.939 434.78 479.571 435.036C480.211 435.284 480.763 435.628 481.227 436.068L480.747 436.848ZM483.498 445.68C483.498 445.472 483.534 445.276 483.606 445.092C483.686 444.908 483.79 444.748 483.918 444.612C484.054 444.476 484.214 444.368 484.398 444.288C484.582 444.208 484.778 444.168 484.986 444.168C485.194 444.168 485.39 444.208 485.574 444.288C485.758 444.368 485.918 444.476 486.054 444.612C486.19 444.748 486.298 444.908 486.378 445.092C486.458 445.276 486.498 445.472 486.498 445.68C486.498 445.896 486.458 446.096 486.378 446.28C486.298 446.456 486.19 446.612 486.054 446.748C485.918 446.884 485.758 446.988 485.574 447.06C485.39 447.14 485.194 447.18 484.986 447.18C484.778 447.18 484.582 447.14 484.398 447.06C484.214 446.988 484.054 446.884 483.918 446.748C483.79 446.612 483.686 446.456 483.606 446.28C483.534 446.096 483.498 445.896 483.498 445.68ZM483.498 436.68C483.498 436.472 483.534 436.276 483.606 436.092C483.686 435.908 483.79 435.748 483.918 435.612C484.054 435.476 484.214 435.368 484.398 435.288C484.582 435.208 484.778 435.168 484.986 435.168C485.194 435.168 485.39 435.208 485.574 435.288C485.758 435.368 485.918 435.476 486.054 435.612C486.19 435.748 486.298 435.908 486.378 436.092C486.458 436.276 486.498 436.472 486.498 436.68C486.498 436.896 486.458 437.096 486.378 437.28C486.298 437.456 486.19 437.612 486.054 437.748C485.918 437.884 485.758 437.992 485.574 438.072C485.39 438.144 485.194 438.18 484.986 438.18C484.778 438.18 484.582 438.144 484.398 438.072C484.214 437.992 484.054 437.884 483.918 437.748C483.79 437.612 483.686 437.456 483.606 437.28C483.534 437.096 483.498 436.896 483.498 436.68ZM490.506 447.252C490.402 447.532 490.238 447.74 490.014 447.876C489.798 448.012 489.574 448.08 489.342 448.08H488.442L495.654 430.116C495.75 429.86 495.894 429.664 496.086 429.528C496.286 429.392 496.514 429.324 496.77 429.324H497.682L490.506 447.252ZM495.63 447.252C495.526 447.532 495.362 447.74 495.138 447.876C494.922 448.012 494.698 448.08 494.466 448.08H493.566L500.778 430.116C500.874 429.86 501.018 429.664 501.21 429.528C501.41 429.392 501.638 429.324 501.894 429.324H502.806L495.63 447.252ZM504.266 447V434.844H505.55C505.854 434.844 506.042 434.992 506.114 435.288L506.27 436.536C506.718 435.984 507.222 435.532 507.782 435.18C508.342 434.828 508.99 434.652 509.726 434.652C510.542 434.652 511.202 434.88 511.706 435.336C512.218 435.792 512.586 436.408 512.81 437.184C512.986 436.744 513.21 436.364 513.482 436.044C513.762 435.724 514.074 435.46 514.418 435.252C514.762 435.044 515.126 434.892 515.51 434.796C515.902 434.7 516.298 434.652 516.698 434.652C517.338 434.652 517.906 434.756 518.402 434.964C518.906 435.164 519.33 435.46 519.674 435.852C520.026 436.244 520.294 436.728 520.478 437.304C520.662 437.872 520.754 438.524 520.754 439.26V447H518.606V439.26C518.606 438.308 518.398 437.588 517.982 437.1C517.566 436.604 516.966 436.356 516.182 436.356C515.83 436.356 515.494 436.42 515.174 436.548C514.862 436.668 514.586 436.848 514.346 437.088C514.106 437.328 513.914 437.632 513.77 438C513.634 438.36 513.566 438.78 513.566 439.26V447H511.418V439.26C511.418 438.284 511.222 437.556 510.83 437.076C510.438 436.596 509.866 436.356 509.114 436.356C508.586 436.356 508.098 436.5 507.65 436.788C507.202 437.068 506.79 437.452 506.414 437.94V447H504.266ZM530.228 441.528C529.244 441.56 528.404 441.64 527.708 441.768C527.02 441.888 526.456 442.048 526.016 442.248C525.584 442.448 525.268 442.684 525.068 442.956C524.876 443.228 524.78 443.532 524.78 443.868C524.78 444.188 524.832 444.464 524.936 444.696C525.04 444.928 525.18 445.12 525.356 445.272C525.54 445.416 525.752 445.524 525.992 445.596C526.24 445.66 526.504 445.692 526.784 445.692C527.16 445.692 527.504 445.656 527.816 445.584C528.128 445.504 528.42 445.392 528.692 445.248C528.972 445.104 529.236 444.932 529.484 444.732C529.74 444.532 529.988 444.304 530.228 444.048V441.528ZM523.328 436.56C524 435.912 524.724 435.428 525.5 435.108C526.276 434.788 527.136 434.628 528.08 434.628C528.76 434.628 529.364 434.74 529.892 434.964C530.42 435.188 530.864 435.5 531.224 435.9C531.584 436.3 531.856 436.784 532.04 437.352C532.224 437.92 532.316 438.544 532.316 439.224V447H531.368C531.16 447 531 446.968 530.888 446.904C530.776 446.832 530.688 446.696 530.624 446.496L530.384 445.344C530.064 445.64 529.752 445.904 529.448 446.136C529.144 446.36 528.824 446.552 528.488 446.712C528.152 446.864 527.792 446.98 527.408 447.06C527.032 447.148 526.612 447.192 526.148 447.192C525.676 447.192 525.232 447.128 524.816 447C524.4 446.864 524.036 446.664 523.724 446.4C523.42 446.136 523.176 445.804 522.992 445.404C522.816 444.996 522.728 444.516 522.728 443.964C522.728 443.484 522.86 443.024 523.124 442.584C523.388 442.136 523.816 441.74 524.408 441.396C525 441.052 525.772 440.772 526.724 440.556C527.676 440.332 528.844 440.204 530.228 440.172V439.224C530.228 438.28 530.024 437.568 529.616 437.088C529.208 436.6 528.612 436.356 527.828 436.356C527.3 436.356 526.856 436.424 526.496 436.56C526.144 436.688 525.836 436.836 525.572 437.004C525.316 437.164 525.092 437.312 524.9 437.448C524.716 437.576 524.532 437.64 524.348 437.64C524.204 437.64 524.08 437.604 523.976 437.532C523.872 437.452 523.784 437.356 523.712 437.244L523.328 436.56ZM542.29 436.848C542.194 437.024 542.046 437.112 541.846 437.112C541.726 437.112 541.59 437.068 541.438 436.98C541.286 436.892 541.098 436.796 540.874 436.692C540.658 436.58 540.398 436.48 540.094 436.392C539.79 436.296 539.43 436.248 539.014 436.248C538.654 436.248 538.33 436.296 538.042 436.392C537.754 436.48 537.506 436.604 537.298 436.764C537.098 436.924 536.942 437.112 536.83 437.328C536.726 437.536 536.674 437.764 536.674 438.012C536.674 438.324 536.762 438.584 536.938 438.792C537.122 439 537.362 439.18 537.658 439.332C537.954 439.484 538.29 439.62 538.666 439.74C539.042 439.852 539.426 439.976 539.818 440.112C540.218 440.24 540.606 440.384 540.982 440.544C541.358 440.704 541.694 440.904 541.99 441.144C542.286 441.384 542.522 441.68 542.698 442.032C542.882 442.376 542.974 442.792 542.974 443.28C542.974 443.84 542.874 444.36 542.674 444.84C542.474 445.312 542.178 445.724 541.786 446.076C541.394 446.42 540.914 446.692 540.346 446.892C539.778 447.092 539.122 447.192 538.378 447.192C537.53 447.192 536.762 447.056 536.074 446.784C535.386 446.504 534.802 446.148 534.322 445.716L534.826 444.9C534.89 444.796 534.966 444.716 535.054 444.66C535.142 444.604 535.254 444.576 535.39 444.576C535.534 444.576 535.686 444.632 535.846 444.744C536.006 444.856 536.198 444.98 536.422 445.116C536.654 445.252 536.934 445.376 537.262 445.488C537.59 445.6 537.998 445.656 538.486 445.656C538.902 445.656 539.266 445.604 539.578 445.5C539.89 445.388 540.15 445.24 540.358 445.056C540.566 444.872 540.718 444.66 540.814 444.42C540.918 444.18 540.97 443.924 540.97 443.652C540.97 443.316 540.878 443.04 540.694 442.824C540.518 442.6 540.282 442.412 539.986 442.26C539.69 442.1 539.35 441.964 538.966 441.852C538.59 441.732 538.202 441.608 537.802 441.48C537.41 441.352 537.022 441.208 536.638 441.048C536.262 440.88 535.926 440.672 535.63 440.424C535.334 440.176 535.094 439.872 534.91 439.512C534.734 439.144 534.646 438.7 534.646 438.18C534.646 437.716 534.742 437.272 534.934 436.848C535.126 436.416 535.406 436.04 535.774 435.72C536.142 435.392 536.594 435.132 537.13 434.94C537.666 434.748 538.278 434.652 538.966 434.652C539.766 434.652 540.482 434.78 541.114 435.036C541.754 435.284 542.306 435.628 542.77 436.068L542.29 436.848ZM548.965 447.192C548.005 447.192 547.265 446.924 546.745 446.388C546.233 445.852 545.977 445.08 545.977 444.072V436.632H544.513C544.385 436.632 544.277 436.596 544.189 436.524C544.101 436.444 544.057 436.324 544.057 436.164V435.312L546.049 435.06L546.541 431.304C546.565 431.184 546.617 431.088 546.697 431.016C546.785 430.936 546.897 430.896 547.033 430.896H548.113V435.084H551.629V436.632H548.113V443.928C548.113 444.44 548.237 444.82 548.485 445.068C548.733 445.316 549.053 445.44 549.445 445.44C549.669 445.44 549.861 445.412 550.021 445.356C550.189 445.292 550.333 445.224 550.453 445.152C550.573 445.08 550.673 445.016 550.753 444.96C550.841 444.896 550.917 444.864 550.981 444.864C551.093 444.864 551.193 444.932 551.281 445.068L551.905 446.088C551.537 446.432 551.093 446.704 550.573 446.904C550.053 447.096 549.517 447.192 548.965 447.192ZM558.528 434.652C559.416 434.652 560.216 434.8 560.928 435.096C561.64 435.392 562.248 435.812 562.752 436.356C563.256 436.9 563.64 437.56 563.904 438.336C564.176 439.104 564.312 439.964 564.312 440.916C564.312 441.876 564.176 442.74 563.904 443.508C563.64 444.276 563.256 444.932 562.752 445.476C562.248 446.02 561.64 446.44 560.928 446.736C560.216 447.024 559.416 447.168 558.528 447.168C557.632 447.168 556.824 447.024 556.104 446.736C555.392 446.44 554.784 446.02 554.28 445.476C553.776 444.932 553.388 444.276 553.116 443.508C552.852 442.74 552.72 441.876 552.72 440.916C552.72 439.964 552.852 439.104 553.116 438.336C553.388 437.56 553.776 436.9 554.28 436.356C554.784 435.812 555.392 435.392 556.104 435.096C556.824 434.8 557.632 434.652 558.528 434.652ZM558.528 445.5C559.728 445.5 560.624 445.1 561.216 444.3C561.808 443.492 562.104 442.368 562.104 440.928C562.104 439.48 561.808 438.352 561.216 437.544C560.624 436.736 559.728 436.332 558.528 436.332C557.92 436.332 557.388 436.436 556.932 436.644C556.484 436.852 556.108 437.152 555.804 437.544C555.508 437.936 555.284 438.42 555.132 438.996C554.988 439.564 554.916 440.208 554.916 440.928C554.916 442.368 555.212 443.492 555.804 444.3C556.404 445.1 557.312 445.5 558.528 445.5ZM574.581 437.736C574.181 437.2 573.749 436.828 573.285 436.62C572.821 436.404 572.301 436.296 571.725 436.296C570.597 436.296 569.729 436.7 569.121 437.508C568.513 438.316 568.209 439.468 568.209 440.964C568.209 441.756 568.277 442.436 568.413 443.004C568.549 443.564 568.749 444.028 569.013 444.396C569.277 444.756 569.601 445.02 569.985 445.188C570.369 445.356 570.805 445.44 571.293 445.44C571.997 445.44 572.609 445.28 573.129 444.96C573.657 444.64 574.141 444.188 574.581 443.604V437.736ZM576.717 429.324V447H575.445C575.141 447 574.949 446.852 574.869 446.556L574.677 445.08C574.157 445.704 573.565 446.208 572.901 446.592C572.237 446.976 571.469 447.168 570.597 447.168C569.901 447.168 569.269 447.036 568.701 446.772C568.133 446.5 567.649 446.104 567.249 445.584C566.849 445.064 566.541 444.416 566.325 443.64C566.109 442.864 566.001 441.972 566.001 440.964C566.001 440.068 566.121 439.236 566.361 438.468C566.601 437.692 566.945 437.02 567.393 436.452C567.841 435.884 568.389 435.44 569.037 435.12C569.693 434.792 570.429 434.628 571.245 434.628C571.989 434.628 572.625 434.756 573.153 435.012C573.689 435.26 574.165 435.608 574.581 436.056V429.324H576.717ZM584.855 434.652C585.743 434.652 586.543 434.8 587.255 435.096C587.967 435.392 588.575 435.812 589.079 436.356C589.583 436.9 589.967 437.56 590.231 438.336C590.503 439.104 590.639 439.964 590.639 440.916C590.639 441.876 590.503 442.74 590.231 443.508C589.967 444.276 589.583 444.932 589.079 445.476C588.575 446.02 587.967 446.44 587.255 446.736C586.543 447.024 585.743 447.168 584.855 447.168C583.959 447.168 583.151 447.024 582.431 446.736C581.719 446.44 581.111 446.02 580.607 445.476C580.103 444.932 579.715 444.276 579.443 443.508C579.179 442.74 579.047 441.876 579.047 440.916C579.047 439.964 579.179 439.104 579.443 438.336C579.715 437.56 580.103 436.9 580.607 436.356C581.111 435.812 581.719 435.392 582.431 435.096C583.151 434.8 583.959 434.652 584.855 434.652ZM584.855 445.5C586.055 445.5 586.951 445.1 587.543 444.3C588.135 443.492 588.431 442.368 588.431 440.928C588.431 439.48 588.135 438.352 587.543 437.544C586.951 436.736 586.055 436.332 584.855 436.332C584.247 436.332 583.715 436.436 583.259 436.644C582.811 436.852 582.435 437.152 582.131 437.544C581.835 437.936 581.611 438.42 581.459 438.996C581.315 439.564 581.243 440.208 581.243 440.928C581.243 442.368 581.539 443.492 582.131 444.3C582.731 445.1 583.639 445.5 584.855 445.5ZM595.004 436.608C595.268 436.312 595.548 436.044 595.844 435.804C596.14 435.564 596.452 435.36 596.78 435.192C597.116 435.016 597.468 434.884 597.836 434.796C598.212 434.7 598.616 434.652 599.048 434.652C599.712 434.652 600.296 434.764 600.8 434.988C601.312 435.204 601.736 435.516 602.072 435.924C602.416 436.324 602.676 436.808 602.852 437.376C603.028 437.944 603.116 438.572 603.116 439.26V447H600.968V439.26C600.968 438.34 600.756 437.628 600.332 437.124C599.916 436.612 599.28 436.356 598.424 436.356C597.792 436.356 597.2 436.508 596.648 436.812C596.104 437.116 595.6 437.528 595.136 438.048V447H592.988V434.844H594.272C594.576 434.844 594.764 434.992 594.836 435.288L595.004 436.608ZM605.651 445.68C605.651 445.472 605.687 445.276 605.759 445.092C605.839 444.908 605.943 444.748 606.071 444.612C606.207 444.476 606.367 444.368 606.551 444.288C606.735 444.208 606.931 444.168 607.139 444.168C607.347 444.168 607.543 444.208 607.727 444.288C607.911 444.368 608.071 444.476 608.207 444.612C608.343 444.748 608.451 444.908 608.531 445.092C608.611 445.276 608.651 445.472 608.651 445.68C608.651 445.896 608.611 446.096 608.531 446.28C608.451 446.456 608.343 446.612 608.207 446.748C608.071 446.884 607.911 446.988 607.727 447.06C607.543 447.14 607.347 447.18 607.139 447.18C606.931 447.18 606.735 447.14 606.551 447.06C606.367 446.988 606.207 446.884 606.071 446.748C605.943 446.612 605.839 446.456 605.759 446.28C605.687 446.096 605.651 445.896 605.651 445.68ZM618.403 436.848C618.307 437.024 618.159 437.112 617.959 437.112C617.839 437.112 617.703 437.068 617.551 436.98C617.399 436.892 617.211 436.796 616.987 436.692C616.771 436.58 616.511 436.48 616.207 436.392C615.903 436.296 615.543 436.248 615.127 436.248C614.767 436.248 614.443 436.296 614.155 436.392C613.867 436.48 613.619 436.604 613.411 436.764C613.211 436.924 613.055 437.112 612.943 437.328C612.839 437.536 612.787 437.764 612.787 438.012C612.787 438.324 612.875 438.584 613.051 438.792C613.235 439 613.475 439.18 613.771 439.332C614.067 439.484 614.403 439.62 614.779 439.74C615.155 439.852 615.539 439.976 615.931 440.112C616.331 440.24 616.719 440.384 617.095 440.544C617.471 440.704 617.807 440.904 618.103 441.144C618.399 441.384 618.635 441.68 618.811 442.032C618.995 442.376 619.087 442.792 619.087 443.28C619.087 443.84 618.987 444.36 618.787 444.84C618.587 445.312 618.291 445.724 617.899 446.076C617.507 446.42 617.027 446.692 616.459 446.892C615.891 447.092 615.235 447.192 614.491 447.192C613.643 447.192 612.875 447.056 612.187 446.784C611.499 446.504 610.915 446.148 610.435 445.716L610.939 444.9C611.003 444.796 611.079 444.716 611.167 444.66C611.255 444.604 611.367 444.576 611.503 444.576C611.647 444.576 611.799 444.632 611.959 444.744C612.119 444.856 612.311 444.98 612.535 445.116C612.767 445.252 613.047 445.376 613.375 445.488C613.703 445.6 614.111 445.656 614.599 445.656C615.015 445.656 615.379 445.604 615.691 445.5C616.003 445.388 616.263 445.24 616.471 445.056C616.679 444.872 616.831 444.66 616.927 444.42C617.031 444.18 617.083 443.924 617.083 443.652C617.083 443.316 616.991 443.04 616.807 442.824C616.631 442.6 616.395 442.412 616.099 442.26C615.803 442.1 615.463 441.964 615.079 441.852C614.703 441.732 614.315 441.608 613.915 441.48C613.523 441.352 613.135 441.208 612.751 441.048C612.375 440.88 612.039 440.672 611.743 440.424C611.447 440.176 611.207 439.872 611.023 439.512C610.847 439.144 610.759 438.7 610.759 438.18C610.759 437.716 610.855 437.272 611.047 436.848C611.239 436.416 611.519 436.04 611.887 435.72C612.255 435.392 612.707 435.132 613.243 434.94C613.779 434.748 614.391 434.652 615.079 434.652C615.879 434.652 616.595 434.78 617.227 435.036C617.867 435.284 618.419 435.628 618.883 436.068L618.403 436.848ZM626.469 434.652C627.357 434.652 628.157 434.8 628.869 435.096C629.581 435.392 630.189 435.812 630.693 436.356C631.197 436.9 631.581 437.56 631.845 438.336C632.117 439.104 632.253 439.964 632.253 440.916C632.253 441.876 632.117 442.74 631.845 443.508C631.581 444.276 631.197 444.932 630.693 445.476C630.189 446.02 629.581 446.44 628.869 446.736C628.157 447.024 627.357 447.168 626.469 447.168C625.573 447.168 624.765 447.024 624.045 446.736C623.333 446.44 622.725 446.02 622.221 445.476C621.717 444.932 621.329 444.276 621.057 443.508C620.793 442.74 620.661 441.876 620.661 440.916C620.661 439.964 620.793 439.104 621.057 438.336C621.329 437.56 621.717 436.9 622.221 436.356C622.725 435.812 623.333 435.392 624.045 435.096C624.765 434.8 625.573 434.652 626.469 434.652ZM626.469 445.5C627.669 445.5 628.565 445.1 629.157 444.3C629.749 443.492 630.045 442.368 630.045 440.928C630.045 439.48 629.749 438.352 629.157 437.544C628.565 436.736 627.669 436.332 626.469 436.332C625.861 436.332 625.329 436.436 624.873 436.644C624.425 436.852 624.049 437.152 623.745 437.544C623.449 437.936 623.225 438.42 623.073 438.996C622.929 439.564 622.857 440.208 622.857 440.928C622.857 442.368 623.153 443.492 623.745 444.3C624.345 445.1 625.253 445.5 626.469 445.5ZM643.063 437.004C642.999 437.092 642.935 437.16 642.871 437.208C642.807 437.256 642.719 437.28 642.607 437.28C642.487 437.28 642.355 437.232 642.211 437.136C642.067 437.032 641.887 436.92 641.671 436.8C641.463 436.68 641.203 436.572 640.891 436.476C640.587 436.372 640.211 436.32 639.763 436.32C639.163 436.32 638.635 436.428 638.179 436.644C637.723 436.852 637.339 437.156 637.027 437.556C636.723 437.956 636.491 438.44 636.331 439.008C636.179 439.576 636.103 440.212 636.103 440.916C636.103 441.652 636.187 442.308 636.355 442.884C636.523 443.452 636.759 443.932 637.063 444.324C637.375 444.708 637.747 445.004 638.179 445.212C638.619 445.412 639.111 445.512 639.655 445.512C640.175 445.512 640.603 445.452 640.939 445.332C641.275 445.204 641.551 445.064 641.767 444.912C641.991 444.76 642.175 444.624 642.319 444.504C642.471 444.376 642.619 444.312 642.763 444.312C642.939 444.312 643.075 444.38 643.171 444.516L643.771 445.296C643.507 445.624 643.207 445.904 642.871 446.136C642.535 446.368 642.171 446.564 641.779 446.724C641.395 446.876 640.991 446.988 640.567 447.06C640.143 447.132 639.711 447.168 639.271 447.168C638.511 447.168 637.803 447.028 637.147 446.748C636.499 446.468 635.935 446.064 635.455 445.536C634.975 445 634.599 444.344 634.327 443.568C634.055 442.792 633.919 441.908 633.919 440.916C633.919 440.012 634.043 439.176 634.291 438.408C634.547 437.64 634.915 436.98 635.395 436.428C635.883 435.868 636.479 435.432 637.183 435.12C637.895 434.808 638.711 434.652 639.631 434.652C640.487 434.652 641.239 434.792 641.887 435.072C642.543 435.344 643.123 435.732 643.627 436.236L643.063 437.004ZM647.96 434.844V447H645.824V434.844H647.96ZM648.416 431.028C648.416 431.236 648.372 431.432 648.284 431.616C648.204 431.792 648.092 431.952 647.948 432.096C647.812 432.232 647.648 432.34 647.456 432.42C647.272 432.5 647.076 432.54 646.868 432.54C646.66 432.54 646.464 432.5 646.28 432.42C646.104 432.34 645.948 432.232 645.812 432.096C645.676 431.952 645.568 431.792 645.488 431.616C645.408 431.432 645.368 431.236 645.368 431.028C645.368 430.82 645.408 430.624 645.488 430.44C645.568 430.248 645.676 430.084 645.812 429.948C645.948 429.804 646.104 429.692 646.28 429.612C646.464 429.532 646.66 429.492 646.868 429.492C647.076 429.492 647.272 429.532 647.456 429.612C647.648 429.692 647.812 429.804 647.948 429.948C648.092 430.084 648.204 430.248 648.284 430.44C648.372 430.624 648.416 430.82 648.416 431.028ZM657.697 441.528C656.713 441.56 655.873 441.64 655.177 441.768C654.489 441.888 653.925 442.048 653.485 442.248C653.053 442.448 652.737 442.684 652.537 442.956C652.345 443.228 652.249 443.532 652.249 443.868C652.249 444.188 652.301 444.464 652.405 444.696C652.509 444.928 652.649 445.12 652.825 445.272C653.009 445.416 653.221 445.524 653.461 445.596C653.709 445.66 653.973 445.692 654.253 445.692C654.629 445.692 654.973 445.656 655.285 445.584C655.597 445.504 655.889 445.392 656.161 445.248C656.441 445.104 656.705 444.932 656.953 444.732C657.209 444.532 657.457 444.304 657.697 444.048V441.528ZM650.797 436.56C651.469 435.912 652.193 435.428 652.969 435.108C653.745 434.788 654.605 434.628 655.549 434.628C656.229 434.628 656.833 434.74 657.361 434.964C657.889 435.188 658.333 435.5 658.693 435.9C659.053 436.3 659.325 436.784 659.509 437.352C659.693 437.92 659.785 438.544 659.785 439.224V447H658.837C658.629 447 658.469 446.968 658.357 446.904C658.245 446.832 658.157 446.696 658.093 446.496L657.853 445.344C657.533 445.64 657.221 445.904 656.917 446.136C656.613 446.36 656.293 446.552 655.957 446.712C655.621 446.864 655.261 446.98 654.877 447.06C654.501 447.148 654.081 447.192 653.617 447.192C653.145 447.192 652.701 447.128 652.285 447C651.869 446.864 651.505 446.664 651.193 446.4C650.889 446.136 650.645 445.804 650.461 445.404C650.285 444.996 650.197 444.516 650.197 443.964C650.197 443.484 650.329 443.024 650.593 442.584C650.857 442.136 651.285 441.74 651.877 441.396C652.469 441.052 653.241 440.772 654.193 440.556C655.145 440.332 656.313 440.204 657.697 440.172V439.224C657.697 438.28 657.493 437.568 657.085 437.088C656.677 436.6 656.081 436.356 655.297 436.356C654.769 436.356 654.325 436.424 653.965 436.56C653.613 436.688 653.305 436.836 653.041 437.004C652.785 437.164 652.561 437.312 652.369 437.448C652.185 437.576 652.001 437.64 651.817 437.64C651.673 437.64 651.549 437.604 651.445 437.532C651.341 437.452 651.253 437.356 651.181 437.244L650.797 436.56ZM664.887 429.324V447H662.751V429.324H664.887Z" fill="#FAFAFA"/>
<rect x="76.5" y="306.5" width="883" height="180" rx="7.5" stroke="#6E7291"/>
<defs>
<filter id="filter0_ddsocial" x="100" y="0" width="949" height="333" filterUnits="userSpaceOnUse" color-interpolation-filters="sRGB">
<feFlood flood-opacity="0" result="BackgroundImageFix"/>
<feColorMatrix in="SourceAlpha" type="matrix" values="0 0 0 0 0 0 0 0 0 0 0 0 0 0 0 0 0 0 127 0" result="hardAlpha"/>
<feOffset/>
<feGaussianBlur stdDeviation="12"/>
<feColorMatrix type="matrix" values="0 0 0 0 0 0 0 0 0 0 0 0 0 0 0 0 0 0 0.22 0"/>
<feBlend mode="normal" in2="BackgroundImageFix" result="effect1_dropShadow"/>
<feColorMatrix in="SourceAlpha" type="matrix" values="0 0 0 0 0 0 0 0 0 0 0 0 0 0 0 0 0 0 127 0" result="hardAlpha"/>
<feOffset/>
<feGaussianBlur stdDeviation="38"/>
<feColorMatrix type="matrix" values="0 0 0 0 0 0 0 0 0 0 0 0 0 0 0 0 0 0 0.3 0"/>
<feBlend mode="normal" in2="effect1_dropShadow" result="effect2_dropShadow"/>
<feBlend mode="normal" in="SourceGraphic" in2="effect2_dropShadow" result="shape"/>
</filter>
<filter id="filter1_dd" x="0" y="230" width="1036" height="333" filterUnits="userSpaceOnUse" color-interpolation-filters="sRGB">
<feFlood flood-opacity="0" result="BackgroundImageFix"/>
<feColorMatrix in="SourceAlpha" type="matrix" values="0 0 0 0 0 0 0 0 0 0 0 0 0 0 0 0 0 0 127 0" result="hardAlpha"/>
<feOffset/>
<feGaussianBlur stdDeviation="12"/>
<feColorMatrix type="matrix" values="0 0 0 0 0 0 0 0 0 0 0 0 0 0 0 0 0 0 0.22 0"/>
<feBlend mode="normal" in2="BackgroundImageFix" result="effect1_dropShadow"/>
<feColorMatrix in="SourceAlpha" type="matrix" values="0 0 0 0 0 0 0 0 0 0 0 0 0 0 0 0 0 0 127 0" result="hardAlpha"/>
<feOffset/>
<feGaussianBlur stdDeviation="38"/>
<feColorMatrix type="matrix" values="0 0 0 0 0 0 0 0 0 0 0 0 0 0 0 0 0 0 0.3 0"/>
<feBlend mode="normal" in2="effect1_dropShadow" result="effect2_dropShadow"/>
<feBlend mode="normal" in="SourceGraphic" in2="effect2_dropShadow" result="shape"/>
</filter>
<clipPath id="clip0social">
<rect width="201.326" height="49.6338" fill="white" transform="translate(104 332)"/>
</clipPath>
</defs>
</svg>
