<svg width="535" height="608" viewBox="0 0 535 608" fill="none" xmlns="http://www.w3.org/2000/svg">
<g clip-path="url(#clip0ganoo)">
<path d="M101.498 394.058C104.673 388.367 109.406 386.738 113.041 386.491C111.916 414.6 109.77 439.011 120.949 468.202C132.126 497.389 149.985 520.171 187.391 548.196L218.915 527.195C224.553 533.197 233.069 537.786 239.708 542.765L239.826 542.853C241.973 544.464 244.415 546.297 244.544 548.84C244.677 551.43 243.374 552.734 241.05 554.738C238.727 556.741 233.535 557.614 231.639 560.219C229.743 562.826 229.908 565.366 230.247 568.292C230.586 571.219 233.063 573.218 234.677 575.383C236.292 577.548 239.873 580.599 241.952 581.649L236.31 572.744C234.935 570.576 235.321 567.282 236.759 565.094C238.199 562.904 241.956 564.068 244.371 562.592C246.787 561.118 249.334 560.582 250.912 558.183C252.49 555.783 254.512 553.062 253.559 548.617C252.605 544.172 248.21 537.126 245.537 531.383C248.579 533.966 252.072 535.972 254.668 539.141C257.264 542.309 258.332 546.79 260.875 550.101C263.419 553.413 266.811 555.909 269.779 558.813C268.442 561.013 266.304 563.133 264.874 565.412C261.997 570 258.21 575.508 259.674 581.576C261.237 588.057 264.906 590.125 271.476 595.498C269.275 591.745 266.161 587.621 265.47 584.247C264.779 580.873 266.162 579.105 267.721 577.169C269.281 575.234 271.777 574.5 273.807 573.166C273.477 575.668 271.716 577.73 272.817 580.678C273.915 583.624 277.544 587.768 280.483 590.964C283.424 594.16 286.978 597.285 290.424 599.824C293.87 602.363 296.979 603.672 300.294 604.506C303.607 605.339 306.681 604.646 309.877 604.716C306.813 603.234 303.025 602.431 300.694 600.274C298.363 598.118 297.957 595.041 296.588 592.425C299.446 594.39 301.936 596.721 305.162 598.32C308.39 599.918 311.354 600.951 315.765 601.924C321.724 603.237 328.096 603.445 334.16 604.134C329.396 601.81 324.915 600.443 321.953 597.757C318.991 595.07 318.503 591.928 317.817 589.315C324.86 592.957 330.166 598.241 335.978 599.653C341.79 601.065 345.766 601.543 352.215 600.867C358.664 600.189 363.532 597.887 366.502 596.249C361.085 597.223 354.581 597.603 347.587 596.197C351.42 593.651 351.373 594.961 359.084 588.562C366.795 582.163 371.951 574.876 373.449 570.336C368.618 575.563 361.633 579.506 354.43 581.566C357.09 578.442 361.161 575.271 361.448 570.566C357.211 572.355 352.527 572.757 349.038 571.482C343.216 569.355 335.169 560.422 334.114 554.915C333.347 550.905 336.146 550.613 338.959 548.19C341.77 545.767 347.413 543.419 350.28 540.429C353.149 537.441 354.583 534.998 355.421 531.632C356.257 528.266 356.083 524.652 355.187 521.295C354.291 517.938 351.127 513.763 350.197 510.897L350.187 510.863C349.266 508.022 348.938 507.012 350.041 504.216C351.147 501.409 354.373 497.953 356.539 494.821C360.104 494.113 362.664 493.422 367.237 492.695C371.811 491.969 379.036 492.824 382.783 491.058C386.494 489.308 388.066 482.535 388.781 479.455L388.801 479.368C390.528 471.915 389.553 466.582 388.358 459.118C395.466 455.997 401.312 454.809 406.254 448.174C408.239 445.509 408.358 442.332 408.329 439.888C408.302 437.444 407.359 435.88 405.502 433.7C403.642 431.521 399.463 429.205 397.458 427.138C395.454 425.073 394.884 423.33 393.598 421.427C400.579 417.125 407.575 410.951 411.872 406.742C416.168 402.535 417.562 400.651 419.149 396.403C420.735 392.155 421.335 387.323 421.118 381.969C420.901 376.615 419.448 368.606 417.863 364.695C416.279 360.784 414.596 360.555 412.639 358.987C410.681 357.42 408.468 355.747 406.131 355.304C403.796 354.86 401.802 356.481 398.826 356.881C395.85 357.281 391.296 358.433 388.387 357.694C385.48 356.953 384.927 354.6 383.196 353.052C382.768 350.904 382.033 348.844 381.637 346.195C381.239 343.544 381.559 340.476 380.809 337.164C380.06 333.852 378.56 330.274 377.434 326.829C379.517 328.007 380.736 328.031 384.351 330.36C393.012 335.942 401.284 343.746 412.086 344.955C419.076 345.739 422.846 350.748 429.157 351.852C435.469 352.957 444.542 352.932 450.356 352.816C456.17 352.7 460.001 352.275 463.631 350.317C470.79 346.457 472.114 337.856 469.571 335.629C467.025 333.402 465.992 333.881 464.061 334.435C459.22 335.823 456.863 331.434 455.63 327.497C454.763 324.723 454.655 321.568 453.999 318.185C470.762 314.975 485.502 309.106 498.268 296.947C511.212 284.621 526.417 259.474 530.997 243.104C536.807 222.331 535.475 190.682 530.669 169.613C526.908 153.115 521.233 141.766 510.851 128.538C502.598 118.025 491.332 106.872 479.641 100.258C468.004 93.6734 450.802 87.7707 437.534 86.4143C420.981 84.7207 401.72 84.5387 386.039 90.8606C379.936 93.3203 373.356 98.1878 368.71 100.912C363.069 104.218 356.526 109.923 349.538 109.333C346.476 109.074 343.036 107.742 340.577 105.715C341.528 112.869 342.228 116.529 347.796 122.016C356.544 130.638 376.478 128.129 387.637 127.368C396.857 126.739 404.454 123.389 414.426 123.605C422.565 123.783 435.476 128.858 440.963 131.649C450.741 136.622 460.139 146.289 465.883 155.527C469.412 161.203 472.671 168.048 474.573 174.927C476.476 181.806 477.15 189.816 477.14 196.417C477.13 203.017 475.926 208.273 475.004 214.27C473.377 224.853 462.291 243.933 447.56 239.416C434.265 235.338 424.895 222.425 416.939 211.462L416.586 210.976C406.272 196.768 393.508 178.067 378.059 164.634C369.382 157.089 354.841 150.501 343.308 149.379C323.244 147.427 314.472 150.752 297.59 163.09C292.87 166.54 289.674 171.062 284.529 174.09C274.464 168.33 266.793 158.908 254.309 153.792C241.826 148.676 237.87 148.151 222.392 148.341C206.913 148.531 192.578 152.186 178.051 164.024C163.525 175.861 120.953 228.561 112.614 234.001C104.275 239.439 102.148 242.198 92.6227 242.039C83.0959 241.88 66.2189 227.251 65.1026 207.642C63.9863 188.034 64.4444 179.768 77.8773 156.386C91.3103 133.004 118.885 125.34 135.727 122.526C152.569 119.712 163.806 127.277 182.092 126.797C200.377 126.317 220.816 124.345 219.922 101.635C216.572 104.202 211.88 106.007 204.987 105.946C198.095 105.885 187.284 97.3996 175.466 90.6565C163.648 83.9135 149.71 82.381 128.794 82.0279C107.878 81.6738 85.2495 84.5817 62.1547 96.7223C39.0599 108.865 25.733 120.571 13.0753 144.89C0.417557 169.208 -1.26294 188.195 0.675633 217.492C2.6142 246.788 9.86434 266.023 28.5668 289.391C47.2693 312.758 64.0183 321.276 93.57 325.715C93.8601 338.207 95.7916 341.022 87.048 350.219C78.3215 359.399 89.3717 365.765 73.4721 374.912C66.1919 379.1 63.4491 385.863 62.3418 393.455C61.2345 401.049 67.5483 404.199 73.395 400.033C79.2418 395.867 85.2775 396.949 89.9999 398.51C92.8347 399.446 98.9065 398.705 101.498 394.058Z" fill="#FAFAFA"/>
<path fill-rule="evenodd" clip-rule="evenodd" d="M113.041 386.49C109.406 386.737 104.673 388.365 101.498 394.056C98.9065 398.703 92.8347 399.444 89.9999 398.508C85.2775 396.948 79.2418 395.865 73.395 400.031C67.5483 404.197 61.2345 401.047 62.3418 393.454C63.4491 385.861 66.1919 379.098 73.4721 374.91C89.3717 365.763 78.3215 359.398 87.048 350.218C95.7916 341.02 93.8601 338.205 93.57 325.714C64.0183 321.274 47.2693 312.757 28.5668 289.39C9.86434 266.022 2.6142 246.787 0.675633 217.491C-1.26294 188.194 0.417557 169.208 13.0753 144.889C25.733 120.571 39.0599 108.865 62.1547 96.7223C85.2495 84.5817 107.878 81.6738 128.794 82.0279C149.71 82.381 163.648 83.9135 175.466 90.6565C187.284 97.3995 198.095 105.885 204.987 105.946C211.88 106.007 216.572 104.201 219.922 101.635C220.816 124.344 200.377 126.317 182.092 126.797C163.806 127.276 152.569 119.712 135.727 122.526C118.885 125.34 91.3103 133.004 77.8773 156.386C64.4444 179.768 63.9863 188.033 65.1026 207.641C66.2189 227.25 83.0959 241.879 92.6227 242.038C102.148 242.197 104.275 239.438 112.614 234C120.953 228.56 163.525 175.861 178.051 164.023C192.578 152.186 206.913 148.531 222.392 148.34C237.87 148.15 241.826 148.676 254.309 153.792C266.793 158.908 274.464 168.329 284.529 174.089C289.674 171.061 292.87 166.54 297.59 163.09C314.472 150.751 323.244 147.426 343.308 149.379C354.841 150.501 369.382 157.089 378.059 164.633C393.508 178.066 406.272 196.768 416.586 210.975C424.617 222.039 434.068 235.277 447.56 239.415C462.291 243.932 473.377 224.852 475.004 214.269C475.926 208.272 477.13 203.017 477.14 196.417C477.15 189.816 476.476 181.805 474.573 174.926C472.671 168.047 469.412 161.202 465.883 155.527C460.139 146.289 450.741 136.622 440.963 131.649C435.476 128.858 422.565 123.783 414.426 123.605C404.454 123.389 396.857 126.739 387.637 127.367C376.478 128.129 356.544 130.637 347.796 122.016C342.228 116.529 341.528 112.869 340.577 105.715C343.036 107.742 346.476 109.074 349.538 109.333C356.526 109.923 363.069 104.217 368.71 100.911C373.356 98.1877 379.936 93.3203 386.039 90.8605C401.72 84.5387 420.981 84.7207 437.534 86.4142C450.802 87.7706 468.004 93.6734 479.641 100.258C491.332 106.872 502.598 118.025 510.851 128.538C521.233 141.766 526.908 153.115 530.669 169.613C535.475 190.681 536.807 222.33 530.997 243.103C526.417 259.473 511.212 284.62 498.268 296.946C485.502 309.105 470.762 314.973 453.999 318.183C454.655 321.566 454.763 324.721 455.63 327.495C456.863 331.432 459.22 335.822 464.061 334.433C465.992 333.88 467.025 333.401 469.571 335.628C472.114 337.854 470.79 346.456 463.631 350.316C460.001 352.273 456.17 352.699 450.356 352.815C444.542 352.931 435.469 352.956 429.157 351.85C422.846 350.746 419.076 345.738 412.086 344.953C401.284 343.745 393.012 335.941 384.351 330.359C380.736 328.029 379.517 328.005 377.434 326.828C378.56 330.273 380.06 333.851 380.809 337.163C381.559 340.475 381.239 343.543 381.637 346.194C382.033 348.842 382.768 350.902 383.196 353.051C384.927 354.598 385.48 356.952 388.387 357.692C391.296 358.431 395.85 357.28 398.826 356.88C401.802 356.48 403.796 354.858 406.131 355.302C408.468 355.745 410.681 357.418 412.639 358.985C414.596 360.553 416.279 360.782 417.863 364.693C419.448 368.604 420.901 376.614 421.118 381.967C421.335 387.321 420.735 392.153 419.149 396.401C417.562 400.65 416.168 402.533 411.872 406.74C407.575 410.949 400.579 417.124 393.598 421.425C394.884 423.328 395.454 425.071 397.458 427.136C399.463 429.203 403.642 431.519 405.502 433.698C407.359 435.878 408.302 437.441 408.329 439.886C408.358 442.33 408.239 445.507 406.254 448.172C401.312 454.807 395.466 455.995 388.358 459.116C389.553 466.58 390.528 471.913 388.801 479.366C388.096 482.403 386.529 489.289 382.783 491.055C379.036 492.822 371.811 491.967 367.237 492.693C362.664 493.42 360.104 494.11 356.539 494.818C354.373 497.95 351.147 501.406 350.041 504.213C348.934 507.021 349.268 508.027 350.197 510.894C351.127 513.761 354.291 517.935 355.187 521.292C356.083 524.649 356.257 528.263 355.421 531.629C354.583 534.995 353.149 537.438 350.28 540.427C347.413 543.417 341.77 545.764 338.959 548.187C336.146 550.611 333.347 550.902 334.114 554.912C335.169 560.42 343.216 569.352 349.038 571.479C352.527 572.754 357.211 572.352 361.448 570.564C361.161 575.268 357.09 578.439 354.43 581.563C361.633 579.503 368.618 575.56 373.449 570.334C371.951 574.873 366.795 582.16 359.084 588.559C351.373 594.958 351.42 593.649 347.587 596.194C354.581 597.6 361.085 597.22 366.502 596.246C363.532 597.884 358.664 600.186 352.215 600.864C345.766 601.54 341.79 601.062 335.978 599.65C330.166 598.238 324.86 592.954 317.817 589.312C318.503 591.925 318.991 595.067 321.953 597.754C324.915 600.44 329.396 601.807 334.16 604.131C328.096 603.442 321.724 603.234 315.765 601.921C311.354 600.948 308.39 599.915 305.162 598.317C301.936 596.718 299.446 594.387 296.588 592.422C297.957 595.038 298.363 598.115 300.694 600.271C303.025 602.428 306.813 603.231 309.877 604.713C306.681 604.643 303.607 605.336 300.294 604.503C296.979 603.669 293.87 602.36 290.424 599.821C286.978 597.283 283.424 594.157 280.483 590.961C277.544 587.765 273.915 583.622 272.817 580.675C271.716 577.727 273.477 575.665 273.807 573.163C271.777 574.497 269.281 575.231 267.721 577.167C266.162 579.102 264.779 580.87 265.47 584.244C266.161 587.618 269.275 591.742 271.476 595.495C264.906 590.122 261.237 588.054 259.674 581.573C258.21 575.505 261.997 569.998 264.874 565.409C266.304 563.131 268.442 561.01 269.779 558.81C266.811 555.906 263.419 553.411 260.875 550.099C258.332 546.788 257.264 542.306 254.668 539.138C252.072 535.97 248.579 533.964 245.537 531.38C248.21 537.124 252.605 544.169 253.559 548.614C254.512 553.06 252.49 555.78 250.912 558.18C249.334 560.58 246.787 561.115 244.371 562.589C241.956 564.065 238.199 562.901 236.759 565.091C235.321 567.28 234.935 570.573 236.31 572.741L241.952 581.646C239.873 580.597 236.292 577.545 234.677 575.38C233.063 573.215 230.586 571.216 230.247 568.289C229.908 565.363 229.743 562.823 231.639 560.217C233.535 557.611 238.727 556.739 241.05 554.735C243.374 552.731 244.677 551.427 244.544 548.837C244.412 546.248 241.883 544.395 239.708 542.763C233.069 537.783 224.553 533.195 218.915 527.193C215.73 523.802 214.201 521.064 213.561 518.724C212.922 516.386 213.598 514.561 215.181 511.684C216.763 508.807 222.19 504.964 222.85 501.838C223.509 498.714 220.768 498.042 218.295 496.94C215.821 495.838 211.123 497.505 208.828 495.588C206.534 493.67 209.502 489.641 206.916 487.431C204.332 485.222 198.415 486.455 195.361 484.078C192.307 481.701 191.045 478.75 189.992 475.301C188.94 471.852 188.821 468.074 189.534 465.576C190.247 463.078 192.39 462.641 193.682 461.347C194.975 460.052 196.096 458.979 194.374 457.048C192.651 455.119 187.006 457.156 183.762 454.679C180.517 452.201 182.503 446.266 180.208 443.764C177.915 441.263 173.798 442.242 171.625 441.443C169.453 440.643 168.601 443.463 167.269 439.004C165.936 434.544 165.9 421.249 164.108 416.287C162.315 411.326 158.795 415.952 157.161 411.021C155.526 406.09 157.076 398.205 156.339 390.758L153.003 370.495C141.366 378.312 133.684 380.767 121.181 382.975C120.138 413.566 117.264 431.581 127.647 465.52C138.03 499.458 159.043 519.46 187.391 548.193C149.985 520.169 132.126 497.386 120.949 468.2C109.77 439.009 111.916 414.598 113.041 386.49ZM311.807 374.194C314.685 374.323 318.182 375.053 320.203 376.366C322.224 377.678 324.37 378.75 326.204 380.618C330.782 385.279 334.215 390.901 335.732 397.361C336.699 401.479 336.844 406.76 337.196 411.596C335.81 407.127 334.879 402.466 332.905 398.462C329.793 392.148 324.507 385.985 317.942 383.148C315.775 382.209 314.33 382.383 313.138 382.549C313.671 383.445 314.564 384.195 314.603 385.506C314.642 386.818 314.349 389.383 312.125 390.462C308.54 392.201 304.555 390.978 301.786 388.53C298.994 386.063 298.043 381.89 299.505 378.304C301.246 374.031 307.882 374.02 311.807 374.194ZM275.725 368.112C276.086 360.765 278.737 354.569 285.321 350.966C288.726 349.104 293.972 346.695 298.792 346.129C303.423 345.586 314.686 345.983 321.461 349.074C326.664 351.449 330.208 355.146 334.776 357.848C339.343 360.551 342.592 362.362 346.942 365.393C353.617 370.046 357.531 375.168 362.159 378.239C364.385 379.715 367.516 379.495 370.47 380.398C368.173 381.08 365.17 381.832 362.691 381.04C359.6 380.052 355.279 377.226 352.881 375.2C348.644 371.621 346.447 369.875 341.823 367.175C339.062 365.566 334.516 363.671 331.482 361.692C328.446 359.714 323.177 355.372 320.26 353.903C316.552 352.036 309.876 350.998 305.747 351.119C300.06 351.285 291.827 352.223 287.426 356.217C283.054 360.186 281.393 363.678 282.38 368.832C284.026 366.936 285.122 364.553 286.772 363.143C290.189 360.224 294.11 360.083 298.363 360.636C303.142 361.258 305.547 364.018 307.126 368.554C306.063 367.774 304.111 366.061 302.569 365.529C298.951 364.281 296.216 364.665 292.827 366.483C288.825 368.629 289.914 371.806 289.338 375.339C289.074 376.969 288.458 378.281 288.019 379.753C286.515 379.354 285.123 378.728 283.985 377.6C284.032 379.25 283.792 380.694 284.13 382.55C284.466 384.406 285.37 386.611 285.99 388.64C283.204 385.853 280.353 383.259 278.553 379.661C276.752 376.06 275.531 372.065 275.725 368.112ZM280.546 314.636C282.6 311.588 283.201 306.913 284.467 303.112C283.961 307.926 284.934 313.221 282.584 316.708C280.233 320.195 276.105 319.584 272.685 320.598C275.345 318.57 278.491 317.684 280.546 314.636ZM231.381 386.025C234.017 383.891 241.133 385.597 246.456 385.978C242.631 386.958 238.806 387.938 234.981 388.917C234.624 390.219 234.786 391.71 233.912 392.819C233.038 393.93 231.378 394.341 230.111 395.1C230.236 391.681 228.744 388.159 231.381 386.025ZM268.883 237.762C272.059 239.472 276.092 241.734 278.897 241.804C281.703 241.874 282.438 239.969 284.088 238.87C286.685 247.338 289.666 256.641 294.087 264.325C295.939 267.544 297.121 266.047 298.529 269.282C299.936 272.516 300.561 279.097 301.895 283.229C303.232 287.361 304.974 290.402 306.514 293.988C302.604 288.45 297.554 281.388 295.375 276.778C293.199 272.17 294.592 271.769 292.83 267.379C291.067 262.99 287.504 256.148 284.841 250.533C282.935 250.786 280.574 251.133 279.125 250.686C277.675 250.238 277.964 248.697 276.655 247.701C275.343 246.704 273.14 247.091 271.303 245.5C269.467 243.911 269.049 240.649 268.883 237.762ZM251.777 279.543C254.766 279.281 258.479 280.082 261.279 279.923C264.079 279.764 266.078 279.038 268.477 278.595C268.032 274.378 268.454 266.629 264.561 263.813C262.047 261.995 251.718 263.364 248.96 263.959C242.752 265.298 235.523 269.003 229.519 271.32C235.273 267.3 240.243 263.575 247.144 261.501C251.292 260.253 260.973 258.632 265.254 259.788C267.209 260.315 267.604 261.125 268.79 262.781C272.865 268.471 272.853 273.388 273.91 280.016C274.949 281.636 276.057 282.716 276.899 284.386C277.739 286.057 278.215 288.686 278.45 290.834C277.384 289.288 278.036 287.348 275.082 286.197C272.126 285.046 267.601 286.121 263.619 286.537C266.522 288.632 267.964 290.649 268.075 295.078C268.205 300.277 263.803 304.019 259.207 304.375C252.826 304.871 249.536 303.469 246.955 298.016C245.825 295.627 246.644 292.753 246.55 290.424C238.883 290.957 239.008 290.707 233.404 295.38C236.45 299.842 238.369 302.408 243.402 305.078C246.225 306.576 249.421 308.032 252.919 308.628C256.418 309.223 262.157 309.798 265.832 309.234C269.508 308.67 271.59 307.62 274.315 305.101C277.041 302.58 277.291 298.971 278.355 296.118C278.113 298.864 277.798 302.361 276.779 304.352C273.678 310.407 268.315 312.202 261.913 312.222C255.767 312.242 248.164 310.824 242.447 308.454C237.875 306.559 230.297 301.193 228.499 296.532C227.269 293.347 228.243 289.439 228.114 285.892C234.443 281.683 236.01 282.718 243.499 281.486C246.632 280.969 248.787 279.806 251.777 279.543ZM214.905 251.034C215.083 248.512 215.362 248.566 215.591 247.332C209.824 245.789 207.511 249.53 204.13 256.478C202.865 259.078 204.118 260.626 202.76 262.337C201.405 264.049 199.22 263.808 197.018 265.452C194.817 267.094 192.635 270.24 190.577 271.942C186.352 275.434 180.643 277.565 175.743 279.915C179.089 277.446 185.582 273.702 187.683 270.115C188.797 268.214 188.632 264.628 190.366 262.918C192.1 261.208 192.707 260.024 194.946 259.588C197.184 259.152 196.284 256.557 197.006 254.495C197.729 252.432 199.167 250.968 200.697 248.907C202.228 246.846 204.158 243.753 207.18 242.629C210.202 241.505 214.915 242.72 217.202 242.073C219.489 241.426 218.176 239.763 219.837 238.765C221.501 237.767 224.735 238.207 226.956 237.14C230.894 235.246 232.778 232.085 235.147 228.701C235.491 235.985 235.407 241.23 232.789 248.083C229.841 255.796 226.853 260.339 218.487 265.083C215.604 266.716 212.735 267.283 210.345 268.141C211.739 266.24 213.733 265.415 214.527 262.439C215.318 259.461 214.727 253.556 214.905 251.034ZM349.982 286.551C346.004 286.81 345.061 286.287 341.878 288.532C343.604 291.216 345.328 293.901 347.052 296.586C346.9 291.287 347.416 290.224 349.982 286.551ZM339.559 282.7C345.069 280.353 349.869 278.455 355.863 278.08C358.266 277.929 361.996 278.301 364.423 278.411C366.489 275.368 369.123 272.968 370.088 269.495C370.728 267.191 370.412 256.499 369.281 253.723C365.985 245.645 362.781 245.304 358.245 240.677C354.953 237.321 354.822 232.21 353.838 226.483C353.476 224.38 352.444 221.718 351.96 219.547C346.03 218.548 339.653 218.219 332.831 218.56C336.139 215.387 339.337 212.488 340.287 207.725C341.234 202.962 340.463 197.105 337.755 192.834C335.047 188.562 330.722 184.841 326.752 181.361C322.779 177.881 317.087 175.008 313.324 172.161C318.218 170.409 323.216 167.834 328.01 166.905C340.5 164.482 351.261 168.187 363.307 175.47C370.311 179.707 376.104 183.731 383.426 191.396C390.746 199.06 399.826 213.12 406.913 221.457C414 229.794 419.722 236.388 425.905 241.361C432.089 246.334 437.685 247.751 443.574 250.945L452.753 260.692L460.181 251.5L472.133 252.851L474.603 239.435L485.573 236.429L483.784 218.344L491.671 212.746L485.743 201.494L491.766 189.198L483.914 175.143L486.942 161.61L477.851 153.863L476.665 139.482L463.983 134.644L458.895 122.133L444.637 121.973L437.643 112.685L428.044 113.357L417.344 112.192L411.293 107.724L402.512 113.554L391.886 108.014L370.763 116.033L384.533 104.057L398.799 101.779L409.728 98.9929L424.488 103.84L437.48 100.549L450.007 107.955L463.263 107.221L469.775 118.906L482.974 120.429L490.115 133.42L498.416 137.952L500.62 154.594L508.013 161.606L504.762 176.168L513.471 187.195L505.305 199.01L514.038 206.396L502.874 216.289L514.181 228.064L500.527 232.467L509.42 245.096L498.267 247.02L505.581 260.907L493.011 260.74L499.343 271.141L485.556 269.481L488.854 284.445L478.435 275.279L474.866 293.414L467.676 280.392L463.782 296.634L454.906 284.658L455.148 301.689L445.338 286.375C447.407 295.064 446.993 304.577 452.7 312.769C470.381 310.376 481.937 305.921 495.483 292.886C507.821 281.015 522.567 256.262 526.56 240.563C531.117 222.647 531.257 189.698 526.769 171.458C522.45 153.897 516.836 145.509 506.807 131.178C497.22 120.996 487.791 110.24 475.623 102.979C457.762 92.321 434.859 89.4471 414.503 89.7242C403.232 89.8782 395.682 92.0429 388.943 94.4936C377.158 98.7789 367.734 108.127 355.753 112.746C351.846 114.251 348.714 114.298 345.637 112.655C348.65 118.683 351.928 121.387 359.442 123.58C364.878 125.167 377.848 124.163 386.776 123.339C396.361 122.454 401.361 119.604 414.405 119.783C427.145 119.958 437.24 124.798 442.76 127.953C454.148 134.465 462.314 141.689 469.411 153.133C473.308 159.417 476.037 166.507 477.96 173.742C479.883 180.977 480.725 189.08 480.848 196.164C480.971 203.247 480.43 209.569 478.697 215.943C474.645 230.866 465.705 246.05 447.342 243.705C436.105 242.268 419.164 221.176 413.49 213.438C402.042 197.82 390.262 180.538 375.877 167.532C367.106 159.605 355.098 154.149 343.305 153.07C321.182 151.045 314.621 155.247 297.968 168.974C301.356 170.054 304.663 170.65 308.135 172.214C315.84 175.687 322.887 180.174 329.034 185.93C335.475 191.962 338.365 195.78 338.594 204.419C338.746 210.156 334.027 214.755 329.7 218.892C327.054 221.426 323.551 223.746 321.407 225.712C318.566 228.322 315.048 231.177 318.617 235.334C319.96 236.897 322.29 238.075 324.256 239.534C327.376 241.85 325.947 250.456 321.837 252.739C316.578 255.657 310.293 255.331 305.955 251.425C311.43 250.606 314.907 249.879 314.765 245.401C314.683 242.805 311.383 240.649 308.144 239.172C300.333 235.611 294.433 236.136 286.659 230.543C278.806 224.89 278.633 221.795 276.511 212.92C272.725 213.317 269.239 213.404 264.176 215.08C259.114 216.756 253.519 220.745 248.923 221.732C237.347 224.223 235.041 223.485 228.706 221.845C217.552 218.958 203.03 223.901 188.604 228.515C186.205 229.282 176.503 228.541 169.972 230.833C159.885 234.372 145.732 242.942 137.558 249.826C125.172 260.258 108.895 291.479 99.6988 327.313C98.7325 338.206 101.83 345.545 94.9684 350.866C88.1064 356.187 88.2964 369.818 85.9697 373.641C83.6431 377.463 80.9493 375.773 75.9408 381.142C70.9323 386.511 68.3826 385.613 68.5086 395.764C72.8249 392.926 79.1177 389.627 84.6433 389.428C89.5368 389.251 89.5888 395.694 102.148 383.278C108.865 376.635 121.77 376.432 130.724 373.502C139.679 370.572 155.814 364.534 171.975 346.467C188.136 328.399 195.869 309.379 199.003 281.881C199.502 286.756 200.368 292.255 198.281 305.704C196.193 319.153 191.694 334.258 201.173 352.351L207.078 363.624C203.562 358.825 196.694 350.998 194.627 345.42L189.857 332.554C179.187 349.307 176.734 352.303 161.912 364.306C161.322 371.752 161.177 379.518 163.611 386.644C166.044 393.768 162.165 401.98 164.017 406.672C165.868 411.365 170.15 408.694 171.549 413.444C172.947 418.195 170.819 427.587 172.987 432.217C175.156 436.847 180.477 434.038 183.055 435.533C185.634 437.029 186.477 439.08 187.857 441.048C189.235 443.014 187.318 447.664 190.122 449.173C192.926 450.683 197.3 449.404 200.218 450.853C203.136 452.303 203.579 455.787 202.88 458.909C202.18 462.031 199.062 463.463 197.693 466.637C196.324 469.812 196.477 472.022 198.122 474.937C199.766 477.852 203.407 479.458 207.036 480.929C210.665 482.401 215.765 481.574 219.51 483.609C223.255 485.644 226.621 489.698 228.599 492.645C230.576 495.591 231.125 497.669 231.024 500.767C230.922 503.864 229.666 507.432 228.013 510.424C226.359 513.416 222.711 517.057 228.407 522.771C234.102 528.483 233.892 526.021 237.155 529.727C236.8 523.316 234.151 518.093 236.088 513.267C238.025 508.44 243.842 507.601 246.908 505.431C249.974 503.259 251.74 500.276 254.156 497.699C254.121 501.015 254.476 504.58 254.099 507.077C253.331 512.154 251.833 516.66 259.398 517.474C262.806 517.84 266.042 515.63 269.628 514.304C267.749 517.668 264.482 520.373 263.991 524.399C263.5 528.423 264.09 532.845 266.877 536.839C269.665 540.831 274.478 543.796 278.005 546.142C281.531 548.49 283.421 548.678 286.131 549.948C286.264 553.905 285.484 558.093 285.936 561.82C286.387 565.547 287.561 568.846 289.716 571.927C291.872 575.009 295.33 576.777 298.587 579.055C296.802 574.897 293.18 570.952 293.229 566.581C293.278 562.21 294.588 559.112 298.851 555.234C303.115 551.355 313.096 547.991 317.802 544.22C322.508 540.448 324.027 538.137 325.716 534.475C327.406 530.813 326.936 524.913 327.248 521.621C328.797 526.233 329.018 527.666 329.521 532.49C330.028 537.316 326.71 544.084 325.305 547.656C331.127 544.844 334.822 540.35 336.688 535.957C337.936 536.698 337.307 538.727 337.766 542.638C339.84 540.574 342.199 538.985 344.288 537.037C346.378 535.09 348.668 533.378 349.705 530.66C350.741 527.942 350.317 525.052 349.545 521.894C348.774 518.736 345.245 515.074 343.344 511.62C341.446 508.167 343.681 504.777 343.552 500.616C339.749 499.963 336.52 498.026 332.15 498.656C327.778 499.284 322.77 504.19 318.302 504.247C313.834 504.304 311.325 500.118 307.662 498.968C303.999 497.817 300.293 497.943 296.61 497.431C301.275 492.962 319.382 490.833 331.768 488.814C342.666 487.036 353.481 486.009 364.524 485.854C369.455 485.784 375.793 487.412 379.217 486.428C382.644 485.446 381.913 483.112 382.929 480.568C385.772 473.458 384.371 467.126 382.824 459.966C372.911 458.804 362.582 457.381 352.594 458.149C342.829 458.899 331.266 463.541 321.194 463.855C312.437 464.127 299.471 462.178 291.951 457.594C282.763 451.994 275.654 439.965 273.13 436.103C269.02 429.812 263.835 417.471 260.68 411.828C257.527 406.185 256.832 404.607 254.208 402.251C251.584 399.896 247.99 399.714 244.882 398.445C248.466 398.811 252.378 397.677 255.633 399.543C260.523 402.349 265.997 413.979 269.04 419.039C272.264 408.232 271.511 403.983 280.84 397.889C273.322 406.315 273.135 412.698 271.302 422.619C277.554 432.88 286.246 449.225 297.619 453.76C301.727 455.4 308.782 456.428 313.224 456.977C327.046 458.689 340.378 454.308 353.953 450.956C363.876 448.506 373.944 449.493 386.013 450.202C390.11 450.442 399.771 447.978 401.772 443.833C402.852 441.598 402.772 438.911 401.22 436.528C399.667 434.146 395.53 432.993 393.312 430.849C391.095 428.704 389.819 426.158 388.073 423.812C378.855 425.581 371.273 426.26 364.431 426.446C369.338 424.425 374.047 423.271 379.154 421.274C384.262 419.276 390.061 415.997 394.183 413.276C398.306 410.555 400.937 408.976 403.92 405.809C406.901 402.64 410.725 399.376 412.923 395.503C415.123 391.63 415.463 387.298 415.586 382.504C415.709 377.712 415.502 370.987 413.653 367.126C411.807 363.266 408.246 362.094 405.385 361.181C402.523 360.268 400.563 362.577 397.587 362.89C394.61 363.202 391.828 365.078 387.522 363.054C383.217 361.029 378.114 356.908 373.76 350.791C369.409 344.673 366.297 334.674 361.861 326.982C354.214 313.722 344.684 301.335 335.57 289.049C334.82 286.019 333.693 281.832 333.318 277.722C332.663 270.559 332.54 263.119 334.763 256.137C336.466 250.789 338.944 245.139 344.545 242.945C346.785 242.067 349.62 241.719 351.623 242.461C353.627 243.202 355.593 245.464 354.806 248.077C353.941 250.95 351.95 251.028 350.598 252.478C348.302 254.939 347.384 256.744 346.516 259.812C348.997 259.772 352.35 259.583 354.388 260.119C357.047 260.82 359.522 262.582 360.872 266.349C357.699 263.535 356.122 262.244 352.162 262.144C350.348 262.099 348.143 262.748 346.135 263.05C345.385 265.491 344.944 268.484 343.885 270.372C342.825 272.261 340.763 271.808 339.988 274.014C339.214 276.217 339.169 279.804 339.559 282.7ZM367.283 279.392C368.498 279.871 368.961 279.976 370.5 281.148C372.04 282.319 374.164 283.488 375.383 286.287C376.604 289.087 376.547 293.416 376.287 295.18C375.217 294.866 373.757 295.078 372.647 294.128C371.54 293.179 370.879 291.029 369.458 290.109C368.036 289.19 366.85 289.391 365.279 289.192C366.086 291.489 366.478 293.786 366.103 295.869C365.289 300.415 362.616 302.718 358.289 303.262C356.399 303.499 353.398 302.877 351.754 302.578C352.516 304.28 353.808 305.772 354.571 307.474C358.23 306.945 360.942 307.02 362.909 306.1C364.877 305.18 366.986 303.118 369.511 302.245C372.037 301.371 374.29 301.385 377.052 300.954C374.876 302.83 373.447 304.706 371.274 306.582C372.868 311.216 374.463 315.85 376.056 320.483C379.436 322.598 382.607 323.712 386.866 326.323C391.128 328.935 396.236 333.606 401.785 336.154C407.333 338.701 410.637 340.088 416.435 341.181C422.232 342.275 426.844 346.97 432.549 347.733C438.253 348.496 448.909 348.65 453.305 348.221C458.296 347.734 464.781 345.158 465.363 339.686C461.178 340.718 454.786 339.792 451.558 331.916C450.126 328.419 450.828 321.989 448.635 317.853C446.444 313.717 443.388 312.39 439.737 307.294C436.086 302.199 430.113 294.161 426.76 287.334C423.409 280.508 422.62 272.776 419.785 266.659C416.95 260.543 412.674 255.603 409.36 250.889C402.124 240.586 396.288 233.545 384.367 228.347C378.633 225.847 372.105 225.181 365.974 223.598C363.479 224.715 360.058 225.949 359.451 228.867C358.844 231.785 360.01 236.094 362.128 238.285C365.672 241.947 370.924 245.905 372.988 251.726C374.315 255.461 374.7 267.983 373.55 271.381C372.358 274.909 369.586 277.042 367.283 279.392ZM368.437 309.03C367.329 309.985 366.485 310.966 364.704 311.76C362.924 312.553 360.493 312.758 358.132 313.348C361.444 318.504 364.923 323.713 368.096 329.134C371.271 334.553 374.021 340.488 377.051 346.164C376.908 342.911 377.1 339.443 376.627 336.403C376.154 333.364 374.777 330.704 373.411 326.142C372.048 321.579 370.369 315.373 368.437 309.03ZM279.326 195.672C278.858 200.744 279.717 208.672 280.767 213.638C282.025 219.581 283.237 222.663 288.06 226.244C296.893 232.801 302.531 231.696 309.326 235.498C312.559 237.308 316.657 240.341 317.852 243.546C319.047 246.752 317.063 250.233 314.611 251.602C318.899 252.24 323.708 247.406 321.701 242.442C320.713 239.999 316.008 238.911 314.566 236.446C313.127 233.983 313.13 231.446 313.808 228.943C315.033 224.432 323.959 220.333 327.113 216.767C331.966 211.279 333.83 206.689 331.081 199.622C327.221 189.694 312.307 181.727 303.382 177.831C299.295 176.048 297.003 175.921 293.815 174.965C300.342 178.79 307.223 181.837 310.525 190.388C313.282 197.529 310.894 200.22 310.986 206.438C311.029 209.32 314.825 210.762 316.511 212.583C317.978 214.167 317.859 215.342 316.687 217.528C316.558 215.556 315.715 214.085 314.202 213.013C311.703 211.242 309.011 211.623 307.68 207.991C305.659 202.469 309.667 197.24 305.161 191.04C301.791 186.402 297.309 181.21 291.262 181.074C288.4 181.009 286.249 181.441 283.192 182.345L279.117 177.441L279.023 177.377C270.733 169.812 265.061 163.577 253.433 158.377C241.805 153.179 236.074 152.392 222.741 152.688C209.408 152.983 196.176 154.098 180.734 167.415C165.292 180.732 125.493 231.726 115.842 238.18C106.191 244.634 104.053 246.82 91.9935 246.823C79.934 246.826 61.1124 229.768 60.3752 208.45C59.637 187.131 59.3409 179.554 74.1603 153.871C88.9806 128.188 115.829 120.301 135.748 117.638C155.669 114.976 167.64 121.992 182.375 122.025C197.109 122.059 211.672 119.515 215.966 107.797C213.864 109.048 211.049 110.458 203.13 110.043C195.212 109.628 184.233 100.46 171.882 94.3176C159.531 88.1757 145.787 87.4565 128.159 87.1234C110.531 86.7903 88.5345 88.1377 66.7421 99.9022C44.9497 111.667 30.0743 124.149 17.4346 147.174C4.79485 170.2 2.90629 188.999 4.94389 216.879C6.98149 244.758 15.58 265.492 32.1359 285.897C48.6918 306.302 65.2376 316.286 95.0724 319.998L101.353 292.294L90.141 308.385L90.418 290.488L80.2761 303.073L75.8277 286.006L67.6113 299.689L63.5301 280.633L51.6236 290.263L55.3927 274.54L39.6381 276.283L46.8752 265.354L32.51 265.529L40.8685 250.938L28.1227 248.914L38.2857 235.643L22.6811 231.017L35.6009 218.645L22.8442 208.249L32.8221 200.489L23.4913 188.073L33.4443 176.487L29.7292 161.186L38.1807 153.819L40.6964 136.333L50.1812 131.57L58.3416 117.92L73.425 116.318L80.8672 104.04L96.0167 104.812L110.333 97.0304L125.18 100.488L142.045 95.3949L154.536 98.3217L170.837 100.717L186.574 113.301L162.434 104.875L150.291 110.697L140.253 104.571L133.342 109.265L121.113 110.489L110.147 109.781L102.152 119.54L85.8567 119.708L80.044 132.855L65.5537 137.938L64.1983 153.05L53.8073 161.19L57.2693 175.41L48.2956 190.18L55.1797 203.099L48.4047 214.922L57.4183 220.804L55.3737 239.807L67.9094 242.966L70.7332 257.063L84.3933 255.644L92.8798 265.303L103.369 255.061C122.49 245.526 130.365 240.192 145.267 224.075C162.231 205.726 171.954 188.762 194.551 176.2C210.757 167.189 223.976 163.946 242.182 167.092C259.275 170.045 264.998 180.298 277.587 191.099C278.921 188.683 279.193 188.043 281.391 186.265C280.701 189.402 279.605 192.655 279.326 195.672Z" fill="black"/>
</g>
<defs>
<clipPath id="clip0ganoo">
<rect width="534.8" height="607.009" fill="white"/>
</clipPath>
</defs>
</svg>
