<svg width="32" height="36" viewBox="0 0 32 36" fill="none" xmlns="http://www.w3.org/2000/svg">
<path d="M28.5714 2.25H3.42857C1.53571 2.25 0 3.76172 0 5.625V30.375C0 32.2383 1.53571 33.75 3.42857 33.75H28.5714C30.4643 33.75 32 32.2383 32 30.375V5.625C32 3.76172 30.4643 2.25 28.5714 2.25ZM1.51429 16.1156H1.5C1.50714 16.1086 1.51429 16.0945 1.52143 16.0875C1.52143 16.0945 1.52143 16.1086 1.51429 16.1156ZM17.0857 19.9055V27H14.8429V19.7789L9.14286 9H11.8071C15.5571 15.9117 15.3214 16.1156 16.0429 17.8313C16.9214 15.9328 16.4571 16.1156 20.3714 9H22.8571L17.0857 19.9055Z" fill="#FAFAFA"/>
</svg>
