<?xml version="1.0" encoding="utf-8"?><!-- Uploaded to: SVG Repo, www.svgrepo.com, Generator: SVG Repo Mixer Tools -->
<svg fill="#FFFFFF" width="800px" height="800px" viewBox="0 0 32 32" xmlns="http://www.w3.org/2000/svg">
  <path d="M16.672 0c-0.208 0-0.421 0.011-0.641 0.027-5.635 0.447-4.14 6.411-4.224 8.4-0.104 1.453-0.4 2.604-1.4 4.027-1.183 1.401-2.839 3.667-3.625 6.025-0.369 1.109-0.547 2.251-0.38 3.324-0.052 0.041-0.104 0.088-0.151 0.176-0.344 0.36-0.6 0.803-0.881 1.12-0.265 0.265-0.645 0.355-1.063 0.532-0.416 0.181-0.88 0.359-1.151 0.911-0.12 0.251-0.183 0.521-0.177 0.803 0 0.26 0.037 0.531 0.073 0.713 0.079 0.531 0.156 0.969 0.052 1.292-0.333 0.905-0.369 1.525-0.14 1.979 0.233 0.448 0.713 0.625 1.249 0.803 1.084 0.265 2.547 0.181 3.704 0.796 1.233 0.625 2.489 0.896 3.489 0.631 0.697-0.156 1.291-0.62 1.609-1.26 0.781-0.005 1.64-0.36 3.011-0.448 0.932-0.079 2.099 0.359 3.437 0.265 0.036 0.183 0.083 0.265 0.156 0.448v0.005c0.52 1.036 1.484 1.505 2.516 1.427 1.025-0.083 2.119-0.713 3.004-1.744 0.844-1.016 2.245-1.444 3.172-2 0.464-0.267 0.839-0.625 0.865-1.141 0.031-0.531-0.265-1.083-0.948-1.833v-0.131l-0.005-0.005c-0.229-0.265-0.333-0.713-0.453-1.233-0.115-0.537-0.24-1.047-0.656-1.396-0.084-0.073-0.167-0.089-0.255-0.177-0.073-0.052-0.163-0.083-0.251-0.088 0.573-1.704 0.349-3.396-0.235-4.923-0.708-1.88-1.953-3.52-2.896-4.645-1.063-1.339-2.104-2.609-2.083-4.489 0.036-2.871 0.317-8.177-4.724-8.188zM17.375 4.541h0.021c0.281 0 0.525 0.084 0.776 0.261 0.255 0.181 0.443 0.443 0.583 0.713 0.141 0.344 0.215 0.609 0.224 0.963 0-0.025 0.005-0.052 0.005-0.077v0.14c0-0.011-0.005-0.020-0.005-0.031l-0.005-0.032c0 0.324-0.067 0.647-0.197 0.943-0.063 0.167-0.156 0.319-0.287 0.448-0.036-0.020-0.073-0.041-0.115-0.057-0.14-0.063-0.265-0.083-0.38-0.176-0.093-0.037-0.192-0.068-0.292-0.089 0.063-0.077 0.193-0.177 0.245-0.265 0.068-0.167 0.104-0.349 0.115-0.536v-0.027c0.005-0.177-0.027-0.359-0.084-0.531-0.057-0.177-0.129-0.267-0.239-0.443-0.115-0.089-0.224-0.177-0.36-0.177h-0.020c-0.125 0-0.235 0.036-0.349 0.177-0.125 0.124-0.219 0.276-0.271 0.443-0.073 0.172-0.115 0.353-0.12 0.531v0.027c0 0.119 0.011 0.239 0.025 0.359-0.26-0.088-0.583-0.183-0.812-0.271-0.011-0.088-0.021-0.177-0.021-0.265v-0.027c-0.009-0.353 0.057-0.703 0.199-1.025 0.109-0.292 0.307-0.543 0.573-0.709 0.228-0.171 0.504-0.265 0.791-0.265zM13.427 4.62h0.047c0.188 0 0.36 0.063 0.532 0.177 0.197 0.172 0.355 0.385 0.459 0.619 0.12 0.267 0.187 0.537 0.208 0.891v0.005c0.005 0.177 0.005 0.272-0.005 0.355v0.109c-0.041 0.011-0.073 0.021-0.109 0.031-0.203 0.073-0.364 0.177-0.527 0.267 0.016-0.12 0.016-0.24 0.005-0.355v-0.021c-0.015-0.176-0.052-0.265-0.109-0.443-0.041-0.135-0.12-0.26-0.224-0.359-0.063-0.057-0.151-0.089-0.239-0.084h-0.032c-0.093 0.005-0.172 0.052-0.244 0.177-0.089 0.099-0.141 0.224-0.161 0.36-0.037 0.14-0.048 0.291-0.032 0.443v0.015c0.016 0.183 0.047 0.272 0.109 0.448 0.057 0.177 0.131 0.267 0.219 0.355 0.016 0.016 0.027 0.027 0.047 0.031-0.093 0.079-0.156 0.095-0.233 0.183-0.053 0.037-0.109 0.084-0.177 0.095-0.141-0.168-0.261-0.349-0.365-0.537-0.129-0.281-0.197-0.583-0.208-0.891-0.021-0.301 0.016-0.604 0.104-0.891 0.079-0.26 0.204-0.505 0.38-0.713 0.172-0.177 0.344-0.265 0.557-0.265zM15.255 6.896c0.443 0 0.975 0.083 1.62 0.531 0.391 0.267 0.699 0.36 1.407 0.62 0.344 0.183 0.541 0.36 0.64 0.537v-0.177c0.095 0.197 0.105 0.421 0.021 0.624-0.167 0.417-0.688 0.86-1.421 1.125v0.005c-0.355 0.177-0.667 0.443-1.032 0.62-0.369 0.177-0.787 0.391-1.349 0.355-0.203 0.009-0.405-0.021-0.599-0.089-0.145-0.077-0.291-0.167-0.427-0.265-0.26-0.177-0.484-0.443-0.817-0.62v-0.005h-0.005c-0.537-0.328-0.823-0.683-0.917-0.948-0.088-0.359-0.005-0.624 0.261-0.801 0.296-0.177 0.504-0.36 0.64-0.448 0.14-0.099 0.193-0.136 0.235-0.172h0.005v-0.005c0.224-0.271 0.577-0.625 1.12-0.803 0.181-0.047 0.391-0.083 0.619-0.083zM18.984 9.749c0.48 1.891 1.6 4.636 2.319 5.964 0.38 0.713 1.14 2.213 1.468 4.032 0.208-0.005 0.437 0.025 0.683 0.088 0.864-2.229-0.724-4.625-1.448-5.292-0.297-0.265-0.312-0.443-0.167-0.443 0.787 0.708 1.817 2.095 2.192 3.672 0.172 0.713 0.215 1.475 0.032 2.229 0.088 0.036 0.177 0.083 0.271 0.088 1.375 0.715 1.885 1.251 1.64 2.052v-0.057c-0.077-0.004-0.161 0-0.239 0h-0.021c0.204-0.624-0.244-1.104-1.421-1.635-1.219-0.531-2.193-0.448-2.36 0.62-0.011 0.057-0.015 0.088-0.020 0.183-0.095 0.031-0.188 0.067-0.281 0.083-0.573 0.36-0.881 0.896-1.057 1.584-0.172 0.713-0.224 1.541-0.271 2.495-0.032 0.448-0.229 1.119-0.428 1.801-2 1.432-4.776 2.052-7.129 0.448-0.152-0.26-0.329-0.5-0.537-0.713-0.099-0.167-0.224-0.312-0.369-0.443 0.244 0 0.453-0.041 0.62-0.089 0.192-0.093 0.344-0.255 0.421-0.447 0.141-0.355 0-0.928-0.464-1.553-0.457-0.619-1.239-1.323-2.38-2.025-0.843-0.531-1.317-1.161-1.536-1.86-0.219-0.713-0.188-1.448-0.021-2.192 0.328-1.427 1.167-2.817 1.704-3.688 0.14-0.083 0.047 0.183-0.547 1.303-0.527 1-1.521 3.328-0.163 5.135 0.053-1.317 0.344-2.619 0.865-3.833 0.749-1.703 2.323-4.671 2.448-7.025 0.063 0.052 0.287 0.183 0.385 0.271 0.287 0.177 0.505 0.443 0.787 0.62 0.281 0.265 0.635 0.448 1.167 0.448 0.052 0.005 0.099 0.005 0.145 0.005 0.547 0 0.975-0.177 1.328-0.355 0.385-0.183 0.699-0.448 0.989-0.536h0.005c0.62-0.177 1.115-0.537 1.391-0.933zM21.901 21.693c0.052 0.801 0.459 1.661 1.177 1.837 0.781 0.177 1.911-0.443 2.385-1.020l0.281-0.011c0.421-0.011 0.771 0.011 1.129 0.355l0.005 0.005c0.276 0.265 0.407 0.708 0.521 1.167 0.115 0.536 0.203 1.041 0.547 1.421 0.645 0.703 0.859 1.208 0.849 1.521v0c-0.021 0.348-0.251 0.525-0.667 0.791-0.839 0.537-2.328 0.948-3.276 2.095-0.824 0.984-1.828 1.52-2.715 1.588-0.885 0.073-1.651-0.265-2.099-1.197l-0.005-0.005c-0.281-0.532-0.161-1.365 0.073-2.251 0.235-0.891 0.573-1.796 0.62-2.531 0.047-0.953 0.099-1.781 0.255-2.423 0.161-0.62 0.412-1.063 0.86-1.307l0.057-0.032zM7.479 21.76h0.016c0.073 0 0.141 0.005 0.208 0.021 0.5 0.073 0.943 0.443 1.365 1l1.213 2.219 0.005 0.005c0.323 0.708 1.005 1.416 1.583 2.183 0.579 0.796 1.027 1.509 0.975 2.093v0.011c-0.079 0.989-0.641 1.525-1.5 1.724-0.86 0.177-2.027 0-3.193-0.62-1.291-0.713-2.828-0.625-3.812-0.803-0.489-0.088-0.812-0.271-0.964-0.536-0.145-0.265-0.151-0.803 0.167-1.641v-0.004c0.156-0.448 0.043-1.005-0.036-1.495-0.073-0.532-0.109-0.944 0.057-1.251 0.213-0.448 0.531-0.531 0.921-0.713 0.391-0.177 0.855-0.265 1.219-0.625h0.005v-0.005c0.339-0.353 0.595-0.796 0.891-1.115 0.251-0.271 0.505-0.448 0.88-0.448zM17.027 9.661c-0.579 0.265-1.261 0.713-1.985 0.713s-1.292-0.353-1.703-0.62c-0.208-0.181-0.375-0.359-0.5-0.448-0.219-0.176-0.193-0.447-0.099-0.447 0.145 0.020 0.172 0.181 0.265 0.271 0.131 0.088 0.287 0.265 0.479 0.443 0.391 0.265 0.912 0.624 1.557 0.624 0.647 0 1.407-0.359 1.865-0.624 0.26-0.177 0.593-0.443 0.864-0.62 0.208-0.183 0.199-0.36 0.369-0.36 0.172 0.021 0.048 0.177-0.192 0.443-0.245 0.183-0.62 0.448-0.921 0.625zM15.584 7.547v-0.025c-0.005-0.027 0.015-0.057 0.041-0.068 0.093-0.057 0.239-0.037 0.344 0.005 0.083 0 0.213 0.088 0.203 0.181-0.011 0.063-0.115 0.089-0.183 0.089-0.072 0-0.125-0.057-0.187-0.093-0.068-0.021-0.199-0.011-0.219-0.089zM14.849 7.547c-0.027 0.079-0.152 0.068-0.219 0.089-0.063 0.036-0.115 0.093-0.188 0.093-0.068 0-0.177-0.027-0.183-0.093-0.009-0.089 0.115-0.177 0.199-0.177 0.109-0.043 0.244-0.063 0.348-0.005 0.021 0.011 0.048 0.041 0.037 0.068v0.025z"/>
</svg>