<svg width="48" height="48" viewBox="0 0 48 48" fill="none" xmlns="http://www.w3.org/2000/svg">
<path d="M46.3928 16.7916C46.3928 7.67907 39.5667 5.00719 39.5667 5.00719C32.8681 2.31656 15.0781 2.34469 8.44386 5.00719C8.44386 5.00719 1.61672 7.67907 1.61672 16.7916C1.61672 27.6384 0.909575 41.1103 12.9342 43.8947C17.2746 44.8978 21.0042 45.1134 24.0053 44.9634C29.4492 44.7009 32.5039 43.2666 32.5039 43.2666L32.3217 39.8072C32.3217 39.8072 28.4314 40.8759 24.0589 40.7541C19.7292 40.6228 15.166 40.3416 14.4556 35.6916C14.3898 35.2596 14.3576 34.8242 14.3592 34.3884C23.5339 36.3478 31.3574 35.2416 33.511 35.0166C39.5239 34.3884 44.761 31.1447 45.4285 28.1822C46.4785 23.5134 46.3928 16.7916 46.3928 16.7916ZM38.3442 28.5291H33.3481V17.8228C33.3481 13.1634 26.491 12.9853 26.491 18.4697V24.3291H21.5271V18.4688C21.5271 12.9844 14.6699 13.1625 14.6699 17.8219V28.5281H9.66315C9.66315 17.0813 9.106 14.6625 11.6356 12.1219C14.4106 9.4125 20.1878 9.23438 22.7603 12.6938L24.0031 14.5219L25.246 12.6938C27.8292 9.21563 33.616 9.43125 36.3706 12.1219C38.911 14.6813 38.3421 17.0906 38.3421 28.5281L38.3442 28.5291Z" fill="#FAFAFA"/>
</svg>
