<svg width="797" height="108" viewBox="0 0 797 108" fill="none" xmlns="http://www.w3.org/2000/svg">
<rect x="0.5" y="0.5" width="796" height="107" rx="7.5" fill="#424557" fill-opacity="0.35"/>
<path d="M38.992 48.492C38.92 48.612 38.84 48.704 38.752 48.768C38.672 48.824 38.572 48.852 38.452 48.852C38.316 48.852 38.156 48.784 37.972 48.648C37.788 48.512 37.556 48.364 37.276 48.204C37.004 48.036 36.672 47.884 36.28 47.748C35.896 47.612 35.428 47.544 34.876 47.544C34.356 47.544 33.896 47.616 33.496 47.76C33.104 47.896 32.772 48.084 32.5 48.324C32.236 48.564 32.036 48.848 31.9 49.176C31.764 49.496 31.696 49.844 31.696 50.22C31.696 50.7 31.812 51.1 32.044 51.42C32.284 51.732 32.596 52 32.98 52.224C33.372 52.448 33.812 52.644 34.3 52.812C34.796 52.972 35.3 53.14 35.812 53.316C36.332 53.492 36.836 53.692 37.324 53.916C37.82 54.132 38.26 54.408 38.644 54.744C39.036 55.08 39.348 55.492 39.58 55.98C39.82 56.468 39.94 57.068 39.94 57.78C39.94 58.532 39.812 59.24 39.556 59.904C39.3 60.56 38.924 61.132 38.428 61.62C37.94 62.108 37.336 62.492 36.616 62.772C35.904 63.052 35.092 63.192 34.18 63.192C33.06 63.192 32.044 62.992 31.132 62.592C30.22 62.184 29.44 61.636 28.792 60.948L29.464 59.844C29.528 59.756 29.604 59.684 29.692 59.628C29.788 59.564 29.892 59.532 30.004 59.532C30.108 59.532 30.224 59.576 30.352 59.664C30.488 59.744 30.64 59.848 30.808 59.976C30.976 60.104 31.168 60.244 31.384 60.396C31.6 60.548 31.844 60.688 32.116 60.816C32.396 60.944 32.712 61.052 33.064 61.14C33.416 61.22 33.812 61.26 34.252 61.26C34.804 61.26 35.296 61.184 35.728 61.032C36.16 60.88 36.524 60.668 36.82 60.396C37.124 60.116 37.356 59.784 37.516 59.4C37.676 59.016 37.756 58.588 37.756 58.116C37.756 57.596 37.636 57.172 37.396 56.844C37.164 56.508 36.856 56.228 36.472 56.004C36.088 55.78 35.648 55.592 35.152 55.44C34.656 55.28 34.152 55.12 33.64 54.96C33.128 54.792 32.624 54.6 32.128 54.384C31.632 54.168 31.192 53.888 30.808 53.544C30.424 53.2 30.112 52.772 29.872 52.26C29.64 51.74 29.524 51.1 29.524 50.34C29.524 49.732 29.64 49.144 29.872 48.576C30.112 48.008 30.456 47.504 30.904 47.064C31.36 46.624 31.916 46.272 32.572 46.008C33.236 45.744 33.996 45.612 34.852 45.612C35.812 45.612 36.684 45.764 37.468 46.068C38.26 46.372 38.956 46.812 39.556 47.388L38.992 48.492ZM50.4289 55.596C50.4289 55.1 50.3569 54.648 50.2129 54.24C50.0769 53.824 49.8729 53.468 49.6009 53.172C49.3369 52.868 49.0129 52.636 48.6289 52.476C48.2449 52.308 47.8089 52.224 47.3209 52.224C46.2969 52.224 45.4849 52.524 44.8849 53.124C44.2929 53.716 43.9249 54.54 43.7809 55.596H50.4289ZM52.1569 61.296C51.8929 61.616 51.5769 61.896 51.2089 62.136C50.8409 62.368 50.4449 62.56 50.0209 62.712C49.6049 62.864 49.1729 62.976 48.7249 63.048C48.2769 63.128 47.8329 63.168 47.3929 63.168C46.5529 63.168 45.7769 63.028 45.0649 62.748C44.3609 62.46 43.7489 62.044 43.2289 61.5C42.7169 60.948 42.3169 60.268 42.0289 59.46C41.7409 58.652 41.5969 57.724 41.5969 56.676C41.5969 55.828 41.7249 55.036 41.9809 54.3C42.2449 53.564 42.6209 52.928 43.1089 52.392C43.5969 51.848 44.1929 51.424 44.8969 51.12C45.6009 50.808 46.3929 50.652 47.2729 50.652C48.0009 50.652 48.6729 50.776 49.2889 51.024C49.9129 51.264 50.4489 51.616 50.8969 52.08C51.3529 52.536 51.7089 53.104 51.9649 53.784C52.2209 54.456 52.3489 55.224 52.3489 56.088C52.3489 56.424 52.3129 56.648 52.2409 56.76C52.1689 56.872 52.0329 56.928 51.8329 56.928H43.7089C43.7329 57.696 43.8369 58.364 44.0209 58.932C44.2129 59.5 44.4769 59.976 44.8129 60.36C45.1489 60.736 45.5489 61.02 46.0129 61.212C46.4769 61.396 46.9969 61.488 47.5729 61.488C48.1089 61.488 48.5689 61.428 48.9529 61.308C49.3449 61.18 49.6809 61.044 49.9609 60.9C50.2409 60.756 50.4729 60.624 50.6569 60.504C50.8489 60.376 51.0129 60.312 51.1489 60.312C51.3249 60.312 51.4609 60.38 51.5569 60.516L52.1569 61.296ZM56.8206 45.324V63H54.6846V45.324H56.8206ZM68.0605 55.596C68.0605 55.1 67.9885 54.648 67.8445 54.24C67.7085 53.824 67.5045 53.468 67.2325 53.172C66.9685 52.868 66.6445 52.636 66.2605 52.476C65.8765 52.308 65.4405 52.224 64.9525 52.224C63.9285 52.224 63.1165 52.524 62.5165 53.124C61.9245 53.716 61.5565 54.54 61.4125 55.596H68.0605ZM69.7885 61.296C69.5245 61.616 69.2085 61.896 68.8405 62.136C68.4725 62.368 68.0765 62.56 67.6525 62.712C67.2365 62.864 66.8045 62.976 66.3565 63.048C65.9085 63.128 65.4645 63.168 65.0245 63.168C64.1845 63.168 63.4085 63.028 62.6965 62.748C61.9925 62.46 61.3805 62.044 60.8605 61.5C60.3485 60.948 59.9485 60.268 59.6605 59.46C59.3725 58.652 59.2285 57.724 59.2285 56.676C59.2285 55.828 59.3565 55.036 59.6125 54.3C59.8765 53.564 60.2525 52.928 60.7405 52.392C61.2285 51.848 61.8245 51.424 62.5285 51.12C63.2325 50.808 64.0245 50.652 64.9045 50.652C65.6325 50.652 66.3045 50.776 66.9205 51.024C67.5445 51.264 68.0805 51.616 68.5285 52.08C68.9845 52.536 69.3405 53.104 69.5965 53.784C69.8525 54.456 69.9805 55.224 69.9805 56.088C69.9805 56.424 69.9445 56.648 69.8725 56.76C69.8005 56.872 69.6645 56.928 69.4645 56.928H61.3405C61.3645 57.696 61.4685 58.364 61.6525 58.932C61.8445 59.5 62.1085 59.976 62.4445 60.36C62.7805 60.736 63.1805 61.02 63.6445 61.212C64.1085 61.396 64.6285 61.488 65.2045 61.488C65.7405 61.488 66.2005 61.428 66.5845 61.308C66.9765 61.18 67.3125 61.044 67.5925 60.9C67.8725 60.756 68.1045 60.624 68.2885 60.504C68.4805 60.376 68.6445 60.312 68.7805 60.312C68.9565 60.312 69.0925 60.38 69.1885 60.516L69.7885 61.296ZM80.7042 53.004C80.6402 53.092 80.5762 53.16 80.5122 53.208C80.4482 53.256 80.3602 53.28 80.2482 53.28C80.1282 53.28 79.9962 53.232 79.8522 53.136C79.7082 53.032 79.5282 52.92 79.3122 52.8C79.1042 52.68 78.8442 52.572 78.5322 52.476C78.2282 52.372 77.8522 52.32 77.4042 52.32C76.8042 52.32 76.2762 52.428 75.8202 52.644C75.3642 52.852 74.9802 53.156 74.6682 53.556C74.3642 53.956 74.1322 54.44 73.9722 55.008C73.8202 55.576 73.7442 56.212 73.7442 56.916C73.7442 57.652 73.8282 58.308 73.9962 58.884C74.1642 59.452 74.4002 59.932 74.7042 60.324C75.0162 60.708 75.3882 61.004 75.8202 61.212C76.2602 61.412 76.7522 61.512 77.2962 61.512C77.8162 61.512 78.2442 61.452 78.5802 61.332C78.9162 61.204 79.1922 61.064 79.4082 60.912C79.6322 60.76 79.8162 60.624 79.9602 60.504C80.1122 60.376 80.2602 60.312 80.4042 60.312C80.5802 60.312 80.7162 60.38 80.8122 60.516L81.4122 61.296C81.1482 61.624 80.8482 61.904 80.5122 62.136C80.1762 62.368 79.8122 62.564 79.4202 62.724C79.0362 62.876 78.6322 62.988 78.2082 63.06C77.7842 63.132 77.3522 63.168 76.9122 63.168C76.1522 63.168 75.4442 63.028 74.7882 62.748C74.1402 62.468 73.5762 62.064 73.0962 61.536C72.6162 61 72.2402 60.344 71.9682 59.568C71.6962 58.792 71.5602 57.908 71.5602 56.916C71.5602 56.012 71.6842 55.176 71.9322 54.408C72.1882 53.64 72.5562 52.98 73.0362 52.428C73.5242 51.868 74.1202 51.432 74.8242 51.12C75.5362 50.808 76.3522 50.652 77.2722 50.652C78.1282 50.652 78.8802 50.792 79.5282 51.072C80.1842 51.344 80.7642 51.732 81.2682 52.236L80.7042 53.004ZM87.0771 63.192C86.1171 63.192 85.3771 62.924 84.8571 62.388C84.3451 61.852 84.0891 61.08 84.0891 60.072V52.632H82.6251C82.4971 52.632 82.3891 52.596 82.3011 52.524C82.2131 52.444 82.1691 52.324 82.1691 52.164V51.312L84.1611 51.06L84.6531 47.304C84.6771 47.184 84.7291 47.088 84.8091 47.016C84.8971 46.936 85.0091 46.896 85.1451 46.896H86.2251V51.084H89.7411V52.632H86.2251V59.928C86.2251 60.44 86.3491 60.82 86.5971 61.068C86.8451 61.316 87.1651 61.44 87.5571 61.44C87.7811 61.44 87.9731 61.412 88.1331 61.356C88.3011 61.292 88.4451 61.224 88.5651 61.152C88.6851 61.08 88.7851 61.016 88.8651 60.96C88.9531 60.896 89.0291 60.864 89.0931 60.864C89.2051 60.864 89.3051 60.932 89.3931 61.068L90.0171 62.088C89.6491 62.432 89.2051 62.704 88.6851 62.904C88.1651 63.096 87.6291 63.192 87.0771 63.192ZM101.099 63.192C100.139 63.192 99.3993 62.924 98.8793 62.388C98.3673 61.852 98.1113 61.08 98.1113 60.072V52.632H96.6473C96.5193 52.632 96.4113 52.596 96.3233 52.524C96.2353 52.444 96.1913 52.324 96.1913 52.164V51.312L98.1833 51.06L98.6753 47.304C98.6993 47.184 98.7513 47.088 98.8313 47.016C98.9193 46.936 99.0313 46.896 99.1673 46.896H100.247V51.084H103.763V52.632H100.247V59.928C100.247 60.44 100.371 60.82 100.619 61.068C100.867 61.316 101.187 61.44 101.579 61.44C101.803 61.44 101.995 61.412 102.155 61.356C102.323 61.292 102.467 61.224 102.587 61.152C102.707 61.08 102.807 61.016 102.887 60.96C102.975 60.896 103.051 60.864 103.115 60.864C103.227 60.864 103.327 60.932 103.415 61.068L104.039 62.088C103.671 62.432 103.227 62.704 102.707 62.904C102.187 63.096 101.651 63.192 101.099 63.192ZM107.757 52.464C108.277 51.912 108.853 51.472 109.485 51.144C110.117 50.816 110.845 50.652 111.669 50.652C112.333 50.652 112.917 50.764 113.421 50.988C113.933 51.204 114.357 51.516 114.693 51.924C115.037 52.324 115.297 52.808 115.473 53.376C115.649 53.944 115.737 54.572 115.737 55.26V63H113.589V55.26C113.589 54.34 113.377 53.628 112.953 53.124C112.537 52.612 111.901 52.356 111.045 52.356C110.413 52.356 109.821 52.508 109.269 52.812C108.725 53.116 108.221 53.528 107.757 54.048V63H105.609V45.324H107.757V52.464ZM126.768 55.596C126.768 55.1 126.696 54.648 126.552 54.24C126.416 53.824 126.212 53.468 125.94 53.172C125.676 52.868 125.352 52.636 124.968 52.476C124.584 52.308 124.148 52.224 123.66 52.224C122.636 52.224 121.824 52.524 121.224 53.124C120.632 53.716 120.264 54.54 120.12 55.596H126.768ZM128.496 61.296C128.232 61.616 127.916 61.896 127.548 62.136C127.18 62.368 126.784 62.56 126.36 62.712C125.944 62.864 125.512 62.976 125.064 63.048C124.616 63.128 124.172 63.168 123.732 63.168C122.892 63.168 122.116 63.028 121.404 62.748C120.7 62.46 120.088 62.044 119.568 61.5C119.056 60.948 118.656 60.268 118.368 59.46C118.08 58.652 117.936 57.724 117.936 56.676C117.936 55.828 118.064 55.036 118.32 54.3C118.584 53.564 118.96 52.928 119.448 52.392C119.936 51.848 120.532 51.424 121.236 51.12C121.94 50.808 122.732 50.652 123.612 50.652C124.34 50.652 125.012 50.776 125.628 51.024C126.252 51.264 126.788 51.616 127.236 52.08C127.692 52.536 128.048 53.104 128.304 53.784C128.56 54.456 128.688 55.224 128.688 56.088C128.688 56.424 128.652 56.648 128.58 56.76C128.508 56.872 128.372 56.928 128.172 56.928H120.048C120.072 57.696 120.176 58.364 120.36 58.932C120.552 59.5 120.816 59.976 121.152 60.36C121.488 60.736 121.888 61.02 122.352 61.212C122.816 61.396 123.336 61.488 123.912 61.488C124.448 61.488 124.908 61.428 125.292 61.308C125.684 61.18 126.02 61.044 126.3 60.9C126.58 60.756 126.812 60.624 126.996 60.504C127.188 60.376 127.352 60.312 127.488 60.312C127.664 60.312 127.8 60.38 127.896 60.516L128.496 61.296ZM144.652 53.736C144.252 53.2 143.82 52.828 143.356 52.62C142.892 52.404 142.372 52.296 141.796 52.296C140.668 52.296 139.8 52.7 139.192 53.508C138.584 54.316 138.28 55.468 138.28 56.964C138.28 57.756 138.348 58.436 138.484 59.004C138.62 59.564 138.82 60.028 139.084 60.396C139.348 60.756 139.672 61.02 140.056 61.188C140.44 61.356 140.876 61.44 141.364 61.44C142.068 61.44 142.68 61.28 143.2 60.96C143.728 60.64 144.212 60.188 144.652 59.604V53.736ZM146.788 45.324V63H145.516C145.212 63 145.02 62.852 144.94 62.556L144.748 61.08C144.228 61.704 143.636 62.208 142.972 62.592C142.308 62.976 141.54 63.168 140.668 63.168C139.972 63.168 139.34 63.036 138.772 62.772C138.204 62.5 137.72 62.104 137.32 61.584C136.92 61.064 136.612 60.416 136.396 59.64C136.18 58.864 136.072 57.972 136.072 56.964C136.072 56.068 136.192 55.236 136.432 54.468C136.672 53.692 137.016 53.02 137.464 52.452C137.912 51.884 138.46 51.44 139.108 51.12C139.764 50.792 140.5 50.628 141.316 50.628C142.06 50.628 142.696 50.756 143.224 51.012C143.76 51.26 144.236 51.608 144.652 52.056V45.324H146.788ZM157.938 55.596C157.938 55.1 157.866 54.648 157.722 54.24C157.586 53.824 157.382 53.468 157.11 53.172C156.846 52.868 156.522 52.636 156.138 52.476C155.754 52.308 155.318 52.224 154.83 52.224C153.806 52.224 152.994 52.524 152.394 53.124C151.802 53.716 151.434 54.54 151.29 55.596H157.938ZM159.666 61.296C159.402 61.616 159.086 61.896 158.718 62.136C158.35 62.368 157.954 62.56 157.53 62.712C157.114 62.864 156.682 62.976 156.234 63.048C155.786 63.128 155.342 63.168 154.902 63.168C154.062 63.168 153.286 63.028 152.574 62.748C151.87 62.46 151.258 62.044 150.738 61.5C150.226 60.948 149.826 60.268 149.538 59.46C149.25 58.652 149.106 57.724 149.106 56.676C149.106 55.828 149.234 55.036 149.49 54.3C149.754 53.564 150.13 52.928 150.618 52.392C151.106 51.848 151.702 51.424 152.406 51.12C153.11 50.808 153.902 50.652 154.782 50.652C155.51 50.652 156.182 50.776 156.798 51.024C157.422 51.264 157.958 51.616 158.406 52.08C158.862 52.536 159.218 53.104 159.474 53.784C159.73 54.456 159.858 55.224 159.858 56.088C159.858 56.424 159.822 56.648 159.75 56.76C159.678 56.872 159.542 56.928 159.342 56.928H151.218C151.242 57.696 151.346 58.364 151.53 58.932C151.722 59.5 151.986 59.976 152.322 60.36C152.658 60.736 153.058 61.02 153.522 61.212C153.986 61.396 154.506 61.488 155.082 61.488C155.618 61.488 156.078 61.428 156.462 61.308C156.854 61.18 157.19 61.044 157.47 60.9C157.75 60.756 157.982 60.624 158.166 60.504C158.358 60.376 158.522 60.312 158.658 60.312C158.834 60.312 158.97 60.38 159.066 60.516L159.666 61.296ZM162.796 63V52.668L161.452 52.512C161.284 52.472 161.144 52.412 161.032 52.332C160.928 52.244 160.876 52.12 160.876 51.96V51.084H162.796V49.908C162.796 49.212 162.892 48.596 163.084 48.06C163.284 47.516 163.564 47.06 163.924 46.692C164.292 46.316 164.732 46.032 165.244 45.84C165.756 45.648 166.332 45.552 166.972 45.552C167.516 45.552 168.016 45.632 168.472 45.792L168.424 46.86C168.408 47.052 168.3 47.156 168.1 47.172C167.908 47.188 167.648 47.196 167.32 47.196C166.952 47.196 166.616 47.244 166.312 47.34C166.016 47.436 165.76 47.592 165.544 47.808C165.328 48.024 165.16 48.308 165.04 48.66C164.928 49.012 164.872 49.448 164.872 49.968V51.084H168.376V52.632H164.944V63H162.796ZM176.576 57.528C175.592 57.56 174.752 57.64 174.056 57.768C173.368 57.888 172.804 58.048 172.364 58.248C171.932 58.448 171.616 58.684 171.416 58.956C171.224 59.228 171.128 59.532 171.128 59.868C171.128 60.188 171.18 60.464 171.284 60.696C171.388 60.928 171.528 61.12 171.704 61.272C171.888 61.416 172.1 61.524 172.34 61.596C172.588 61.66 172.852 61.692 173.132 61.692C173.508 61.692 173.852 61.656 174.164 61.584C174.476 61.504 174.768 61.392 175.04 61.248C175.32 61.104 175.584 60.932 175.832 60.732C176.088 60.532 176.336 60.304 176.576 60.048V57.528ZM169.676 52.56C170.348 51.912 171.072 51.428 171.848 51.108C172.624 50.788 173.484 50.628 174.428 50.628C175.108 50.628 175.712 50.74 176.24 50.964C176.768 51.188 177.212 51.5 177.572 51.9C177.932 52.3 178.204 52.784 178.388 53.352C178.572 53.92 178.664 54.544 178.664 55.224V63H177.716C177.508 63 177.348 62.968 177.236 62.904C177.124 62.832 177.036 62.696 176.972 62.496L176.732 61.344C176.412 61.64 176.1 61.904 175.796 62.136C175.492 62.36 175.172 62.552 174.836 62.712C174.5 62.864 174.14 62.98 173.756 63.06C173.38 63.148 172.96 63.192 172.496 63.192C172.024 63.192 171.58 63.128 171.164 63C170.748 62.864 170.384 62.664 170.072 62.4C169.768 62.136 169.524 61.804 169.34 61.404C169.164 60.996 169.076 60.516 169.076 59.964C169.076 59.484 169.208 59.024 169.472 58.584C169.736 58.136 170.164 57.74 170.756 57.396C171.348 57.052 172.12 56.772 173.072 56.556C174.024 56.332 175.192 56.204 176.576 56.172V55.224C176.576 54.28 176.372 53.568 175.964 53.088C175.556 52.6 174.96 52.356 174.176 52.356C173.648 52.356 173.204 52.424 172.844 52.56C172.492 52.688 172.184 52.836 171.92 53.004C171.664 53.164 171.44 53.312 171.248 53.448C171.064 53.576 170.88 53.64 170.696 53.64C170.552 53.64 170.428 53.604 170.324 53.532C170.22 53.452 170.132 53.356 170.06 53.244L169.676 52.56ZM191.554 50.844V63H190.282C189.978 63 189.786 62.852 189.706 62.556L189.538 61.248C189.01 61.832 188.418 62.304 187.762 62.664C187.106 63.016 186.354 63.192 185.506 63.192C184.842 63.192 184.254 63.084 183.742 62.868C183.238 62.644 182.814 62.332 182.47 61.932C182.126 61.532 181.866 61.048 181.69 60.48C181.522 59.912 181.438 59.284 181.438 58.596V50.844H183.574V58.596C183.574 59.516 183.782 60.228 184.198 60.732C184.622 61.236 185.266 61.488 186.13 61.488C186.762 61.488 187.35 61.34 187.894 61.044C188.446 60.74 188.954 60.324 189.418 59.796V50.844H191.554ZM196.788 45.324V63H194.652V45.324H196.788ZM203.624 63.192C202.664 63.192 201.924 62.924 201.404 62.388C200.892 61.852 200.636 61.08 200.636 60.072V52.632H199.172C199.044 52.632 198.936 52.596 198.848 52.524C198.76 52.444 198.716 52.324 198.716 52.164V51.312L200.708 51.06L201.2 47.304C201.224 47.184 201.276 47.088 201.356 47.016C201.444 46.936 201.556 46.896 201.692 46.896H202.772V51.084H206.288V52.632H202.772V59.928C202.772 60.44 202.896 60.82 203.144 61.068C203.392 61.316 203.712 61.44 204.104 61.44C204.328 61.44 204.52 61.412 204.68 61.356C204.848 61.292 204.992 61.224 205.112 61.152C205.232 61.08 205.332 61.016 205.412 60.96C205.5 60.896 205.576 60.864 205.64 60.864C205.752 60.864 205.852 60.932 205.94 61.068L206.564 62.088C206.196 62.432 205.752 62.704 205.232 62.904C204.712 63.096 204.176 63.192 203.624 63.192ZM213.915 63V50.844H215.199C215.503 50.844 215.691 50.992 215.763 51.288L215.919 52.536C216.367 51.984 216.871 51.532 217.431 51.18C217.991 50.828 218.639 50.652 219.375 50.652C220.191 50.652 220.851 50.88 221.355 51.336C221.867 51.792 222.235 52.408 222.459 53.184C222.635 52.744 222.859 52.364 223.131 52.044C223.411 51.724 223.723 51.46 224.067 51.252C224.411 51.044 224.775 50.892 225.159 50.796C225.551 50.7 225.947 50.652 226.347 50.652C226.987 50.652 227.555 50.756 228.051 50.964C228.555 51.164 228.979 51.46 229.323 51.852C229.675 52.244 229.943 52.728 230.127 53.304C230.311 53.872 230.403 54.524 230.403 55.26V63H228.255V55.26C228.255 54.308 228.047 53.588 227.631 53.1C227.215 52.604 226.615 52.356 225.831 52.356C225.479 52.356 225.143 52.42 224.823 52.548C224.511 52.668 224.235 52.848 223.995 53.088C223.755 53.328 223.563 53.632 223.419 54C223.283 54.36 223.215 54.78 223.215 55.26V63H221.067V55.26C221.067 54.284 220.871 53.556 220.479 53.076C220.087 52.596 219.515 52.356 218.763 52.356C218.235 52.356 217.747 52.5 217.299 52.788C216.851 53.068 216.439 53.452 216.063 53.94V63H213.915ZM243.285 50.844V63H242.013C241.709 63 241.517 62.852 241.437 62.556L241.269 61.248C240.741 61.832 240.149 62.304 239.493 62.664C238.837 63.016 238.085 63.192 237.237 63.192C236.573 63.192 235.985 63.084 235.473 62.868C234.969 62.644 234.545 62.332 234.201 61.932C233.857 61.532 233.597 61.048 233.421 60.48C233.253 59.912 233.169 59.284 233.169 58.596V50.844H235.305V58.596C235.305 59.516 235.513 60.228 235.929 60.732C236.353 61.236 236.997 61.488 237.861 61.488C238.493 61.488 239.081 61.34 239.625 61.044C240.177 60.74 240.685 60.324 241.149 59.796V50.844H243.285ZM253.392 52.848C253.296 53.024 253.148 53.112 252.948 53.112C252.828 53.112 252.692 53.068 252.54 52.98C252.388 52.892 252.2 52.796 251.976 52.692C251.76 52.58 251.5 52.48 251.196 52.392C250.892 52.296 250.532 52.248 250.116 52.248C249.756 52.248 249.432 52.296 249.144 52.392C248.856 52.48 248.608 52.604 248.4 52.764C248.2 52.924 248.044 53.112 247.932 53.328C247.828 53.536 247.776 53.764 247.776 54.012C247.776 54.324 247.864 54.584 248.04 54.792C248.224 55 248.464 55.18 248.76 55.332C249.056 55.484 249.392 55.62 249.768 55.74C250.144 55.852 250.528 55.976 250.92 56.112C251.32 56.24 251.708 56.384 252.084 56.544C252.46 56.704 252.796 56.904 253.092 57.144C253.388 57.384 253.624 57.68 253.8 58.032C253.984 58.376 254.076 58.792 254.076 59.28C254.076 59.84 253.976 60.36 253.776 60.84C253.576 61.312 253.28 61.724 252.888 62.076C252.496 62.42 252.016 62.692 251.448 62.892C250.88 63.092 250.224 63.192 249.48 63.192C248.632 63.192 247.864 63.056 247.176 62.784C246.488 62.504 245.904 62.148 245.424 61.716L245.928 60.9C245.992 60.796 246.068 60.716 246.156 60.66C246.244 60.604 246.356 60.576 246.492 60.576C246.636 60.576 246.788 60.632 246.948 60.744C247.108 60.856 247.3 60.98 247.524 61.116C247.756 61.252 248.036 61.376 248.364 61.488C248.692 61.6 249.1 61.656 249.588 61.656C250.004 61.656 250.368 61.604 250.68 61.5C250.992 61.388 251.252 61.24 251.46 61.056C251.668 60.872 251.82 60.66 251.916 60.42C252.02 60.18 252.072 59.924 252.072 59.652C252.072 59.316 251.98 59.04 251.796 58.824C251.62 58.6 251.384 58.412 251.088 58.26C250.792 58.1 250.452 57.964 250.068 57.852C249.692 57.732 249.304 57.608 248.904 57.48C248.512 57.352 248.124 57.208 247.74 57.048C247.364 56.88 247.028 56.672 246.732 56.424C246.436 56.176 246.196 55.872 246.012 55.512C245.836 55.144 245.748 54.7 245.748 54.18C245.748 53.716 245.844 53.272 246.036 52.848C246.228 52.416 246.508 52.04 246.876 51.72C247.244 51.392 247.696 51.132 248.232 50.94C248.768 50.748 249.38 50.652 250.068 50.652C250.868 50.652 251.584 50.78 252.216 51.036C252.856 51.284 253.408 51.628 253.872 52.068L253.392 52.848ZM258.591 50.844V63H256.455V50.844H258.591ZM259.047 47.028C259.047 47.236 259.003 47.432 258.915 47.616C258.835 47.792 258.723 47.952 258.579 48.096C258.443 48.232 258.279 48.34 258.087 48.42C257.903 48.5 257.707 48.54 257.499 48.54C257.291 48.54 257.095 48.5 256.911 48.42C256.735 48.34 256.579 48.232 256.443 48.096C256.307 47.952 256.199 47.792 256.119 47.616C256.039 47.432 255.999 47.236 255.999 47.028C255.999 46.82 256.039 46.624 256.119 46.44C256.199 46.248 256.307 46.084 256.443 45.948C256.579 45.804 256.735 45.692 256.911 45.612C257.095 45.532 257.291 45.492 257.499 45.492C257.707 45.492 257.903 45.532 258.087 45.612C258.279 45.692 258.443 45.804 258.579 45.948C258.723 46.084 258.835 46.248 258.915 46.44C259.003 46.624 259.047 46.82 259.047 47.028ZM270.2 53.004C270.136 53.092 270.072 53.16 270.008 53.208C269.944 53.256 269.856 53.28 269.744 53.28C269.624 53.28 269.492 53.232 269.348 53.136C269.204 53.032 269.024 52.92 268.808 52.8C268.6 52.68 268.34 52.572 268.028 52.476C267.724 52.372 267.348 52.32 266.9 52.32C266.3 52.32 265.772 52.428 265.316 52.644C264.86 52.852 264.476 53.156 264.164 53.556C263.86 53.956 263.628 54.44 263.468 55.008C263.316 55.576 263.24 56.212 263.24 56.916C263.24 57.652 263.324 58.308 263.492 58.884C263.66 59.452 263.896 59.932 264.2 60.324C264.512 60.708 264.884 61.004 265.316 61.212C265.756 61.412 266.248 61.512 266.792 61.512C267.312 61.512 267.74 61.452 268.076 61.332C268.412 61.204 268.688 61.064 268.904 60.912C269.128 60.76 269.312 60.624 269.456 60.504C269.608 60.376 269.756 60.312 269.9 60.312C270.076 60.312 270.212 60.38 270.308 60.516L270.908 61.296C270.644 61.624 270.344 61.904 270.008 62.136C269.672 62.368 269.308 62.564 268.916 62.724C268.532 62.876 268.128 62.988 267.704 63.06C267.28 63.132 266.848 63.168 266.408 63.168C265.648 63.168 264.94 63.028 264.284 62.748C263.636 62.468 263.072 62.064 262.592 61.536C262.112 61 261.736 60.344 261.464 59.568C261.192 58.792 261.056 57.908 261.056 56.916C261.056 56.012 261.18 55.176 261.428 54.408C261.684 53.64 262.052 52.98 262.532 52.428C263.02 51.868 263.616 51.432 264.32 51.12C265.032 50.808 265.848 50.652 266.768 50.652C267.624 50.652 268.376 50.792 269.024 51.072C269.68 51.344 270.26 51.732 270.764 52.236L270.2 53.004ZM285.702 52.848C285.606 53.024 285.458 53.112 285.258 53.112C285.138 53.112 285.002 53.068 284.85 52.98C284.698 52.892 284.51 52.796 284.286 52.692C284.07 52.58 283.81 52.48 283.506 52.392C283.202 52.296 282.842 52.248 282.426 52.248C282.066 52.248 281.742 52.296 281.454 52.392C281.166 52.48 280.918 52.604 280.71 52.764C280.51 52.924 280.354 53.112 280.242 53.328C280.138 53.536 280.086 53.764 280.086 54.012C280.086 54.324 280.174 54.584 280.35 54.792C280.534 55 280.774 55.18 281.07 55.332C281.366 55.484 281.702 55.62 282.078 55.74C282.454 55.852 282.838 55.976 283.23 56.112C283.63 56.24 284.018 56.384 284.394 56.544C284.77 56.704 285.106 56.904 285.402 57.144C285.698 57.384 285.934 57.68 286.11 58.032C286.294 58.376 286.386 58.792 286.386 59.28C286.386 59.84 286.286 60.36 286.086 60.84C285.886 61.312 285.59 61.724 285.198 62.076C284.806 62.42 284.326 62.692 283.758 62.892C283.19 63.092 282.534 63.192 281.79 63.192C280.942 63.192 280.174 63.056 279.486 62.784C278.798 62.504 278.214 62.148 277.734 61.716L278.238 60.9C278.302 60.796 278.378 60.716 278.466 60.66C278.554 60.604 278.666 60.576 278.802 60.576C278.946 60.576 279.098 60.632 279.258 60.744C279.418 60.856 279.61 60.98 279.834 61.116C280.066 61.252 280.346 61.376 280.674 61.488C281.002 61.6 281.41 61.656 281.898 61.656C282.314 61.656 282.678 61.604 282.99 61.5C283.302 61.388 283.562 61.24 283.77 61.056C283.978 60.872 284.13 60.66 284.226 60.42C284.33 60.18 284.382 59.924 284.382 59.652C284.382 59.316 284.29 59.04 284.106 58.824C283.93 58.6 283.694 58.412 283.398 58.26C283.102 58.1 282.762 57.964 282.378 57.852C282.002 57.732 281.614 57.608 281.214 57.48C280.822 57.352 280.434 57.208 280.05 57.048C279.674 56.88 279.338 56.672 279.042 56.424C278.746 56.176 278.506 55.872 278.322 55.512C278.146 55.144 278.058 54.7 278.058 54.18C278.058 53.716 278.154 53.272 278.346 52.848C278.538 52.416 278.818 52.04 279.186 51.72C279.554 51.392 280.006 51.132 280.542 50.94C281.078 50.748 281.69 50.652 282.378 50.652C283.178 50.652 283.894 50.78 284.526 51.036C285.166 51.284 285.718 51.628 286.182 52.068L285.702 52.848ZM293.769 50.652C294.657 50.652 295.457 50.8 296.169 51.096C296.881 51.392 297.489 51.812 297.993 52.356C298.497 52.9 298.881 53.56 299.145 54.336C299.417 55.104 299.553 55.964 299.553 56.916C299.553 57.876 299.417 58.74 299.145 59.508C298.881 60.276 298.497 60.932 297.993 61.476C297.489 62.02 296.881 62.44 296.169 62.736C295.457 63.024 294.657 63.168 293.769 63.168C292.873 63.168 292.065 63.024 291.345 62.736C290.633 62.44 290.025 62.02 289.521 61.476C289.017 60.932 288.629 60.276 288.357 59.508C288.093 58.74 287.961 57.876 287.961 56.916C287.961 55.964 288.093 55.104 288.357 54.336C288.629 53.56 289.017 52.9 289.521 52.356C290.025 51.812 290.633 51.392 291.345 51.096C292.065 50.8 292.873 50.652 293.769 50.652ZM293.769 61.5C294.969 61.5 295.865 61.1 296.457 60.3C297.049 59.492 297.345 58.368 297.345 56.928C297.345 55.48 297.049 54.352 296.457 53.544C295.865 52.736 294.969 52.332 293.769 52.332C293.161 52.332 292.629 52.436 292.173 52.644C291.725 52.852 291.349 53.152 291.045 53.544C290.749 53.936 290.525 54.42 290.373 54.996C290.229 55.564 290.157 56.208 290.157 56.928C290.157 58.368 290.453 59.492 291.045 60.3C291.645 61.1 292.553 61.5 293.769 61.5ZM311.898 50.844V63H310.626C310.322 63 310.13 62.852 310.05 62.556L309.882 61.248C309.354 61.832 308.762 62.304 308.106 62.664C307.45 63.016 306.698 63.192 305.85 63.192C305.186 63.192 304.598 63.084 304.086 62.868C303.582 62.644 303.158 62.332 302.814 61.932C302.47 61.532 302.21 61.048 302.034 60.48C301.866 59.912 301.782 59.284 301.782 58.596V50.844H303.918V58.596C303.918 59.516 304.126 60.228 304.542 60.732C304.966 61.236 305.61 61.488 306.474 61.488C307.106 61.488 307.694 61.34 308.238 61.044C308.79 60.74 309.298 60.324 309.762 59.796V50.844H311.898ZM316.953 53.28C317.337 52.448 317.809 51.8 318.369 51.336C318.929 50.864 319.613 50.628 320.421 50.628C320.677 50.628 320.921 50.656 321.153 50.712C321.393 50.768 321.605 50.856 321.789 50.976L321.633 52.572C321.585 52.772 321.465 52.872 321.273 52.872C321.161 52.872 320.997 52.848 320.781 52.8C320.565 52.752 320.321 52.728 320.049 52.728C319.665 52.728 319.321 52.784 319.017 52.896C318.721 53.008 318.453 53.176 318.213 53.4C317.981 53.616 317.769 53.888 317.577 54.216C317.393 54.536 317.225 54.904 317.073 55.32V63H314.925V50.844H316.149C316.381 50.844 316.541 50.888 316.629 50.976C316.717 51.064 316.777 51.216 316.809 51.432L316.953 53.28ZM331.274 53.004C331.21 53.092 331.146 53.16 331.082 53.208C331.018 53.256 330.93 53.28 330.818 53.28C330.698 53.28 330.566 53.232 330.422 53.136C330.278 53.032 330.098 52.92 329.882 52.8C329.674 52.68 329.414 52.572 329.102 52.476C328.798 52.372 328.422 52.32 327.974 52.32C327.374 52.32 326.846 52.428 326.39 52.644C325.934 52.852 325.55 53.156 325.238 53.556C324.934 53.956 324.702 54.44 324.542 55.008C324.39 55.576 324.314 56.212 324.314 56.916C324.314 57.652 324.398 58.308 324.566 58.884C324.734 59.452 324.97 59.932 325.274 60.324C325.586 60.708 325.958 61.004 326.39 61.212C326.83 61.412 327.322 61.512 327.866 61.512C328.386 61.512 328.814 61.452 329.15 61.332C329.486 61.204 329.762 61.064 329.978 60.912C330.202 60.76 330.386 60.624 330.53 60.504C330.682 60.376 330.83 60.312 330.974 60.312C331.15 60.312 331.286 60.38 331.382 60.516L331.982 61.296C331.718 61.624 331.418 61.904 331.082 62.136C330.746 62.368 330.382 62.564 329.99 62.724C329.606 62.876 329.202 62.988 328.778 63.06C328.354 63.132 327.922 63.168 327.482 63.168C326.722 63.168 326.014 63.028 325.358 62.748C324.71 62.468 324.146 62.064 323.666 61.536C323.186 61 322.81 60.344 322.538 59.568C322.266 58.792 322.13 57.908 322.13 56.916C322.13 56.012 322.254 55.176 322.502 54.408C322.758 53.64 323.126 52.98 323.606 52.428C324.094 51.868 324.69 51.432 325.394 51.12C326.106 50.808 326.922 50.652 327.842 50.652C328.698 50.652 329.45 50.792 330.098 51.072C330.754 51.344 331.334 51.732 331.838 52.236L331.274 53.004ZM341.841 55.596C341.841 55.1 341.769 54.648 341.625 54.24C341.489 53.824 341.285 53.468 341.013 53.172C340.749 52.868 340.425 52.636 340.041 52.476C339.657 52.308 339.221 52.224 338.733 52.224C337.709 52.224 336.897 52.524 336.297 53.124C335.705 53.716 335.337 54.54 335.193 55.596H341.841ZM343.569 61.296C343.305 61.616 342.989 61.896 342.621 62.136C342.253 62.368 341.857 62.56 341.433 62.712C341.017 62.864 340.585 62.976 340.137 63.048C339.689 63.128 339.245 63.168 338.805 63.168C337.965 63.168 337.189 63.028 336.477 62.748C335.773 62.46 335.161 62.044 334.641 61.5C334.129 60.948 333.729 60.268 333.441 59.46C333.153 58.652 333.009 57.724 333.009 56.676C333.009 55.828 333.137 55.036 333.393 54.3C333.657 53.564 334.033 52.928 334.521 52.392C335.009 51.848 335.605 51.424 336.309 51.12C337.013 50.808 337.805 50.652 338.685 50.652C339.413 50.652 340.085 50.776 340.701 51.024C341.325 51.264 341.861 51.616 342.309 52.08C342.765 52.536 343.121 53.104 343.377 53.784C343.633 54.456 343.761 55.224 343.761 56.088C343.761 56.424 343.725 56.648 343.653 56.76C343.581 56.872 343.445 56.928 343.245 56.928H335.121C335.145 57.696 335.249 58.364 335.433 58.932C335.625 59.5 335.889 59.976 336.225 60.36C336.561 60.736 336.961 61.02 337.425 61.212C337.889 61.396 338.409 61.488 338.985 61.488C339.521 61.488 339.981 61.428 340.365 61.308C340.757 61.18 341.093 61.044 341.373 60.9C341.653 60.756 341.885 60.624 342.069 60.504C342.261 60.376 342.425 60.312 342.561 60.312C342.737 60.312 342.873 60.38 342.969 60.516L343.569 61.296ZM345.832 61.68C345.832 61.472 345.868 61.276 345.94 61.092C346.02 60.908 346.124 60.748 346.252 60.612C346.388 60.476 346.548 60.368 346.732 60.288C346.916 60.208 347.112 60.168 347.32 60.168C347.528 60.168 347.724 60.208 347.908 60.288C348.092 60.368 348.252 60.476 348.388 60.612C348.524 60.748 348.632 60.908 348.712 61.092C348.792 61.276 348.832 61.472 348.832 61.68C348.832 61.896 348.792 62.096 348.712 62.28C348.632 62.456 348.524 62.612 348.388 62.748C348.252 62.884 348.092 62.988 347.908 63.06C347.724 63.14 347.528 63.18 347.32 63.18C347.112 63.18 346.916 63.14 346.732 63.06C346.548 62.988 346.388 62.884 346.252 62.748C346.124 62.612 346.02 62.456 345.94 62.28C345.868 62.096 345.832 61.896 345.832 61.68ZM345.832 52.68C345.832 52.472 345.868 52.276 345.94 52.092C346.02 51.908 346.124 51.748 346.252 51.612C346.388 51.476 346.548 51.368 346.732 51.288C346.916 51.208 347.112 51.168 347.32 51.168C347.528 51.168 347.724 51.208 347.908 51.288C348.092 51.368 348.252 51.476 348.388 51.612C348.524 51.748 348.632 51.908 348.712 52.092C348.792 52.276 348.832 52.472 348.832 52.68C348.832 52.896 348.792 53.096 348.712 53.28C348.632 53.456 348.524 53.612 348.388 53.748C348.252 53.884 348.092 53.992 347.908 54.072C347.724 54.144 347.528 54.18 347.32 54.18C347.112 54.18 346.916 54.144 346.732 54.072C346.548 53.992 346.388 53.884 346.252 53.748C346.124 53.612 346.02 53.456 345.94 53.28C345.868 53.096 345.832 52.896 345.832 52.68Z" fill="#FAFAFA"/>
<rect x="0.5" y="0.5" width="796" height="107" rx="7.5" stroke="#6E7291"/>
</svg>
