<svg width="32" height="32" viewBox="0 0 32 32" fill="none" xmlns="http://www.w3.org/2000/svg">
<path d="M29 16H24V12C24 9.79375 25.7938 8 28 8H28.5C29.3312 8 30 7.33125 30 6.5V3.5C30 2.66875 29.3312 2 28.5 2H28C22.475 2 18 6.475 18 12V27C18 28.6562 19.3438 30 21 30H29C30.6562 30 32 28.6562 32 27V19C32 17.3438 30.6562 16 29 16ZM11 16H6V12C6 9.79375 7.79375 8 10 8H10.5C11.3313 8 12 7.33125 12 6.5V3.5C12 2.66875 11.3313 2 10.5 2H10C4.475 2 0 6.475 0 12V27C0 28.6562 1.34375 30 3 30H11C12.6562 30 14 28.6562 14 27V19C14 17.3438 12.6562 16 11 16Z" fill="#FAFAFA"/>
</svg>
