<svg width="48" height="48" viewBox="0 0 48 48" fill="none" xmlns="http://www.w3.org/2000/svg">
<path d="M31.8446 22.8C31.8446 24.264 30.6103 25.464 29.0469 25.464C27.5109 25.464 26.2491 24.264 26.2491 22.8C26.2491 21.336 27.4834 20.136 29.0469 20.136C30.6103 20.136 31.8446 21.336 31.8446 22.8ZM19.0354 20.136C17.472 20.136 16.2377 21.336 16.2377 22.8C16.2377 24.264 17.4994 25.464 19.0354 25.464C20.5989 25.464 21.8331 24.264 21.8331 22.8C21.8606 21.336 20.5989 20.136 19.0354 20.136ZM48 4.944V48C41.0899 42.6568 43.2999 44.4255 35.2731 37.896L36.7269 42.336H5.62286C2.52343 42.336 0 40.128 0 37.392V4.944C0 2.208 2.52343 0 5.62286 0H42.3771C45.4766 0 48 2.208 48 4.944ZM40.1829 27.696C40.1829 19.968 36.2331 13.704 36.2331 13.704C32.2834 11.112 28.5257 11.184 28.5257 11.184L28.1417 11.568C32.8046 12.816 34.9714 14.616 34.9714 14.616C28.456 11.4914 20.8024 11.4908 14.4823 13.92C13.4674 14.328 12.864 14.616 12.864 14.616C12.864 14.616 15.1406 12.72 20.0777 11.472L19.8034 11.184C19.8034 11.184 16.0457 11.112 12.096 13.704C12.096 13.704 8.14629 19.968 8.14629 27.696C8.14629 27.696 10.4503 31.176 16.512 31.344C16.512 31.344 17.5269 30.264 18.3497 29.352C14.8663 28.44 13.5497 26.52 13.5497 26.52C13.9532 26.7671 14.6186 27.0875 14.6743 27.12C19.3039 29.3886 25.8801 30.1318 31.7897 27.96C32.7497 27.648 33.8194 27.192 34.944 26.544C34.944 26.544 33.5726 28.512 29.9794 29.4C30.8023 30.312 31.7897 31.344 31.7897 31.344C37.8514 31.176 40.1829 27.696 40.1829 27.696Z" fill="#FAFAFA"/>
</svg>
