<svg width="48" height="48" viewBox="0 0 48 48" fill="none" xmlns="http://www.w3.org/2000/svg">
<path d="M16.0548 37.2563C16.0548 37.4438 15.8323 37.5938 15.5516 37.5938C15.2323 37.6219 15.0097 37.4719 15.0097 37.2563C15.0097 37.0688 15.2323 36.9188 15.5129 36.9188C15.8032 36.8906 16.0548 37.0406 16.0548 37.2563ZM13.0452 36.8344C12.9774 37.0219 13.171 37.2375 13.4613 37.2938C13.7129 37.3875 14.0032 37.2938 14.0613 37.1063C14.1194 36.9188 13.9355 36.7031 13.6452 36.6188C13.3935 36.5531 13.1129 36.6469 13.0452 36.8344ZM17.3226 36.675C17.0419 36.7406 16.8484 36.9188 16.8774 37.1344C16.9065 37.3219 17.1581 37.4438 17.4484 37.3781C17.729 37.3125 17.9226 37.1344 17.8935 36.9469C17.8645 36.7688 17.6032 36.6469 17.3226 36.675ZM23.6903 0.75C10.2677 0.75 0 10.6219 0 23.625C0 34.0219 6.75484 42.9188 16.4032 46.05C17.6419 46.2656 18.0774 45.525 18.0774 44.9156C18.0774 44.3344 18.0484 41.1281 18.0484 39.1594C18.0484 39.1594 11.2742 40.5656 9.85161 36.3656C9.85161 36.3656 8.74839 33.6375 7.16129 32.9344C7.16129 32.9344 4.94516 31.4625 7.31613 31.4906C7.31613 31.4906 9.72581 31.6781 11.0516 33.9094C13.171 37.5281 16.7226 36.4875 18.1065 35.8688C18.329 34.3688 18.9581 33.3281 19.6548 32.7094C14.2452 32.1281 8.7871 31.3688 8.7871 22.35C8.7871 19.7719 9.52258 18.4781 11.071 16.8281C10.8194 16.2188 9.99677 13.7063 11.3226 10.4625C13.3452 9.85313 18 12.9938 18 12.9938C19.9355 12.4688 22.0161 12.1969 24.0774 12.1969C26.1387 12.1969 28.2194 12.4688 30.1548 12.9938C30.1548 12.9938 34.8097 9.84375 36.8323 10.4625C38.1581 13.7156 37.3355 16.2188 37.0839 16.8281C38.6323 18.4875 39.5806 19.7813 39.5806 22.35C39.5806 31.3969 33.8806 32.1188 28.471 32.7094C29.3613 33.45 30.1161 34.8563 30.1161 37.0594C30.1161 40.2188 30.0871 44.1281 30.0871 44.8969C30.0871 45.5063 30.5323 46.2469 31.7613 46.0313C41.4387 42.9188 48 34.0219 48 23.625C48 10.6219 37.1129 0.75 23.6903 0.75ZM9.40645 33.0844C9.28064 33.1781 9.30968 33.3938 9.47419 33.5719C9.62903 33.7219 9.85161 33.7875 9.97742 33.6656C10.1032 33.5719 10.0742 33.3563 9.90968 33.1781C9.75484 33.0281 9.53226 32.9625 9.40645 33.0844ZM8.36129 32.325C8.29355 32.4469 8.39032 32.5969 8.58387 32.6906C8.73871 32.7844 8.93226 32.7563 9 32.625C9.06774 32.5031 8.97097 32.3531 8.77742 32.2594C8.58387 32.2031 8.42903 32.2313 8.36129 32.325ZM11.4968 35.6625C11.3419 35.7844 11.4 36.0656 11.6226 36.2438C11.8452 36.4594 12.1258 36.4875 12.2516 36.3375C12.3774 36.2156 12.3194 35.9344 12.1258 35.7563C11.9129 35.5406 11.6226 35.5125 11.4968 35.6625ZM10.3935 34.2844C10.2387 34.3781 10.2387 34.6219 10.3935 34.8375C10.5484 35.0531 10.8097 35.1469 10.9355 35.0531C11.0903 34.9313 11.0903 34.6875 10.9355 34.4719C10.8 34.2563 10.5484 34.1625 10.3935 34.2844Z" fill="#FAFAFA"/>
</svg>
