<svg width="36" height="36" viewBox="0 0 36 36" fill="none" xmlns="http://www.w3.org/2000/svg">
<path d="M30.9586 14.3086C29.9039 14.3086 28.9758 14.7445 28.2938 15.4266C25.7836 13.6899 22.4016 12.5719 18.6539 12.4524L20.6016 3.67736L26.8031 5.06954C26.8031 6.58829 28.0406 7.82579 29.5594 7.82579C31.1063 7.82579 32.3508 6.55314 32.3508 5.03439C32.3508 3.51564 31.1133 2.24298 29.5594 2.24298C28.4766 2.24298 27.5414 2.89689 27.0773 3.78986L20.2289 2.27111C19.8844 2.1797 19.5469 2.42579 19.4555 2.77032L17.318 12.4453C13.5984 12.6 10.2516 13.718 7.73438 15.4547C7.05234 14.7445 6.08906 14.3086 5.03437 14.3086C1.125 14.3086 -0.154688 19.5539 3.42422 21.3469C3.29766 21.9024 3.24141 22.493 3.24141 23.0836C3.24141 28.9758 9.87891 33.75 18.0281 33.75C26.2125 33.75 32.85 28.9758 32.85 23.0836C32.85 22.493 32.7867 21.8742 32.632 21.3188C36.1406 19.5188 34.8469 14.3086 30.9586 14.3086ZM9.09844 21.7195C9.09844 20.1727 10.3359 18.9281 11.8898 18.9281C13.4086 18.9281 14.6461 20.1656 14.6461 21.7195C14.6461 23.2383 13.4086 24.4758 11.8898 24.4758C10.343 24.4828 9.09844 23.2383 9.09844 21.7195ZM24.1664 28.2938C21.607 30.8531 14.3859 30.8531 11.8266 28.2938C11.5453 28.0477 11.5453 27.6117 11.8266 27.3305C12.0727 27.0844 12.5086 27.0844 12.7547 27.3305C14.7094 29.3344 21.1922 29.3695 23.2313 27.3305C23.4773 27.0844 23.9133 27.0844 24.1594 27.3305C24.4477 27.6117 24.4477 28.0477 24.1664 28.2938ZM24.1102 24.4828C22.5914 24.4828 21.3539 23.2453 21.3539 21.7266C21.3539 20.1797 22.5914 18.9352 24.1102 18.9352C25.657 18.9352 26.9016 20.1727 26.9016 21.7266C26.8945 23.2383 25.657 24.4828 24.1102 24.4828Z" fill="#FAFAFA"/>
</svg>
