<svg width="48" height="40" viewBox="0 0 48 40" fill="none" xmlns="http://www.w3.org/2000/svg">
<path d="M43.0659 10.2234C43.0964 10.6498 43.0964 11.0762 43.0964 11.5026C43.0964 24.5076 33.198 39.4924 15.1066 39.4924C9.53297 39.4924 4.35534 37.8781 0 35.0762C0.791906 35.1675 1.55325 35.198 2.37562 35.198C6.97453 35.198 11.2081 33.6447 14.5888 30.995C10.2639 30.9036 6.63956 28.0711 5.39081 24.1726C6 24.2639 6.60909 24.3249 7.24875 24.3249C8.13197 24.3249 9.01528 24.203 9.83756 23.9899C5.32997 23.0761 1.94916 19.1168 1.94916 14.3351V14.2133C3.25875 14.9443 4.78172 15.4011 6.39581 15.4619C3.74606 13.6954 2.01009 10.6802 2.01009 7.26903C2.01009 5.44166 2.49731 3.76653 3.35016 2.3046C8.19281 8.27413 15.472 12.1725 23.6344 12.599C23.4821 11.868 23.3907 11.1067 23.3907 10.3453C23.3907 4.92388 27.7765 0.50769 33.2283 0.50769C36.0607 0.50769 38.6191 1.6955 40.4161 3.61428C42.6394 3.18791 44.7713 2.36553 46.6597 1.23866C45.9287 3.52297 44.3754 5.44175 42.3349 6.65994C44.3146 6.44685 46.2334 5.8985 47.9998 5.13716C46.6599 7.08631 44.9847 8.82228 43.0659 10.2234Z" fill="#FAFAFA"/>
</svg>
