<?xml version="1.0" encoding="utf-8"?>
<!-- Generator: Adobe Illustrator 16.0.0, SVG Export Plug-In . SVG Version: 6.00 Build 0)  -->
<!DOCTYPE svg PUBLIC "-//W3C//DTD SVG 1.1//EN" "http://www.w3.org/Graphics/SVG/1.1/DTD/svg11.dtd">
<svg version="1.1" id="Capa_1" xmlns="http://www.w3.org/2000/svg" xmlns:xlink="http://www.w3.org/1999/xlink" x="0px" y="0px"
	 width="32px" height="32px" viewBox="0 0 32 32" enable-background="new 0 0 32 32" xml:space="preserve">
<path id="stroke" fill-rule="evenodd" clip-rule="evenodd" fill="none" stroke="#000000" stroke-linecap="round" stroke-miterlimit="10" d="
	M27.5,7.5c0,0,0,1,1,1s1-1,1-1c0-1-2-1-2-2s1-1,1-1s1,0,1,1 M21.5,7c0,0,0,1.5,1.5,1.5S24.5,7,24.5,7V4c0,0,0-1.5-1.5-1.5
	S21.5,4,21.5,4V7z M26.5,2.5v1 M18,2.5c-0.828,0-1.5,0.671-1.5,1.5s0.672,1.5,1.5,1.5s1.5-0.671,1.5-1.5S18.828,2.5,18,2.5z
	 M22.5,19.5c0-5.522-4.478-10-10-10s-10,4.478-10,10s4.478,10,10,10S22.5,25.022,22.5,19.5z M14.5,19.5c0-1.104-0.896-2-2-2
	s-2,0.896-2,2s0.896,2,2,2S14.5,20.604,14.5,19.5z M17.5,19.5c0-2.756-2.237-5-5-5s-5,2.244-5,5s2.237,5,5,5S17.5,22.256,17.5,19.5z
	 M22.5,19.5c0-5.522-4.478-10-10-10s-10,4.478-10,10s4.478,10,10,10S22.5,25.022,22.5,19.5z M14.5,19.5c0-1.104-0.896-2-2-2
	s-2,0.896-2,2s0.896,2,2,2S14.5,20.604,14.5,19.5z M17.5,19.5c0-2.756-2.237-5-5-5s-5,2.244-5,5s2.237,5,5,5S17.5,22.256,17.5,19.5z
	 M22.5,19.5c0-5.522-4.478-10-10-10s-10,4.478-10,10s4.478,10,10,10S22.5,25.022,22.5,19.5z M14.5,19.5c0-1.104-0.896-2-2-2
	s-2,0.896-2,2s0.896,2,2,2S14.5,20.604,14.5,19.5z M17.5,19.5c0-2.756-2.237-5-5-5s-5,2.244-5,5s2.237,5,5,5S17.5,22.256,17.5,19.5z
	 M17.5,8.5c0,0,2-1,2-4V4"/>
</svg>
