<?xml version="1.0" encoding="utf-8"?>
<!-- Generator: Adobe Illustrator 16.0.0, SVG Export Plug-In . SVG Version: 6.00 Build 0)  -->
<!DOCTYPE svg PUBLIC "-//W3C//DTD SVG 1.1//EN" "http://www.w3.org/Graphics/SVG/1.1/DTD/svg11.dtd">
<svg version="1.1" id="Capa_1" xmlns="http://www.w3.org/2000/svg" xmlns:xlink="http://www.w3.org/1999/xlink" x="0px" y="0px"
	 width="32px" height="32px" viewBox="0 0 32 32" enable-background="new 0 0 32 32" xml:space="preserve">
<path id="stroke_2_" fill="none" stroke="#000000" stroke-linecap="round" stroke-miterlimit="10" d="M13.978,28.197
	c-3.632,3.632-8.717-1.452-8.717-1.452s-5.085-5.085-1.453-8.718c2.179-2.178,3.995-1.089,5.448-2.542
	c1.09-1.09,0.364-1.817,2.542-3.996c2.906-2.905,6.539,0.727,7.264,1.453c0.727,0.726,4.359,4.358,1.453,7.265
	c-2.179,2.179-2.905,1.451-3.996,2.542C15.067,24.202,16.157,26.019,13.978,28.197z M22.694,6.406L17.61,11.49 M20.516,14.396
	l5.085-5.084 M29.233,5.679c0.307-0.534,0.401-1.051,0-1.453L27.78,2.773c-0.401-0.401-0.932-0.34-1.453,0l-3.633,2.18
	c-0.401,0.401-0.401,1.052,0,1.453l2.906,2.905c0.401,0.401,1.052,0.401,1.453,0L29.233,5.679z M15.43,20.934
	c1.204-1.203,1.204-3.156,0-4.358c-1.204-1.203-3.156-1.203-4.359,0c-1.203,1.202-1.203,3.155,0,4.358
	C12.275,22.136,14.227,22.136,15.43,20.934z M7.077,19.844l5.448,5.448 M22.694,9.311l1.453,1.453 M21.242,10.764l1.452,1.453"/>
</svg>
