<?xml version="1.0" encoding="utf-8"?>
<!-- Generator: Adobe Illustrator 16.0.0, SVG Export Plug-In . SVG Version: 6.00 Build 0)  -->
<!DOCTYPE svg PUBLIC "-//W3C//DTD SVG 1.1//EN" "http://www.w3.org/Graphics/SVG/1.1/DTD/svg11.dtd">
<svg version="1.1" id="Capa_1" xmlns="http://www.w3.org/2000/svg" xmlns:xlink="http://www.w3.org/1999/xlink" x="0px" y="0px"
	 width="32px" height="32px" viewBox="0 0 32 32" enable-background="new 0 0 32 32" xml:space="preserve">
<path id="stroke" fill="none" stroke="#000000" stroke-linecap="round" stroke-linejoin="round" stroke-miterlimit="10" d="M16,21.5
	c5.785,0,10.572-5,12.5-5c1,0,1,1,1,1c0,8-9.5,10-13.5,10s-13.5-2-13.5-10c0,0,0-1,1-1C5.428,16.5,10.214,21.5,16,21.5z
	 M2.719,18.518C4.838,18.848,10.419,23.5,16,23.5 M16,23.5c5.418,0,10.838-4.385,13.088-4.941 M16,21.5 M16,21.5 M24.5,18.5v-1
	c0-4-3.223-11-5.333-11c-2.667,0-2.667,2-3.167,2s-0.5-2-3.167-2c-2.111,0-5.333,7-5.333,11v1 M14.94,13.542l-2.745,0.223
	l2.09,1.793l-0.637,2.679L16,16.803l2.352,1.434l-0.637-2.679l2.09-1.793l-2.745-0.223L16,11L14.94,13.542z"/>
</svg>
