<?xml version="1.0" encoding="utf-8"?>
<!-- Generator: Adobe Illustrator 16.0.0, SVG Export Plug-In . SVG Version: 6.00 Build 0)  -->
<!DOCTYPE svg PUBLIC "-//W3C//DTD SVG 1.1//EN" "http://www.w3.org/Graphics/SVG/1.1/DTD/svg11.dtd">
<svg version="1.1" id="Capa_1" xmlns="http://www.w3.org/2000/svg" xmlns:xlink="http://www.w3.org/1999/xlink" x="0px" y="0px"
	 width="32px" height="32px" viewBox="0 0 32 32" enable-background="new 0 0 32 32" xml:space="preserve">
<path id="stroke" fill="none" stroke="#000000" stroke-linecap="round" stroke-miterlimit="10" d="M15.5,27.5
	c-6.627,0-12-5.372-12-12c0-6.627,5.373-12,12-12c6.628,0,12,5.373,12,12C27.5,22.128,22.128,27.5,15.5,27.5z M11.975,4.12
	C10.889,5.524,8.5,9.318,8.5,15.5c0,6.414,2.571,10.257,3.591,11.528 M18.886,27.056C19.89,25.813,22.5,21.962,22.5,15.5
	c0-6.266-2.453-10.078-3.518-11.436 M4.095,19.007C5.479,20.083,9.281,22.5,15.5,22.5c6.379,0,10.215-2.543,11.508-3.574
	 M26.915,12.001C25.539,10.929,21.734,8.5,15.5,8.5S5.46,10.929,4.084,12.001 M15.5,3.5v24 M3.5,15.5h24 M4.5,3.5h2 M5.5,2.5v2
	 M26.5,26.5h2 M27.5,25.5v2 M2.5,27.5h4 M4.5,25.5v4 M25.5,4.5h4 M27.5,2.5v4"/>
</svg>
