<?xml version="1.0" encoding="utf-8"?>
<!-- Generator: Adobe Illustrator 16.0.0, SVG Export Plug-In . SVG Version: 6.00 Build 0)  -->
<!DOCTYPE svg PUBLIC "-//W3C//DTD SVG 1.1//EN" "http://www.w3.org/Graphics/SVG/1.1/DTD/svg11.dtd">
<svg version="1.1" id="Capa_1" xmlns="http://www.w3.org/2000/svg" xmlns:xlink="http://www.w3.org/1999/xlink" x="0px" y="0px"
	 width="32px" height="32px" viewBox="0 0 32 32" enable-background="new 0 0 32 32" xml:space="preserve">
<path fill="none" stroke="#000000" stroke-miterlimit="10" d="M8.052,26.094l-0.998,0.998c0,0-1.073,1.074-2.146,0.001
	c0,0-1.074-1.074,0-2.148c0.151-0.151,0.494-0.495,0.986-0.987 M21.721,12.425l-9.303,9.304 M25.928,8.22l1.164-1.165
	c0,0,1.073-1.073,0-2.146c-1.073-1.074-2.146,0-2.146,0s-0.394,0.393-1.07,1.069 M19.572,10.281
	c-2.847,2.846-6.338,6.336-9.209,9.208 M16.358,25.661L6.339,15.642c0,0-1.073-1.074-2.146,0c-1.075,1.074,0,2.147,0,2.147
	s8.586,8.587,10.017,10.02c1.074,1.073,2.148-0.001,2.148-0.001C17.431,26.734,16.358,25.661,16.358,25.661z M12.779,26.376
	L5.624,19.22c0,0-1.073-1.073-2.146,0s0,2.146,0,2.146s5.724,5.726,7.155,7.156c1.073,1.075,2.147,0.001,2.147,0.001
	C13.853,27.45,12.779,26.376,12.779,26.376z M27.808,16.358c0,0,1.073-1.073,0-2.147C26.376,12.78,17.789,4.193,17.789,4.193
	s-1.075-1.074-2.148-0.001c-1.073,1.074,0.001,2.147,0.001,2.147l10.019,10.019C25.661,16.358,26.734,17.431,27.808,16.358z
	 M28.522,12.78c0,0,1.074-1.074,0-2.148c-1.431-1.431-7.155-7.156-7.155-7.156s-1.073-1.073-2.147,0c-1.073,1.073,0,2.146,0,2.146
	l7.156,7.156C26.376,12.78,27.449,13.854,28.522,12.78z"/>
</svg>
