<?xml version="1.0" encoding="utf-8"?>
<!-- Generator: Adobe Illustrator 16.0.0, SVG Export Plug-In . SVG Version: 6.00 Build 0)  -->
<!DOCTYPE svg PUBLIC "-//W3C//DTD SVG 1.1//EN" "http://www.w3.org/Graphics/SVG/1.1/DTD/svg11.dtd">
<svg version="1.1" id="Capa_1" xmlns="http://www.w3.org/2000/svg" xmlns:xlink="http://www.w3.org/1999/xlink" x="0px" y="0px"
	 width="32px" height="32px" viewBox="0 0 32 32" enable-background="new 0 0 32 32" xml:space="preserve">
<path id="stroke" fill="none" stroke="#000000" stroke-miterlimit="10" d="M2.5,11.5c0,0,0-2,2-2h23c0,0,2,0,2,2s0,13,0,13s0,2-2,2
	h-23c0,0-2,0-2-2S2.5,11.5,2.5,11.5z M10.5,20c0-1.933-1.567-3.5-3.5-3.5S3.5,18.067,3.5,20s1.567,3.5,3.5,3.5S10.5,21.933,10.5,20z
	 M8,20c0-0.552-0.448-1-1-1s-1,0.448-1,1s0.448,1,1,1S8,20.552,8,20z M26,20c0-0.552-0.447-1-1-1s-1,0.448-1,1s0.447,1,1,1
	S26,20.552,26,20z M20.5,26.5v-12h-9v12 M28.5,20c0-1.933-1.567-3.5-3.5-3.5s-3.5,1.567-3.5,3.5s1.567,3.5,3.5,3.5
	S28.5,21.933,28.5,20z M2.5,14.5h27 M11.5,24.5h9 M11.5,21.5h9 M13.5,19.5h5v-3h-5V19.5z M9.5,9.5v5 M22.5,9.5v5 M21.5,9.5v-3
	c0-1-1-1-1-1h-9c-1,0-1,1-1,1v3 M9,12.5h14"/>
</svg>
