<?xml version="1.0" encoding="utf-8"?>
<!-- Generator: Adobe Illustrator 16.0.0, SVG Export Plug-In . SVG Version: 6.00 Build 0)  -->
<!DOCTYPE svg PUBLIC "-//W3C//DTD SVG 1.1//EN" "http://www.w3.org/Graphics/SVG/1.1/DTD/svg11.dtd">
<svg version="1.1" id="Capa_1" xmlns="http://www.w3.org/2000/svg" xmlns:xlink="http://www.w3.org/1999/xlink" x="0px" y="0px"
	 width="32px" height="32px" viewBox="0 0 32 32" enable-background="new 0 0 32 32" xml:space="preserve">
<path id="stroke" fill="none" stroke="#000000" stroke-linecap="round" stroke-miterlimit="10" d="M13.914,20.551l-1.379-1.918
	c-1.532-2.654-6.465-0.984-9.019-5.407C1.542,9.806,2.715,5.433,6.134,3.459c3.419-1.975,7.792-0.803,9.767,2.617
	c0.07,0.121,0.135,0.241,0.195,0.36 M18.145,21.18l2.15,4.767c0,0,0.511,0.884-0.373,1.395c-0.885,0.511-1.396-0.374-1.396-0.374
	l-2.113-2.938 M12.535,18.633c0,0,0.631,1.094,1.761,1.064 M4.229,14.242c0.409,0.26,0.813,0.461,1.194,0.242
	c0.884-0.511-0.137-2.28,0.747-2.791c0.886-0.511,1.906,1.258,2.791,0.748c0.885-0.511-0.137-2.28,0.748-2.79
	c0.884-0.511,1.905,1.258,2.791,0.748c0.884-0.511-0.137-2.28,0.747-2.791c0.508-0.293,1.062,0.165,1.607,0.512 M2.687,10.167
	L13.783,3.76 M8.231,16.401l6.052-3.495 M27.456,15.226c-2.554,4.423-7.487,2.753-9.019,5.407l-5.991,8.334
	c0,0-0.511,0.885-1.396,0.374c-0.884-0.511-0.373-1.395-0.373-1.395l4.221-9.356c1.532-2.654-2.38-6.091,0.174-10.514
	c1.975-3.42,6.348-4.592,9.767-2.617C28.258,7.433,29.43,11.806,27.456,15.226z M14.898,18.59c0,0-1.021,1.769,0.748,2.79
	s2.791-0.747,2.791-0.747 M14.548,9.231c-0.02,0.473,0.016,0.909,0.389,1.124c0.884,0.511,1.905-1.258,2.79-0.747
	s-0.137,2.28,0.747,2.791c0.886,0.511,1.907-1.258,2.79-0.748c0.885,0.51-0.137,2.279,0.748,2.79s1.905-1.258,2.791-0.748
	c0.884,0.511-0.137,2.28,0.747,2.791c0.38,0.219,0.785,0.018,1.194-0.242 M17.189,5.76l11.097,6.406 M14.687,13.75l8.113,4.686
	 M6.5,20.5v2 M5.5,21.5h2 M25.5,24.5v2 M24.5,25.5h2 M28.5,2.5v2 M27.5,3.5h2"/>
</svg>
