<?xml version="1.0" encoding="utf-8"?>
<!-- Generator: Adobe Illustrator 16.0.0, SVG Export Plug-In . SVG Version: 6.00 Build 0)  -->
<!DOCTYPE svg PUBLIC "-//W3C//DTD SVG 1.1//EN" "http://www.w3.org/Graphics/SVG/1.1/DTD/svg11.dtd">
<svg version="1.1" id="Capa_1" xmlns="http://www.w3.org/2000/svg" xmlns:xlink="http://www.w3.org/1999/xlink" x="0px" y="0px"
	 width="32px" height="32px" viewBox="0 0 32 32" enable-background="new 0 0 32 32" xml:space="preserve">
<path id="stroke" fill="none" stroke="#000000" stroke-linecap="round" stroke-miterlimit="10" d="M5.239,26.762
	c0,0-5.783-5.575-1.894-9.466c2.334-2.334,5.259-2.231,6.815-3.786c1.167-1.167,0.757-2.271,4.543-6.057c0,0,0.757-0.758,1.515,0
	c1.514,1.514-2.272,3.785,0,6.057 M5.239,26.762c0,0,5.575,5.782,9.464,1.893c2.334-2.335,1.475-4.501,3.029-6.057
	c1.167-1.168,2.272-0.757,5.3-3.785c0,0,0.758-0.758,0-1.517c-1.514-1.514-3.785,2.272-6.057,0 M16.217,13.51l7.447-7.447
	 M11.675,22.598L25.937,8.335 M9.402,20.325L23.664,6.063 M16.217,13.51c0,0-2.271,0.757-4.542,1.514
	c-2.272,0.758-2.673,2.831-0.758,3.788c3.029,1.515,2.272,3.786,5.301,6.814 M8.646,19.568l3.786,3.786 M7.13,21.083l3.786,3.785
	 M29.848,2.91l-0.757-0.757c-0.759-0.758-4.545,1.515-5.302,2.271c-0.758,0.757,0,1.514,0,1.514l2.271,2.271
	c0,0,0.758,0.757,1.515,0C28.332,7.453,30.604,3.667,29.848,2.91z M24.547,9.724L23.79,8.967 M22.273,10.481l0.758,0.757
	 M20.003,14.267l-0.757-0.757 M18.489,15.782l-0.758-0.757 M21.424,12.659l-2.072-2.073"/>
</svg>
