<?xml version="1.0" encoding="utf-8"?>
<!-- Generator: Adobe Illustrator 16.0.0, SVG Export Plug-In . SVG Version: 6.00 Build 0)  -->
<!DOCTYPE svg PUBLIC "-//W3C//DTD SVG 1.1//EN" "http://www.w3.org/Graphics/SVG/1.1/DTD/svg11.dtd">
<svg version="1.1" id="Capa_1" xmlns="http://www.w3.org/2000/svg" xmlns:xlink="http://www.w3.org/1999/xlink" x="0px" y="0px"
	 width="32px" height="32px" viewBox="0 0 32 32" enable-background="new 0 0 32 32" xml:space="preserve">
<path id="stroke" fill="none" stroke="#000000" stroke-linecap="round" stroke-miterlimit="10" d="M12.5,29.5h6 M14.5,29.5v-4
	 M16.5,29.5v-4 M12.5,2.5c0,0-3,0-3,3v12c0,0,0,3,3,3h6c0,0,3,0,3-3v-12c0,0,0-3-3-3H12.5z M12.5,20.5v4c0,0,0,1,1,1h4c0,0,1,0,1-1
	v-4 M9.5,6.5h3 M9.5,9.5h3 M9.5,12.5h3 M9.5,15.5h3 M18.5,6.5h3 M18.5,9.5h3 M18.5,12.5h3 M18.5,15.5h3 M15.5,2.5v18 M11.5,22.5h8
	 M24.599,15.655C25.178,14.39,25.5,12.983,25.5,11.5c0-1.915-0.538-3.704-1.471-5.225 M7.151,5.992C6.107,7.571,5.5,9.465,5.5,11.5
	c0,1.604,0.377,3.121,1.049,4.465 M27.015,17.54c0.948-1.805,1.485-3.859,1.485-6.04c0-2.626-0.778-5.07-2.117-7.114 M4.853,4.036
	C3.37,6.148,2.5,8.723,2.5,11.5c0,2.343,0.619,4.54,1.702,6.438"/>
</svg>
