<?xml version="1.0" encoding="utf-8"?>
<!-- Generator: Adobe Illustrator 16.0.0, SVG Export Plug-In . SVG Version: 6.00 Build 0)  -->
<!DOCTYPE svg PUBLIC "-//W3C//DTD SVG 1.1//EN" "http://www.w3.org/Graphics/SVG/1.1/DTD/svg11.dtd">
<svg version="1.1" id="Capa_1" xmlns="http://www.w3.org/2000/svg" xmlns:xlink="http://www.w3.org/1999/xlink" x="0px" y="0px"
	 width="32px" height="32px" viewBox="0 0 32 32" enable-background="new 0 0 32 32" xml:space="preserve">
<g id="color">
	<rect x="14" fill-rule="evenodd" clip-rule="evenodd" fill="#F8FF61" width="18" height="11"/>
	<path fill-rule="evenodd" clip-rule="evenodd" fill="#8C8C8C" d="M22.02,16.45c-0.979-3.07-3.399-5.49-6.47-6.47
		C14.59,9.67,13.56,9.5,12.5,9.5c-5.52,0-10,4.48-10,10c0,1.06,0.17,2.09,0.48,3.05c0.98,3.07,3.4,5.49,6.47,6.47
		c0.96,0.311,1.99,0.48,3.05,0.48c5.52,0,10-4.48,10-10C22.5,18.44,22.33,17.41,22.02,16.45z M12.5,21.5c-0.21,0-0.42-0.03-0.61-0.1
		c-0.61-0.19-1.1-0.681-1.29-1.29c-0.07-0.19-0.1-0.4-0.1-0.61c0-1.1,0.9-2,2-2c0.21,0,0.42,0.03,0.61,0.1
		c0.61,0.19,1.1,0.681,1.29,1.29c0.07,0.19,0.1,0.4,0.1,0.61C14.5,20.6,13.6,21.5,12.5,21.5z"/>
	<path opacity="0.2" fill-rule="evenodd" clip-rule="evenodd" fill="#FFFFFF" d="M12.5,14.5c-2.76,0-5,2.24-5,5s2.24,5,5,5
		s5-2.24,5-5S15.26,14.5,12.5,14.5z M12.5,21.5c-1.1,0-2-0.9-2-2s0.9-2,2-2s2,0.9,2,2S13.6,21.5,12.5,21.5z"/>
	<path opacity="0.1" fill-rule="evenodd" clip-rule="evenodd" fill="#FFFFFF" d="M22.02,16.45L14.4,18.89
		c-0.19-0.609-0.68-1.1-1.29-1.29l2.44-7.62C18.62,10.96,21.04,13.38,22.02,16.45z"/>
	<path opacity="0.1" fill-rule="evenodd" clip-rule="evenodd" fill="#FFFFFF" d="M11.89,21.4L9.45,29.02
		c-3.07-0.979-5.49-3.399-6.47-6.47l7.62-2.439C10.79,20.72,11.28,21.21,11.89,21.4z"/>
</g>
<path id="stroke" fill-rule="evenodd" clip-rule="evenodd" fill="none" stroke="#000000" stroke-linecap="round" stroke-miterlimit="10" d="
	M27.5,7.5c0,0,0,1,1,1s1-1,1-1c0-1-2-1-2-2s1-1,1-1s1,0,1,1 M21.5,7c0,0,0,1.5,1.5,1.5S24.5,7,24.5,7V4c0,0,0-1.5-1.5-1.5
	S21.5,4,21.5,4V7z M26.5,2.5v1 M18,2.5c-0.828,0-1.5,0.671-1.5,1.5s0.672,1.5,1.5,1.5s1.5-0.671,1.5-1.5S18.828,2.5,18,2.5z
	 M22.5,19.5c0-5.522-4.478-10-10-10s-10,4.478-10,10s4.478,10,10,10S22.5,25.022,22.5,19.5z M14.5,19.5c0-1.104-0.896-2-2-2
	s-2,0.896-2,2s0.896,2,2,2S14.5,20.604,14.5,19.5z M17.5,19.5c0-2.756-2.237-5-5-5s-5,2.244-5,5s2.237,5,5,5S17.5,22.256,17.5,19.5z
	 M22.5,19.5c0-5.522-4.478-10-10-10s-10,4.478-10,10s4.478,10,10,10S22.5,25.022,22.5,19.5z M14.5,19.5c0-1.104-0.896-2-2-2
	s-2,0.896-2,2s0.896,2,2,2S14.5,20.604,14.5,19.5z M17.5,19.5c0-2.756-2.237-5-5-5s-5,2.244-5,5s2.237,5,5,5S17.5,22.256,17.5,19.5z
	 M22.5,19.5c0-5.522-4.478-10-10-10s-10,4.478-10,10s4.478,10,10,10S22.5,25.022,22.5,19.5z M14.5,19.5c0-1.104-0.896-2-2-2
	s-2,0.896-2,2s0.896,2,2,2S14.5,20.604,14.5,19.5z M17.5,19.5c0-2.756-2.237-5-5-5s-5,2.244-5,5s2.237,5,5,5S17.5,22.256,17.5,19.5z
	 M17.5,8.5c0,0,2-1,2-4V4"/>
</svg>
