<?xml version="1.0" encoding="utf-8"?>
<!-- Generator: Adobe Illustrator 16.0.0, SVG Export Plug-In . SVG Version: 6.00 Build 0)  -->
<!DOCTYPE svg PUBLIC "-//W3C//DTD SVG 1.1//EN" "http://www.w3.org/Graphics/SVG/1.1/DTD/svg11.dtd">
<svg version="1.1" id="Capa_1" xmlns="http://www.w3.org/2000/svg" xmlns:xlink="http://www.w3.org/1999/xlink" x="0px" y="0px"
	 width="32px" height="32px" viewBox="0 0 32 32" enable-background="new 0 0 32 32" xml:space="preserve">
<g id="color">
	<path fill="#8C8C8C" d="M21.5,7.5c-1.033,0-2.724-0.519-5.023-1.543L15.46,5.504l1.014-0.459C17.746,4.468,20.092,3.5,21.5,3.5
		c0.743,0,2,0.421,2,2S22.243,7.5,21.5,7.5z M14.527,5.955l1.009-0.46l-1.013-0.451C12.223,4.019,10.533,3.5,9.5,3.5
		c-0.743,0-2,0.421-2,2s1.257,2,2,2C10.984,7.5,13.51,6.419,14.527,5.955z"/>
	<path fill="#2994FF" d="M15.5,28.5c-8.137,0-13-3.051-13-6c0-0.011,0-0.2,0.033-0.513l0.124-1.166l0.755,0.896
		C5.377,24.051,10.009,25.5,15.5,25.5c5.542,0,10.062-1.418,12.09-3.794l0.756-0.887l0.121,1.159
		c0.034,0.322,0.033,0.511,0.033,0.521C28.5,25.449,23.638,28.5,15.5,28.5z"/>
	<path fill="#FFE448" d="M15.5,25.5c-2.85,0-5.417-0.372-7.627-1.105l-0.374-0.124l0.033-0.393
		c0.172-2.052,1.233-9.135,7.661-14.143L15.5,9.496l0.308,0.24c6.425,5.013,7.487,12.099,7.66,14.152l0.033,0.392l-0.373,0.125
		C20.947,25.131,18.381,25.5,15.5,25.5z"/>
	<path fill="#FF273C" d="M23.452,23.606c-0.223-2.379-1.328-8.424-6.78-13.159l-1.169-1.016l1.542,0.14
		c8.426,0.766,10.644,7.855,11.206,10.867l0.029,0.155l-0.065,0.144c-0.576,1.27-2.022,2.437-4.073,3.284l-0.626,0.259
		L23.452,23.606z M7.485,24.271l0.063-0.674c0.221-2.373,1.325-8.403,6.78-13.15l1.167-1.015l-1.541,0.14
		C5.528,10.338,3.311,17.427,2.749,20.438L2.72,20.595l0.066,0.144c0.579,1.264,2.025,2.426,4.073,3.273L7.485,24.271z"/>
</g>
<path id="stroke_4_" fill="none" stroke="#000000" stroke-miterlimit="10" d="M15.5,9.5c11,0,13,10,13,13c0,3.001-5,6-13,6
	s-13-3-13-6S4.5,9.5,15.5,9.5z M2.781,20.734C3.938,23.271,8.604,25.5,15.5,25.5c6.999,0,11.703-2.296,12.77-4.881 M15.5,9V6
	 M15.5,9.5c-8,6-8,15-8,15 M23.5,24.5c0,0,0-9-8-15 M15.5,5.5c0,0-4-2-6-2c0,0-2,0-2,2s2,2,2,2C11.5,7.5,15.5,5.5,15.5,5.5z
	 M21.5,7.5c0,0,2,0,2-2s-2-2-2-2c-2,0-6,2-6,2S19.5,7.5,21.5,7.5z"/>
</svg>
