<?xml version="1.0" encoding="utf-8"?>
<!-- Generator: Adobe Illustrator 16.0.0, SVG Export Plug-In . SVG Version: 6.00 Build 0)  -->
<!DOCTYPE svg PUBLIC "-//W3C//DTD SVG 1.1//EN" "http://www.w3.org/Graphics/SVG/1.1/DTD/svg11.dtd">
<svg version="1.1" id="Capa_1" xmlns="http://www.w3.org/2000/svg" xmlns:xlink="http://www.w3.org/1999/xlink" x="0px" y="0px"
	 width="32px" height="32px" viewBox="0 0 32 32" enable-background="new 0 0 32 32" xml:space="preserve">
<g id="color">
	<circle fill="#8C8C8C" cx="15.5" cy="15.5" r="12"/>
	<path opacity="0.4" fill="#FFFFFF" d="M20.75,9.125c-1.538-0.382-3.139-0.589-4.758-0.616L15.5,8.501V3.487l0.522,0.023
		c0.915,0.04,1.841,0.191,2.753,0.448l0.16,0.045l0.101,0.131c0.644,0.839,1.566,2.271,2.305,4.336l0.314,0.878L20.75,9.125z
		 M15.5,15.5v-7l-0.51,0.01c-1.875,0.037-3.677,0.299-5.357,0.779L9.366,9.366L9.289,9.633c-0.48,1.681-0.742,3.483-0.779,5.357
		L8.5,15.5H15.5z"/>
	<path opacity="0.6" fill="#FFFFFF" d="M19.834,25.708c0.705-1.148,1.287-2.437,1.729-3.829l0.079-0.248l0.248-0.078
		c1.341-0.42,2.626-0.999,3.82-1.721l1.385-0.837l-0.671,1.472c-1.203,2.639-3.319,4.755-5.958,5.958l-1.491,0.68L19.834,25.708z
		 M3.901,12.025l1.39-0.848c1.173-0.716,2.462-1.298,3.83-1.729l0.248-0.079l0.079-0.248c0.433-1.373,1.03-2.697,1.729-3.828
		l0.862-1.397l-1.495,0.68c-2.646,1.203-4.765,3.323-5.968,5.968L3.901,12.025z M15.5,27.513v-5.002L15.011,22.5
		c-1.629-0.035-3.23-0.246-4.761-0.625l-0.903-0.224l0.312,0.877c0.736,2.065,1.659,3.503,2.304,4.346l0.103,0.135l0.164,0.044
		c0.927,0.251,1.852,0.397,2.749,0.438L15.5,27.513z"/>
	<path opacity="0.8" fill="#FFFFFF" d="M22.511,15.5L22.5,15.011c-0.035-1.63-0.246-3.231-0.625-4.761l-0.224-0.903l0.877,0.312
		c2.068,0.736,3.505,1.66,4.347,2.304l0.134,0.103l0.044,0.164c0.251,0.927,0.397,1.852,0.438,2.749l0.022,0.522H22.511z
		 M9.351,21.658L9.125,20.75c-0.379-1.528-0.59-3.13-0.625-4.761L8.489,15.5H3.487l0.023,0.522c0.04,0.915,0.191,1.841,0.448,2.753
		l0.045,0.158l0.13,0.102c0.667,0.518,2.118,1.505,4.337,2.306L9.351,21.658z M15.5,22.513l0.512-0.013
		c1.883-0.047,3.685-0.312,5.356-0.789l0.267-0.076l0.076-0.267c0.478-1.671,0.742-3.473,0.789-5.356l0.013-0.512H15.5V22.513z"/>
</g>
<g id="ligths_x5F_stroke">
	<path fill="none" stroke="#8C8C8C" stroke-linecap="round" stroke-miterlimit="10" d="M2.5,27.5h4 M4.5,25.5v4 M25.5,4.5h4
		 M27.5,2.5v4"/>
	<path fill="none" stroke="#C1C1C1" stroke-linecap="round" stroke-miterlimit="10" d="M4.5,3.5h2 M5.5,2.5v2 M26.5,26.5h2
		 M27.5,25.5v2"/>
</g>
<path id="stroke" fill="none" stroke="#000000" stroke-linecap="round" stroke-miterlimit="10" d="M15.5,27.5
	c-6.627,0-12-5.372-12-12c0-6.627,5.373-12,12-12c6.628,0,12,5.373,12,12C27.5,22.128,22.128,27.5,15.5,27.5z M11.975,4.12
	C10.889,5.524,8.5,9.318,8.5,15.5c0,6.414,2.571,10.257,3.591,11.528 M18.886,27.056C19.89,25.813,22.5,21.962,22.5,15.5
	c0-6.266-2.453-10.078-3.518-11.436 M4.095,19.007C5.479,20.083,9.281,22.5,15.5,22.5c6.379,0,10.215-2.543,11.508-3.574
	 M26.915,12.001C25.539,10.929,21.734,8.5,15.5,8.5S5.46,10.929,4.084,12.001 M15.5,3.5v24 M3.5,15.5h24"/>
</svg>
