<?xml version="1.0" encoding="utf-8"?>
<!-- Generator: Adobe Illustrator 16.0.0, SVG Export Plug-In . SVG Version: 6.00 Build 0)  -->
<!DOCTYPE svg PUBLIC "-//W3C//DTD SVG 1.1//EN" "http://www.w3.org/Graphics/SVG/1.1/DTD/svg11.dtd">
<svg version="1.1" id="Capa_1" xmlns="http://www.w3.org/2000/svg" xmlns:xlink="http://www.w3.org/1999/xlink" x="0px" y="0px"
	 width="32px" height="32px" viewBox="0 0 32 32" enable-background="new 0 0 32 32" xml:space="preserve">
<g id="color">
	<path fill="#663616" d="M16,28.5c-7.57,0-13.5-1.757-13.5-4v-2.289l0.815,0.66C5.256,24.443,10.354,25.5,16,25.5
		s10.744-1.057,12.686-2.629l0.814-0.66V24.5C29.5,26.743,23.57,28.5,16,28.5z"/>
	<path fill="#8C4A1E" d="M16,25.5c-6.618,0-12.355-1.444-13.344-3.36l-0.131-0.254l0.152-0.242c0.495-0.786,0.917-1.732,1.327-2.647
		C4.985,16.786,6.001,14.5,8,14.5c2.052,0,3.033,2.016,3.982,3.965C13.003,20.568,13.941,22.5,16,22.5
		c2.058,0,2.996-1.931,3.989-3.975C20.967,16.516,21.948,14.5,24,14.5c1.998,0,3.015,2.286,3.997,4.497
		c0.409,0.916,0.833,1.864,1.318,2.65l0.146,0.238l-0.126,0.25C28.35,24.085,22.741,25.5,16,25.5z"/>
	<path fill="#A35B21" d="M16,22.5c-2.052,0-3.034-2.017-3.983-3.967C10.997,16.431,10.058,14.5,8,14.5c-2,0-3.018,2.289-4.003,4.503
		c-0.17,0.4-0.354,0.808-0.547,1.206L2.5,19.99V9.211l0.815,0.66C5.256,11.443,10.354,12.5,16,12.5s10.744-1.057,12.686-2.629
		l0.814-0.66V19.99l-0.949,0.219c-0.194-0.398-0.378-0.806-0.551-1.214c-1.03-2.315-2-4.495-4-4.495
		c-2.058,0-2.995,1.93-3.988,3.974C19.033,20.483,18.053,22.5,16,22.5z"/>
	<path fill="#A06740" d="M16,12.5c-7.57,0-13.5-1.757-13.5-4s5.93-4,13.5-4s13.5,1.757,13.5,4S23.57,12.5,16,12.5z"/>
	<path opacity="0.2" fill="#FFFFFF" d="M16,10C8.379,10,4.497,8.286,4.022,7.5C4.497,6.714,8.379,5,16,5s11.503,1.714,11.979,2.5
		C27.503,8.286,23.621,10,16,10z"/>
</g>
<path id="stroke" fill="none" stroke="#000000" stroke-miterlimit="10" d="M16,12.5c-7.456,0-13.5-1.791-13.5-4s6.044-4,13.5-4
	s13.5,1.791,13.5,4S23.456,12.5,16,12.5z M2.5,8.5v16c0,2.209,6.044,4,13.5,4s13.5-1.791,13.5-4v-16 M2.5,21.5
	c0,2.209,6.044,4,13.5,4s13.5-1.791,13.5-4 M29.375,21.732C27.677,19.111,26.863,14.5,24,14.5c-4.123,0-3.877,8-8,8s-3.877-8-8-8
	c-2.943,0-3.721,4.873-5.521,7.447"/>
</svg>
