<?xml version="1.0" encoding="utf-8"?>
<!-- Generator: Adobe Illustrator 16.0.0, SVG Export Plug-In . SVG Version: 6.00 Build 0)  -->
<!DOCTYPE svg PUBLIC "-//W3C//DTD SVG 1.1//EN" "http://www.w3.org/Graphics/SVG/1.1/DTD/svg11.dtd">
<svg version="1.1" id="Capa_1" xmlns="http://www.w3.org/2000/svg" xmlns:xlink="http://www.w3.org/1999/xlink" x="0px" y="0px"
	 width="32px" height="32px" viewBox="0 0 32 32" enable-background="new 0 0 32 32" xml:space="preserve">
<g id="color">
	<polygon fill="#A06740" points="27.5,20.5 27.5,23.5 15.5,29.5 3.5,23.5 3.5,20.5 15.5,26.5 	"/>
	<path fill="#FFCFAE" d="M17.5,15.501l10-5v9.998l-10,5V15.501z M13.5,25.499v-9.998l-10-5v9.998L13.5,25.499z"/>
	<polygon fill="#2994FF" points="13.5,25.499 13.5,10.5 9.5,10.5 9.5,6.5 13.5,6.5 13.5,2.5 17.5,2.5 17.5,6.5 21.5,6.5 21.5,10.5 
		17.5,10.5 17.5,25.499 15.5,26.499 	"/>
</g>
<path id="stroke_1_" fill="none" stroke="#000000" stroke-miterlimit="10" d="M17.5,15.5l10-5v13l-12,6l-12-6v-13l10.002,5.001
	 M3.5,20.5l12,6l12-6 M15.5,26.5v3 M17.5,25.406V10.5h4v-4h-4v-4h-4v4h-4v4h4v14.859"/>
</svg>
