<?xml version="1.0" encoding="utf-8"?>
<!-- Generator: Adobe Illustrator 16.0.0, SVG Export Plug-In . SVG Version: 6.00 Build 0)  -->
<!DOCTYPE svg PUBLIC "-//W3C//DTD SVG 1.1//EN" "http://www.w3.org/Graphics/SVG/1.1/DTD/svg11.dtd">
<svg version="1.1" id="Capa_1" xmlns="http://www.w3.org/2000/svg" xmlns:xlink="http://www.w3.org/1999/xlink" x="0px" y="0px"
	 width="32px" height="32px" viewBox="0 0 32 32" enable-background="new 0 0 32 32" xml:space="preserve">
<g id="color2">
	<path fill="#A07253" d="M19.385,27.498c-0.246,0-0.6-0.099-0.884-0.57L13.305,19.7h0.975c0.324,0,0.677-0.109,1.051-0.324
		c0.357-0.207,0.626-0.461,0.8-0.752l0.491-0.825l3.695,8.196c0.119,0.185,0.169,0.468,0.106,0.719
		c-0.045,0.179-0.168,0.433-0.5,0.628C19.744,27.445,19.563,27.498,19.385,27.498z"/>
	<path fill="#FF5069" d="M7.856,16.439c-0.636-0.19-1.581-0.514-2.452-1.118l-0.631-0.438l0.657-0.4
		c0.396-0.241,0.404-0.722,0.372-1.375c-0.037-0.607-0.071-1.164,0.373-1.414c0.089-0.057,0.218-0.092,0.353-0.092
		c0.314,0,0.628,0.191,1.038,0.46c0.321,0.214,0.71,0.474,1.052,0.474c0.118,0,0.229-0.032,0.338-0.096
		c0.417-0.241,0.417-0.749,0.375-1.387c-0.033-0.529-0.069-1.126,0.364-1.396c0.124-0.07,0.239-0.1,0.363-0.1
		c0.315,0,0.633,0.193,1.047,0.466c0.315,0.21,0.704,0.469,1.054,0.469c0.119,0,0.23-0.031,0.341-0.095
		c0.413-0.238,0.414-0.75,0.371-1.394c-0.036-0.57-0.073-1.157,0.395-1.405c0.092-0.052,0.208-0.082,0.332-0.082
		c0.315,0,0.633,0.193,1.047,0.466c0.315,0.208,0.708,0.467,1.058,0.467c0.114,0,0.22-0.028,0.324-0.086l0.671-0.374l0.07,0.765
		c0.094,1.026-0.085,1.972-0.251,2.68l-0.049,0.21l-8.404,4.856L7.856,16.439z"/>
	<path fill="#FFA655" d="M5.068,14.574c-0.217,0-0.449-0.087-0.773-0.29l-0.066-0.041l-0.05-0.06
		c-0.217-0.256-0.427-0.558-0.658-0.948c-0.482-0.834-0.786-1.731-0.907-2.672l-0.042-0.33L13.78,3.76l0.265,0.204
		c0.76,0.584,1.385,1.296,1.858,2.117c0.179,0.302,0.346,0.649,0.493,1.029l0.032,0.082L16.43,7.28
		c0.008,0.397-0.013,0.839-0.376,1.065c-0.123,0.069-0.238,0.099-0.363,0.099c-0.3,0-0.601-0.165-1.051-0.469
		c-0.318-0.206-0.71-0.46-1.057-0.46c-0.118,0-0.229,0.03-0.337,0.091c-0.402,0.232-0.41,0.718-0.377,1.379
		c0.036,0.596,0.069,1.145-0.354,1.409c-0.124,0.07-0.239,0.1-0.363,0.1c-0.315,0-0.633-0.193-1.047-0.466
		c-0.315-0.209-0.704-0.469-1.054-0.469c-0.119,0-0.23,0.031-0.341,0.095c-0.413,0.238-0.414,0.728-0.371,1.395
		c0.025,0.612,0.047,1.13-0.365,1.387c-0.122,0.069-0.238,0.099-0.362,0.099c-0.315,0-0.633-0.193-1.047-0.466
		c-0.315-0.21-0.704-0.469-1.054-0.469c-0.12,0-0.231,0.031-0.341,0.094c-0.413,0.238-0.414,0.75-0.371,1.395
		c0.033,0.537,0.071,1.144-0.384,1.398C5.307,14.545,5.191,14.574,5.068,14.574z"/>
	<path fill="#663616" d="M14.248,19.694c-0.703,0-1.191-0.396-1.477-0.729l-0.212-0.302c-0.641-1.099-1.777-1.462-3.314-1.86
		l-1.183-0.306l8.409-4.853l-0.329,1.179c-0.427,1.531-0.683,2.694-0.088,3.726l0.144,0.317c0.104,0.287,0.152,0.518,0.162,0.74
		c0.036,0.505-0.111,1.235-1.025,1.773C14.964,19.591,14.602,19.694,14.248,19.694z M2.522,10.257L13.82,3.743l-0.794-0.424
		c-0.446-0.239-0.925-0.425-1.46-0.57C10.978,2.583,10.351,2.5,9.7,2.5c-1.243,0-2.477,0.331-3.572,0.958
		C4.479,4.417,3.299,5.959,2.808,7.8C2.665,8.328,2.582,8.85,2.561,9.349L2.522,10.257z"/>
</g>
<path id="stroke2" fill="none" stroke="#000000" stroke-miterlimit="10" d="M6.134,3.459c3.419-1.975,7.792-0.803,9.767,2.617
	c2.554,4.422-1.358,7.86,0.174,10.514l4.221,9.356c0,0,0.511,0.884-0.373,1.395c-0.885,0.511-1.396-0.374-1.396-0.374l-5.991-8.334
	c-1.532-2.654-6.465-0.984-9.019-5.407C1.542,9.806,2.715,5.433,6.134,3.459z M12.535,18.633c0,0,1.021,1.769,2.791,0.747
	s0.748-2.79,0.748-2.79 M4.229,14.242c0.409,0.26,0.813,0.461,1.194,0.242c0.884-0.511-0.137-2.28,0.747-2.791
	c0.886-0.511,1.906,1.258,2.791,0.748c0.885-0.511-0.137-2.28,0.748-2.79c0.884-0.511,1.905,1.258,2.791,0.748
	c0.884-0.511-0.137-2.28,0.747-2.791c0.885-0.511,1.906,1.258,2.79,0.747c0.373-0.214,0.408-0.651,0.389-1.124 M2.687,10.167
	L13.783,3.76 M8.001,16.533l8.683-5.013"/>
<g id="color1">
	<path fill="#A07253" d="M11.588,29.498c0.246,0,0.6-0.099,0.884-0.57l5.196-7.228h-0.975c-0.324,0-0.678-0.109-1.051-0.324
		c-0.357-0.207-0.626-0.461-0.8-0.752l-0.491-0.825l-3.695,8.196c-0.119,0.185-0.169,0.468-0.106,0.719
		c0.045,0.179,0.168,0.433,0.5,0.628C11.229,29.445,11.409,29.498,11.588,29.498z"/>
	<path fill="#FF5069" d="M23.116,18.439c0.636-0.191,1.581-0.514,2.452-1.119l0.631-0.438l-0.656-0.4
		c-0.396-0.241-0.404-0.722-0.372-1.375c0.036-0.607,0.071-1.164-0.372-1.414c-0.09-0.057-0.219-0.092-0.354-0.092
		c-0.314,0-0.628,0.191-1.037,0.46c-0.321,0.214-0.711,0.474-1.053,0.474c-0.118,0-0.229-0.032-0.338-0.096
		c-0.418-0.241-0.418-0.749-0.376-1.387c0.032-0.529,0.069-1.126-0.364-1.396c-0.123-0.07-0.238-0.1-0.363-0.1
		c-0.314,0-0.633,0.193-1.047,0.466c-0.314,0.21-0.703,0.469-1.054,0.469c-0.119,0-0.23-0.031-0.341-0.095
		c-0.413-0.238-0.414-0.75-0.371-1.394c0.035-0.57,0.072-1.157-0.395-1.405c-0.093-0.052-0.209-0.082-0.332-0.082
		c-0.316,0-0.633,0.193-1.047,0.466c-0.316,0.208-0.708,0.467-1.058,0.467c-0.114,0-0.22-0.028-0.324-0.086l-0.671-0.374
		l-0.07,0.765c-0.094,1.026,0.085,1.972,0.251,2.68l0.049,0.21l8.404,4.856L23.116,18.439z"/>
	<path fill="#FFA655" d="M25.904,16.574c0.217,0,0.449-0.087,0.773-0.29l0.066-0.041l0.05-0.06c0.218-0.256,0.427-0.558,0.658-0.948
		c0.481-0.834,0.786-1.731,0.907-2.672l0.041-0.33L17.193,5.76l-0.266,0.204c-0.76,0.584-1.385,1.296-1.858,2.117
		c-0.179,0.302-0.346,0.649-0.493,1.029l-0.032,0.082L14.542,9.28c-0.008,0.397,0.013,0.839,0.376,1.065
		c0.123,0.069,0.238,0.099,0.363,0.099c0.3,0,0.601-0.165,1.051-0.469c0.318-0.206,0.711-0.46,1.058-0.46
		c0.118,0,0.229,0.03,0.337,0.091c0.402,0.232,0.41,0.718,0.377,1.379c-0.035,0.596-0.068,1.145,0.354,1.409
		c0.124,0.07,0.239,0.1,0.363,0.1c0.314,0,0.633-0.193,1.047-0.466c0.315-0.209,0.704-0.469,1.055-0.469
		c0.119,0,0.23,0.031,0.341,0.095c0.413,0.238,0.414,0.728,0.371,1.395c-0.025,0.612-0.048,1.13,0.364,1.387
		c0.123,0.069,0.238,0.099,0.363,0.099c0.314,0,0.633-0.193,1.047-0.466c0.314-0.21,0.703-0.469,1.054-0.469
		c0.12,0,0.231,0.031,0.341,0.094c0.413,0.238,0.414,0.75,0.371,1.395c-0.033,0.537-0.07,1.144,0.385,1.398
		C25.666,16.545,25.781,16.574,25.904,16.574z"/>
	<path fill="#663616" d="M15.639,21.381c-0.914-0.538-1.062-1.269-1.025-1.773c0.01-0.223,0.059-0.453,0.162-0.74l0.144-0.316
		c0.595-1.033,0.338-2.196-0.088-3.727l-0.329-1.179l8.409,4.853l-1.183,0.306c-1.538,0.398-2.674,0.762-3.314,1.86l-0.213,0.302
		c-0.285,0.332-0.773,0.729-1.477,0.729C16.371,21.694,16.008,21.591,15.639,21.381z M28.412,11.349
		c-0.021-0.5-0.104-1.021-0.247-1.549c-0.491-1.84-1.671-3.383-3.321-4.342C23.75,4.831,22.516,4.5,21.272,4.5
		c-0.65,0-1.278,0.083-1.865,0.249c-0.535,0.145-1.015,0.332-1.46,0.57l-0.795,0.424l11.298,6.514L28.412,11.349z"/>
</g>
<path id="stroke1" fill="none" stroke="#000000" stroke-miterlimit="10" d="M27.456,15.226c-2.554,4.423-7.487,2.753-9.019,5.407
	l-5.991,8.334c0,0-0.511,0.885-1.396,0.374c-0.884-0.511-0.373-1.395-0.373-1.395l4.221-9.356c1.532-2.654-2.38-6.091,0.174-10.514
	c1.975-3.42,6.348-4.592,9.767-2.617C28.258,7.433,29.43,11.806,27.456,15.226z M14.898,18.59c0,0-1.021,1.769,0.748,2.79
	s2.791-0.747,2.791-0.747 M14.548,9.231c-0.02,0.473,0.016,0.909,0.389,1.124c0.884,0.511,1.905-1.258,2.79-0.747
	s-0.137,2.28,0.747,2.791c0.886,0.511,1.907-1.258,2.79-0.748c0.885,0.51-0.137,2.279,0.748,2.79s1.905-1.258,2.791-0.748
	c0.884,0.511-0.137,2.28,0.747,2.791c0.38,0.219,0.785,0.018,1.194-0.242 M17.189,5.76l11.097,6.406 M14.434,13.604l8.589,4.96"/>
<path fill="none" stroke="#FF5069" stroke-linecap="round" stroke-miterlimit="10" d="M6.5,20.5v2 M5.5,21.5h2 M25.5,24.5v2
	 M24.5,25.5h2 M28.5,2.5v2 M27.5,3.5h2"/>
</svg>
