<?xml version="1.0" encoding="utf-8"?>
<!-- Generator: Adobe Illustrator 16.0.0, SVG Export Plug-In . SVG Version: 6.00 Build 0)  -->
<!DOCTYPE svg PUBLIC "-//W3C//DTD SVG 1.1//EN" "http://www.w3.org/Graphics/SVG/1.1/DTD/svg11.dtd">
<svg version="1.1" id="Capa_1" xmlns="http://www.w3.org/2000/svg" xmlns:xlink="http://www.w3.org/1999/xlink" x="0px" y="0px"
	 width="32px" height="32px" viewBox="0 0 32 32" enable-background="new 0 0 32 32" xml:space="preserve">
<g id="color">
	<path fill="#565656" d="M6.644,21.591l0.252-0.346c1.752-2.396,3.9-4.965,4.743-5.958l0.352-0.415l5.107,5.119l-0.415,0.351
		c-2.116,1.79-4.228,3.474-5.946,4.74l-0.346,0.255L6.644,21.591z M26.888,15.797l0.405-0.352L16.554,4.707l-0.352,0.405
		c-1.687,1.944-2.271,4.572-1.569,7.04l0.002,0.054l0.005,0.009v0.202l0.287,0.135c0.107,0.05,0.216,0.125,0.3,0.201l4.009,4.009
		c0.108,0.116,0.187,0.224,0.231,0.32l0.146,0.288h0.247c0.671,0.188,1.363,0.284,2.058,0.284
		C23.742,17.654,25.507,16.995,26.888,15.797z"/>
	<path fill="#8C8C8C" d="M6.224,27.648l-0.143-0.023l-0.136-0.033l-0.719-0.719l-0.14-0.075l-0.002-0.066l-0.635-0.624l-0.037-0.122
		c-0.087-0.285-0.268-0.88,1.891-3.915l0.342-0.481l3.747,3.745L9.91,25.677c-2.458,1.748-3.229,1.972-3.626,1.972H6.224z
		 M17.093,19.979l0.352-0.299c0.565-0.48,1.132-0.979,1.689-1.472l0.14-0.126c0.371-0.393,0.358-0.918-0.03-1.307l-4.028-4.029
		c-0.25-0.238-0.499-0.288-0.664-0.288c-0.168,0-0.42,0.052-0.665,0.296c-0.316,0.316-0.882,0.943-1.595,1.767l-0.305,0.352
		L17.093,19.979z M27.296,15.454l0.352-0.406c2.596-2.994,2.436-7.532-0.364-10.332c-1.428-1.428-3.33-2.214-5.358-2.214
		c-1.831,0-3.597,0.657-4.972,1.85l-0.405,0.352L27.296,15.454z"/>
</g>
<g id="lights_x5F_stroke">
	<path fill="none" stroke="#565656" stroke-linecap="round" stroke-miterlimit="10" d="M5.5,11.5v2 M4.5,12.5h2 M26.5,21.5v2
		 M25.5,22.5h2"/>
	<path fill="none" stroke="#8C8C8C" stroke-linecap="round" stroke-miterlimit="10" d="M9.5,2.5v4 M7.5,4.5h4 M19.5,24.5v4
		 M17.5,26.5h4"/>
</g>
<path id="stroke" fill="none" stroke="#000000" stroke-linecap="round" stroke-miterlimit="10" d="M19.243,16.774
	c0.67,0.669,0,1.34,0,1.34S7.188,28.83,5.849,27.491c-1.339-1.34-1.339-1.34-1.339-1.34c-1.339-1.339,8.707-12.726,9.376-13.396
	c0.67-0.669,1.34,0,1.34,0L19.243,16.774z M12.1,14.989l4.991,4.993 M6.77,21.715l3.557,3.556 M5.179,26.821L2.5,29.5 M19.79,17.351
	c2.571,0.751,5.463,0.112,7.491-1.916c2.958-2.958,2.958-7.757,0-10.715c-2.959-2.958-7.758-2.959-10.717,0
	c-2.027,2.027-2.665,4.92-1.914,7.491 M16.564,4.72l10.717,10.715"/>
</svg>
