<?xml version="1.0" encoding="utf-8"?>
<!-- Generator: Adobe Illustrator 16.0.0, SVG Export Plug-In . SVG Version: 6.00 Build 0)  -->
<!DOCTYPE svg PUBLIC "-//W3C//DTD SVG 1.1//EN" "http://www.w3.org/Graphics/SVG/1.1/DTD/svg11.dtd">
<svg version="1.1" id="Capa_1" xmlns="http://www.w3.org/2000/svg" xmlns:xlink="http://www.w3.org/1999/xlink" x="0px" y="0px"
	 width="32px" height="32px" viewBox="0 0 32 32" enable-background="new 0 0 32 32" xml:space="preserve">
<g id="color">
	<path fill="#2994FF" d="M10.5,13.5c0,0,3,0,3,3c0,0,0,6-5,6s-5-6-5-6s0-3,3-3H10.5z M21.5,13.5c-3,0-3,3-3,3s0,6,5,6s5-6,5-6
		c0-3-3-3-3-3H21.5z"/>
	<path opacity="0.4" fill="#FFFFFF" d="M18.979,19.155c-0.492-1.406-0.708-3.344,0.159-4.567C19.49,14.092,20.187,13.5,21.5,13.5
		h5.098l-7.377,6.348L18.979,19.155z M4.205,19.829l7.387-6.329H6.5c-1.309,0-2.004,0.587-2.356,1.08
		c-0.864,1.208-0.658,3.144-0.177,4.552L4.205,19.829z"/>
</g>
<path id="stroke" fill="none" stroke="#000000" stroke-linecap="round" stroke-linejoin="round" stroke-miterlimit="10" d="
	M10.5,13.5c0,0,3,0,3,3c0,0,0,6-5,6s-5-6-5-6s0-3,3-3H10.5z M21.5,13.5c-3,0-3,3-3,3s0,6,5,6s5-6,5-6c0-3-3-3-3-3H21.5z M13.5,16.5
	h5 M10.5,13.5h12 M4.484,19.594l6.75-5.781 M19.5,19.609l6.688-5.75 M10.5,9.5l-2-2l-3.938,6.578 M27.469,14.078L23.531,7.5l-2,2"/>
<g id="lights_x5F_stroke">
	<path fill="none" stroke="#7FBFFF" stroke-linecap="round" stroke-miterlimit="10" d="M15.5,23.5v2 M14.5,24.5h2 M27.5,2.5v2
		 M26.5,3.5h2 M5.5,24.5v4 M3.5,26.5h4"/>
	<path fill="none" stroke="#2994FF" stroke-linecap="round" stroke-miterlimit="10" d="M4.5,3.5v2 M3.5,4.5h2 M25.5,25.5v2
		 M24.5,26.5h2 M17.5,3.5v4 M15.5,5.5h4"/>
</g>
</svg>
