<?xml version="1.0" encoding="utf-8"?>
<!-- Generator: Adobe Illustrator 16.0.0, SVG Export Plug-In . SVG Version: 6.00 Build 0)  -->
<!DOCTYPE svg PUBLIC "-//W3C//DTD SVG 1.1//EN" "http://www.w3.org/Graphics/SVG/1.1/DTD/svg11.dtd">
<svg version="1.1" id="Capa_1" xmlns="http://www.w3.org/2000/svg" xmlns:xlink="http://www.w3.org/1999/xlink" x="0px" y="0px"
	 width="32px" height="32px" viewBox="0 0 32 32" enable-background="new 0 0 32 32" xml:space="preserve">
<g id="color">
	<path fill="#FF5069" d="M16,20.5c-2.94,0-8.5-0.836-8.5-4c0-0.539,0.053-1.104,0.158-1.679l0.157-0.866l0.663,0.579
		C10.706,16.478,15.947,16.5,16,16.5c1.822,0,5.739-0.411,7.521-1.966l0.663-0.579l0.158,0.865c0.104,0.575,0.158,1.14,0.158,1.68
		C24.5,19.664,18.94,20.5,16,20.5z"/>
	<path fill="#565656" d="M16,25.5c-7.444,0-13.5-2.243-13.5-5c0-1.411,1.615-2.762,4.431-3.705l0.51-0.171l0.133,0.522
		C8.25,19.799,13.381,20.5,16,20.5c2.618,0,7.75-0.701,8.426-3.354l0.133-0.522l0.511,0.171c2.815,0.943,4.431,2.292,4.431,3.705
		C29.5,23.257,23.444,25.5,16,25.5z M23.991,14.028l0.145-0.194L24.072,13.6c-0.902-3.352-3.19-7.1-4.902-7.1
		c-1.855,0-2.418,0.968-2.772,1.576C16.212,8.389,16.124,8.5,16,8.5s-0.212-0.111-0.415-0.455C15.249,7.468,14.686,6.5,12.83,6.5
		c-1.711,0-4,3.749-4.903,7.1l-0.063,0.233l0.145,0.194C9.822,16.472,15.938,16.5,16,16.5S22.179,16.472,23.991,14.028z"/>
</g>
<path id="stroke" fill="none" stroke="#000000" stroke-miterlimit="10" d="M24.5,16.5c0,4-8.5,4-8.5,4s-8.5,0-8.5-4
	s3.222-10,5.333-10c2.667,0,2.667,2,3.167,2s0.5-2,3.167-2C21.277,6.5,24.5,12.5,24.5,16.5z M7.969,13.979
	C9.751,16.5,16,16.5,16,16.5s6.417,0,8.1-2.624 M7.349,16.661C4.385,17.578,2.5,18.957,2.5,20.5c0,2.762,6.044,5,13.5,5
	s13.5-2.238,13.5-5c0-1.535-1.866-2.908-4.804-3.825"/>
</svg>
