<?xml version="1.0" encoding="utf-8"?>
<!-- Generator: Adobe Illustrator 16.0.0, SVG Export Plug-In . SVG Version: 6.00 Build 0)  -->
<!DOCTYPE svg PUBLIC "-//W3C//DTD SVG 1.1//EN" "http://www.w3.org/Graphics/SVG/1.1/DTD/svg11.dtd">
<svg version="1.1" id="Capa_1" xmlns="http://www.w3.org/2000/svg" xmlns:xlink="http://www.w3.org/1999/xlink" x="0px" y="0px"
	 width="32px" height="32px" viewBox="0 0 32 32" enable-background="new 0 0 32 32" xml:space="preserve">
<g id="color">
	<path fill="#8C8C8C" d="M15.5,3.5c-7.17,0-13,5.83-13,13s5.83,13,13,13s13-5.83,13-13S22.67,3.5,15.5,3.5z M15.5,26.5
		c-5.51,0-10-4.49-10-10s4.49-10,10-10s10,4.49,10,10S21.01,26.5,15.5,26.5z"/>
	<path fill="#565656" d="M15.5,6.5c-5.51,0-10,4.49-10,10s4.49,10,10,10s10-4.49,10-10S21.01,6.5,15.5,6.5z M18.42,19.41h-0.01
		c-1.49-0.28-3.84-0.92-4.39-1.47c-0.39-0.37-0.6-0.9-0.61-1.46c0-0.55,0.22-1.07,0.62-1.46c0.38-0.39,0.9-0.61,1.46-0.61
		c0.55,0,1.07,0.22,1.46,0.61c0.43,0.44,1.01,2.16,1.47,4.38V19.41z"/>
	<path fill="#FFFFFF" d="M17.646,19.247c-0.753-0.175-1.502-0.378-2.108-0.57c-1.04-0.347-1.354-0.563-1.513-0.715
		c-0.402-0.415-0.615-0.937-0.615-1.482c0-0.532,0.219-1.063,0.601-1.458c0.412-0.399,0.933-0.612,1.479-0.612
		c0.539,0,1.057,0.213,1.457,0.6c0.524,0.539,1.039,2.509,1.3,3.637l0.181,0.78L17.646,19.247z"/>
	<path fill="#7FFF7B" d="M20.814,21.812l0.311-0.353c1.117-1.264,1.755-2.815,1.846-4.486l0.025-0.473h2.521l-0.028,0.526
		c-0.121,2.271-1.03,4.457-2.558,6.157l-0.353,0.393L20.814,21.812z"/>
	<path fill="#D4FF80" d="M22.996,16.5l-0.025-0.473c-0.091-1.67-0.729-3.222-1.846-4.486l-0.311-0.352l1.765-1.766l0.353,0.393
		c1.527,1.701,2.437,3.888,2.558,6.157l0.028,0.527H22.996z"/>
	<path fill="#FFDE52" d="M20.459,10.875c-1.264-1.116-2.814-1.754-4.486-1.846L15.5,9.003V6.482l0.527,0.028
		c2.27,0.122,4.457,1.03,6.157,2.558l0.393,0.353l-1.765,1.766L20.459,10.875z"/>
	<path fill="#FFBC5A" d="M8.423,9.42l0.393-0.353c1.701-1.527,3.888-2.436,6.157-2.558L15.5,6.482v2.521l-0.473,0.025
		c-1.672,0.091-3.223,0.729-4.486,1.846l-0.352,0.312L8.423,9.42z"/>
	<path fill="#FFA655" d="M5.482,16.5l0.028-0.527c0.122-2.27,1.03-4.457,2.558-6.157L8.42,9.423l1.766,1.766l-0.312,0.352
		c-1.116,1.263-1.754,2.814-1.846,4.486L8.003,16.5H5.482z"/>
	<path fill="#FF5069" d="M8.068,23.184c-1.527-1.7-2.436-3.887-2.558-6.157L5.482,16.5h2.521l0.025,0.473
		c0.091,1.672,0.729,3.223,1.846,4.486l0.312,0.353L8.42,23.576L8.068,23.184z"/>
</g>
<path id="stroke_1_" fill="none" stroke="#000000" stroke-miterlimit="10" d="M15.5,29.5c-7.18,0-13-5.82-13-13s5.82-13,13-13
	s13,5.82,13,13S22.68,29.5,15.5,29.5z M25.5,16.5c0-5.522-4.479-10-10-10c-5.522,0-10,4.478-10,10c0,5.521,4.478,10,10,10
	C21.021,26.5,25.5,22.021,25.5,16.5z M23,16.5c0-4.142-3.36-7.5-7.5-7.5C11.358,9,8,12.358,8,16.5c0,4.14,3.358,7.5,7.5,7.5
	C19.64,24,23,20.64,23,16.5z M15.5,6.5v2 M23.5,16.5h2 M5.5,16.5h2 M8.5,9.5L10,11 M22.5,9.5L21,11 M8.5,23.5L10,22 M22.5,23.5
	L21,22 M14.021,17.949c0.732,0.732,4.394,1.464,4.394,1.464s-0.733-3.66-1.465-4.392c-0.807-0.81-2.12-0.809-2.929,0
	C13.212,15.829,13.213,17.141,14.021,17.949z"/>
</svg>
