<?xml version="1.0" encoding="UTF-8" standalone="no"?>
<svg xmlns:dc="http://purl.org/dc/elements/1.1/" xmlns:cc="http://creativecommons.org/ns#" xmlns:rdf="http://www.w3.org/1999/02/22-rdf-syntax-ns#" xmlns:svg="http://www.w3.org/2000/svg" xmlns="http://www.w3.org/2000/svg" xmlns:sodipodi="http://sodipodi.sourceforge.net/DTD/sodipodi-0.dtd" xmlns:inkscape="http://www.inkscape.org/namespaces/inkscape" viewBox="0 0 232 231.99999" id="svg2" version="1.1" inkscape:version="0.91 r13725" sodipodi:docname="mastodon.svg" width="232" height="232">
    <metadata id="metadata10">
        <rdf:rdf>
            <cc:work rdf:about="">
                <dc:format>image/svg+xml</dc:format>
                <dc:type rdf:resource="http://purl.org/dc/dcmitype/StillImage"></dc:type>
                <dc:title></dc:title>
            </cc:work>
        </rdf:rdf>
    </metadata>
    <sodipodi:namedview pagecolor="#ffffff" bordercolor="#666666" borderopacity="1" objecttolerance="10" gridtolerance="10" guidetolerance="10" inkscape:pageopacity="0" inkscape:pageshadow="2" inkscape:window-width="1274" inkscape:window-height="773" id="namedview6" showgrid="false" inkscape:snap-bbox="true" inkscape:snap-bbox-midpoints="true" fit-margin-top="0" fit-margin-left="0" fit-margin-right="0" fit-margin-bottom="0" inkscape:zoom="0.50859928" inkscape:cx="266.30955" inkscape:cy="147.6884" inkscape:window-x="1797" inkscape:window-y="186" inkscape:window-maximized="0" inkscape:current-layer="svg2"></sodipodi:namedview>
    <path d="m 115.65791,-0.0046448 c -29.661238,0.2425 -58.192808,3.4535901 -74.820308,11.0898398 0,0 -32.9765597,14.752033 -32.9765597,65.082032 0,11.525 -0.22437,25.306173 0.1406295,39.919923 1.1975,49.22 9.0237502,97.72843 54.5312502,109.77343 20.9825,5.55375 38.997108,6.71547 53.505848,5.91797 26.31125,-1.45875 41.08203,-9.38867 41.08203,-9.38867 l -0.86914,-19.08984 c 0,0 -18.80171,5.92758 -39.91796,5.20508 -20.921248,-0.7175 -43.006878,-2.25516 -46.390628,-27.94141 -0.3125,-2.25625 -0.46875,-4.66938 -0.46875,-7.20313 0,0 20.53696,5.0204 46.564448,6.21289 15.915,0.73001 30.8393,-0.93343 45.99805,-2.74218 29.07,-3.47125 54.38125,-21.3818 57.5625,-37.74805 5.0125,-25.78125 4.59961,-62.916013 4.59961,-62.916013 0,-50.329999 -32.97461,-65.082032 -32.97461,-65.082032 C 174.59807,3.4489453 146.04768,0.2378552 116.38643,-0.0046448 l -0.72852,0 z M 82.089562,39.321528 c 12.355,0 21.710228,4.7493 27.896478,14.248049 l 6.01367,10.08008 6.01563,-10.08008 c 6.185,-9.498749 15.54023,-14.248049 27.89648,-14.248049 10.6775,0 19.28156,3.75367 25.85156,11.07617 6.36875,7.322499 9.53907,17.218829 9.53907,29.673829 l 0,60.941403 -24.14454,0 0,-59.148433 c 0,-12.46875 -5.24453,-18.79883 -15.73828,-18.79883 -11.6025,0 -17.41797,7.50852 -17.41797,22.35352 l 0,32.374993 -24.00195,0 0,-32.374993 c 0,-14.845 -5.815471,-22.35352 -17.417968,-22.35352 -10.49375,0 -15.74023,6.33008 -15.74023,18.79883 l 0,59.148433 -24.14453,0 0,-60.941403 c 0,-12.455 3.17101,-22.35133 9.54101,-29.673829 6.56875,-7.3225 15.17282,-11.07617 25.85157,-11.07617 z" id="path4" inkscape:connector-curvature="0"></path>
</svg>